<?xml version="1.0" encoding="UTF-8" standalone="no"?>
<!-- Created with Inkscape (http://www.inkscape.org/) -->

<svg
   xmlns:dc="http://purl.org/dc/elements/1.1/"
   xmlns:cc="http://creativecommons.org/ns#"
   xmlns:rdf="http://www.w3.org/1999/02/22-rdf-syntax-ns#"
   xmlns:svg="http://www.w3.org/2000/svg"
   xmlns="http://www.w3.org/2000/svg"
   xmlns:xlink="http://www.w3.org/1999/xlink"
   xmlns:sodipodi="http://sodipodi.sourceforge.net/DTD/sodipodi-0.dtd"
   xmlns:inkscape="http://www.inkscape.org/namespaces/inkscape"
   width="100"
   height="100"
   id="svg2"
   version="1.1"
   inkscape:version="0.48.4 r9939"
   sodipodi:docname="New document 1"
   viewBox="0 0 175 78"
   display="block"
   preserveAspectRatio="xMidYMin"
   
   >
<defs>
<style type="text/css"><![CDATA[
.connected {
  stroke: #199f4b;
  fill: #1e88e5;
}

.disconnected {
  stroke: #000000;
  fill: #000000;
}
    ]]></style>
</defs>
  <metadata
     id="metadata7">
    <rdf:RDF>
      <cc:Work
         rdf:about="">
        <dc:format>image/svg+xml</dc:format>
        <dc:type
           rdf:resource="http://purl.org/dc/dcmitype/StillImage" />
        <dc:title></dc:title>
      </cc:Work>
    </rdf:RDF>
  </metadata>
  <g
     inkscape:label="Layer 1"
     inkscape:groupmode="layer"
     id="layer1"
     transform="translate(-32.625,-568.46875)">
    <path
       d="m 104.55079,568.49911 0,77.78175 m 0,0 c -61.547726,0.46514 -66.341927,-77.06726 0,-77.27667"
       id="left-connector"
       />
    <path
       d="m 97.267414,581.40715 16.679716,-0.0774 c 0,0 11.92846,-0.14162 12.00041,7.2654 0.0811,8.34756 -12.00041,8.18667 -12.00041,8.18667 l -16.5585,-0.0774 z"
       id="top-pin"
       />
    <rect
       id="left-chord"
       width="34"
       height="9"
       x="33"
       y="601" />
    <path
       d="m 97.267419,616.49924 16.679711,-0.0774 c 0,0 11.92846,-0.14162 12.00041,7.2654 0.0811,8.34756 -12.00041,8.18667 -12.00041,8.18667 l -16.558502,-0.0774 z"
       id="bottom-pin"
       />
    <path
       d="m 133.5837,568.47027 0,77.78175 m 0,0 c 61.54772,0.46514 66.34192,-77.06726 0,-77.27667"
       id="right-connector"
       />
    <rect
       id="right-chord"
       width="34"
       height="9"
       x="173"
       y="601" />
  </g>
</svg>
