<?xml version="1.0" encoding="utf-8" standalone="no"?>
<!DOCTYPE svg PUBLIC "-//W3C//DTD SVG 1.1//EN"
  "http://www.w3.org/Graphics/SVG/1.1/DTD/svg11.dtd">
<!-- Created with matplotlib (http://matplotlib.org/) -->
<svg height="432pt" version="1.1" viewBox="0 0 576 432" width="576pt" xmlns="http://www.w3.org/2000/svg" xmlns:xlink="http://www.w3.org/1999/xlink">
 <defs>
  <style type="text/css">
*{stroke-linecap:butt;stroke-linejoin:round;}
  </style>
 </defs>
 <g id="figure_1">
  <g id="patch_1">
   <path d="
M0 432
L576 432
L576 0
L0 0
z
" style="fill:#ffffff;"/>
  </g>
  <g id="axes_1">
   <g id="patch_2">
    <path d="
M72 388.8
L518.4 388.8
L518.4 43.2
L72 43.2
z
" style="fill:#ffffff;"/>
   </g>
   <g id="patch_3">
    <path clip-path="url(#p7ff5b81e1d)" d="
M183.6 64.8
L189.18 75.6
L183.611 75.6
L183.611 216
L183.589 216
L183.589 75.6
L178.02 75.6
z
" style="stroke:#000000;stroke-linejoin:miter;"/>
   </g>
   <g id="patch_4">
    <path clip-path="url(#p7ff5b81e1d)" d="
M512.82 58.32
L507.24 63.72
L507.24 58.3416
L284.04 58.3416
L284.04 58.2984
L507.24 58.2984
L507.24 52.92
z
" style="stroke:#000000;stroke-linejoin:miter;"/>
   </g>
   <g id="patch_5">
    <path clip-path="url(#p7ff5b81e1d)" d="
M278.46 58.32
L284.04 52.92
L284.04 58.2984
L507.24 58.2984
L507.24 58.3416
L284.04 58.3416
L284.04 63.72
z
" style="stroke:#000000;stroke-linejoin:miter;"/>
   </g>
   <g id="line2d_1">
    <path clip-path="url(#p7ff5b81e1d)" d="
M72 71.5531
L74.232 74.6438
L76.464 78.2924
L78.696 82.4844
L80.928 87.2033
L83.16 92.4306
L85.392 98.1455
L87.624 104.326
L90.972 114.414
L94.32 125.404
L97.668 137.198
L101.016 149.692
L105.48 167.245
L111.06 190.235
L130.032 269.664
L134.496 286.958
L137.844 299.208
L141.192 310.719
L144.54 321.39
L147.888 331.125
L150.12 337.053
L152.352 342.502
L154.584 347.453
L156.816 351.885
L159.048 355.78
L161.28 359.124
L163.512 361.903
L165.744 364.106
L166.86 364.989
L167.976 365.724
L169.092 366.312
L170.208 366.752
L171.324 367.043
L172.44 367.185
L173.556 367.177
L174.672 367.021
L175.788 366.715
L176.904 366.261
L178.02 365.658
L179.136 364.908
L180.252 364.011
L182.484 361.779
L184.716 358.972
L186.948 355.601
L189.18 351.679
L191.412 347.221
L193.644 342.245
L195.876 336.772
L198.108 330.821
L201.456 321.054
L204.804 310.354
L208.152 298.816
L211.5 286.544
L215.964 269.226
L221.544 246.432
L230.472 208.644
L238.284 175.877
L242.748 157.922
L247.212 140.883
L250.56 128.868
L253.908 117.626
L257.256 107.256
L260.604 97.8527
L262.836 92.1613
L265.068 86.9586
L267.3 82.2652
L269.532 78.0996
L271.764 74.4783
L273.996 71.4154
L276.228 68.9232
L278.46 67.0114
L279.576 66.2756
L280.692 65.6876
L281.808 65.2479
L282.924 64.957
L284.04 64.8152
L285.156 64.8225
L286.272 64.9791
L287.388 65.2847
L288.504 65.739
L289.62 66.3416
L290.736 67.0919
L291.852 67.9892
L294.084 70.2209
L296.316 73.0279
L298.548 76.3992
L300.78 80.3214
L303.012 84.7791
L305.244 89.7546
L307.476 95.2284
L309.708 101.179
L313.056 110.946
L316.404 121.646
L319.752 133.184
L323.1 145.456
L327.564 162.774
L333.144 185.568
L342.072 223.356
L349.884 256.123
L354.348 274.078
L358.812 291.117
L362.16 303.132
L365.508 314.374
L368.856 324.744
L372.204 334.147
L374.436 339.839
L376.668 345.041
L378.9 349.735
L381.132 353.9
L383.364 357.522
L385.596 360.585
L387.828 363.077
L390.06 364.989
L391.176 365.724
L392.292 366.312
L393.408 366.752
L394.524 367.043
L395.64 367.185
L396.756 367.177
L397.872 367.021
L398.988 366.715
L400.104 366.261
L401.22 365.658
L402.336 364.908
L403.452 364.011
L405.684 361.779
L407.916 358.972
L410.148 355.601
L412.38 351.679
L414.612 347.221
L416.844 342.245
L419.076 336.772
L421.308 330.821
L424.656 321.054
L428.004 310.354
L431.352 298.816
L434.7 286.544
L439.164 269.226
L444.744 246.432
L453.672 208.644
L461.484 175.877
L465.948 157.922
L470.412 140.883
L473.76 128.868
L477.108 117.626
L480.456 107.256
L483.804 97.8527
L486.036 92.1613
L488.268 86.9586
L490.5 82.2652
L492.732 78.0996
L494.964 74.4783
L497.196 71.4154
L499.428 68.9232
L501.66 67.0114
L502.776 66.2756
L503.892 65.6876
L505.008 65.2479
L506.124 64.957
L507.24 64.8152
L508.356 64.8225
L509.472 64.9791
L510.588 65.2847
L511.704 65.739
L512.82 66.3416
L513.936 67.0919
L515.052 67.9892
L517.284 70.2209
L518.4 71.5531
L518.4 71.5531" style="fill:none;stroke:#000000;stroke-linecap:square;"/>
   </g>
   <g id="patch_6">
    <path d="
M72 43.2
L518.4 43.2" style="fill:none;stroke:#000000;stroke-linecap:square;stroke-linejoin:miter;"/>
   </g>
   <g id="patch_7">
    <path d="
M72 388.8
L518.4 388.8" style="fill:none;stroke:#000000;stroke-linecap:square;stroke-linejoin:miter;"/>
   </g>
   <g id="patch_8">
    <path d="
M72 388.8
L72 43.2" style="fill:none;stroke:#000000;stroke-linecap:square;stroke-linejoin:miter;"/>
   </g>
   <g id="patch_9">
    <path d="
M518.4 388.8
L518.4 43.2" style="fill:none;stroke:#000000;stroke-linecap:square;stroke-linejoin:miter;"/>
   </g>
   <g id="matplotlib.axis_1">
    <g id="xtick_1">
     <g id="line2d_2">
      <path clip-path="url(#p7ff5b81e1d)" d="
M72 388.8
L72 43.2" style="fill:none;stroke:#bdbdbd;stroke-dasharray:6.000000,6.000000;stroke-dashoffset:0.0;stroke-width:0.5;"/>
     </g>
     <g id="line2d_3">
      <defs>
       <path d="
M0 0
L0 -4" id="mc7db9fdffb" style="stroke:#000000;stroke-width:0.5;"/>
      </defs>
      <g>
       <use style="stroke:#000000;stroke-width:0.5;" x="72.0" xlink:href="#mc7db9fdffb" y="388.8"/>
      </g>
     </g>
     <g id="line2d_4">
      <defs>
       <path d="
M0 0
L0 4" id="m5a7d422ac3" style="stroke:#000000;stroke-width:0.5;"/>
      </defs>
      <g>
       <use style="stroke:#000000;stroke-width:0.5;" x="72.0" xlink:href="#m5a7d422ac3" y="43.2"/>
      </g>
     </g>
     <g id="text_1">
      <!-- $0$ -->
      <defs>
       <path d="
M26.2969 69
C10.7969 69 2.90625 56.6875 2.90625 32.4531
C2.90625 20.7188 5 10.625 8.5 5.71875
C12 0.796875 17.5938 -2 23.7969 -2
C38.9062 -2 46.5 11.0156 46.5 36.6562
C46.5 58.5781 40 69 26.2969 69
M24.5 65.5
C34.2031 65.5 38.0938 55.6875 38.0938 31.6406
C38.0938 10.3281 34.2969 1.5 25.0938 1.5
C15.4062 1.5 11.2969 11.625 11.2969 36.0625
C11.2969 57.1875 15 65.5 24.5 65.5" id="URW_Palladio_L_Roman-48"/>
      </defs>
      <g transform="translate(68.5130759651 402.77952928)scale(0.14 -0.14)">
       <use transform="scale(0.9962640099626402)" xlink:href="#URW_Palladio_L_Roman-48"/>
      </g>
     </g>
    </g>
    <g id="xtick_2">
     <g id="line2d_5">
      <path clip-path="url(#p7ff5b81e1d)" d="
M183.6 388.8
L183.6 43.2" style="fill:none;stroke:#bdbdbd;stroke-dasharray:6.000000,6.000000;stroke-dashoffset:0.0;stroke-width:0.5;"/>
     </g>
     <g id="line2d_6">
      <g>
       <use style="stroke:#000000;stroke-width:0.5;" x="183.6" xlink:href="#mc7db9fdffb" y="388.8"/>
      </g>
     </g>
     <g id="line2d_7">
      <g>
       <use style="stroke:#000000;stroke-width:0.5;" x="183.6" xlink:href="#m5a7d422ac3" y="43.2"/>
      </g>
     </g>
     <g id="text_2">
      <!-- $5$ -->
      <defs>
       <path d="
M12.7031 60.5781
C25.5938 60.5781 31.2031 60.5781 43.2031 60.5781
L43.7031 60.875
C43.5 62.6719 43.5 63.4688 43.5 64.7812
C43.5 66.2031 43.5 67 43.7031 68.7969
L43.2031 69
C35.7031 69 31.2031 69 25.7969 69
C20.2969 69 15.9062 69 8.40625 69
L7.90625 68.7969
C8 62.6719 8.09375 58.2656 8.09375 55.0469
C8.09375 46.5156 7.79688 36.875 7.5 32.4531
L9.5 31.8438
C14.2031 36.5938 16.9062 38 21.7969 38
C31.4062 38 37.4062 31.1406 37.4062 20.25
C37.4062 9.0625 31 2.5 20.0938 2.5
C14.7031 2.5 9.70312 4.32812 8.29688 6.9375
L3.70312 15.2031
L1.29688 13.7969
C3.59375 8.0625 4.79688 4.84375 6.20312 0.421875
C9 -1.10938 13 -2 17.2969 -2
C24 -2 31.0938 0.921875 36.5938 5.75
C42.7031 11.1875 45.9062 18.0312 45.9062 25.4688
C45.9062 36.8594 37.7969 44.9062 26.4062 44.9062
C21.5938 44.9062 18 43.6094 11.7969 39.9062
z
" id="URW_Palladio_L_Roman-53"/>
      </defs>
      <g transform="translate(180.113075965 402.77952928)scale(0.14 -0.14)">
       <use transform="scale(0.9962640099626402)" xlink:href="#URW_Palladio_L_Roman-53"/>
      </g>
     </g>
    </g>
    <g id="xtick_3">
     <g id="line2d_8">
      <path clip-path="url(#p7ff5b81e1d)" d="
M295.2 388.8
L295.2 43.2" style="fill:none;stroke:#bdbdbd;stroke-dasharray:6.000000,6.000000;stroke-dashoffset:0.0;stroke-width:0.5;"/>
     </g>
     <g id="line2d_9">
      <g>
       <use style="stroke:#000000;stroke-width:0.5;" x="295.2" xlink:href="#mc7db9fdffb" y="388.8"/>
      </g>
     </g>
     <g id="line2d_10">
      <g>
       <use style="stroke:#000000;stroke-width:0.5;" x="295.2" xlink:href="#m5a7d422ac3" y="43.2"/>
      </g>
     </g>
     <g id="text_3">
      <!-- $10$ -->
      <defs>
       <path d="
M6.70312 56
L7.70312 56
L20.5938 61.4062
C20.7031 61.5 20.7969 61.5 20.9062 61.5
C21.5 61.5 21.7031 60.6094 21.7031 58.2031
L21.7031 9.53125
C21.7031 4.29688 20.5938 3.20312 15.2031 3.20312
L9.59375 3.20312
L9.59375 0
C25 0 25 0 26.0938 0
C27.4062 0 29.5938 0 33 0
C34.2031 0 37.7031 0 41.7969 0
L41.7969 3.20312
L36.5938 3.20312
C31.0938 3.20312 30.0938 4.29688 30.0938 9.53125
L30.0938 69.0156
L28.7031 69.5156
C22.2031 66.1406 15.0938 63.1875 6 60.0156
z
" id="URW_Palladio_L_Roman-49"/>
      </defs>
      <g transform="translate(288.22615193 402.77952928)scale(0.14 -0.14)">
       <use transform="scale(0.9962640099626402)" xlink:href="#URW_Palladio_L_Roman-49"/>
       <use transform="translate(49.81320049813201 0.0)scale(0.9962640099626402)" xlink:href="#URW_Palladio_L_Roman-48"/>
      </g>
     </g>
    </g>
    <g id="xtick_4">
     <g id="line2d_11">
      <path clip-path="url(#p7ff5b81e1d)" d="
M406.8 388.8
L406.8 43.2" style="fill:none;stroke:#bdbdbd;stroke-dasharray:6.000000,6.000000;stroke-dashoffset:0.0;stroke-width:0.5;"/>
     </g>
     <g id="line2d_12">
      <g>
       <use style="stroke:#000000;stroke-width:0.5;" x="406.8" xlink:href="#mc7db9fdffb" y="388.8"/>
      </g>
     </g>
     <g id="line2d_13">
      <g>
       <use style="stroke:#000000;stroke-width:0.5;" x="406.8" xlink:href="#m5a7d422ac3" y="43.2"/>
      </g>
     </g>
     <g id="text_4">
      <!-- $15$ -->
      <g transform="translate(399.82615193 402.77952928)scale(0.14 -0.14)">
       <use transform="scale(0.9962640099626402)" xlink:href="#URW_Palladio_L_Roman-49"/>
       <use transform="translate(49.81320049813201 0.0)scale(0.9962640099626402)" xlink:href="#URW_Palladio_L_Roman-53"/>
      </g>
     </g>
    </g>
    <g id="xtick_5">
     <g id="line2d_14">
      <path clip-path="url(#p7ff5b81e1d)" d="
M518.4 388.8
L518.4 43.2" style="fill:none;stroke:#bdbdbd;stroke-dasharray:6.000000,6.000000;stroke-dashoffset:0.0;stroke-width:0.5;"/>
     </g>
     <g id="line2d_15">
      <g>
       <use style="stroke:#000000;stroke-width:0.5;" x="518.4" xlink:href="#mc7db9fdffb" y="388.8"/>
      </g>
     </g>
     <g id="line2d_16">
      <g>
       <use style="stroke:#000000;stroke-width:0.5;" x="518.4" xlink:href="#m5a7d422ac3" y="43.2"/>
      </g>
     </g>
     <g id="text_5">
      <!-- $20$ -->
      <defs>
       <path d="
M1.59375 2.51562
L1.59375 0
C20.2969 0 20.2969 0.203125 23.9062 0.203125
C27.5 0.203125 27.5 0 46.7969 0
C46.5938 1.95312 46.5938 2.90625 46.5938 4.20312
C46.5938 5.4375 46.5938 6.35938 46.7969 8.42188
C35.2969 8.42188 30.7031 8.42188 12.2031 8.42188
L30.4062 27.5156
C40.0938 37.7188 43.0938 43.1719 43.0938 50.5938
C43.0938 61.9688 35.2969 69 22.5938 69
C15.4062 69 10.5 67 5.59375 62.0156
L3.90625 48.4219
L6.79688 48.4219
L8.09375 53.0156
C9.70312 58.7969 13.2969 61.2969 20 61.2969
C28.5938 61.2969 34.0938 55.8906 34.0938 47.4219
C34.0938 39.9375 29.9062 32.5625 18.5938 20.5781
z
" id="URW_Palladio_L_Roman-50"/>
      </defs>
      <g transform="translate(511.42615193 402.77952928)scale(0.14 -0.14)">
       <use transform="scale(0.9962640099626402)" xlink:href="#URW_Palladio_L_Roman-50"/>
       <use transform="translate(49.81320049813201 0.0)scale(0.9962640099626402)" xlink:href="#URW_Palladio_L_Roman-48"/>
      </g>
     </g>
    </g>
    <g id="text_6">
     <!-- $t$ (s) -->
     <defs>
      <path d="
M4.09375 14.3281
C4.09375 7.42188 3.79688 4.40625 3 0.40625
C8.20312 -1.29688 12.0938 -2 16.7031 -2
C29.7969 -2 39.0938 5.01562 39.0938 14.8281
C39.0938 17.9375 38.2031 20.2344 36.2969 22.25
C33.7031 24.75 30.4062 25.9531 21.5938 27.6562
C13.4062 29.2656 10.7031 31.2656 10.7031 35.875
C10.7031 40.875 14.2031 43.6875 20.2969 43.6875
C27 43.6875 32.0938 40.1875 32.0938 35.4688
L32.0938 33.1719
L34.9062 33.1719
C35 38.9844 35.0938 41.375 35.4062 44.4844
C30.0938 46.2969 26.5 47 22.4062 47
C10.7969 47 3.70312 41.4844 3.70312 32.4688
C3.70312 27.6562 5.90625 24.25 10.5 22.1406
C13.2031 20.9375 18.5 19.3438 25.2969 17.8281
C29.7969 16.8281 31.7031 14.7344 31.7031 10.9219
C31.7031 5.51562 26.7031 1.70312 19.5938 1.70312
C12.2969 1.70312 7.09375 5.20312 7.09375 10.2188
L7.09375 14.3281
z
" id="URW_Palladio_L_Roman-115"/>
      <path d="
M30.0938 -19.4375
C22.9062 -10.5156 20.2969 -5.71875 17.7031 3.3125
C15.5938 10.5156 14.5938 18.1406 14.5938 26.6562
C14.5938 34.9688 15.5938 42.0781 17.5 48.5938
C20.0938 56.9062 22.7969 61.625 30.0938 70.1406
L28.2031 72.75
C17.7969 63.4219 13.7031 57.9219 9.90625 48.0938
C7.29688 41.375 6 34.2656 6 26.6562
C6 15.9375 8.5 5.8125 13.2969 -3.20312
C16.7969 -9.92188 20 -13.8281 28.2031 -21.5469
z
" id="URW_Palladio_L_Roman-40"/>
      <path d="
M5.09375 -21.5469
C12 -15.0312 14.9062 -11.7188 18 -6.8125
C24.0938 2.90625 27.2969 14.5312 27.2969 26.5469
C27.2969 34.2656 26 41.375 23.4062 48.0938
C19.5938 57.8125 15.5 63.3281 5.09375 72.75
L3.20312 70.1406
C10.5 61.5156 13.2031 56.8125 15.7031 48.5938
C17.7031 42.0781 18.7031 34.9688 18.7031 26.6562
C18.7031 18.1406 17.7031 10.5156 15.5938 3.3125
C13 -5.71875 10.4062 -10.5156 3.20312 -19.4375
z
" id="URW_Palladio_L_Roman-41"/>
      <path d="
M12.5 38.5156
L6.90625 10.4844
C6.79688 9.78125 6.70312 9.60938 6.40625 8.40625
C5.79688 5.64062 5.59375 4.14062 5.59375 2.96875
C5.59375 0.484375 6.70312 -1 8.59375 -1
C12.0938 -1 15.5938 0.96875 23.4062 7.23438
L24.9062 8.40625
L26.5 9.70312
L25.5 11.4844
L21 8.40625
C18.0938 6.4375 16.0938 5.4375 15 5.4375
C14.0938 5.4375 13.5938 6.23438 13.5938 7.40625
C13.5938 9.98438 15 18.0156 17.9062 32.375
L19.2031 38.5156
L29.9062 38.5156
L31 43.5
C27.2031 43 23.7969 43 20 43
C21.5938 52.3125 22.7031 57.1719 24.5 62.5156
L23.4062 64.0156
C21.4062 62.8281 18.7031 61.625 15.5938 60.4375
L13.0938 43.5
C8.70312 41.4062 6.09375 40.3125 4.29688 39.8125
L4.09375 38.5156
z
" id="URW_Palladio_L_Italic-116"/>
     </defs>
     <g transform="translate(283.445715834 421.692230916)scale(0.14 -0.14)">
      <use transform="scale(0.9962640099626402)" xlink:href="#URW_Palladio_L_Italic-116"/>
      <use transform="translate(59.32658232312423 0.0)scale(0.9962640099626402)" xlink:href="#URW_Palladio_L_Roman-40"/>
      <use transform="translate(92.50181205245954 0.0)scale(0.9962640099626402)" xlink:href="#URW_Palladio_L_Roman-115"/>
      <use transform="translate(134.7432783799035 0.0)scale(0.9962640099626402)" xlink:href="#URW_Palladio_L_Roman-41"/>
     </g>
    </g>
   </g>
   <g id="matplotlib.axis_2">
    <g id="ytick_1">
     <g id="line2d_17">
      <path clip-path="url(#p7ff5b81e1d)" d="
M72 388.8
L518.4 388.8" style="fill:none;stroke:#bdbdbd;stroke-dasharray:6.000000,6.000000;stroke-dashoffset:0.0;stroke-width:0.5;"/>
     </g>
     <g id="line2d_18">
      <defs>
       <path d="
M0 0
L4 0" id="md7965d1ba0" style="stroke:#000000;stroke-width:0.5;"/>
      </defs>
      <g>
       <use style="stroke:#000000;stroke-width:0.5;" x="72.0" xlink:href="#md7965d1ba0" y="388.8"/>
      </g>
     </g>
     <g id="line2d_19">
      <defs>
       <path d="
M0 0
L-4 0" id="md9a1c1a7cd" style="stroke:#000000;stroke-width:0.5;"/>
      </defs>
      <g>
       <use style="stroke:#000000;stroke-width:0.5;" x="518.4" xlink:href="#md9a1c1a7cd" y="388.8"/>
      </g>
     </g>
     <g id="text_7">
      <!-- $-4$ -->
      <defs>
       <path d="
M28 18
L28 10.5156
C28 4.51562 26.9062 3.10938 22 3.10938
L15.7969 3.10938
L15.7969 0
C29.0938 0 29.0938 0.203125 31.5 0.203125
C33.9062 0.203125 33.9062 0 47.2031 0
L47.2031 3.10938
L42.4062 3.10938
C37.5 3.10938 36.4062 4.40625 36.4062 10.4531
L36.4062 18
C42.2969 18 44.4062 18 47.2031 17.7031
L47.2031 24.8125
C42.5 24.4219 40.5938 24.4219 39.0938 24.4219
L38.7969 24.4219
L36.4062 24.4219
L36.4062 38.3906
C36.4062 56.25 36.5938 64.875 37.0938 69
L35.9062 69.5
L28.5 66.7969
L0.203125 20.2969
L1.29688 18
z

M28 24.4219
L6.5 24.4219
L28 59.7812
z
" id="URW_Palladio_L_Roman-52"/>
       <path d="
M65.9062 23
C67.5938 23 69.4062 23 69.4062 25
C69.4062 27 67.5938 27 65.9062 27
L11.7969 27
C10.0938 27 8.29688 27 8.29688 25
C8.29688 23 10.0938 23 11.7969 23
z
" id="CMSY10-0"/>
      </defs>
      <g transform="translate(49.5543092797 391.823178462)scale(0.14 -0.14)">
       <use transform="scale(1.0381069159596825)" xlink:href="#CMSY10-0"/>
       <use transform="translate(81.94169630000779 0.0)scale(0.9962640099626402)" xlink:href="#URW_Palladio_L_Roman-52"/>
      </g>
     </g>
    </g>
    <g id="ytick_2">
     <g id="line2d_20">
      <path clip-path="url(#p7ff5b81e1d)" d="
M72 345.6
L518.4 345.6" style="fill:none;stroke:#bdbdbd;stroke-dasharray:6.000000,6.000000;stroke-dashoffset:0.0;stroke-width:0.5;"/>
     </g>
     <g id="line2d_21">
      <g>
       <use style="stroke:#000000;stroke-width:0.5;" x="72.0" xlink:href="#md7965d1ba0" y="345.6"/>
      </g>
     </g>
     <g id="line2d_22">
      <g>
       <use style="stroke:#000000;stroke-width:0.5;" x="518.4" xlink:href="#md9a1c1a7cd" y="345.6"/>
      </g>
     </g>
     <g id="text_8">
      <!-- $-3$ -->
      <defs>
       <path d="
M4.29688 49.9531
L7.40625 49.9531
L9.20312 55.5312
C10.2969 58.9062 16.5938 62.2969 21.7969 62.2969
C28.2969 62.2969 33.5938 57.0156 33.5938 50.75
C33.5938 43.2812 27.7031 37 20.5938 37
C19.7969 37 18.7031 37.0938 17.4062 37.2031
L15.9062 37.2031
L14.7031 31.9844
L15.4062 31.375
C19.2031 33.0938 21.0938 33.5938 23.7969 33.5938
C32.0938 33.5938 36.9062 28.2656 36.9062 19.0938
C36.9062 8.84375 30.7969 2.10938 21.5 2.10938
C16.9062 2.10938 12.7969 3.60938 9.79688 6.42188
C7.40625 8.64062 6.09375 10.9531 4.20312 16.3906
L1.5 15.3906
C3.59375 9.26562 4.40625 5.64062 5 0.609375
C10.2969 -1.20312 14.7031 -2 18.4062 -2
C26.4062 -2 35.5938 2.51562 41.0938 9.26562
C44.5 13.375 46.2031 17.8125 46.2031 22.5312
C46.2031 27.3594 44.2031 31.5938 40.5938 34.0938
C38.0938 35.9062 35.7969 36.7188 30.7969 37.6094
C38.7969 43.7969 41.7969 48.375 41.7969 54.25
C41.7969 63.125 34.4062 69 23.2969 69
C16.5 69 12 67.1094 7.20312 62.3281
z
" id="URW_Palladio_L_Roman-51"/>
      </defs>
      <g transform="translate(49.5543092797 348.623178462)scale(0.14 -0.14)">
       <use transform="scale(1.0381069159596825)" xlink:href="#CMSY10-0"/>
       <use transform="translate(81.94169630000779 0.0)scale(0.9962640099626402)" xlink:href="#URW_Palladio_L_Roman-51"/>
      </g>
     </g>
    </g>
    <g id="ytick_3">
     <g id="line2d_23">
      <path clip-path="url(#p7ff5b81e1d)" d="
M72 302.4
L518.4 302.4" style="fill:none;stroke:#bdbdbd;stroke-dasharray:6.000000,6.000000;stroke-dashoffset:0.0;stroke-width:0.5;"/>
     </g>
     <g id="line2d_24">
      <g>
       <use style="stroke:#000000;stroke-width:0.5;" x="72.0" xlink:href="#md7965d1ba0" y="302.4"/>
      </g>
     </g>
     <g id="line2d_25">
      <g>
       <use style="stroke:#000000;stroke-width:0.5;" x="518.4" xlink:href="#md9a1c1a7cd" y="302.4"/>
      </g>
     </g>
     <g id="text_9">
      <!-- $-2$ -->
      <g transform="translate(49.5543092797 305.423178462)scale(0.14 -0.14)">
       <use transform="scale(1.0381069159596825)" xlink:href="#CMSY10-0"/>
       <use transform="translate(81.94169630000779 0.0)scale(0.9962640099626402)" xlink:href="#URW_Palladio_L_Roman-50"/>
      </g>
     </g>
    </g>
    <g id="ytick_4">
     <g id="line2d_26">
      <path clip-path="url(#p7ff5b81e1d)" d="
M72 259.2
L518.4 259.2" style="fill:none;stroke:#bdbdbd;stroke-dasharray:6.000000,6.000000;stroke-dashoffset:0.0;stroke-width:0.5;"/>
     </g>
     <g id="line2d_27">
      <g>
       <use style="stroke:#000000;stroke-width:0.5;" x="72.0" xlink:href="#md7965d1ba0" y="259.2"/>
      </g>
     </g>
     <g id="line2d_28">
      <g>
       <use style="stroke:#000000;stroke-width:0.5;" x="518.4" xlink:href="#md9a1c1a7cd" y="259.2"/>
      </g>
     </g>
     <g id="text_10">
      <!-- $-1$ -->
      <g transform="translate(49.5543092797 262.223178462)scale(0.14 -0.14)">
       <use transform="scale(1.0381069159596825)" xlink:href="#CMSY10-0"/>
       <use transform="translate(81.94169630000779 0.0)scale(0.9962640099626402)" xlink:href="#URW_Palladio_L_Roman-49"/>
      </g>
     </g>
    </g>
    <g id="ytick_5">
     <g id="line2d_29">
      <path clip-path="url(#p7ff5b81e1d)" d="
M72 216
L518.4 216" style="fill:none;stroke:#bdbdbd;stroke-dasharray:6.000000,6.000000;stroke-dashoffset:0.0;stroke-width:0.5;"/>
     </g>
     <g id="line2d_30">
      <g>
       <use style="stroke:#000000;stroke-width:0.5;" x="72.0" xlink:href="#md7965d1ba0" y="216.0"/>
      </g>
     </g>
     <g id="line2d_31">
      <g>
       <use style="stroke:#000000;stroke-width:0.5;" x="518.4" xlink:href="#md9a1c1a7cd" y="216.0"/>
      </g>
     </g>
     <g id="text_11">
      <!-- $0$ -->
      <g transform="translate(61.0261519303 219.023178462)scale(0.14 -0.14)">
       <use transform="scale(0.9962640099626402)" xlink:href="#URW_Palladio_L_Roman-48"/>
      </g>
     </g>
    </g>
    <g id="ytick_6">
     <g id="line2d_32">
      <path clip-path="url(#p7ff5b81e1d)" d="
M72 172.8
L518.4 172.8" style="fill:none;stroke:#bdbdbd;stroke-dasharray:6.000000,6.000000;stroke-dashoffset:0.0;stroke-width:0.5;"/>
     </g>
     <g id="line2d_33">
      <g>
       <use style="stroke:#000000;stroke-width:0.5;" x="72.0" xlink:href="#md7965d1ba0" y="172.8"/>
      </g>
     </g>
     <g id="line2d_34">
      <g>
       <use style="stroke:#000000;stroke-width:0.5;" x="518.4" xlink:href="#md9a1c1a7cd" y="172.8"/>
      </g>
     </g>
     <g id="text_12">
      <!-- $1$ -->
      <g transform="translate(61.0261519303 175.823178462)scale(0.14 -0.14)">
       <use transform="scale(0.9962640099626402)" xlink:href="#URW_Palladio_L_Roman-49"/>
      </g>
     </g>
    </g>
    <g id="ytick_7">
     <g id="line2d_35">
      <path clip-path="url(#p7ff5b81e1d)" d="
M72 129.6
L518.4 129.6" style="fill:none;stroke:#bdbdbd;stroke-dasharray:6.000000,6.000000;stroke-dashoffset:0.0;stroke-width:0.5;"/>
     </g>
     <g id="line2d_36">
      <g>
       <use style="stroke:#000000;stroke-width:0.5;" x="72.0" xlink:href="#md7965d1ba0" y="129.6"/>
      </g>
     </g>
     <g id="line2d_37">
      <g>
       <use style="stroke:#000000;stroke-width:0.5;" x="518.4" xlink:href="#md9a1c1a7cd" y="129.6"/>
      </g>
     </g>
     <g id="text_13">
      <!-- $2$ -->
      <g transform="translate(61.0261519303 132.623178462)scale(0.14 -0.14)">
       <use transform="scale(0.9962640099626402)" xlink:href="#URW_Palladio_L_Roman-50"/>
      </g>
     </g>
    </g>
    <g id="ytick_8">
     <g id="line2d_38">
      <path clip-path="url(#p7ff5b81e1d)" d="
M72 86.4
L518.4 86.4" style="fill:none;stroke:#bdbdbd;stroke-dasharray:6.000000,6.000000;stroke-dashoffset:0.0;stroke-width:0.5;"/>
     </g>
     <g id="line2d_39">
      <g>
       <use style="stroke:#000000;stroke-width:0.5;" x="72.0" xlink:href="#md7965d1ba0" y="86.4"/>
      </g>
     </g>
     <g id="line2d_40">
      <g>
       <use style="stroke:#000000;stroke-width:0.5;" x="518.4" xlink:href="#md9a1c1a7cd" y="86.4"/>
      </g>
     </g>
     <g id="text_14">
      <!-- $3$ -->
      <g transform="translate(61.0261519303 89.4231784616)scale(0.14 -0.14)">
       <use transform="scale(0.9962640099626402)" xlink:href="#URW_Palladio_L_Roman-51"/>
      </g>
     </g>
    </g>
    <g id="ytick_9">
     <g id="line2d_41">
      <path clip-path="url(#p7ff5b81e1d)" d="
M72 43.2
L518.4 43.2" style="fill:none;stroke:#bdbdbd;stroke-dasharray:6.000000,6.000000;stroke-dashoffset:0.0;stroke-width:0.5;"/>
     </g>
     <g id="line2d_42">
      <g>
       <use style="stroke:#000000;stroke-width:0.5;" x="72.0" xlink:href="#md7965d1ba0" y="43.2"/>
      </g>
     </g>
     <g id="line2d_43">
      <g>
       <use style="stroke:#000000;stroke-width:0.5;" x="518.4" xlink:href="#md9a1c1a7cd" y="43.2"/>
      </g>
     </g>
     <g id="text_15">
      <!-- $4$ -->
      <g transform="translate(61.0261519303 46.2231784616)scale(0.14 -0.14)">
       <use transform="scale(0.9962640099626402)" xlink:href="#URW_Palladio_L_Roman-52"/>
      </g>
     </g>
    </g>
    <g id="text_16">
     <!-- $\eta \left( t \right)$ ($m$) -->
     <defs>
      <path d="
M33.0938 -24
C33.0938 -23.7031 33.0938 -23.5 31.4062 -21.7969
C18.9062 -9.125 15.7031 9.85938 15.7031 25.2188
C15.7031 42.7031 19.5 60.1875 31.7969 72.7344
C33.0938 73.9375 33.0938 74.1406 33.0938 74.4375
C33.0938 75.1406 32.7031 75.4531 32.0938 75.4531
C31.0938 75.4531 22.0938 68.625 16.2031 55.8594
C11.0938 44.8125 9.90625 33.6562 9.90625 25.2188
C9.90625 17.3906 11 5.23438 16.5 -6.125
C22.5 -18.4688 31.0938 -25 32.0938 -25
C32.7031 -25 33.0938 -24.7031 33.0938 -24" id="CMR10-40"/>
      <path d="
M28.9062 25.2188
C28.9062 33.0625 27.7969 45.2188 22.2969 56.5625
C16.2969 68.9219 7.70312 75.4531 6.70312 75.4531
C6.09375 75.4531 5.70312 75.0469 5.70312 74.4375
C5.70312 74.1406 5.70312 73.9375 7.59375 72.1406
C17.4062 62.1875 23.0938 46.2188 23.0938 25.2188
C23.0938 8.04688 19.4062 -9.64062 7 -22.2969
C5.70312 -23.5 5.70312 -23.7031 5.70312 -24
C5.70312 -24.6094 6.09375 -25 6.70312 -25
C7.70312 -25 16.7031 -18.1719 22.5938 -5.42188
C27.7031 5.64062 28.9062 16.7812 28.9062 25.2188" id="CMR10-41"/>
      <path d="
M73 10.1719
L70.4062 8.48438
C67.5 6.57812 65.2969 5.48438 64.2969 5.48438
C63.5938 5.48438 63 6.375 63 7.46875
C63 8.46875 63.2031 9.375 63.7031 11.4688
L71.2031 41.1094
C71.5938 42.7969 71.9062 44.3906 71.9062 45.2031
C71.9062 46.9062 70.9062 48 69.2969 48
C66.4062 48 62.5938 46.2031 56.5 41.9062
C50.2031 37.4062 46.7031 33.9219 41.7969 27.0312
L44.7969 40.7188
C45.2031 42.7031 45.5 44.2031 45.5 44.9062
C45.5 46.7969 44.5 48 42.9062 48
C39.9062 48 35.2969 45.8125 29.7969 41.6094
C25.4062 38.2031 23.4062 36.1094 16.9062 27.3281
L20.2031 40.6094
C20.5938 42.2031 20.7969 43.7031 20.7969 44.8906
C20.7969 46.7969 19.9062 48 18.5 48
C16.4062 48 12.5938 45.9062 5.20312 40.5938
L2.40625 38.6094
L3.09375 36.6094
L6.29688 38.7031
C10 41.0156 10.2969 41.2031 11 41.2031
C12.0938 41.2031 12.7969 40.2188 12.7969 38.7188
C12.7969 33.625 8.70312 14.3594 4.59375 0.09375
L4.90625 -1
L11.7031 0.484375
L13.9062 10.6719
C16.2969 21.75 19 27.6406 24.5 33.625
C28.7031 38.2188 33.2031 41.2031 36 41.2031
C36.7031 41.2031 37.0938 40.4062 37.0938 39.125
C37.0938 35.625 34.9062 24.25 30.7969 6.78125
L29.2031 0.09375
L29.7031 -1
L36.5938 0.484375
L38.7031 11.1719
C40.2969 19.25 43.7031 26.7344 48.0938 31.6406
C53.5938 37.7188 58.5938 41.2031 61.7969 41.2031
C62.5938 41.2031 63.0938 40.3125 63.0938 38.7188
C63.0938 36.3125 62.7969 34.9219 60.5938 26.2344
C59 19.9531 57.2969 13.9688 56.2969 10.5781
C55.4062 7.76562 55 5.1875 55 3
C55 0.484375 56.0938 -1 58 -1
C60.5938 -1 64.2031 1.07812 74 8.375
z
" id="URW_Palladio_L_Italic-109"/>
      <path d="
M2.40625 39.3906
L3.09375 37.375
L7.59375 40.2812
C9.59375 41.5938 10.4062 42 11 42
C12.0938 42 12.7969 40.9844 12.7969 39.4844
C12.7969 34.2656 8.70312 15.0781 4.59375 0.625
L5.29688 -0.484375
C7.79688 0.21875 10.0938 0.828125 12.2969 1.21875
C14.2031 13.875 16.2969 20.4062 20.9062 27.4375
C26.4062 35.7656 33.7969 42 38.2969 42
C39.4062 42 40 41.1875 40 39.5781
C40 37.6719 39.7031 35.7656 38.9062 32.4531
L25.2031 -21.9688
C24.7031 -23.5781 23.7969 -24.8906 23 -25.8906
L23.9062 -27.2969
C27 -26.4844 30.0938 -25.8906 32.5 -25.5781
C32.7031 -22.6719 32.9062 -20.75 33.5 -18.3438
L47 38.0156
C47.9062 40.9531 48.2969 43.5625 48.2969 45.4688
C48.2969 47.6875 47.2031 49 45.2969 49
C41.0938 49 34.4062 45.3438 28.5938 39.8906
C24.7031 36.3438 21.7031 32.7031 16.4062 25.2188
L20.2031 41.5156
C20.5938 43.4219 20.7969 44.5469 20.7969 45.6562
C20.7969 47.7812 20 49 18.5 49
C16.4062 49 12.5938 46.8594 5.20312 41.4219
z
" id="Pazo_Math_Italic-104"/>
     </defs>
     <g transform="translate(40.6211369231 241.56017808)rotate(-90.0)scale(0.14 -0.14)">
      <use transform="translate(0.0 1.0460802508172478)scale(0.9962640099626402)" xlink:href="#Pazo_Math_Italic-104"/>
      <use transform="translate(73.98917268251869 0.0)scale(1.0381069159596825)" xlink:href="#CMR10-40"/>
      <use transform="translate(116.72887742742063 1.0460802508172478)scale(0.9962640099626402)" xlink:href="#URW_Palladio_L_Italic-116"/>
      <use transform="translate(152.39415911036738 0.0)scale(1.0381069159596825)" xlink:href="#CMR10-41"/>
      <use transform="translate(218.79516449544678 1.0460802508172478)scale(0.9962640099626402)" xlink:href="#URW_Palladio_L_Roman-40"/>
      <use transform="translate(253.21569383367063 1.0460802508172478)scale(0.9962640099626402)" xlink:href="#URW_Palladio_L_Italic-109"/>
      <use transform="translate(331.97042766870334 1.0460802508172478)scale(0.9962640099626402)" xlink:href="#URW_Palladio_L_Roman-41"/>
     </g>
    </g>
   </g>
   <g id="text_17">
    <!-- A -->
    <defs>
     <path d="
M40.7969 70.5
L37.5938 70.5
C35.7969 66.1719 34.2969 62.4688 33.7031 60.9688
L28.4062 48.8125
L10.5938 8.15625
C9.40625 5.23438 7.40625 3.42188 5.20312 3.21875
L1.5 2.92188
L1.5 0
C10.7969 0 10.7969 0.203125 12.4062 0.203125
C13.7031 0.203125 13.7031 0 24.5 0
L24.5 2.92188
L20.7969 3.21875
C17.2969 3.53125 16 4.21875 16 5.79688
C16 7.09375 17.4062 11.3594 19.5 16.3438
L22.2969 23
L51.0938 23
L55.7031 11.4531
C57.4062 7.23438 57.7969 5.92188 57.7969 5.03125
C57.7969 3.92188 56.2031 3.21875 53.7031 3.01562
L49 3.01562
L49 0
C61.2969 0 61.2969 0.203125 62.9062 0.203125
C64.7969 0.203125 64.7969 0 75.5938 0
L75.5938 2.92188
L72.2031 3.21875
C69.5938 3.625 68.5 5.32812 65 13.4531
z

M24 27
L36.7031 57.0781
L49.2969 27
z
" id="URW_Palladio_L_Roman-65"/>
    </defs>
    <g transform="translate(161.28 140.4)scale(0.14 -0.14)">
     <use transform="scale(0.9962640099626402)" xlink:href="#URW_Palladio_L_Roman-65"/>
    </g>
   </g>
   <g id="text_18">
    <!-- T -->
    <defs>
     <path d="
M25.5 64.2812
C25.7969 60.875 25.9062 58.5781 25.9062 54.2656
L25.9062 11.9219
C25.9062 4 25.4062 3.20312 20.7969 3.20312
L16 3.20312
L16 0
C21.9062 0 25.4062 0 30.5938 0
C35.7969 0 39.4062 0 45.2969 0
L45.2969 3.20312
L40.5 3.20312
C35.9062 3.20312 35.4062 4 35.4062 11.9219
L35.4062 54.2656
C35.4062 58.7812 35.5 60.9844 35.7969 64.2812
L51.2969 64.2812
C54.0938 64.2812 55.2031 63.3906 55.2969 61
L55.7031 53.125
L58.7969 53.125
C58.7969 59.5312 59 63.375 59.5 69
C52.2969 69 49 69 46.2031 69
C42.2969 69 39.4062 69 37.9062 69
L22.0938 69
C21.0938 69 15.7031 69 8.59375 69
L1.79688 69
C2.29688 63.375 2.5 59.5312 2.5 53.125
L5.59375 53.125
L6 61
C6.09375 63.3906 7.20312 64.2812 10 64.2812
z
" id="URW_Palladio_L_Roman-84"/>
    </defs>
    <g transform="translate(395.64 79.92)scale(0.14 -0.14)">
     <use transform="scale(0.9962640099626402)" xlink:href="#URW_Palladio_L_Roman-84"/>
    </g>
   </g>
  </g>
 </g>
 <defs>
  <clipPath id="p7ff5b81e1d">
   <rect height="345.6" width="446.4" x="72.0" y="43.2"/>
  </clipPath>
 </defs>
</svg>
