<?xml version="1.0" encoding="utf-8" standalone="no"?>
<!DOCTYPE svg PUBLIC "-//W3C//DTD SVG 1.1//EN"
  "http://www.w3.org/Graphics/SVG/1.1/DTD/svg11.dtd">
<!-- Created with matplotlib (http://matplotlib.org/) -->
<svg height="432pt" version="1.1" viewBox="0 0 576 432" width="576pt" xmlns="http://www.w3.org/2000/svg" xmlns:xlink="http://www.w3.org/1999/xlink">
 <defs>
  <style type="text/css">
*{stroke-linecap:butt;stroke-linejoin:round;}
  </style>
 </defs>
 <g id="figure_1">
  <g id="patch_1">
   <path d="
M0 432
L576 432
L576 0
L0 0
z
" style="fill:#ffffff;"/>
  </g>
  <g id="axes_1">
   <g id="patch_2">
    <path d="
M72 388.8
L518.4 388.8
L518.4 43.2
L72 43.2
z
" style="fill:#ffffff;"/>
   </g>
   <g id="line2d_1">
    <path clip-path="url(#p7ff5b81e1d)" d="
M72 91.0664
L72.7812 96.5356
L73.7856 105.365
L74.9016 117.378
L76.2408 134.505
L77.8032 157.549
L79.9236 192.407
L84.9456 276.277
L86.6196 299.86
L87.9588 315.76
L89.0748 326.616
L90.0792 334.329
L90.972 339.445
L91.6416 342.171
L92.1996 343.7
L92.646 344.436
L92.9808 344.701
L93.3156 344.723
L93.6504 344.501
L94.0968 343.829
L94.5432 342.732
L95.1012 340.772
L95.7708 337.578
L96.552 332.735
L97.4448 325.81
L98.5608 315.247
L99.9 300.146
L101.574 278.356
L104.029 242.974
L107.489 193.443
L109.163 172.548
L110.502 158.299
L111.618 148.457
L112.622 141.361
L113.515 136.549
L114.296 133.537
L114.966 131.862
L115.412 131.214
L115.859 130.94
L116.194 130.978
L116.528 131.224
L116.975 131.871
L117.533 133.185
L118.202 135.481
L118.984 139.113
L119.876 144.44
L120.881 151.798
L122.108 162.487
L123.671 178.196
L126.126 205.562
L129.139 238.661
L130.702 253.508
L131.929 263.324
L133.045 270.518
L133.938 274.941
L134.719 277.766
L135.389 279.377
L135.947 280.134
L136.393 280.351
L136.728 280.285
L137.063 280.024
L137.509 279.372
L138.067 278.071
L138.737 275.808
L139.518 272.225
L140.411 266.939
L141.415 259.577
L142.643 248.762
L144.094 233.847
L146.102 210.572
L150.79 155.207
L152.24 140.921
L153.468 130.857
L154.472 124.279
L155.365 119.833
L156.035 117.426
L156.593 116.054
L157.039 115.384
L157.486 115.1
L157.82 115.143
L158.155 115.408
L158.602 116.107
L159.16 117.536
L159.829 120.065
L160.61 124.123
L161.503 130.183
L162.508 138.731
L163.624 150.22
L164.963 166.454
L166.637 189.78
L168.98 226.016
L172.886 286.658
L174.56 309.213
L175.9 324.547
L177.016 335.064
L178.02 342.544
L178.801 346.959
L179.471 349.72
L180.029 351.279
L180.475 352.032
L180.81 352.305
L181.145 352.329
L181.48 352.101
L181.926 351.407
L182.372 350.269
L182.93 348.226
L183.6 344.878
L184.381 339.767
L185.274 332.402
L186.278 322.295
L187.506 307.572
L188.957 287.318
L190.854 257.37
L197.662 146.357
L199.112 127.766
L200.34 114.697
L201.344 106.06
L202.237 100.057
L203.018 96.1534
L203.688 93.8357
L204.246 92.6375
L204.692 92.1606
L205.027 92.0834
L205.362 92.2455
L205.697 92.6455
L206.143 93.5453
L206.701 95.2503
L207.371 98.1268
L208.152 102.585
L209.045 109.053
L210.161 119.023
L211.388 132.104
L212.951 151.307
L215.183 181.885
L219.2 237.261
L220.874 257.108
L222.214 270.52
L223.33 279.679
L224.334 286.181
L225.227 290.486
L225.896 292.772
L226.454 294.051
L226.901 294.662
L227.347 294.907
L227.682 294.852
L228.017 294.593
L228.463 293.936
L229.021 292.618
L229.691 290.332
L230.472 286.73
L231.365 281.46
L232.369 274.192
L233.597 263.648
L235.159 248.171
L237.614 221.261
L240.516 189.961
L242.078 175.349
L243.306 165.702
L244.422 158.653
L245.315 154.344
L246.096 151.619
L246.766 150.097
L247.212 149.509
L247.658 149.269
L247.993 149.318
L248.328 149.565
L248.774 150.201
L249.332 151.487
L250.002 153.743
L250.783 157.337
L251.676 162.664
L252.68 170.114
L253.908 181.109
L255.359 196.35
L257.256 218.912
L262.724 285.593
L264.175 299.824
L265.291 308.861
L266.296 315.325
L267.077 319.15
L267.746 321.537
L268.304 322.871
L268.751 323.5
L269.086 323.711
L269.42 323.697
L269.755 323.457
L270.202 322.782
L270.76 321.37
L271.318 319.326
L271.987 316.048
L272.768 311.109
L273.661 304.044
L274.777 293.209
L276.005 278.96
L277.456 259.445
L279.353 230.681
L285.826 129.418
L287.276 111.412
L288.504 98.7935
L289.508 90.5239
L290.401 84.865
L291.182 81.2916
L291.852 79.2872
L292.298 78.5038
L292.633 78.2091
L292.968 78.1663
L293.303 78.3757
L293.638 78.8372
L294.084 79.8431
L294.642 81.7236
L295.312 84.8806
L296.093 89.7737
L296.986 96.8961
L297.99 106.739
L299.218 121.147
L300.668 141.043
L302.566 170.546
L309.485 281.797
L310.936 299.977
L312.163 312.705
L313.168 321.077
L314.06 326.862
L314.842 330.591
L315.511 332.776
L316.069 333.875
L316.516 334.282
L316.85 334.312
L317.185 334.109
L317.632 333.476
L318.078 332.435
L318.636 330.572
L319.306 327.534
L320.087 322.929
L320.98 316.354
L322.096 306.35
L323.435 292.098
L325.109 271.648
L327.899 234.197
L330.689 197.666
L332.363 178.539
L333.702 165.624
L334.818 156.826
L335.822 150.608
L336.604 146.957
L337.273 144.682
L337.831 143.4
L338.278 142.778
L338.724 142.516
L339.059 142.554
L339.394 142.792
L339.84 143.418
L340.398 144.689
L341.068 146.912
L341.849 150.429
L342.742 155.594
L343.746 162.737
L344.974 173.125
L346.536 188.41
L348.991 215.058
L351.893 246.133
L353.455 260.657
L354.683 270.244
L355.799 277.239
L356.692 281.501
L357.473 284.179
L358.031 285.464
L358.589 286.21
L359.035 286.412
L359.37 286.332
L359.705 286.052
L360.151 285.368
L360.709 284.014
L361.379 281.664
L362.16 277.943
L363.053 272.445
L364.057 264.764
L365.285 253.431
L366.736 237.699
L368.633 214.346
L374.436 140.775
L375.887 126.14
L377.003 116.874
L378.007 110.264
L378.788 106.365
L379.458 103.942
L380.016 102.595
L380.462 101.968
L380.797 101.765
L381.132 101.792
L381.467 102.051
L381.913 102.758
L382.471 104.225
L383.141 106.836
L383.922 111.04
L384.815 117.33
L385.819 126.214
L386.935 138.167
L388.274 155.073
L389.948 179.395
L392.292 217.27
L396.421 284.478
L398.095 308.064
L399.434 324.137
L400.55 335.216
L401.555 343.164
L402.448 348.495
L403.117 351.372
L403.675 353.017
L404.122 353.833
L404.568 354.201
L404.903 354.183
L405.238 353.912
L405.684 353.159
L406.242 351.593
L406.912 348.81
L407.693 344.347
L408.586 337.704
L409.59 328.384
L410.706 315.94
L412.045 298.497
L413.719 273.675
L416.286 231.868
L419.634 177.834
L421.42 152.592
L422.87 135.203
L424.098 123.166
L425.102 115.36
L425.995 110.068
L426.776 106.755
L427.446 104.911
L427.892 104.196
L428.339 103.892
L428.674 103.932
L429.008 104.2
L429.455 104.91
L430.013 106.353
L430.682 108.881
L431.464 112.885
L432.356 118.773
L433.361 126.929
L434.588 138.826
L436.151 156.424
L438.383 184.568
L442.289 234.094
L443.963 252.269
L445.302 264.438
L446.418 272.633
L447.311 277.776
L448.092 281.183
L448.762 283.262
L449.32 284.392
L449.766 284.898
L450.101 285.045
L450.436 284.994
L450.77 284.746
L451.217 284.11
L451.775 282.832
L452.444 280.607
L453.226 277.094
L454.118 271.94
L455.123 264.815
L456.35 254.448
L457.913 239.179
L460.256 213.755
L463.381 180.228
L464.944 165.788
L466.171 156.303
L467.176 150.036
L468.068 145.738
L468.85 143.037
L469.408 141.743
L469.966 140.994
L470.412 140.794
L470.747 140.879
L471.082 141.168
L471.528 141.869
L472.086 143.253
L472.756 145.654
L473.537 149.457
L474.43 155.081
L475.434 162.948
L476.662 174.579
L478.112 190.769
L479.898 213.414
L486.371 298.402
L487.71 312.066
L488.826 321.433
L489.83 328.06
L490.612 331.925
L491.281 334.289
L491.839 335.566
L492.286 336.126
L492.62 336.271
L492.955 336.181
L493.29 335.853
L493.736 335.047
L494.294 333.444
L494.964 330.655
L495.745 326.225
L496.638 319.657
L497.642 310.443
L498.758 298.108
L500.098 280.738
L501.772 255.849
L504.115 217.25
L508.133 150.791
L509.807 126.719
L511.146 110.251
L512.374 97.8244
L513.378 89.7975
L514.271 84.4047
L514.94 81.4839
L515.498 79.804
L515.945 78.9599
L516.391 78.5629
L516.726 78.559
L517.061 78.8068
L517.507 79.5272
L517.954 80.6902
L518.4 82.2908
L518.4 82.2908" style="fill:none;stroke:#000000;stroke-linecap:square;"/>
   </g>
   <g id="patch_3">
    <path d="
M72 388.8
L518.4 388.8" style="fill:none;stroke:#000000;stroke-linecap:square;stroke-linejoin:miter;"/>
   </g>
   <g id="patch_4">
    <path d="
M72 43.2
L518.4 43.2" style="fill:none;stroke:#000000;stroke-linecap:square;stroke-linejoin:miter;"/>
   </g>
   <g id="patch_5">
    <path d="
M518.4 388.8
L518.4 43.2" style="fill:none;stroke:#000000;stroke-linecap:square;stroke-linejoin:miter;"/>
   </g>
   <g id="patch_6">
    <path d="
M72 388.8
L72 43.2" style="fill:none;stroke:#000000;stroke-linecap:square;stroke-linejoin:miter;"/>
   </g>
   <g id="matplotlib.axis_1">
    <g id="xtick_1">
     <g id="line2d_2">
      <path clip-path="url(#p7ff5b81e1d)" d="
M72 388.8
L72 43.2" style="fill:none;stroke:#bdbdbd;stroke-dasharray:6.000000,6.000000;stroke-dashoffset:0.0;stroke-width:0.5;"/>
     </g>
     <g id="line2d_3">
      <defs>
       <path d="
M0 0
L0 -4" id="mc7db9fdffb" style="stroke:#000000;stroke-width:0.5;"/>
      </defs>
      <g>
       <use style="stroke:#000000;stroke-width:0.5;" x="72.0" xlink:href="#mc7db9fdffb" y="388.8"/>
      </g>
     </g>
     <g id="line2d_4">
      <defs>
       <path d="
M0 0
L0 4" id="m5a7d422ac3" style="stroke:#000000;stroke-width:0.5;"/>
      </defs>
      <g>
       <use style="stroke:#000000;stroke-width:0.5;" x="72.0" xlink:href="#m5a7d422ac3" y="43.2"/>
      </g>
     </g>
     <g id="text_1">
      <!-- $0$ -->
      <defs>
       <path d="
M26.2969 69
C10.7969 69 2.90625 56.6875 2.90625 32.4531
C2.90625 20.7188 5 10.625 8.5 5.71875
C12 0.796875 17.5938 -2 23.7969 -2
C38.9062 -2 46.5 11.0156 46.5 36.6562
C46.5 58.5781 40 69 26.2969 69
M24.5 65.5
C34.2031 65.5 38.0938 55.6875 38.0938 31.6406
C38.0938 10.3281 34.2969 1.5 25.0938 1.5
C15.4062 1.5 11.2969 11.625 11.2969 36.0625
C11.2969 57.1875 15 65.5 24.5 65.5" id="URW_Palladio_L_Roman-48"/>
      </defs>
      <g transform="translate(68.5130759651 402.77952928)scale(0.14 -0.14)">
       <use transform="scale(0.9962640099626402)" xlink:href="#URW_Palladio_L_Roman-48"/>
      </g>
     </g>
    </g>
    <g id="xtick_2">
     <g id="line2d_5">
      <path clip-path="url(#p7ff5b81e1d)" d="
M161.28 388.8
L161.28 43.2" style="fill:none;stroke:#bdbdbd;stroke-dasharray:6.000000,6.000000;stroke-dashoffset:0.0;stroke-width:0.5;"/>
     </g>
     <g id="line2d_6">
      <g>
       <use style="stroke:#000000;stroke-width:0.5;" x="161.28" xlink:href="#mc7db9fdffb" y="388.8"/>
      </g>
     </g>
     <g id="line2d_7">
      <g>
       <use style="stroke:#000000;stroke-width:0.5;" x="161.28" xlink:href="#m5a7d422ac3" y="43.2"/>
      </g>
     </g>
     <g id="text_2">
      <!-- $20$ -->
      <defs>
       <path d="
M1.59375 2.51562
L1.59375 0
C20.2969 0 20.2969 0.203125 23.9062 0.203125
C27.5 0.203125 27.5 0 46.7969 0
C46.5938 1.95312 46.5938 2.90625 46.5938 4.20312
C46.5938 5.4375 46.5938 6.35938 46.7969 8.42188
C35.2969 8.42188 30.7031 8.42188 12.2031 8.42188
L30.4062 27.5156
C40.0938 37.7188 43.0938 43.1719 43.0938 50.5938
C43.0938 61.9688 35.2969 69 22.5938 69
C15.4062 69 10.5 67 5.59375 62.0156
L3.90625 48.4219
L6.79688 48.4219
L8.09375 53.0156
C9.70312 58.7969 13.2969 61.2969 20 61.2969
C28.5938 61.2969 34.0938 55.8906 34.0938 47.4219
C34.0938 39.9375 29.9062 32.5625 18.5938 20.5781
z
" id="URW_Palladio_L_Roman-50"/>
      </defs>
      <g transform="translate(154.30615193 402.77952928)scale(0.14 -0.14)">
       <use transform="scale(0.9962640099626402)" xlink:href="#URW_Palladio_L_Roman-50"/>
       <use transform="translate(49.81320049813201 0.0)scale(0.9962640099626402)" xlink:href="#URW_Palladio_L_Roman-48"/>
      </g>
     </g>
    </g>
    <g id="xtick_3">
     <g id="line2d_8">
      <path clip-path="url(#p7ff5b81e1d)" d="
M250.56 388.8
L250.56 43.2" style="fill:none;stroke:#bdbdbd;stroke-dasharray:6.000000,6.000000;stroke-dashoffset:0.0;stroke-width:0.5;"/>
     </g>
     <g id="line2d_9">
      <g>
       <use style="stroke:#000000;stroke-width:0.5;" x="250.56" xlink:href="#mc7db9fdffb" y="388.8"/>
      </g>
     </g>
     <g id="line2d_10">
      <g>
       <use style="stroke:#000000;stroke-width:0.5;" x="250.56" xlink:href="#m5a7d422ac3" y="43.2"/>
      </g>
     </g>
     <g id="text_3">
      <!-- $40$ -->
      <defs>
       <path d="
M28 18
L28 10.5156
C28 4.51562 26.9062 3.10938 22 3.10938
L15.7969 3.10938
L15.7969 0
C29.0938 0 29.0938 0.203125 31.5 0.203125
C33.9062 0.203125 33.9062 0 47.2031 0
L47.2031 3.10938
L42.4062 3.10938
C37.5 3.10938 36.4062 4.40625 36.4062 10.4531
L36.4062 18
C42.2969 18 44.4062 18 47.2031 17.7031
L47.2031 24.8125
C42.5 24.4219 40.5938 24.4219 39.0938 24.4219
L38.7969 24.4219
L36.4062 24.4219
L36.4062 38.3906
C36.4062 56.25 36.5938 64.875 37.0938 69
L35.9062 69.5
L28.5 66.7969
L0.203125 20.2969
L1.29688 18
z

M28 24.4219
L6.5 24.4219
L28 59.7812
z
" id="URW_Palladio_L_Roman-52"/>
      </defs>
      <g transform="translate(243.58615193 402.77952928)scale(0.14 -0.14)">
       <use transform="scale(0.9962640099626402)" xlink:href="#URW_Palladio_L_Roman-52"/>
       <use transform="translate(49.81320049813201 0.0)scale(0.9962640099626402)" xlink:href="#URW_Palladio_L_Roman-48"/>
      </g>
     </g>
    </g>
    <g id="xtick_4">
     <g id="line2d_11">
      <path clip-path="url(#p7ff5b81e1d)" d="
M339.84 388.8
L339.84 43.2" style="fill:none;stroke:#bdbdbd;stroke-dasharray:6.000000,6.000000;stroke-dashoffset:0.0;stroke-width:0.5;"/>
     </g>
     <g id="line2d_12">
      <g>
       <use style="stroke:#000000;stroke-width:0.5;" x="339.84" xlink:href="#mc7db9fdffb" y="388.8"/>
      </g>
     </g>
     <g id="line2d_13">
      <g>
       <use style="stroke:#000000;stroke-width:0.5;" x="339.84" xlink:href="#m5a7d422ac3" y="43.2"/>
      </g>
     </g>
     <g id="text_4">
      <!-- $60$ -->
      <defs>
       <path d="
M41.5938 67.3438
L37.9062 69.0469
C28.2969 65.8438 24.2031 63.8438 19.0938 59.4375
C8.79688 50.7188 3.20312 38.5 3.20312 24.75
C3.20312 8.21875 11.2031 -2 24.0938 -2
C37.0938 -2 46.7969 8.3125 46.7969 21.9531
C46.7969 33.4844 39.9062 41 29.2969 41
C24.2969 41 21.2969 39.6875 15.4062 34.9844
C14.2969 34.0781 14.2031 33.9844 13.0938 33.1875
C15.2031 51.3125 23.5938 61.1406 41.5938 66.5469
z

M25.5 34.9844
C33.0938 34.9844 38.2031 28.375 38.2031 18.4531
C38.2031 8.01562 33.0938 1.29688 25.4062 1.29688
C16.9062 1.29688 12.2969 8.60938 12.2969 22.0625
C12.2969 25.5625 12.7031 27.4688 13.7969 29.1719
C16 32.5781 20.7031 34.9844 25.5 34.9844" id="URW_Palladio_L_Roman-54"/>
      </defs>
      <g transform="translate(332.86615193 402.77952928)scale(0.14 -0.14)">
       <use transform="scale(0.9962640099626402)" xlink:href="#URW_Palladio_L_Roman-54"/>
       <use transform="translate(49.81320049813201 0.0)scale(0.9962640099626402)" xlink:href="#URW_Palladio_L_Roman-48"/>
      </g>
     </g>
    </g>
    <g id="xtick_5">
     <g id="line2d_14">
      <path clip-path="url(#p7ff5b81e1d)" d="
M429.12 388.8
L429.12 43.2" style="fill:none;stroke:#bdbdbd;stroke-dasharray:6.000000,6.000000;stroke-dashoffset:0.0;stroke-width:0.5;"/>
     </g>
     <g id="line2d_15">
      <g>
       <use style="stroke:#000000;stroke-width:0.5;" x="429.12" xlink:href="#mc7db9fdffb" y="388.8"/>
      </g>
     </g>
     <g id="line2d_16">
      <g>
       <use style="stroke:#000000;stroke-width:0.5;" x="429.12" xlink:href="#m5a7d422ac3" y="43.2"/>
      </g>
     </g>
     <g id="text_5">
      <!-- $80$ -->
      <defs>
       <path d="
M16.7969 34.5469
C12.7031 32.6562 11 31.5469 8.79688 29.4375
C5 25.6406 3 21.125 3 15.9375
C3 5.60938 11.2969 -2 22.5938 -2
C35.5938 -2 46.4062 8.21875 46.4062 20.625
C46.4062 28.6406 42.7031 32.9531 31.2969 38.1562
C40.4062 44.375 43.5938 48.5781 43.5938 54.5781
C43.5938 63.1875 36.5 69 25.9062 69
C14 69 5.29688 61.3906 5.29688 50.8906
C5.29688 44.0781 8 40.2656 16.7969 34.5469
M28.4062 29.5469
C34.7031 26.7344 38.5 21.8281 38.5 16.4375
C38.5 8.01562 32.2031 1.40625 24.0938 1.40625
C15.5938 1.40625 10.0938 7.42188 10.0938 16.7344
C10.0938 24.0312 13 28.6406 20.4062 33.1562
z

M22.2969 42.375
C16 45.4688 12.7969 49.4844 12.7969 54.4844
C12.7969 61.0938 17.5938 65.5938 24.7031 65.5938
C32 65.5938 36.7969 60.7969 36.7969 53.4688
C36.7969 47.7812 34.2969 43.875 27.7969 39.6562
z
" id="URW_Palladio_L_Roman-56"/>
      </defs>
      <g transform="translate(422.14615193 402.77952928)scale(0.14 -0.14)">
       <use transform="scale(0.9962640099626402)" xlink:href="#URW_Palladio_L_Roman-56"/>
       <use transform="translate(49.81320049813201 0.0)scale(0.9962640099626402)" xlink:href="#URW_Palladio_L_Roman-48"/>
      </g>
     </g>
    </g>
    <g id="xtick_6">
     <g id="line2d_17">
      <path clip-path="url(#p7ff5b81e1d)" d="
M518.4 388.8
L518.4 43.2" style="fill:none;stroke:#bdbdbd;stroke-dasharray:6.000000,6.000000;stroke-dashoffset:0.0;stroke-width:0.5;"/>
     </g>
     <g id="line2d_18">
      <g>
       <use style="stroke:#000000;stroke-width:0.5;" x="518.4" xlink:href="#mc7db9fdffb" y="388.8"/>
      </g>
     </g>
     <g id="line2d_19">
      <g>
       <use style="stroke:#000000;stroke-width:0.5;" x="518.4" xlink:href="#m5a7d422ac3" y="43.2"/>
      </g>
     </g>
     <g id="text_6">
      <!-- $100$ -->
      <defs>
       <path d="
M6.70312 56
L7.70312 56
L20.5938 61.4062
C20.7031 61.5 20.7969 61.5 20.9062 61.5
C21.5 61.5 21.7031 60.6094 21.7031 58.2031
L21.7031 9.53125
C21.7031 4.29688 20.5938 3.20312 15.2031 3.20312
L9.59375 3.20312
L9.59375 0
C25 0 25 0 26.0938 0
C27.4062 0 29.5938 0 33 0
C34.2031 0 37.7031 0 41.7969 0
L41.7969 3.20312
L36.5938 3.20312
C31.0938 3.20312 30.0938 4.29688 30.0938 9.53125
L30.0938 69.0156
L28.7031 69.5156
C22.2031 66.1406 15.0938 63.1875 6 60.0156
z
" id="URW_Palladio_L_Roman-49"/>
      </defs>
      <g transform="translate(507.939227895 402.77952928)scale(0.14 -0.14)">
       <use transform="scale(0.9962640099626402)" xlink:href="#URW_Palladio_L_Roman-49"/>
       <use transform="translate(49.81320049813201 0.0)scale(0.9962640099626402)" xlink:href="#URW_Palladio_L_Roman-48"/>
       <use transform="translate(99.62640099626402 0.0)scale(0.9962640099626402)" xlink:href="#URW_Palladio_L_Roman-48"/>
      </g>
     </g>
    </g>
    <g id="text_7">
     <!-- $t$ (s) -->
     <defs>
      <path d="
M30.0938 -19.4375
C22.9062 -10.5156 20.2969 -5.71875 17.7031 3.3125
C15.5938 10.5156 14.5938 18.1406 14.5938 26.6562
C14.5938 34.9688 15.5938 42.0781 17.5 48.5938
C20.0938 56.9062 22.7969 61.625 30.0938 70.1406
L28.2031 72.75
C17.7969 63.4219 13.7031 57.9219 9.90625 48.0938
C7.29688 41.375 6 34.2656 6 26.6562
C6 15.9375 8.5 5.8125 13.2969 -3.20312
C16.7969 -9.92188 20 -13.8281 28.2031 -21.5469
z
" id="URW_Palladio_L_Roman-40"/>
      <path d="
M12.5 38.5156
L6.90625 10.4844
C6.79688 9.78125 6.70312 9.60938 6.40625 8.40625
C5.79688 5.64062 5.59375 4.14062 5.59375 2.96875
C5.59375 0.484375 6.70312 -1 8.59375 -1
C12.0938 -1 15.5938 0.96875 23.4062 7.23438
L24.9062 8.40625
L26.5 9.70312
L25.5 11.4844
L21 8.40625
C18.0938 6.4375 16.0938 5.4375 15 5.4375
C14.0938 5.4375 13.5938 6.23438 13.5938 7.40625
C13.5938 9.98438 15 18.0156 17.9062 32.375
L19.2031 38.5156
L29.9062 38.5156
L31 43.5
C27.2031 43 23.7969 43 20 43
C21.5938 52.3125 22.7031 57.1719 24.5 62.5156
L23.4062 64.0156
C21.4062 62.8281 18.7031 61.625 15.5938 60.4375
L13.0938 43.5
C8.70312 41.4062 6.09375 40.3125 4.29688 39.8125
L4.09375 38.5156
z
" id="URW_Palladio_L_Italic-116"/>
      <path d="
M4.09375 14.3281
C4.09375 7.42188 3.79688 4.40625 3 0.40625
C8.20312 -1.29688 12.0938 -2 16.7031 -2
C29.7969 -2 39.0938 5.01562 39.0938 14.8281
C39.0938 17.9375 38.2031 20.2344 36.2969 22.25
C33.7031 24.75 30.4062 25.9531 21.5938 27.6562
C13.4062 29.2656 10.7031 31.2656 10.7031 35.875
C10.7031 40.875 14.2031 43.6875 20.2969 43.6875
C27 43.6875 32.0938 40.1875 32.0938 35.4688
L32.0938 33.1719
L34.9062 33.1719
C35 38.9844 35.0938 41.375 35.4062 44.4844
C30.0938 46.2969 26.5 47 22.4062 47
C10.7969 47 3.70312 41.4844 3.70312 32.4688
C3.70312 27.6562 5.90625 24.25 10.5 22.1406
C13.2031 20.9375 18.5 19.3438 25.2969 17.8281
C29.7969 16.8281 31.7031 14.7344 31.7031 10.9219
C31.7031 5.51562 26.7031 1.70312 19.5938 1.70312
C12.2969 1.70312 7.09375 5.20312 7.09375 10.2188
L7.09375 14.3281
z
" id="URW_Palladio_L_Roman-115"/>
      <path d="
M5.09375 -21.5469
C12 -15.0312 14.9062 -11.7188 18 -6.8125
C24.0938 2.90625 27.2969 14.5312 27.2969 26.5469
C27.2969 34.2656 26 41.375 23.4062 48.0938
C19.5938 57.8125 15.5 63.3281 5.09375 72.75
L3.20312 70.1406
C10.5 61.5156 13.2031 56.8125 15.7031 48.5938
C17.7031 42.0781 18.7031 34.9688 18.7031 26.6562
C18.7031 18.1406 17.7031 10.5156 15.5938 3.3125
C13 -5.71875 10.4062 -10.5156 3.20312 -19.4375
z
" id="URW_Palladio_L_Roman-41"/>
     </defs>
     <g transform="translate(283.445715834 421.692230916)scale(0.14 -0.14)">
      <use transform="scale(0.9962640099626402)" xlink:href="#URW_Palladio_L_Italic-116"/>
      <use transform="translate(59.32658232312423 0.0)scale(0.9962640099626402)" xlink:href="#URW_Palladio_L_Roman-40"/>
      <use transform="translate(92.50181205245954 0.0)scale(0.9962640099626402)" xlink:href="#URW_Palladio_L_Roman-115"/>
      <use transform="translate(134.7432783799035 0.0)scale(0.9962640099626402)" xlink:href="#URW_Palladio_L_Roman-41"/>
     </g>
    </g>
   </g>
   <g id="matplotlib.axis_2">
    <g id="ytick_1">
     <g id="line2d_20">
      <path clip-path="url(#p7ff5b81e1d)" d="
M72 388.8
L518.4 388.8" style="fill:none;stroke:#bdbdbd;stroke-dasharray:6.000000,6.000000;stroke-dashoffset:0.0;stroke-width:0.5;"/>
     </g>
     <g id="line2d_21">
      <defs>
       <path d="
M0 0
L4 0" id="md7965d1ba0" style="stroke:#000000;stroke-width:0.5;"/>
      </defs>
      <g>
       <use style="stroke:#000000;stroke-width:0.5;" x="72.0" xlink:href="#md7965d1ba0" y="388.8"/>
      </g>
     </g>
     <g id="line2d_22">
      <defs>
       <path d="
M0 0
L-4 0" id="md9a1c1a7cd" style="stroke:#000000;stroke-width:0.5;"/>
      </defs>
      <g>
       <use style="stroke:#000000;stroke-width:0.5;" x="518.4" xlink:href="#md9a1c1a7cd" y="388.8"/>
      </g>
     </g>
     <g id="text_8">
      <!-- $-6$ -->
      <defs>
       <path d="
M65.9062 23
C67.5938 23 69.4062 23 69.4062 25
C69.4062 27 67.5938 27 65.9062 27
L11.7969 27
C10.0938 27 8.29688 27 8.29688 25
C8.29688 23 10.0938 23 11.7969 23
z
" id="CMSY10-0"/>
      </defs>
      <g transform="translate(49.5543092797 391.823178462)scale(0.14 -0.14)">
       <use transform="scale(1.0381069159596825)" xlink:href="#CMSY10-0"/>
       <use transform="translate(81.94169630000779 0.0)scale(0.9962640099626402)" xlink:href="#URW_Palladio_L_Roman-54"/>
      </g>
     </g>
    </g>
    <g id="ytick_2">
     <g id="line2d_23">
      <path clip-path="url(#p7ff5b81e1d)" d="
M72 331.2
L518.4 331.2" style="fill:none;stroke:#bdbdbd;stroke-dasharray:6.000000,6.000000;stroke-dashoffset:0.0;stroke-width:0.5;"/>
     </g>
     <g id="line2d_24">
      <g>
       <use style="stroke:#000000;stroke-width:0.5;" x="72.0" xlink:href="#md7965d1ba0" y="331.2"/>
      </g>
     </g>
     <g id="line2d_25">
      <g>
       <use style="stroke:#000000;stroke-width:0.5;" x="518.4" xlink:href="#md9a1c1a7cd" y="331.2"/>
      </g>
     </g>
     <g id="text_9">
      <!-- $-4$ -->
      <g transform="translate(49.5543092797 334.223178462)scale(0.14 -0.14)">
       <use transform="scale(1.0381069159596825)" xlink:href="#CMSY10-0"/>
       <use transform="translate(81.94169630000779 0.0)scale(0.9962640099626402)" xlink:href="#URW_Palladio_L_Roman-52"/>
      </g>
     </g>
    </g>
    <g id="ytick_3">
     <g id="line2d_26">
      <path clip-path="url(#p7ff5b81e1d)" d="
M72 273.6
L518.4 273.6" style="fill:none;stroke:#bdbdbd;stroke-dasharray:6.000000,6.000000;stroke-dashoffset:0.0;stroke-width:0.5;"/>
     </g>
     <g id="line2d_27">
      <g>
       <use style="stroke:#000000;stroke-width:0.5;" x="72.0" xlink:href="#md7965d1ba0" y="273.6"/>
      </g>
     </g>
     <g id="line2d_28">
      <g>
       <use style="stroke:#000000;stroke-width:0.5;" x="518.4" xlink:href="#md9a1c1a7cd" y="273.6"/>
      </g>
     </g>
     <g id="text_10">
      <!-- $-2$ -->
      <g transform="translate(49.5543092797 276.623178462)scale(0.14 -0.14)">
       <use transform="scale(1.0381069159596825)" xlink:href="#CMSY10-0"/>
       <use transform="translate(81.94169630000779 0.0)scale(0.9962640099626402)" xlink:href="#URW_Palladio_L_Roman-50"/>
      </g>
     </g>
    </g>
    <g id="ytick_4">
     <g id="line2d_29">
      <path clip-path="url(#p7ff5b81e1d)" d="
M72 216
L518.4 216" style="fill:none;stroke:#bdbdbd;stroke-dasharray:6.000000,6.000000;stroke-dashoffset:0.0;stroke-width:0.5;"/>
     </g>
     <g id="line2d_30">
      <g>
       <use style="stroke:#000000;stroke-width:0.5;" x="72.0" xlink:href="#md7965d1ba0" y="216.0"/>
      </g>
     </g>
     <g id="line2d_31">
      <g>
       <use style="stroke:#000000;stroke-width:0.5;" x="518.4" xlink:href="#md9a1c1a7cd" y="216.0"/>
      </g>
     </g>
     <g id="text_11">
      <!-- $0$ -->
      <g transform="translate(61.0261519303 219.023178462)scale(0.14 -0.14)">
       <use transform="scale(0.9962640099626402)" xlink:href="#URW_Palladio_L_Roman-48"/>
      </g>
     </g>
    </g>
    <g id="ytick_5">
     <g id="line2d_32">
      <path clip-path="url(#p7ff5b81e1d)" d="
M72 158.4
L518.4 158.4" style="fill:none;stroke:#bdbdbd;stroke-dasharray:6.000000,6.000000;stroke-dashoffset:0.0;stroke-width:0.5;"/>
     </g>
     <g id="line2d_33">
      <g>
       <use style="stroke:#000000;stroke-width:0.5;" x="72.0" xlink:href="#md7965d1ba0" y="158.4"/>
      </g>
     </g>
     <g id="line2d_34">
      <g>
       <use style="stroke:#000000;stroke-width:0.5;" x="518.4" xlink:href="#md9a1c1a7cd" y="158.4"/>
      </g>
     </g>
     <g id="text_12">
      <!-- $2$ -->
      <g transform="translate(61.0261519303 161.423178462)scale(0.14 -0.14)">
       <use transform="scale(0.9962640099626402)" xlink:href="#URW_Palladio_L_Roman-50"/>
      </g>
     </g>
    </g>
    <g id="ytick_6">
     <g id="line2d_35">
      <path clip-path="url(#p7ff5b81e1d)" d="
M72 100.8
L518.4 100.8" style="fill:none;stroke:#bdbdbd;stroke-dasharray:6.000000,6.000000;stroke-dashoffset:0.0;stroke-width:0.5;"/>
     </g>
     <g id="line2d_36">
      <g>
       <use style="stroke:#000000;stroke-width:0.5;" x="72.0" xlink:href="#md7965d1ba0" y="100.8"/>
      </g>
     </g>
     <g id="line2d_37">
      <g>
       <use style="stroke:#000000;stroke-width:0.5;" x="518.4" xlink:href="#md9a1c1a7cd" y="100.8"/>
      </g>
     </g>
     <g id="text_13">
      <!-- $4$ -->
      <g transform="translate(61.0261519303 103.823178462)scale(0.14 -0.14)">
       <use transform="scale(0.9962640099626402)" xlink:href="#URW_Palladio_L_Roman-52"/>
      </g>
     </g>
    </g>
    <g id="ytick_7">
     <g id="line2d_38">
      <path clip-path="url(#p7ff5b81e1d)" d="
M72 43.2
L518.4 43.2" style="fill:none;stroke:#bdbdbd;stroke-dasharray:6.000000,6.000000;stroke-dashoffset:0.0;stroke-width:0.5;"/>
     </g>
     <g id="line2d_39">
      <g>
       <use style="stroke:#000000;stroke-width:0.5;" x="72.0" xlink:href="#md7965d1ba0" y="43.2"/>
      </g>
     </g>
     <g id="line2d_40">
      <g>
       <use style="stroke:#000000;stroke-width:0.5;" x="518.4" xlink:href="#md9a1c1a7cd" y="43.2"/>
      </g>
     </g>
     <g id="text_14">
      <!-- $6$ -->
      <g transform="translate(61.0261519303 46.2231784616)scale(0.14 -0.14)">
       <use transform="scale(0.9962640099626402)" xlink:href="#URW_Palladio_L_Roman-54"/>
      </g>
     </g>
    </g>
    <g id="text_15">
     <!-- $\eta \left( t \right)$ ($m$) -->
     <defs>
      <path d="
M33.0938 -24
C33.0938 -23.7031 33.0938 -23.5 31.4062 -21.7969
C18.9062 -9.125 15.7031 9.85938 15.7031 25.2188
C15.7031 42.7031 19.5 60.1875 31.7969 72.7344
C33.0938 73.9375 33.0938 74.1406 33.0938 74.4375
C33.0938 75.1406 32.7031 75.4531 32.0938 75.4531
C31.0938 75.4531 22.0938 68.625 16.2031 55.8594
C11.0938 44.8125 9.90625 33.6562 9.90625 25.2188
C9.90625 17.3906 11 5.23438 16.5 -6.125
C22.5 -18.4688 31.0938 -25 32.0938 -25
C32.7031 -25 33.0938 -24.7031 33.0938 -24" id="CMR10-40"/>
      <path d="
M28.9062 25.2188
C28.9062 33.0625 27.7969 45.2188 22.2969 56.5625
C16.2969 68.9219 7.70312 75.4531 6.70312 75.4531
C6.09375 75.4531 5.70312 75.0469 5.70312 74.4375
C5.70312 74.1406 5.70312 73.9375 7.59375 72.1406
C17.4062 62.1875 23.0938 46.2188 23.0938 25.2188
C23.0938 8.04688 19.4062 -9.64062 7 -22.2969
C5.70312 -23.5 5.70312 -23.7031 5.70312 -24
C5.70312 -24.6094 6.09375 -25 6.70312 -25
C7.70312 -25 16.7031 -18.1719 22.5938 -5.42188
C27.7031 5.64062 28.9062 16.7812 28.9062 25.2188" id="CMR10-41"/>
      <path d="
M2.40625 39.3906
L3.09375 37.375
L7.59375 40.2812
C9.59375 41.5938 10.4062 42 11 42
C12.0938 42 12.7969 40.9844 12.7969 39.4844
C12.7969 34.2656 8.70312 15.0781 4.59375 0.625
L5.29688 -0.484375
C7.79688 0.21875 10.0938 0.828125 12.2969 1.21875
C14.2031 13.875 16.2969 20.4062 20.9062 27.4375
C26.4062 35.7656 33.7969 42 38.2969 42
C39.4062 42 40 41.1875 40 39.5781
C40 37.6719 39.7031 35.7656 38.9062 32.4531
L25.2031 -21.9688
C24.7031 -23.5781 23.7969 -24.8906 23 -25.8906
L23.9062 -27.2969
C27 -26.4844 30.0938 -25.8906 32.5 -25.5781
C32.7031 -22.6719 32.9062 -20.75 33.5 -18.3438
L47 38.0156
C47.9062 40.9531 48.2969 43.5625 48.2969 45.4688
C48.2969 47.6875 47.2031 49 45.2969 49
C41.0938 49 34.4062 45.3438 28.5938 39.8906
C24.7031 36.3438 21.7031 32.7031 16.4062 25.2188
L20.2031 41.5156
C20.5938 43.4219 20.7969 44.5469 20.7969 45.6562
C20.7969 47.7812 20 49 18.5 49
C16.4062 49 12.5938 46.8594 5.20312 41.4219
z
" id="Pazo_Math_Italic-104"/>
      <path d="
M73 10.1719
L70.4062 8.48438
C67.5 6.57812 65.2969 5.48438 64.2969 5.48438
C63.5938 5.48438 63 6.375 63 7.46875
C63 8.46875 63.2031 9.375 63.7031 11.4688
L71.2031 41.1094
C71.5938 42.7969 71.9062 44.3906 71.9062 45.2031
C71.9062 46.9062 70.9062 48 69.2969 48
C66.4062 48 62.5938 46.2031 56.5 41.9062
C50.2031 37.4062 46.7031 33.9219 41.7969 27.0312
L44.7969 40.7188
C45.2031 42.7031 45.5 44.2031 45.5 44.9062
C45.5 46.7969 44.5 48 42.9062 48
C39.9062 48 35.2969 45.8125 29.7969 41.6094
C25.4062 38.2031 23.4062 36.1094 16.9062 27.3281
L20.2031 40.6094
C20.5938 42.2031 20.7969 43.7031 20.7969 44.8906
C20.7969 46.7969 19.9062 48 18.5 48
C16.4062 48 12.5938 45.9062 5.20312 40.5938
L2.40625 38.6094
L3.09375 36.6094
L6.29688 38.7031
C10 41.0156 10.2969 41.2031 11 41.2031
C12.0938 41.2031 12.7969 40.2188 12.7969 38.7188
C12.7969 33.625 8.70312 14.3594 4.59375 0.09375
L4.90625 -1
L11.7031 0.484375
L13.9062 10.6719
C16.2969 21.75 19 27.6406 24.5 33.625
C28.7031 38.2188 33.2031 41.2031 36 41.2031
C36.7031 41.2031 37.0938 40.4062 37.0938 39.125
C37.0938 35.625 34.9062 24.25 30.7969 6.78125
L29.2031 0.09375
L29.7031 -1
L36.5938 0.484375
L38.7031 11.1719
C40.2969 19.25 43.7031 26.7344 48.0938 31.6406
C53.5938 37.7188 58.5938 41.2031 61.7969 41.2031
C62.5938 41.2031 63.0938 40.3125 63.0938 38.7188
C63.0938 36.3125 62.7969 34.9219 60.5938 26.2344
C59 19.9531 57.2969 13.9688 56.2969 10.5781
C55.4062 7.76562 55 5.1875 55 3
C55 0.484375 56.0938 -1 58 -1
C60.5938 -1 64.2031 1.07812 74 8.375
z
" id="URW_Palladio_L_Italic-109"/>
     </defs>
     <g transform="translate(40.6211369231 241.56017808)rotate(-90.0)scale(0.14 -0.14)">
      <use transform="translate(0.0 1.0460802508172478)scale(0.9962640099626402)" xlink:href="#Pazo_Math_Italic-104"/>
      <use transform="translate(73.98917268251869 0.0)scale(1.0381069159596825)" xlink:href="#CMR10-40"/>
      <use transform="translate(116.72887742742063 1.0460802508172478)scale(0.9962640099626402)" xlink:href="#URW_Palladio_L_Italic-116"/>
      <use transform="translate(152.39415911036738 0.0)scale(1.0381069159596825)" xlink:href="#CMR10-41"/>
      <use transform="translate(218.79516449544678 1.0460802508172478)scale(0.9962640099626402)" xlink:href="#URW_Palladio_L_Roman-40"/>
      <use transform="translate(253.21569383367063 1.0460802508172478)scale(0.9962640099626402)" xlink:href="#URW_Palladio_L_Italic-109"/>
      <use transform="translate(331.97042766870334 1.0460802508172478)scale(0.9962640099626402)" xlink:href="#URW_Palladio_L_Roman-41"/>
     </g>
    </g>
   </g>
  </g>
 </g>
 <defs>
  <clipPath id="p7ff5b81e1d">
   <rect height="345.6" width="446.4" x="72.0" y="43.2"/>
  </clipPath>
 </defs>
</svg>
