<?xml version="1.0" encoding="UTF-8" standalone="no"?>
<!-- Created with Inkscape (http://www.inkscape.org/) -->

<svg
   xmlns:dc="http://purl.org/dc/elements/1.1/"
   xmlns:cc="http://creativecommons.org/ns#"
   xmlns:rdf="http://www.w3.org/1999/02/22-rdf-syntax-ns#"
   xmlns:svg="http://www.w3.org/2000/svg"
   xmlns="http://www.w3.org/2000/svg"
   xmlns:xlink="http://www.w3.org/1999/xlink"
   xmlns:sodipodi="http://sodipodi.sourceforge.net/DTD/sodipodi-0.dtd"
   xmlns:inkscape="http://www.inkscape.org/namespaces/inkscape"
   width="723.96039"
   height="192.6828"
   id="svg3928"
   sodipodi:version="0.32"
   inkscape:version="0.48.2 r9819"
   sodipodi:docname="AnglesEuler.svg"
   inkscape:output_extension="org.inkscape.output.svg.inkscape"
   version="1.0"
   inkscape:export-filename="D:\GJ\svn\dysco-asm\dyscoASM_Simulator\doc\image\AnglesEuler.png"
   inkscape:export-xdpi="360"
   inkscape:export-ydpi="360">
  <sodipodi:namedview
     id="base"
     pagecolor="#ffffff"
     bordercolor="#ffffff"
     borderopacity="0.0"
     inkscape:pageopacity="0.0"
     inkscape:pageshadow="0"
     inkscape:zoom="1.28"
     inkscape:cx="401.19927"
     inkscape:cy="-30.990873"
     inkscape:document-units="cm"
     inkscape:current-layer="layer1"
     showgrid="false"
     inkscape:window-width="1920"
     inkscape:window-height="1144"
     inkscape:window-x="-4"
     inkscape:window-y="-4"
     fit-margin-top="3"
     fit-margin-left="3"
     fit-margin-right="3"
     fit-margin-bottom="3"
     units="mm"
     borderlayer="true"
     inkscape:window-maximized="1" />
  <defs
     id="defs3930">
    <marker
       inkscape:stockid="Arrow1Mend"
       orient="auto"
       refY="0"
       refX="0"
       id="Arrow1Mend"
       style="overflow:visible">
      <path
         id="path8336"
         d="M 0,0 5,-5 -12.5,0 5,5 0,0 z"
         style="fill-rule:evenodd;stroke:#000000;stroke-width:1pt;marker-start:none"
         transform="matrix(-0.4,0,0,-0.4,-4,0)"
         inkscape:connector-curvature="0" />
    </marker>
    <marker
       inkscape:stockid="Arrow1Send"
       orient="auto"
       refY="0"
       refX="0"
       id="Arrow1Send"
       style="overflow:visible">
      <path
         id="path8342"
         d="M 0,0 5,-5 -12.5,0 5,5 0,0 z"
         style="fill-rule:evenodd;stroke:#000000;stroke-width:1pt;marker-start:none"
         transform="matrix(-0.2,0,0,-0.2,-1.2,0)"
         inkscape:connector-curvature="0" />
    </marker>
    <marker
       style="overflow:visible"
       id="Arrow1Lend"
       refX="0"
       refY="0"
       orient="auto"
       inkscape:stockid="Arrow1Lend">
      <path
         inkscape:connector-curvature="0"
         transform="matrix(-0.8,0,0,-0.8,-10,0)"
         style="fill-rule:evenodd;stroke:#000000;stroke-width:1pt;marker-start:none"
         d="M 0,0 5,-5 -12.5,0 5,5 0,0 z"
         id="path5209" />
    </marker>
    <defs
       id="defs5068">
      <path
         id="equation_06_00"
         d="m 4.55,-5 c 0,-0.66 -0.18,-2.05 -1.2,-2.05 -1.39,0 -2.93,2.82 -2.93,5.11 0,0.94 0.29,2.05 1.2,2.05 1.41,0 2.93,-2.87 2.93,-5.11 z m -3.07,1.37 c 0.17,-0.64 0.37,-1.44 0.77,-2.15 0.27,-0.49 0.64,-1.05 1.09,-1.05 0.49,0 0.55,0.64 0.55,1.21 0,0.49 -0.08,1 -0.32,1.99 H 1.48 z m 2,0.32 C 3.37,-2.85 3.16,-2 2.78,-1.28 2.43,-0.6 2.05,-0.11 1.62,-0.11 c -0.33,0 -0.54,-0.29 -0.54,-1.22 0,-0.42 0.06,-1 0.32,-1.98 h 2.08 z"
         inkscape:connector-curvature="0" />
      <path
         id="equation_06_01"
         d="m 4.37,-6.7 c 0,-0.02 0.03,-0.13 0.03,-0.14 0,-0.01 0,-0.1 -0.12,-0.1 -0.1,0 -0.11,0.03 -0.15,0.2 l -0.58,2.31 c -1.59,0.05 -3.06,1.38 -3.06,2.74 0,0.95 0.7,1.74 1.92,1.81 C 2.33,0.43 2.26,0.75 2.18,1.06 2.06,1.53 1.96,1.91 1.96,1.94 c 0,0.1 0.07,0.11 0.12,0.11 0.05,0 0.07,-0.01 0.1,-0.04 C 2.2,1.99 2.26,1.75 2.29,1.61 L 2.67,0.12 C 4.28,0.07 5.73,-1.28 5.73,-2.62 5.73,-3.41 5.2,-4.33 3.81,-4.43 L 4.37,-6.7 z M 2.46,-0.1 C 1.86,-0.13 1.14,-0.48 1.14,-1.48 1.14,-2.68 2,-4.08 3.49,-4.21 L 2.46,-0.1 z m 1.29,-4.11 c 0.76,0.04 1.33,0.5 1.33,1.38 0,1.18 -0.86,2.61 -2.36,2.73 l 1.03,-4.11 z"
         inkscape:connector-curvature="0" />
      <path
         id="equation_06_02"
         d="m 4.82,-6.68 c 0.01,-0.04 0.03,-0.1 0.03,-0.15 0,-0.1 -0.07,-0.11 -0.12,-0.11 -0.1,0 -0.11,0.02 -0.15,0.2 L 2.92,-0.13 C 2.16,-0.22 1.78,-0.59 1.78,-1.25 c 0,-0.2 0,-0.46 0.54,-1.86 0.04,-0.12 0.11,-0.29 0.11,-0.49 0,-0.45 -0.32,-0.82 -0.82,-0.82 -0.95,0 -1.32,1.45 -1.32,1.54 0,0.1 0.1,0.1 0.12,0.1 0.1,0 0.11,-0.02 0.16,-0.18 0.27,-0.95 0.67,-1.24 1.01,-1.24 0.08,0 0.25,0 0.25,0.32 0,0.26 -0.1,0.51 -0.23,0.86 -0.48,1.26 -0.48,1.52 -0.48,1.69 0,0.95 0.78,1.36 1.74,1.42 C 2.78,0.45 2.78,0.47 2.64,1 2.61,1.11 2.41,1.92 2.41,1.95 c 0,0.01 0,0.1 0.12,0.1 0.02,0 0.07,0 0.09,-0.04 C 2.65,1.99 2.71,1.74 2.74,1.6 L 3.12,0.11 c 0.37,0 1.25,0 2.19,-1.07 0.41,-0.46 0.62,-0.9 0.73,-1.2 0.09,-0.25 0.31,-1.12 0.31,-1.56 0,-0.56 -0.27,-0.7 -0.44,-0.7 -0.25,0 -0.5,0.26 -0.5,0.48 0,0.13 0.06,0.19 0.15,0.27 0.11,0.11 0.36,0.37 0.36,0.85 0,0.64 -0.52,1.46 -0.87,1.82 -0.88,0.89 -1.52,0.89 -1.88,0.89 l 1.65,-6.57 z"
         inkscape:connector-curvature="0" />
    </defs>
    <defs
       id="defs8101">
      <path
         id="path8103"
         d="m 4.37,-6.7 c 0,-0.02 0.03,-0.13 0.03,-0.14 0,-0.01 0,-0.1 -0.12,-0.1 -0.1,0 -0.11,0.03 -0.15,0.2 l -0.58,2.31 c -1.59,0.05 -3.06,1.38 -3.06,2.74 0,0.95 0.7,1.74 1.92,1.81 C 2.33,0.43 2.26,0.75 2.18,1.06 2.06,1.53 1.96,1.91 1.96,1.94 c 0,0.1 0.07,0.11 0.12,0.11 0.05,0 0.07,-0.01 0.1,-0.04 C 2.2,1.99 2.26,1.75 2.29,1.61 L 2.67,0.12 C 4.28,0.07 5.73,-1.28 5.73,-2.62 5.73,-3.41 5.2,-4.33 3.81,-4.43 L 4.37,-6.7 z M 2.46,-0.1 C 1.86,-0.13 1.14,-0.48 1.14,-1.48 1.14,-2.68 2,-4.08 3.49,-4.21 L 2.46,-0.1 z m 1.29,-4.11 c 0.76,0.04 1.33,0.5 1.33,1.38 0,1.18 -0.86,2.61 -2.36,2.73 l 1.03,-4.11 z"
         inkscape:connector-curvature="0" />
      <path
         id="path8105"
         d="m 6.75,-2.28 c 0.11,-0.05 0.19,-0.1 0.19,-0.22 0,-0.12 -0.08,-0.17 -0.19,-0.22 L 1.21,-5.33 C 1.08,-5.4 1.06,-5.4 1.03,-5.4 c -0.11,0 -0.2,0.09 -0.2,0.2 0,0.09 0.05,0.15 0.19,0.22 L 6.27,-2.5 1.02,-0.02 C 0.88,0.05 0.83,0.11 0.83,0.2 c 0,0.11 0.09,0.2 0.2,0.2 0.03,0 0.05,0 0.18,-0.07 l 5.54,-2.61 z"
         inkscape:connector-curvature="0" />
      <path
         id="path8107"
         d="M 4.6,-3.2 C 4.6,-4 4.55,-4.8 4.2,-5.54 3.74,-6.5 2.92,-6.66 2.5,-6.66 1.9,-6.66 1.17,-6.4 0.76,-5.47 0.44,-4.78 0.39,-4 0.39,-3.2 c 0,0.75 0.04,1.65 0.45,2.41 C 1.27,0.02 2,0.22 2.49,0.22 3.03,0.22 3.79,0.01 4.23,-0.94 4.55,-1.63 4.6,-2.41 4.6,-3.2 z M 2.49,0 C 2.1,0 1.51,-0.25 1.33,-1.21 1.22,-1.81 1.22,-2.73 1.22,-3.32 c 0,-0.64 0,-1.3 0.08,-1.84 0.19,-1.19 0.94,-1.28 1.19,-1.28 0.33,0 0.99,0.18 1.18,1.17 0.1,0.56 0.1,1.32 0.1,1.95 0,0.75 0,1.43 -0.11,2.07 C 3.51,-0.3 2.94,0 2.49,0 z"
         inkscape:connector-curvature="0" />
    </defs>
  </defs>
  <metadata
     id="metadata3933">
    <rdf:RDF>
      <cc:Work
         rdf:about="">
        <dc:format>image/svg+xml</dc:format>
        <dc:type
           rdf:resource="http://purl.org/dc/dcmitype/StillImage" />
        <dc:title></dc:title>
      </cc:Work>
    </rdf:RDF>
  </metadata>
  <g
     inkscape:label="Layer 1"
     inkscape:groupmode="layer"
     id="layer1"
     transform="translate(1987.3107,63.769)">
    <g
       id="g9367"
       transform="matrix(0.296875,0,0,0.296875,-1142.8105,22.902469)">
      <g
         transform="translate(170,0)"
         id="g3677">
        <path
           inkscape:connector-curvature="0"
           id="path3404"
           style="fill:none;stroke:#000000;stroke-width:2.31981277;stroke-miterlimit:4;stroke-opacity:1;stroke-dasharray:none;stroke-dashoffset:0"
           d="m -2477.7516,95.23615 c 0,80.62797 -111.9097,145.98985 -249.9574,145.98985 -138.0476,0 -249.9573,-65.36188 -249.9573,-145.98985 0,-80.627971 111.9097,-145.989854 249.9573,-145.989854 138.0477,0 249.9574,65.361883 249.9574,145.989854 l 0,0 z" />
        <g
           style="fill:#000000;fill-opacity:1;stroke:#000000;stroke-opacity:1"
           transform="matrix(0.77327091,0,0,0.77327091,-2978.8262,-269.61373)"
           id="g3406">
          <path
             inkscape:connector-curvature="0"
             id="path3408"
             style="fill:#000000;fill-opacity:1;fill-rule:evenodd;stroke:#000000;stroke-opacity:1"
             d="m 642.0625,465.25 c 0,0 -88.32274,1.40626 -318.5625,1.40625 l 0,3 c 230.25217,10e-6 318.59375,-1.40625 318.59375,-1.40625 l -0.0312,-3 z" />
          <path
             inkscape:connector-curvature="0"
             id="path3410"
             style="fill:#000000;fill-opacity:1;fill-rule:evenodd;stroke:#000000;stroke-width:2.4pt;stroke-opacity:1;marker-start:none"
             d="m 612.07665,467.22142 -11.80437,12.1925 41.80045,-12.67765 -42.18857,-11.31921 12.19249,11.80436 z" />
        </g>
        <g
           style="fill:#000000;fill-opacity:1;stroke:#000000;stroke-opacity:1"
           transform="matrix(0.77327091,0,0,0.77327091,-2978.8262,-269.61373)"
           id="g3412">
          <path
             inkscape:connector-curvature="0"
             id="path3414"
             style="fill:#000000;fill-opacity:1;fill-rule:evenodd;stroke:#000000;stroke-opacity:1"
             d="m 324.59375,465.625 c -60.10408,87.88328 -90.16148,131.81043 -105.1875,153.78125 -7.51301,10.98541 -11.278,16.4724 -13.15625,19.21875 -0.93913,1.37318 -1.39022,2.06296 -1.625,2.40625 -0.11739,0.17165 -0.1894,0.26959 -0.21875,0.3125 -0.0147,0.0215 -0.0276,0.0259 -0.0312,0.0312 l 2.46875,1.6875 c 0,0 0.0106,0.0166 120.21875,-175.75 l -2.46875,-1.6875 z" />
          <path
             inkscape:connector-curvature="0"
             id="path3416"
             style="fill:#000000;fill-opacity:1;fill-rule:evenodd;stroke:#000000;stroke-width:2.4pt;stroke-opacity:1;marker-start:none"
             d="m 222.55123,617.46705 -3.13092,-16.67925 -13.8045,41.44196 33.61466,-27.89362 -16.67924,3.13091 z" />
        </g>
        <g
           style="fill:#000000;fill-opacity:1;stroke:#000000;stroke-opacity:1"
           transform="matrix(0.77327091,0,0,0.77327091,-2978.8262,-269.61373)"
           id="g3418">
          <path
             inkscape:connector-curvature="0"
             id="path3420"
             style="fill:#000000;fill-opacity:1;fill-rule:evenodd;stroke:#000000;stroke-opacity:1"
             d="m 325.625,42.03125 -3.4375,0.03125 c 0,0 1.40625,117.87192 1.40625,425.1875 l 3.4375,0 c 0,-307.32603 -1.40625,-425.21875 -1.40625,-425.21875 z" />
          <path
             inkscape:connector-curvature="0"
             id="path3422"
             style="fill:#000000;fill-opacity:1;fill-rule:evenodd;stroke:#000000;stroke-width:2.74754028pt;stroke-opacity:1;marker-start:none"
             d="m 324.31355,76.387334 13.90017,13.573287 -14.30877,-47.91511 -13.16468,48.241993 13.57328,-13.90017 z" />
        </g>
        <g
           transform="matrix(3.0427402,0,0,3.0427402,-3001.7923,-434.38367)"
           id="g3482"
           style="fill:#000000"
           title="$z_0$">
          <defs
             id="defs3484">
            <path
               inkscape:connector-curvature="0"
               d="m 1.33,-0.83 c 0.54,-0.58 0.83,-0.83 1.19,-1.14 0,-0.01 0.62,-0.54 0.98,-0.9 0.95,-0.93 1.17,-1.41 1.17,-1.45 0,-0.1 -0.09,-0.1 -0.11,-0.1 -0.07,0 -0.1,0.02 -0.15,0.11 -0.3,0.48 -0.51,0.64 -0.75,0.64 -0.24,0 -0.36,-0.15 -0.51,-0.32 -0.19,-0.23 -0.36,-0.43 -0.69,-0.43 -0.75,0 -1.21,0.93 -1.21,1.14 0,0.05 0.03,0.11 0.12,0.11 0.09,0 0.11,-0.05 0.13,-0.11 0.19,-0.46 0.77,-0.47 0.85,-0.47 0.21,0 0.4,0.07 0.63,0.15 0.4,0.15 0.51,0.15 0.77,0.15 -0.36,0.43 -1.2,1.15 -1.39,1.31 l -0.9,0.84 c -0.68,0.67 -1.03,1.24 -1.03,1.31 0,0.1 0.1,0.1 0.12,0.1 0.08,0 0.1,-0.02 0.16,-0.13 0.23,-0.35 0.53,-0.62 0.85,-0.62 0.23,0 0.33,0.09 0.58,0.38 0.17,0.21 0.35,0.37 0.64,0.37 0.99,0 1.57,-1.27 1.57,-1.54 0,-0.05 -0.04,-0.1 -0.12,-0.1 -0.09,0 -0.11,0.06 -0.14,0.13 -0.23,0.65 -0.87,0.84 -1.2,0.84 -0.2,0 -0.38,-0.06 -0.59,-0.13 -0.34,-0.13 -0.49,-0.17 -0.7,-0.17 -0.02,0 -0.18,0 -0.27,0.03 z"
               id="path3486" />
            <path
               inkscape:connector-curvature="0"
               d="m 3.612,-2.233 c 0,-0.77 -0.091,-1.323 -0.413,-1.813 -0.217,-0.322 -0.651,-0.602 -1.211,-0.602 -1.624,0 -1.624,1.911 -1.624,2.415 0,0.504 0,2.373 1.624,2.373 1.624,0 1.624,-1.869 1.624,-2.373 z m -1.624,2.177 c -0.322,0 -0.749,-0.189 -0.889,-0.763 -0.098,-0.413 -0.098,-0.987 -0.098,-1.505 0,-0.511 0,-1.043 0.105,-1.428 0.147,-0.553 0.595,-0.7 0.882,-0.7 0.378,0 0.742,0.231 0.868,0.637 0.112,0.378 0.119,0.882 0.119,1.491 0,0.518 0,1.036 -0.091,1.477 -0.14,0.637 -0.616,0.791 -0.896,0.791 z"
               id="path3488" />
          </defs>
          <g
             id="g3490">
            <use
               height="665.49506"
               width="687.33484"
               x="77"
               xlink:href="#equation_03_00"
               y="63"
               id="use3492" />
            <use
               height="665.49506"
               width="687.33484"
               x="81.650497"
               xlink:href="#equation_03_01"
               y="64.5"
               id="use3494" />
          </g>
        </g>
        <g
           transform="matrix(3.0427402,0,0,3.0427402,-2705.0401,-98.136793)"
           title="$y_0$"
           style="fill:#000000"
           id="g3496">
          <defs
             id="defs3498">
            <path
               inkscape:connector-curvature="0"
               id="path3500"
               d="M 4.86,-3.81 C 4.9,-3.95 4.9,-3.97 4.9,-4.04 c 0,-0.18 -0.14,-0.27 -0.29,-0.27 -0.1,0 -0.26,0.06 -0.35,0.21 -0.02,0.05 -0.1,0.36 -0.14,0.54 -0.07,0.26 -0.14,0.53 -0.2,0.8 l -0.45,1.8 C 3.43,-0.81 3,-0.11 2.34,-0.11 c -0.51,0 -0.62,-0.44 -0.62,-0.81 0,-0.46 0.17,-1.08 0.51,-1.96 0.16,-0.41 0.2,-0.52 0.2,-0.72 0,-0.45 -0.32,-0.82 -0.82,-0.82 -0.95,0 -1.32,1.45 -1.32,1.54 0,0.1 0.1,0.1 0.12,0.1 0.1,0 0.11,-0.02 0.16,-0.18 0.27,-0.94 0.67,-1.24 1.01,-1.24 0.08,0 0.25,0 0.25,0.32 0,0.25 -0.1,0.51 -0.17,0.7 -0.4,1.06 -0.58,1.63 -0.58,2.1 0,0.89 0.63,1.19 1.22,1.19 0.39,0 0.73,-0.17 1.01,-0.45 C 3.18,0.18 3.06,0.67 2.66,1.2 2.4,1.54 2.02,1.83 1.56,1.83 1.42,1.83 0.97,1.8 0.8,1.41 c 0.16,0 0.29,0 0.43,-0.12 C 1.33,1.2 1.43,1.07 1.43,0.88 1.43,0.57 1.16,0.53 1.06,0.53 0.83,0.53 0.5,0.69 0.5,1.18 c 0,0.5 0.44,0.87 1.06,0.87 1.03,0 2.06,-0.91 2.34,-2.04 l 0.96,-3.82 z" />
            <path
               inkscape:connector-curvature="0"
               id="path3502"
               d="m 3.612,-2.233 c 0,-0.77 -0.091,-1.323 -0.413,-1.813 -0.217,-0.322 -0.651,-0.602 -1.211,-0.602 -1.624,0 -1.624,1.911 -1.624,2.415 0,0.504 0,2.373 1.624,2.373 1.624,0 1.624,-1.869 1.624,-2.373 z m -1.624,2.177 c -0.322,0 -0.749,-0.189 -0.889,-0.763 -0.098,-0.413 -0.098,-0.987 -0.098,-1.505 0,-0.511 0,-1.043 0.105,-1.428 0.147,-0.553 0.595,-0.7 0.882,-0.7 0.378,0 0.742,0.231 0.868,0.637 0.112,0.378 0.119,0.882 0.119,1.491 0,0.518 0,1.036 -0.091,1.477 -0.14,0.637 -0.616,0.791 -0.896,0.791 z" />
          </defs>
          <g
             id="g3504">
            <use
               height="665.49506"
               width="687.33484"
               id="use3506"
               y="63"
               xlink:href="#equation_04_00"
               x="77" />
            <use
               height="665.49506"
               width="687.33484"
               id="use3508"
               y="64.5"
               xlink:href="#equation_04_01"
               x="81.902802" />
          </g>
        </g>
        <g
           transform="matrix(3.0427402,0,0,3.0427402,-3083.6665,62.710244)"
           id="g3510"
           style="fill:#000000"
           title="$x_0$">
          <defs
             id="defs3512">
            <path
               inkscape:connector-curvature="0"
               d="M 3.34,-3.02 C 3.4,-3.28 3.63,-4.2 4.33,-4.2 c 0.05,0 0.29,0 0.5,0.13 -0.28,0.05 -0.48,0.3 -0.48,0.54 0,0.16 0.11,0.35 0.38,0.35 0.22,0 0.54,-0.18 0.54,-0.58 0,-0.52 -0.59,-0.66 -0.93,-0.66 -0.58,0 -0.93,0.53 -1.05,0.76 -0.25,-0.66 -0.79,-0.76 -1.08,-0.76 -1.04,0 -1.61,1.29 -1.61,1.54 0,0.1 0.1,0.1 0.12,0.1 0.08,0 0.11,-0.02 0.13,-0.11 0.34,-1.06 1,-1.31 1.34,-1.31 0.19,0 0.54,0.09 0.54,0.67 0,0.31 -0.17,0.98 -0.54,2.38 -0.16,0.62 -0.51,1.04 -0.95,1.04 -0.06,0 -0.29,0 -0.5,-0.13 0.25,-0.05 0.47,-0.26 0.47,-0.54 0,-0.27 -0.22,-0.35 -0.37,-0.35 -0.3,0 -0.55,0.26 -0.55,0.58 0,0.46 0.5,0.66 0.94,0.66 0.66,0 1.02,-0.7 1.05,-0.76 0.12,0.37 0.48,0.76 1.08,0.76 1.03,0 1.6,-1.29 1.6,-1.54 0,-0.1 -0.09,-0.1 -0.12,-0.1 -0.09,0 -0.11,0.04 -0.13,0.11 -0.33,1.07 -1.01,1.31 -1.33,1.31 -0.39,0 -0.55,-0.32 -0.55,-0.66 0,-0.22 0.06,-0.44 0.17,-0.88 l 0.34,-1.37 z"
               id="path3514" />
            <path
               inkscape:connector-curvature="0"
               d="m 3.612,-2.233 c 0,-0.77 -0.091,-1.323 -0.413,-1.813 -0.217,-0.322 -0.651,-0.602 -1.211,-0.602 -1.624,0 -1.624,1.911 -1.624,2.415 0,0.504 0,2.373 1.624,2.373 1.624,0 1.624,-1.869 1.624,-2.373 z m -1.624,2.177 c -0.322,0 -0.749,-0.189 -0.889,-0.763 -0.098,-0.413 -0.098,-0.987 -0.098,-1.505 0,-0.511 0,-1.043 0.105,-1.428 0.147,-0.553 0.595,-0.7 0.882,-0.7 0.378,0 0.742,0.231 0.868,0.637 0.112,0.378 0.119,0.882 0.119,1.491 0,0.518 0,1.036 -0.091,1.477 -0.14,0.637 -0.616,0.791 -0.896,0.791 z"
               id="path3516" />
          </defs>
          <g
             id="g3518">
            <use
               height="665.49506"
               width="687.33484"
               x="77"
               xlink:href="#equation_05_00"
               y="63"
               id="use3520" />
            <use
               height="665.49506"
               width="687.33484"
               x="82.715302"
               xlink:href="#equation_05_01"
               y="64.5"
               id="use3522" />
          </g>
        </g>
      </g>
      <g
         transform="translate(113.40845,0)"
         id="g9146">
        <path
           d="m -1810.0829,95.23615 c 0,80.62797 -111.9097,145.98985 -249.9574,145.98985 -138.0476,0 -249.9573,-65.36188 -249.9573,-145.98985 0,-80.627971 111.9097,-145.989854 249.9573,-145.989854 138.0477,0 249.9574,65.361883 249.9574,145.989854 l 0,0 z"
           style="fill:none;stroke:#000000;stroke-width:2.31981277;stroke-miterlimit:4;stroke-opacity:1;stroke-dasharray:none;stroke-dashoffset:0"
           id="path3266"
           inkscape:connector-curvature="0" />
        <g
           id="g3268"
           transform="matrix(0.77327091,0,0,0.77327091,-2311.1575,-269.61373)"
           style="fill:#000000;fill-opacity:1;stroke:#000000;stroke-opacity:1">
          <path
             d="m 642.0625,465.25 c 0,0 -88.32274,1.40626 -318.5625,1.40625 l 0,3 c 230.25217,10e-6 318.59375,-1.40625 318.59375,-1.40625 l -0.0312,-3 z"
             style="fill:#000000;fill-opacity:1;fill-rule:evenodd;stroke:#000000;stroke-opacity:1"
             id="path3270"
             inkscape:connector-curvature="0" />
          <path
             d="m 612.07665,467.22142 -11.80437,12.1925 41.80045,-12.67765 -42.18857,-11.31921 12.19249,11.80436 z"
             style="fill:#000000;fill-opacity:1;fill-rule:evenodd;stroke:#000000;stroke-width:2.4pt;stroke-opacity:1;marker-start:none"
             id="path3272"
             inkscape:connector-curvature="0" />
        </g>
        <g
           id="g3274"
           transform="matrix(0.77327091,0,0,0.77327091,-2311.1575,-269.61373)"
           style="fill:#000000;fill-opacity:1;stroke:#000000;stroke-opacity:1">
          <path
             d="m 324.59375,465.625 c -60.10408,87.88328 -90.16148,131.81043 -105.1875,153.78125 -7.51301,10.98541 -11.278,16.4724 -13.15625,19.21875 -0.93913,1.37318 -1.39022,2.06296 -1.625,2.40625 -0.11739,0.17165 -0.1894,0.26959 -0.21875,0.3125 -0.0147,0.0215 -0.0276,0.0259 -0.0312,0.0312 l 2.46875,1.6875 c 0,0 0.0106,0.0166 120.21875,-175.75 l -2.46875,-1.6875 z"
             style="fill:#000000;fill-opacity:1;fill-rule:evenodd;stroke:#000000;stroke-opacity:1"
             id="path3276"
             inkscape:connector-curvature="0" />
          <path
             d="m 222.55123,617.46705 -3.13092,-16.67925 -13.8045,41.44196 33.61466,-27.89362 -16.67924,3.13091 z"
             style="fill:#000000;fill-opacity:1;fill-rule:evenodd;stroke:#000000;stroke-width:2.4pt;stroke-opacity:1;marker-start:none"
             id="path3278"
             inkscape:connector-curvature="0" />
        </g>
        <g
           id="g3280"
           transform="matrix(0.77327091,0,0,0.77327091,-2311.1575,-269.61373)"
           style="fill:#000000;fill-opacity:1;stroke:#000000;stroke-opacity:1">
          <path
             d="m 325.625,42.03125 -3.4375,0.03125 c 0,0 1.40625,117.87192 1.40625,425.1875 l 3.4375,0 c 0,-307.32603 -1.40625,-425.21875 -1.40625,-425.21875 z"
             style="fill:#000000;fill-opacity:1;fill-rule:evenodd;stroke:#000000;stroke-opacity:1"
             id="path3282"
             inkscape:connector-curvature="0" />
          <path
             d="m 324.31355,76.387334 13.90017,13.573287 -14.30877,-47.91511 -13.16468,48.241993 13.57328,-13.90017 z"
             style="fill:#000000;fill-opacity:1;fill-rule:evenodd;stroke:#000000;stroke-width:2.74754028pt;stroke-opacity:1;marker-start:none"
             id="path3284"
             inkscape:connector-curvature="0" />
        </g>
        <path
           sodipodi:nodetypes="ccccc"
           inkscape:connector-curvature="0"
           id="path3304"
           style="fill:#000000;fill-opacity:1;stroke:none"
           d="m -2076.9635,123.0312 -1.5357,2.65674 c 17.9639,6.67427 42.0607,12.21355 63.5943,-4.1904 l -0.8817,-2.50197 c -20.7228,15.7863 -43.5188,10.18965 -61.1769,4.03563 z" />
        <path
           inkscape:connector-curvature="0"
           id="path3306"
           style="font-size:12px;fill-rule:evenodd;stroke-width:0.625;stroke-linejoin:round"
           d="m -2024.6965,120.21533 13.4219,-2.44162 -8.4368,11.33295 c 0.2745,-3.72502 -1.749,-7.30975 -4.9851,-8.89133 z" />
        <g
           title="$z_0$"
           style="fill:#000000"
           id="g3344"
           transform="matrix(3.0427402,0,0,3.0427402,-2334.1236,-434.38367)">
          <defs
             id="defs3346">
            <path
               id="path3348"
               d="m 1.33,-0.83 c 0.54,-0.58 0.83,-0.83 1.19,-1.14 0,-0.01 0.62,-0.54 0.98,-0.9 0.95,-0.93 1.17,-1.41 1.17,-1.45 0,-0.1 -0.09,-0.1 -0.11,-0.1 -0.07,0 -0.1,0.02 -0.15,0.11 -0.3,0.48 -0.51,0.64 -0.75,0.64 -0.24,0 -0.36,-0.15 -0.51,-0.32 -0.19,-0.23 -0.36,-0.43 -0.69,-0.43 -0.75,0 -1.21,0.93 -1.21,1.14 0,0.05 0.03,0.11 0.12,0.11 0.09,0 0.11,-0.05 0.13,-0.11 0.19,-0.46 0.77,-0.47 0.85,-0.47 0.21,0 0.4,0.07 0.63,0.15 0.4,0.15 0.51,0.15 0.77,0.15 -0.36,0.43 -1.2,1.15 -1.39,1.31 l -0.9,0.84 c -0.68,0.67 -1.03,1.24 -1.03,1.31 0,0.1 0.1,0.1 0.12,0.1 0.08,0 0.1,-0.02 0.16,-0.13 0.23,-0.35 0.53,-0.62 0.85,-0.62 0.23,0 0.33,0.09 0.58,0.38 0.17,0.21 0.35,0.37 0.64,0.37 0.99,0 1.57,-1.27 1.57,-1.54 0,-0.05 -0.04,-0.1 -0.12,-0.1 -0.09,0 -0.11,0.06 -0.14,0.13 -0.23,0.65 -0.87,0.84 -1.2,0.84 -0.2,0 -0.38,-0.06 -0.59,-0.13 -0.34,-0.13 -0.49,-0.17 -0.7,-0.17 -0.02,0 -0.18,0 -0.27,0.03 z"
               inkscape:connector-curvature="0" />
            <path
               id="path3350"
               d="m 3.612,-2.233 c 0,-0.77 -0.091,-1.323 -0.413,-1.813 -0.217,-0.322 -0.651,-0.602 -1.211,-0.602 -1.624,0 -1.624,1.911 -1.624,2.415 0,0.504 0,2.373 1.624,2.373 1.624,0 1.624,-1.869 1.624,-2.373 z m -1.624,2.177 c -0.322,0 -0.749,-0.189 -0.889,-0.763 -0.098,-0.413 -0.098,-0.987 -0.098,-1.505 0,-0.511 0,-1.043 0.105,-1.428 0.147,-0.553 0.595,-0.7 0.882,-0.7 0.378,0 0.742,0.231 0.868,0.637 0.112,0.378 0.119,0.882 0.119,1.491 0,0.518 0,1.036 -0.091,1.477 -0.14,0.637 -0.616,0.791 -0.896,0.791 z"
               inkscape:connector-curvature="0" />
          </defs>
          <g
             id="g3352">
            <use
               id="use3354"
               y="63"
               xlink:href="#equation_03_00"
               x="77"
               width="687.33484"
               height="665.49506" />
            <use
               id="use3356"
               y="64.5"
               xlink:href="#equation_03_01"
               x="81.650497"
               width="687.33484"
               height="665.49506" />
          </g>
        </g>
        <g
           id="g3358"
           style="fill:#000000"
           title="$y_0$"
           transform="matrix(3.0427402,0,0,3.0427402,-2037.3714,-98.136793)">
          <defs
             id="defs3360">
            <path
               d="M 4.86,-3.81 C 4.9,-3.95 4.9,-3.97 4.9,-4.04 c 0,-0.18 -0.14,-0.27 -0.29,-0.27 -0.1,0 -0.26,0.06 -0.35,0.21 -0.02,0.05 -0.1,0.36 -0.14,0.54 -0.07,0.26 -0.14,0.53 -0.2,0.8 l -0.45,1.8 C 3.43,-0.81 3,-0.11 2.34,-0.11 c -0.51,0 -0.62,-0.44 -0.62,-0.81 0,-0.46 0.17,-1.08 0.51,-1.96 0.16,-0.41 0.2,-0.52 0.2,-0.72 0,-0.45 -0.32,-0.82 -0.82,-0.82 -0.95,0 -1.32,1.45 -1.32,1.54 0,0.1 0.1,0.1 0.12,0.1 0.1,0 0.11,-0.02 0.16,-0.18 0.27,-0.94 0.67,-1.24 1.01,-1.24 0.08,0 0.25,0 0.25,0.32 0,0.25 -0.1,0.51 -0.17,0.7 -0.4,1.06 -0.58,1.63 -0.58,2.1 0,0.89 0.63,1.19 1.22,1.19 0.39,0 0.73,-0.17 1.01,-0.45 C 3.18,0.18 3.06,0.67 2.66,1.2 2.4,1.54 2.02,1.83 1.56,1.83 1.42,1.83 0.97,1.8 0.8,1.41 c 0.16,0 0.29,0 0.43,-0.12 C 1.33,1.2 1.43,1.07 1.43,0.88 1.43,0.57 1.16,0.53 1.06,0.53 0.83,0.53 0.5,0.69 0.5,1.18 c 0,0.5 0.44,0.87 1.06,0.87 1.03,0 2.06,-0.91 2.34,-2.04 l 0.96,-3.82 z"
               id="path3362"
               inkscape:connector-curvature="0" />
            <path
               d="m 3.612,-2.233 c 0,-0.77 -0.091,-1.323 -0.413,-1.813 -0.217,-0.322 -0.651,-0.602 -1.211,-0.602 -1.624,0 -1.624,1.911 -1.624,2.415 0,0.504 0,2.373 1.624,2.373 1.624,0 1.624,-1.869 1.624,-2.373 z m -1.624,2.177 c -0.322,0 -0.749,-0.189 -0.889,-0.763 -0.098,-0.413 -0.098,-0.987 -0.098,-1.505 0,-0.511 0,-1.043 0.105,-1.428 0.147,-0.553 0.595,-0.7 0.882,-0.7 0.378,0 0.742,0.231 0.868,0.637 0.112,0.378 0.119,0.882 0.119,1.491 0,0.518 0,1.036 -0.091,1.477 -0.14,0.637 -0.616,0.791 -0.896,0.791 z"
               id="path3364"
               inkscape:connector-curvature="0" />
          </defs>
          <g
             id="g3366">
            <use
               x="77"
               xlink:href="#equation_04_00"
               y="63"
               id="use3368"
               width="687.33484"
               height="665.49506" />
            <use
               x="81.902802"
               xlink:href="#equation_04_01"
               y="64.5"
               id="use3370"
               width="687.33484"
               height="665.49506" />
          </g>
        </g>
        <g
           title="$x_0$"
           style="fill:#000000"
           id="g3372"
           transform="matrix(3.0427402,0,0,3.0427402,-2415.9978,62.710244)">
          <defs
             id="defs3374">
            <path
               id="path3376"
               d="M 3.34,-3.02 C 3.4,-3.28 3.63,-4.2 4.33,-4.2 c 0.05,0 0.29,0 0.5,0.13 -0.28,0.05 -0.48,0.3 -0.48,0.54 0,0.16 0.11,0.35 0.38,0.35 0.22,0 0.54,-0.18 0.54,-0.58 0,-0.52 -0.59,-0.66 -0.93,-0.66 -0.58,0 -0.93,0.53 -1.05,0.76 -0.25,-0.66 -0.79,-0.76 -1.08,-0.76 -1.04,0 -1.61,1.29 -1.61,1.54 0,0.1 0.1,0.1 0.12,0.1 0.08,0 0.11,-0.02 0.13,-0.11 0.34,-1.06 1,-1.31 1.34,-1.31 0.19,0 0.54,0.09 0.54,0.67 0,0.31 -0.17,0.98 -0.54,2.38 -0.16,0.62 -0.51,1.04 -0.95,1.04 -0.06,0 -0.29,0 -0.5,-0.13 0.25,-0.05 0.47,-0.26 0.47,-0.54 0,-0.27 -0.22,-0.35 -0.37,-0.35 -0.3,0 -0.55,0.26 -0.55,0.58 0,0.46 0.5,0.66 0.94,0.66 0.66,0 1.02,-0.7 1.05,-0.76 0.12,0.37 0.48,0.76 1.08,0.76 1.03,0 1.6,-1.29 1.6,-1.54 0,-0.1 -0.09,-0.1 -0.12,-0.1 -0.09,0 -0.11,0.04 -0.13,0.11 -0.33,1.07 -1.01,1.31 -1.33,1.31 -0.39,0 -0.55,-0.32 -0.55,-0.66 0,-0.22 0.06,-0.44 0.17,-0.88 l 0.34,-1.37 z"
               inkscape:connector-curvature="0" />
            <path
               id="path3378"
               d="m 3.612,-2.233 c 0,-0.77 -0.091,-1.323 -0.413,-1.813 -0.217,-0.322 -0.651,-0.602 -1.211,-0.602 -1.624,0 -1.624,1.911 -1.624,2.415 0,0.504 0,2.373 1.624,2.373 1.624,0 1.624,-1.869 1.624,-2.373 z m -1.624,2.177 c -0.322,0 -0.749,-0.189 -0.889,-0.763 -0.098,-0.413 -0.098,-0.987 -0.098,-1.505 0,-0.511 0,-1.043 0.105,-1.428 0.147,-0.553 0.595,-0.7 0.882,-0.7 0.378,0 0.742,0.231 0.868,0.637 0.112,0.378 0.119,0.882 0.119,1.491 0,0.518 0,1.036 -0.091,1.477 -0.14,0.637 -0.616,0.791 -0.896,0.791 z"
               inkscape:connector-curvature="0" />
          </defs>
          <g
             id="g3380">
            <use
               id="use3382"
               y="63"
               xlink:href="#equation_05_00"
               x="77"
               width="687.33484"
               height="665.49506" />
            <use
               id="use3384"
               y="64.5"
               xlink:href="#equation_05_01"
               x="82.715302"
               width="687.33484"
               height="665.49506" />
          </g>
        </g>
        <use
           transform="matrix(4.2205834,0,0,4.2205834,-2435.0572,-97.194803)"
           height="665.49506"
           width="687.33484"
           x="87.930603"
           xlink:href="#equation_06_02"
           y="63"
           id="use3390"
           style="fill:#000000" />
        <path
           sodipodi:nodetypes="cc"
           inkscape:connector-curvature="0"
           id="path3394"
           d="M -2242.534,-4.2395315 -1796.2532,227.68002"
           style="fill:none;stroke:#000000;stroke-width:0.99212599;stroke-linecap:butt;stroke-linejoin:miter;stroke-miterlimit:4;stroke-opacity:1;stroke-dasharray:0.99212598, 5.95275591;stroke-dashoffset:0;marker-end:none" />
        <path
           sodipodi:nodetypes="cc"
           style="fill:none;stroke:#000000;stroke-width:0.99212599;stroke-linecap:butt;stroke-linejoin:miter;stroke-miterlimit:4;stroke-opacity:1;stroke-dasharray:0.99212598, 5.95275591;stroke-dashoffset:0;marker-end:none"
           d="M -2056.8811,90.082604 -1922.829,-54.972808"
           id="path3396"
           inkscape:connector-curvature="0" />
        <g
           transform="matrix(3.0427402,0,0,3.0427402,-2161.5198,8.7748095)"
           title="$x$"
           style="fill:#000000"
           id="g3778">
          <defs
             id="defs3780">
            <path
               inkscape:connector-curvature="0"
               id="path3782"
               d="M 3.34,-3.02 C 3.4,-3.28 3.63,-4.2 4.33,-4.2 c 0.05,0 0.29,0 0.5,0.13 -0.28,0.05 -0.48,0.3 -0.48,0.54 0,0.16 0.11,0.35 0.38,0.35 0.22,0 0.54,-0.18 0.54,-0.58 0,-0.52 -0.59,-0.66 -0.93,-0.66 -0.58,0 -0.93,0.53 -1.05,0.76 -0.25,-0.66 -0.79,-0.76 -1.08,-0.76 -1.04,0 -1.61,1.29 -1.61,1.54 0,0.1 0.1,0.1 0.12,0.1 0.08,0 0.11,-0.02 0.13,-0.11 0.34,-1.06 1,-1.31 1.34,-1.31 0.19,0 0.54,0.09 0.54,0.67 0,0.31 -0.17,0.98 -0.54,2.38 -0.16,0.62 -0.51,1.04 -0.95,1.04 -0.06,0 -0.29,0 -0.5,-0.13 0.25,-0.05 0.47,-0.26 0.47,-0.54 0,-0.27 -0.22,-0.35 -0.37,-0.35 -0.3,0 -0.55,0.26 -0.55,0.58 0,0.46 0.5,0.66 0.94,0.66 0.66,0 1.02,-0.7 1.05,-0.76 0.12,0.37 0.48,0.76 1.08,0.76 1.03,0 1.6,-1.29 1.6,-1.54 0,-0.1 -0.09,-0.1 -0.12,-0.1 -0.09,0 -0.11,0.04 -0.13,0.11 -0.33,1.07 -1.01,1.31 -1.33,1.31 -0.39,0 -0.55,-0.32 -0.55,-0.66 0,-0.22 0.06,-0.44 0.17,-0.88 l 0.34,-1.37 z" />
          </defs>
          <g
             id="g3784">
            <use
               height="665.49506"
               width="687.33484"
               id="use3786"
               y="63"
               xlink:href="#equation_00_00"
               x="77" />
          </g>
        </g>
        <g
           transform="matrix(3.0427402,0,0,3.0427402,-2179.3974,-199.95982)"
           id="g3788"
           style="fill:#000000"
           title="$y$">
          <defs
             id="defs3790">
            <path
               inkscape:connector-curvature="0"
               d="M 4.86,-3.81 C 4.9,-3.95 4.9,-3.97 4.9,-4.04 c 0,-0.18 -0.14,-0.27 -0.29,-0.27 -0.1,0 -0.26,0.06 -0.35,0.21 -0.02,0.05 -0.1,0.36 -0.14,0.54 -0.07,0.26 -0.14,0.53 -0.2,0.8 l -0.45,1.8 C 3.43,-0.81 3,-0.11 2.34,-0.11 c -0.51,0 -0.62,-0.44 -0.62,-0.81 0,-0.46 0.17,-1.08 0.51,-1.96 0.16,-0.41 0.2,-0.52 0.2,-0.72 0,-0.45 -0.32,-0.82 -0.82,-0.82 -0.95,0 -1.32,1.45 -1.32,1.54 0,0.1 0.1,0.1 0.12,0.1 0.1,0 0.11,-0.02 0.16,-0.18 0.27,-0.94 0.67,-1.24 1.01,-1.24 0.08,0 0.25,0 0.25,0.32 0,0.25 -0.1,0.51 -0.17,0.7 -0.4,1.06 -0.58,1.63 -0.58,2.1 0,0.89 0.63,1.19 1.22,1.19 0.39,0 0.73,-0.17 1.01,-0.45 C 3.18,0.18 3.06,0.67 2.66,1.2 2.4,1.54 2.02,1.83 1.56,1.83 1.42,1.83 0.97,1.8 0.8,1.41 c 0.16,0 0.29,0 0.43,-0.12 C 1.33,1.2 1.43,1.07 1.43,0.88 1.43,0.57 1.16,0.53 1.06,0.53 0.83,0.53 0.5,0.69 0.5,1.18 c 0,0.5 0.44,0.87 1.06,0.87 1.03,0 2.06,-0.91 2.34,-2.04 l 0.96,-3.82 z"
               id="path3792" />
          </defs>
          <g
             id="g3794">
            <use
               height="665.49506"
               width="687.33484"
               x="77"
               xlink:href="#equation_01_00"
               y="63"
               id="use3796" />
          </g>
        </g>
        <g
           style="fill:none;stroke:#000000;stroke-opacity:1"
           transform="matrix(0.68275767,0.36302869,-0.36302869,0.68275767,-2140.1638,-362.84368)"
           id="g3875">
          <path
             sodipodi:nodetypes="cccccc"
             inkscape:connector-curvature="0"
             id="path3877"
             style="fill:none;stroke:#000000;stroke-opacity:1"
             d="m 642.0625,465.25 -273.55627,2.35619 0,3 273.58752,-2.35619 -0.0312,-3 z" />
          <path
             inkscape:connector-curvature="0"
             id="path3879"
             style="fill:none;stroke:#000000;stroke-width:2.4pt;stroke-opacity:1;marker-start:none"
             d="m 612.07665,467.22142 -11.80437,12.1925 41.80045,-12.67765 -42.18857,-11.31921 12.19249,11.80436 z" />
        </g>
        <g
           style="fill:none;stroke:#000000;stroke-opacity:1"
           transform="matrix(0.52736949,-0.56553452,0.56553452,0.52736949,-2544.6347,81.389844)"
           id="g4655">
          <path
             sodipodi:nodetypes="cccccc"
             inkscape:connector-curvature="0"
             id="path4657"
             style="fill:none;stroke:#000000;stroke-opacity:1"
             d="m 642.0625,465.25 c 0,0 6.67751,2.1964 -223.56225,2.19639 l 0,3 c 230.25217,10e-6 223.5935,-2.19639 223.5935,-2.19639 l -0.0312,-3 z" />
          <path
             inkscape:connector-curvature="0"
             id="path4659"
             style="fill:none;stroke:#000000;stroke-width:2.4pt;stroke-opacity:1;marker-start:none"
             d="m 612.07665,467.22142 -11.80437,12.1925 41.80045,-12.67765 -42.18857,-11.31921 12.19249,11.80436 z" />
        </g>
        <g
           transform="matrix(4,0,0,4,-2446.769,61.08475)"
           id="equation_08"
           style="fill:#000000"
           title="$\psi&gt;0$">
          <defs
             id="defs7292">
            <path
               inkscape:connector-curvature="0"
               d="m 4.82,-6.68 c 0.01,-0.04 0.03,-0.1 0.03,-0.15 0,-0.1 -0.07,-0.11 -0.12,-0.11 -0.1,0 -0.11,0.02 -0.15,0.2 L 2.92,-0.13 C 2.16,-0.22 1.78,-0.59 1.78,-1.25 c 0,-0.2 0,-0.46 0.54,-1.86 0.04,-0.12 0.11,-0.29 0.11,-0.49 0,-0.45 -0.32,-0.82 -0.82,-0.82 -0.95,0 -1.32,1.45 -1.32,1.54 0,0.1 0.1,0.1 0.12,0.1 0.1,0 0.11,-0.02 0.16,-0.18 0.27,-0.95 0.67,-1.24 1.01,-1.24 0.08,0 0.25,0 0.25,0.32 0,0.26 -0.1,0.51 -0.23,0.86 -0.48,1.26 -0.48,1.52 -0.48,1.69 0,0.95 0.78,1.36 1.74,1.42 C 2.78,0.45 2.78,0.47 2.64,1 2.61,1.11 2.41,1.92 2.41,1.95 c 0,0.01 0,0.1 0.12,0.1 0.02,0 0.07,0 0.09,-0.04 C 2.65,1.99 2.71,1.74 2.74,1.6 L 3.12,0.11 c 0.37,0 1.25,0 2.19,-1.07 0.41,-0.46 0.62,-0.9 0.73,-1.2 0.09,-0.25 0.31,-1.12 0.31,-1.56 0,-0.56 -0.27,-0.7 -0.44,-0.7 -0.25,0 -0.5,0.26 -0.5,0.48 0,0.13 0.06,0.19 0.15,0.27 0.11,0.11 0.36,0.37 0.36,0.85 0,0.64 -0.52,1.46 -0.87,1.82 -0.88,0.89 -1.52,0.89 -1.88,0.89 l 1.65,-6.57 z"
               id="equation_08_00" />
            <path
               inkscape:connector-curvature="0"
               d="m 6.75,-2.28 c 0.11,-0.05 0.19,-0.1 0.19,-0.22 0,-0.12 -0.08,-0.17 -0.19,-0.22 L 1.21,-5.33 C 1.08,-5.4 1.06,-5.4 1.03,-5.4 c -0.11,0 -0.2,0.09 -0.2,0.2 0,0.09 0.05,0.15 0.19,0.22 L 6.27,-2.5 1.02,-0.02 C 0.88,0.05 0.83,0.11 0.83,0.2 c 0,0.11 0.09,0.2 0.2,0.2 0.03,0 0.05,0 0.18,-0.07 l 5.54,-2.61 z"
               id="equation_08_01" />
            <path
               inkscape:connector-curvature="0"
               d="M 4.6,-3.2 C 4.6,-4 4.55,-4.8 4.2,-5.54 3.74,-6.5 2.92,-6.66 2.5,-6.66 1.9,-6.66 1.17,-6.4 0.76,-5.47 0.44,-4.78 0.39,-4 0.39,-3.2 c 0,0.75 0.04,1.65 0.45,2.41 C 1.27,0.02 2,0.22 2.49,0.22 3.03,0.22 3.79,0.01 4.23,-0.94 4.55,-1.63 4.6,-2.41 4.6,-3.2 z M 2.49,0 C 2.1,0 1.51,-0.25 1.33,-1.21 1.22,-1.81 1.22,-2.73 1.22,-3.32 c 0,-0.64 0,-1.3 0.08,-1.84 0.19,-1.19 0.94,-1.28 1.19,-1.28 0.33,0 0.99,0.18 1.18,1.17 0.1,0.56 0.1,1.32 0.1,1.95 0,0.75 0,1.43 -0.11,2.07 C 3.51,-0.3 2.94,0 2.49,0 z"
               id="equation_08_02" />
          </defs>
          <g
             id="equation_08_g">
            <use
               height="515.5329"
               width="533.98541"
               x="77"
               xlink:href="#equation_08_00"
               y="63"
               id="use7298" />
            <use
               height="515.5329"
               width="533.98541"
               x="86.650398"
               xlink:href="#equation_08_01"
               y="63"
               id="use7300" />
            <use
               height="515.5329"
               width="533.98541"
               x="97.205902"
               xlink:href="#equation_08_02"
               y="63"
               id="use7302" />
          </g>
        </g>
      </g>
      <g
         transform="translate(56.816986,0)"
         id="g9209">
        <path
           inkscape:connector-curvature="0"
           id="path3128"
           style="fill:none;stroke:#000000;stroke-width:2.31981277;stroke-miterlimit:4;stroke-opacity:1;stroke-dasharray:none;stroke-dashoffset:0"
           d="m -1142.4142,95.23615 c 0,80.62797 -111.9097,145.98985 -249.9574,145.98985 -138.0476,0 -249.9573,-65.36188 -249.9573,-145.98985 0,-80.627971 111.9097,-145.989854 249.9573,-145.989854 138.0477,0 249.9574,65.361883 249.9574,145.989854 l 0,0 z" />
        <g
           style="fill:#000000;fill-opacity:1;stroke:#000000;stroke-opacity:1"
           transform="matrix(0.77327091,0,0,0.77327091,-1643.4888,-269.61373)"
           id="g3130">
          <path
             inkscape:connector-curvature="0"
             id="path3132"
             style="fill:#000000;fill-opacity:1;fill-rule:evenodd;stroke:#000000;stroke-opacity:1"
             d="m 642.0625,465.25 c 0,0 -88.32274,1.40626 -318.5625,1.40625 l 0,3 c 230.25217,10e-6 318.59375,-1.40625 318.59375,-1.40625 l -0.0312,-3 z" />
          <path
             inkscape:connector-curvature="0"
             id="path3134"
             style="fill:#000000;fill-opacity:1;fill-rule:evenodd;stroke:#000000;stroke-width:2.4pt;stroke-opacity:1;marker-start:none"
             d="m 612.07665,467.22142 -11.80437,12.1925 41.80045,-12.67765 -42.18857,-11.31921 12.19249,11.80436 z" />
        </g>
        <g
           style="fill:#000000;fill-opacity:1;stroke:#000000;stroke-opacity:1"
           transform="matrix(0.77327091,0,0,0.77327091,-1643.4888,-269.61373)"
           id="g3136">
          <path
             inkscape:connector-curvature="0"
             id="path3138"
             style="fill:#000000;fill-opacity:1;fill-rule:evenodd;stroke:#000000;stroke-opacity:1"
             d="m 324.59375,465.625 c -60.10408,87.88328 -90.16148,131.81043 -105.1875,153.78125 -7.51301,10.98541 -11.278,16.4724 -13.15625,19.21875 -0.93913,1.37318 -1.39022,2.06296 -1.625,2.40625 -0.11739,0.17165 -0.1894,0.26959 -0.21875,0.3125 -0.0147,0.0215 -0.0276,0.0259 -0.0312,0.0312 l 2.46875,1.6875 c 0,0 0.0106,0.0166 120.21875,-175.75 l -2.46875,-1.6875 z" />
          <path
             inkscape:connector-curvature="0"
             id="path3140"
             style="fill:#000000;fill-opacity:1;fill-rule:evenodd;stroke:#000000;stroke-width:2.4pt;stroke-opacity:1;marker-start:none"
             d="m 222.55123,617.46705 -3.13092,-16.67925 -13.8045,41.44196 33.61466,-27.89362 -16.67924,3.13091 z" />
        </g>
        <g
           style="fill:#000000;fill-opacity:1;stroke:#000000;stroke-opacity:1"
           transform="matrix(0.77327091,0,0,0.77327091,-1643.4888,-269.61373)"
           id="g3142">
          <path
             inkscape:connector-curvature="0"
             id="path3144"
             style="fill:#000000;fill-opacity:1;fill-rule:evenodd;stroke:#000000;stroke-opacity:1"
             d="m 325.625,42.03125 -3.4375,0.03125 c 0,0 1.40625,117.87192 1.40625,425.1875 l 3.4375,0 c 0,-307.32603 -1.40625,-425.21875 -1.40625,-425.21875 z" />
          <path
             inkscape:connector-curvature="0"
             id="path3146"
             style="fill:#000000;fill-opacity:1;fill-rule:evenodd;stroke:#000000;stroke-width:2.74754028pt;stroke-opacity:1;marker-start:none"
             d="m 324.31355,76.387334 13.90017,13.573287 -14.30877,-47.91511 -13.16468,48.241993 13.57328,-13.90017 z" />
        </g>
        <path
           d="m -1409.2949,123.0312 -1.5357,2.65674 c 17.964,6.67427 42.0608,12.21355 63.5944,-4.1904 l -0.8817,-2.50197 c -20.7228,15.7863 -43.5188,10.18965 -61.177,4.03563 z"
           style="fill:#000000;fill-opacity:1;stroke:none"
           id="path3166"
           inkscape:connector-curvature="0"
           sodipodi:nodetypes="ccccc" />
        <path
           d="m -1357.0278,120.21533 13.4219,-2.44162 -8.4368,11.33295 c 0.2744,-3.72502 -1.749,-7.30975 -4.9851,-8.89133 z"
           style="font-size:12px;fill-rule:evenodd;stroke-width:0.625;stroke-linejoin:round"
           id="path3168"
           inkscape:connector-curvature="0" />
        <path
           d="m -1299.4428,119.3992 2.462,-12.83811 6.7559,13.16508 c -3.0642,-2.17361 -6.7851,-2.29376 -9.2179,-0.32697 z"
           style="font-size:12px;fill-rule:evenodd;stroke-width:0.625;stroke-linejoin:round"
           id="path3174"
           inkscape:connector-curvature="0" />
        <g
           transform="matrix(3.0427402,0,0,3.0427402,-1447.1822,-40.037871)"
           title="$x$"
           style="fill:#000000"
           id="g3176">
          <defs
             id="defs3178">
            <path
               inkscape:connector-curvature="0"
               id="path3180"
               d="M 3.34,-3.02 C 3.4,-3.28 3.63,-4.2 4.33,-4.2 c 0.05,0 0.29,0 0.5,0.13 -0.28,0.05 -0.48,0.3 -0.48,0.54 0,0.16 0.11,0.35 0.38,0.35 0.22,0 0.54,-0.18 0.54,-0.58 0,-0.52 -0.59,-0.66 -0.93,-0.66 -0.58,0 -0.93,0.53 -1.05,0.76 -0.25,-0.66 -0.79,-0.76 -1.08,-0.76 -1.04,0 -1.61,1.29 -1.61,1.54 0,0.1 0.1,0.1 0.12,0.1 0.08,0 0.11,-0.02 0.13,-0.11 0.34,-1.06 1,-1.31 1.34,-1.31 0.19,0 0.54,0.09 0.54,0.67 0,0.31 -0.17,0.98 -0.54,2.38 -0.16,0.62 -0.51,1.04 -0.95,1.04 -0.06,0 -0.29,0 -0.5,-0.13 0.25,-0.05 0.47,-0.26 0.47,-0.54 0,-0.27 -0.22,-0.35 -0.37,-0.35 -0.3,0 -0.55,0.26 -0.55,0.58 0,0.46 0.5,0.66 0.94,0.66 0.66,0 1.02,-0.7 1.05,-0.76 0.12,0.37 0.48,0.76 1.08,0.76 1.03,0 1.6,-1.29 1.6,-1.54 0,-0.1 -0.09,-0.1 -0.12,-0.1 -0.09,0 -0.11,0.04 -0.13,0.11 -0.33,1.07 -1.01,1.31 -1.33,1.31 -0.39,0 -0.55,-0.32 -0.55,-0.66 0,-0.22 0.06,-0.44 0.17,-0.88 l 0.34,-1.37 z" />
          </defs>
          <g
             id="g3182">
            <use
               height="665.49506"
               width="687.33484"
               id="use3184"
               y="63"
               xlink:href="#equation_00_00"
               x="77" />
          </g>
        </g>
        <g
           transform="matrix(3.0427402,0,0,3.0427402,-1555.3152,-217.27347)"
           id="g3186"
           style="fill:#000000"
           title="$y$">
          <defs
             id="defs3188">
            <path
               inkscape:connector-curvature="0"
               d="M 4.86,-3.81 C 4.9,-3.95 4.9,-3.97 4.9,-4.04 c 0,-0.18 -0.14,-0.27 -0.29,-0.27 -0.1,0 -0.26,0.06 -0.35,0.21 -0.02,0.05 -0.1,0.36 -0.14,0.54 -0.07,0.26 -0.14,0.53 -0.2,0.8 l -0.45,1.8 C 3.43,-0.81 3,-0.11 2.34,-0.11 c -0.51,0 -0.62,-0.44 -0.62,-0.81 0,-0.46 0.17,-1.08 0.51,-1.96 0.16,-0.41 0.2,-0.52 0.2,-0.72 0,-0.45 -0.32,-0.82 -0.82,-0.82 -0.95,0 -1.32,1.45 -1.32,1.54 0,0.1 0.1,0.1 0.12,0.1 0.1,0 0.11,-0.02 0.16,-0.18 0.27,-0.94 0.67,-1.24 1.01,-1.24 0.08,0 0.25,0 0.25,0.32 0,0.25 -0.1,0.51 -0.17,0.7 -0.4,1.06 -0.58,1.63 -0.58,2.1 0,0.89 0.63,1.19 1.22,1.19 0.39,0 0.73,-0.17 1.01,-0.45 C 3.18,0.18 3.06,0.67 2.66,1.2 2.4,1.54 2.02,1.83 1.56,1.83 1.42,1.83 0.97,1.8 0.8,1.41 c 0.16,0 0.29,0 0.43,-0.12 C 1.33,1.2 1.43,1.07 1.43,0.88 1.43,0.57 1.16,0.53 1.06,0.53 0.83,0.53 0.5,0.69 0.5,1.18 c 0,0.5 0.44,0.87 1.06,0.87 1.03,0 2.06,-0.91 2.34,-2.04 l 0.96,-3.82 z"
               id="path3190" />
          </defs>
          <g
             id="g3192">
            <use
               height="665.49506"
               width="687.33484"
               x="77"
               xlink:href="#equation_01_00"
               y="63"
               id="use3194" />
          </g>
        </g>
        <g
           transform="matrix(3.0427402,0,0,2.9792763,-1708.1365,-268.79287)"
           title="$z$"
           style="fill:#000000"
           id="g3196">
          <defs
             id="defs3198">
            <path
               inkscape:connector-curvature="0"
               id="path3200"
               d="m 1.33,-0.83 c 0.54,-0.58 0.83,-0.83 1.19,-1.14 0,-0.01 0.62,-0.54 0.98,-0.9 0.95,-0.93 1.17,-1.41 1.17,-1.45 0,-0.1 -0.09,-0.1 -0.11,-0.1 -0.07,0 -0.1,0.02 -0.15,0.11 -0.3,0.48 -0.51,0.64 -0.75,0.64 -0.24,0 -0.36,-0.15 -0.51,-0.32 -0.19,-0.23 -0.36,-0.43 -0.69,-0.43 -0.75,0 -1.21,0.93 -1.21,1.14 0,0.05 0.03,0.11 0.12,0.11 0.09,0 0.11,-0.05 0.13,-0.11 0.19,-0.46 0.77,-0.47 0.85,-0.47 0.21,0 0.4,0.07 0.63,0.15 0.4,0.15 0.51,0.15 0.77,0.15 -0.36,0.43 -1.2,1.15 -1.39,1.31 l -0.9,0.84 c -0.68,0.67 -1.03,1.24 -1.03,1.31 0,0.1 0.1,0.1 0.12,0.1 0.08,0 0.1,-0.02 0.16,-0.13 0.23,-0.35 0.53,-0.62 0.85,-0.62 0.23,0 0.33,0.09 0.58,0.38 0.17,0.21 0.35,0.37 0.64,0.37 0.99,0 1.57,-1.27 1.57,-1.54 0,-0.05 -0.04,-0.1 -0.12,-0.1 -0.09,0 -0.11,0.06 -0.14,0.13 -0.23,0.65 -0.87,0.84 -1.2,0.84 -0.2,0 -0.38,-0.06 -0.59,-0.13 -0.34,-0.13 -0.49,-0.17 -0.7,-0.17 -0.02,0 -0.18,0 -0.27,0.03 z" />
          </defs>
          <g
             id="g3202">
            <use
               height="665.49506"
               width="687.33484"
               id="use3204"
               y="63"
               xlink:href="#equation_02_00"
               x="77" />
          </g>
        </g>
        <g
           transform="matrix(3.0427402,0,0,3.0427402,-1666.4549,-434.38367)"
           id="g3206"
           style="fill:#000000"
           title="$z_0$">
          <defs
             id="defs3208">
            <path
               inkscape:connector-curvature="0"
               d="m 1.33,-0.83 c 0.54,-0.58 0.83,-0.83 1.19,-1.14 0,-0.01 0.62,-0.54 0.98,-0.9 0.95,-0.93 1.17,-1.41 1.17,-1.45 0,-0.1 -0.09,-0.1 -0.11,-0.1 -0.07,0 -0.1,0.02 -0.15,0.11 -0.3,0.48 -0.51,0.64 -0.75,0.64 -0.24,0 -0.36,-0.15 -0.51,-0.32 -0.19,-0.23 -0.36,-0.43 -0.69,-0.43 -0.75,0 -1.21,0.93 -1.21,1.14 0,0.05 0.03,0.11 0.12,0.11 0.09,0 0.11,-0.05 0.13,-0.11 0.19,-0.46 0.77,-0.47 0.85,-0.47 0.21,0 0.4,0.07 0.63,0.15 0.4,0.15 0.51,0.15 0.77,0.15 -0.36,0.43 -1.2,1.15 -1.39,1.31 l -0.9,0.84 c -0.68,0.67 -1.03,1.24 -1.03,1.31 0,0.1 0.1,0.1 0.12,0.1 0.08,0 0.1,-0.02 0.16,-0.13 0.23,-0.35 0.53,-0.62 0.85,-0.62 0.23,0 0.33,0.09 0.58,0.38 0.17,0.21 0.35,0.37 0.64,0.37 0.99,0 1.57,-1.27 1.57,-1.54 0,-0.05 -0.04,-0.1 -0.12,-0.1 -0.09,0 -0.11,0.06 -0.14,0.13 -0.23,0.65 -0.87,0.84 -1.2,0.84 -0.2,0 -0.38,-0.06 -0.59,-0.13 -0.34,-0.13 -0.49,-0.17 -0.7,-0.17 -0.02,0 -0.18,0 -0.27,0.03 z"
               id="path3210" />
            <path
               inkscape:connector-curvature="0"
               d="m 3.612,-2.233 c 0,-0.77 -0.091,-1.323 -0.413,-1.813 -0.217,-0.322 -0.651,-0.602 -1.211,-0.602 -1.624,0 -1.624,1.911 -1.624,2.415 0,0.504 0,2.373 1.624,2.373 1.624,0 1.624,-1.869 1.624,-2.373 z m -1.624,2.177 c -0.322,0 -0.749,-0.189 -0.889,-0.763 -0.098,-0.413 -0.098,-0.987 -0.098,-1.505 0,-0.511 0,-1.043 0.105,-1.428 0.147,-0.553 0.595,-0.7 0.882,-0.7 0.378,0 0.742,0.231 0.868,0.637 0.112,0.378 0.119,0.882 0.119,1.491 0,0.518 0,1.036 -0.091,1.477 -0.14,0.637 -0.616,0.791 -0.896,0.791 z"
               id="path3212" />
          </defs>
          <g
             id="g3214">
            <use
               height="665.49506"
               width="687.33484"
               x="77"
               xlink:href="#equation_03_00"
               y="63"
               id="use3216" />
            <use
               height="665.49506"
               width="687.33484"
               x="81.650497"
               xlink:href="#equation_03_01"
               y="64.5"
               id="use3218" />
          </g>
        </g>
        <g
           transform="matrix(3.0427402,0,0,3.0427402,-1369.7027,-98.136793)"
           title="$y_0$"
           style="fill:#000000"
           id="g3220">
          <defs
             id="defs3222">
            <path
               inkscape:connector-curvature="0"
               id="path3224"
               d="M 4.86,-3.81 C 4.9,-3.95 4.9,-3.97 4.9,-4.04 c 0,-0.18 -0.14,-0.27 -0.29,-0.27 -0.1,0 -0.26,0.06 -0.35,0.21 -0.02,0.05 -0.1,0.36 -0.14,0.54 -0.07,0.26 -0.14,0.53 -0.2,0.8 l -0.45,1.8 C 3.43,-0.81 3,-0.11 2.34,-0.11 c -0.51,0 -0.62,-0.44 -0.62,-0.81 0,-0.46 0.17,-1.08 0.51,-1.96 0.16,-0.41 0.2,-0.52 0.2,-0.72 0,-0.45 -0.32,-0.82 -0.82,-0.82 -0.95,0 -1.32,1.45 -1.32,1.54 0,0.1 0.1,0.1 0.12,0.1 0.1,0 0.11,-0.02 0.16,-0.18 0.27,-0.94 0.67,-1.24 1.01,-1.24 0.08,0 0.25,0 0.25,0.32 0,0.25 -0.1,0.51 -0.17,0.7 -0.4,1.06 -0.58,1.63 -0.58,2.1 0,0.89 0.63,1.19 1.22,1.19 0.39,0 0.73,-0.17 1.01,-0.45 C 3.18,0.18 3.06,0.67 2.66,1.2 2.4,1.54 2.02,1.83 1.56,1.83 1.42,1.83 0.97,1.8 0.8,1.41 c 0.16,0 0.29,0 0.43,-0.12 C 1.33,1.2 1.43,1.07 1.43,0.88 1.43,0.57 1.16,0.53 1.06,0.53 0.83,0.53 0.5,0.69 0.5,1.18 c 0,0.5 0.44,0.87 1.06,0.87 1.03,0 2.06,-0.91 2.34,-2.04 l 0.96,-3.82 z" />
            <path
               inkscape:connector-curvature="0"
               id="path3226"
               d="m 3.612,-2.233 c 0,-0.77 -0.091,-1.323 -0.413,-1.813 -0.217,-0.322 -0.651,-0.602 -1.211,-0.602 -1.624,0 -1.624,1.911 -1.624,2.415 0,0.504 0,2.373 1.624,2.373 1.624,0 1.624,-1.869 1.624,-2.373 z m -1.624,2.177 c -0.322,0 -0.749,-0.189 -0.889,-0.763 -0.098,-0.413 -0.098,-0.987 -0.098,-1.505 0,-0.511 0,-1.043 0.105,-1.428 0.147,-0.553 0.595,-0.7 0.882,-0.7 0.378,0 0.742,0.231 0.868,0.637 0.112,0.378 0.119,0.882 0.119,1.491 0,0.518 0,1.036 -0.091,1.477 -0.14,0.637 -0.616,0.791 -0.896,0.791 z" />
          </defs>
          <g
             id="g3228">
            <use
               height="665.49506"
               width="687.33484"
               id="use3230"
               y="63"
               xlink:href="#equation_04_00"
               x="77" />
            <use
               height="665.49506"
               width="687.33484"
               id="use3232"
               y="64.5"
               xlink:href="#equation_04_01"
               x="81.902802" />
          </g>
        </g>
        <g
           transform="matrix(3.0427402,0,0,3.0427402,-1748.3291,62.710244)"
           id="g3234"
           style="fill:#000000"
           title="$x_0$">
          <defs
             id="defs3236">
            <path
               inkscape:connector-curvature="0"
               d="M 3.34,-3.02 C 3.4,-3.28 3.63,-4.2 4.33,-4.2 c 0.05,0 0.29,0 0.5,0.13 -0.28,0.05 -0.48,0.3 -0.48,0.54 0,0.16 0.11,0.35 0.38,0.35 0.22,0 0.54,-0.18 0.54,-0.58 0,-0.52 -0.59,-0.66 -0.93,-0.66 -0.58,0 -0.93,0.53 -1.05,0.76 -0.25,-0.66 -0.79,-0.76 -1.08,-0.76 -1.04,0 -1.61,1.29 -1.61,1.54 0,0.1 0.1,0.1 0.12,0.1 0.08,0 0.11,-0.02 0.13,-0.11 0.34,-1.06 1,-1.31 1.34,-1.31 0.19,0 0.54,0.09 0.54,0.67 0,0.31 -0.17,0.98 -0.54,2.38 -0.16,0.62 -0.51,1.04 -0.95,1.04 -0.06,0 -0.29,0 -0.5,-0.13 0.25,-0.05 0.47,-0.26 0.47,-0.54 0,-0.27 -0.22,-0.35 -0.37,-0.35 -0.3,0 -0.55,0.26 -0.55,0.58 0,0.46 0.5,0.66 0.94,0.66 0.66,0 1.02,-0.7 1.05,-0.76 0.12,0.37 0.48,0.76 1.08,0.76 1.03,0 1.6,-1.29 1.6,-1.54 0,-0.1 -0.09,-0.1 -0.12,-0.1 -0.09,0 -0.11,0.04 -0.13,0.11 -0.33,1.07 -1.01,1.31 -1.33,1.31 -0.39,0 -0.55,-0.32 -0.55,-0.66 0,-0.22 0.06,-0.44 0.17,-0.88 l 0.34,-1.37 z"
               id="path3238" />
            <path
               inkscape:connector-curvature="0"
               d="m 3.612,-2.233 c 0,-0.77 -0.091,-1.323 -0.413,-1.813 -0.217,-0.322 -0.651,-0.602 -1.211,-0.602 -1.624,0 -1.624,1.911 -1.624,2.415 0,0.504 0,2.373 1.624,2.373 1.624,0 1.624,-1.869 1.624,-2.373 z m -1.624,2.177 c -0.322,0 -0.749,-0.189 -0.889,-0.763 -0.098,-0.413 -0.098,-0.987 -0.098,-1.505 0,-0.511 0,-1.043 0.105,-1.428 0.147,-0.553 0.595,-0.7 0.882,-0.7 0.378,0 0.742,0.231 0.868,0.637 0.112,0.378 0.119,0.882 0.119,1.491 0,0.518 0,1.036 -0.091,1.477 -0.14,0.637 -0.616,0.791 -0.896,0.791 z"
               id="path3240" />
          </defs>
          <g
             id="g3242">
            <use
               height="665.49506"
               width="687.33484"
               x="77"
               xlink:href="#equation_05_00"
               y="63"
               id="use3244" />
            <use
               height="665.49506"
               width="687.33484"
               x="82.715302"
               xlink:href="#equation_05_01"
               y="64.5"
               id="use3246" />
          </g>
        </g>
        <use
           style="fill:#000000"
           id="use3252"
           y="63"
           xlink:href="#equation_06_02"
           x="87.930603"
           width="687.33484"
           height="665.49506"
           transform="matrix(4.2205834,0,0,4.2205834,-1767.3885,-97.194803)" />
        <path
           inkscape:connector-curvature="0"
           sodipodi:nodetypes="cc"
           id="path3254"
           style="fill:none;stroke:#000000;stroke-width:1.77165353;stroke-miterlimit:4;stroke-opacity:1;stroke-dasharray:none;stroke-dashoffset:0"
           d="m -1580.3576,-2.6017071 c 62.3951,-257.4857629 452.161,-53.1615449 381.2589,188.6165271" />
        <path
           style="fill:none;stroke:#000000;stroke-width:0.99212599;stroke-linecap:butt;stroke-linejoin:miter;stroke-miterlimit:4;stroke-opacity:1;stroke-dasharray:0.99212598, 5.95275591;stroke-dashoffset:0;marker-end:none"
           d="m -1575.6939,-2.58225 447.5,229.28571"
           id="path3256"
           inkscape:connector-curvature="0" />
        <path
           inkscape:connector-curvature="0"
           id="path3258"
           d="m -1389.3101,89.838463 131.806,-143.444083"
           style="fill:none;stroke:#000000;stroke-width:0.99212599;stroke-linecap:butt;stroke-linejoin:miter;stroke-miterlimit:4;stroke-opacity:1;stroke-dasharray:0.99212598, 5.95275591;stroke-dashoffset:0;marker-end:none"
           sodipodi:nodetypes="cc" />
        <path
           sodipodi:type="arc"
           style="fill:none;stroke:#000000;stroke-width:0;stroke-miterlimit:4;stroke-opacity:1;stroke-dasharray:none;stroke-dashoffset:0"
           id="path3260"
           sodipodi:cx="383.98422"
           sodipodi:cy="464.60098"
           sodipodi:rx="51.644051"
           sodipodi:ry="35.481609"
           d="m 370.57505,498.86571 c -27.54402,-5.08801 -43.86937,-24.5535 -36.46369,-43.47739 7.40569,-18.92388 35.73802,-30.14008 63.28204,-25.05206 27.54402,5.08801 43.86936,24.5535 36.46368,43.47738 -7.37617,18.84847 -35.52515,30.06484 -63.00056,25.10348"
           transform="translate(-1721.4082,-328.07731)"
           sodipodi:start="1.833452"
           sodipodi:end="8.1109977"
           sodipodi:open="true" />
        <path
           inkscape:connector-curvature="0"
           id="path3262"
           style="fill:#000000;fill-opacity:1;stroke:none"
           d="m -1297.6292,110.08693 c 3.4645,11.59799 3.8892,16.03258 -0.3916,29.55941 l 1.8377,0.24984 c 4.388,-13.86547 3.6217,-17.1367 0.127,-30.53402 z"
           sodipodi:nodetypes="ccccc" />
        <g
           id="g5209"
           transform="matrix(0.75906374,0.14754705,-0.14754705,0.75906374,-1610.3629,-321.32017)"
           style="fill:none;stroke:#000000;stroke-opacity:1">
          <path
             d="m 642.0625,465.25 -262.70125,2.97534 0,3 262.7325,-2.97534 -0.0312,-3 z"
             style="fill:none;stroke:#000000;stroke-opacity:1"
             id="path5211"
             inkscape:connector-curvature="0"
             sodipodi:nodetypes="cccccc" />
          <path
             d="m 612.07665,467.22142 -11.80437,12.1925 41.80045,-12.67765 -42.18857,-11.31921 12.19249,11.80436 z"
             style="fill:none;stroke:#000000;stroke-width:2.4pt;stroke-opacity:1;marker-start:none"
             id="path5213"
             inkscape:connector-curvature="0" />
        </g>
        <g
           style="fill:none;stroke:#000000;stroke-opacity:1"
           transform="matrix(-0.18707116,-0.75030146,0.75030146,-0.18707116,-1675.8253,453.36829)"
           id="g5215">
          <path
             sodipodi:nodetypes="cccccc"
             inkscape:connector-curvature="0"
             id="path5217"
             style="fill:none;stroke:#000000;stroke-opacity:1"
             d="m 642.0625,465.25 -273.55627,2.35619 0,3 273.58752,-2.35619 -0.0312,-3 z" />
          <path
             inkscape:connector-curvature="0"
             id="path5219"
             style="fill:none;stroke:#000000;stroke-width:2.4pt;stroke-opacity:1;marker-start:none"
             d="m 612.07665,467.22142 -11.80437,12.1925 41.80045,-12.67765 -42.18857,-11.31921 12.19249,11.80436 z" />
        </g>
        <g
           id="g5221"
           transform="matrix(0.52736949,-0.56553452,0.56553452,0.52736949,-1881.7325,85.122793)"
           style="fill:none;stroke:#000000;stroke-opacity:1">
          <path
             d="m 642.0625,465.25 c 0,0 6.67751,2.1964 -223.56225,2.19639 l 0,3 c 230.25217,10e-6 223.5935,-2.19639 223.5935,-2.19639 l -0.0312,-3 z"
             style="fill:none;stroke:#000000;stroke-opacity:1"
             id="path5223"
             inkscape:connector-curvature="0"
             sodipodi:nodetypes="cccccc" />
          <path
             d="m 612.07665,467.22142 -11.80437,12.1925 41.80045,-12.67765 -42.18857,-11.31921 12.19249,11.80436 z"
             style="fill:none;stroke:#000000;stroke-width:2.4pt;stroke-opacity:1;marker-start:none"
             id="path5225"
             inkscape:connector-curvature="0" />
        </g>
        <use
           style="fill:#000000"
           id="use5591"
           y="63"
           xlink:href="#equation_06_00"
           x="82.958298"
           width="687.33484"
           height="665.49506"
           transform="matrix(4.2205834,0,0,4.2205834,-1630.0546,-117.0832)" />
        <g
           title="$\theta&lt;0$"
           style="fill:#000000"
           id="equation_09"
           transform="matrix(4,0,0,4,-1745.1579,67.68475)">
          <defs
             id="defs7813">
            <path
               id="equation_09_00"
               d="m 4.55,-5 c 0,-0.66 -0.18,-2.05 -1.2,-2.05 -1.39,0 -2.93,2.82 -2.93,5.11 0,0.94 0.29,2.05 1.2,2.05 1.41,0 2.93,-2.87 2.93,-5.11 z m -3.07,1.37 c 0.17,-0.64 0.37,-1.44 0.77,-2.15 0.27,-0.49 0.64,-1.05 1.09,-1.05 0.49,0 0.55,0.64 0.55,1.21 0,0.49 -0.08,1 -0.32,1.99 H 1.48 z m 2,0.32 C 3.37,-2.85 3.16,-2 2.78,-1.28 2.43,-0.6 2.05,-0.11 1.62,-0.11 c -0.33,0 -0.54,-0.29 -0.54,-1.22 0,-0.42 0.06,-1 0.32,-1.98 h 2.08 z"
               inkscape:connector-curvature="0" />
            <path
               id="equation_09_01"
               d="m 6.75,-4.98 c 0.12,-0.06 0.19,-0.11 0.19,-0.22 0,-0.11 -0.09,-0.2 -0.2,-0.2 -0.03,0 -0.05,0 -0.18,0.07 l -5.54,2.61 c -0.11,0.05 -0.19,0.1 -0.19,0.22 0,0.12 0.08,0.17 0.19,0.22 L 6.56,0.33 C 6.69,0.4 6.71,0.4 6.74,0.4 6.85,0.4 6.94,0.31 6.94,0.2 6.94,0.09 6.87,0.04 6.75,-0.02 L 1.5,-2.5 6.75,-4.98 z"
               inkscape:connector-curvature="0" />
            <path
               id="equation_09_02"
               d="M 4.6,-3.2 C 4.6,-4 4.55,-4.8 4.2,-5.54 3.74,-6.5 2.92,-6.66 2.5,-6.66 1.9,-6.66 1.17,-6.4 0.76,-5.47 0.44,-4.78 0.39,-4 0.39,-3.2 c 0,0.75 0.04,1.65 0.45,2.41 C 1.27,0.02 2,0.22 2.49,0.22 3.03,0.22 3.79,0.01 4.23,-0.94 4.55,-1.63 4.6,-2.41 4.6,-3.2 z M 2.49,0 C 2.1,0 1.51,-0.25 1.33,-1.21 1.22,-1.81 1.22,-2.73 1.22,-3.32 c 0,-0.64 0,-1.3 0.08,-1.84 0.19,-1.19 0.94,-1.28 1.19,-1.28 0.33,0 0.99,0.18 1.18,1.17 0.1,0.56 0.1,1.32 0.1,1.95 0,0.75 0,1.43 -0.11,2.07 C 3.51,-0.3 2.94,0 2.49,0 z"
               inkscape:connector-curvature="0" />
          </defs>
          <g
             id="equation_09_g">
            <use
               id="use7819"
               y="63"
               xlink:href="#equation_09_00"
               x="77"
               width="533.98541"
               height="515.5329" />
            <use
               id="use7821"
               y="63"
               xlink:href="#equation_09_01"
               x="84.749901"
               width="533.98541"
               height="515.5329" />
            <use
               id="use7823"
               y="63"
               xlink:href="#equation_09_02"
               x="95.305496"
               width="533.98541"
               height="515.5329" />
          </g>
        </g>
        <path
           sodipodi:nodetypes="cc"
           style="fill:none;stroke:#000000;stroke-width:0.99212599;stroke-linecap:butt;stroke-linejoin:miter;stroke-miterlimit:4;stroke-opacity:1;stroke-dasharray:0.99212598, 5.95275591;stroke-dashoffset:0;marker-end:none"
           d="m -1447.6096,-121.81182 55.8842,213.289009"
           id="path8091"
           inkscape:connector-curvature="0" />
      </g>
      <g
         transform="translate(-9.1552734e-5,0)"
         id="g9286">
        <path
           d="m -474.74552,95.23615 c 0,80.62797 -111.90972,145.98985 -249.95736,145.98985 -138.04764,0 -249.95734,-65.36188 -249.95734,-145.98985 0,-80.627971 111.9097,-145.989854 249.95734,-145.989854 138.04764,0 249.95736,65.361883 249.95736,145.989854 l 0,0 z"
           style="fill:none;stroke:#000000;stroke-width:1.41732287;stroke-miterlimit:4;stroke-opacity:1;stroke-dasharray:none;stroke-dashoffset:0"
           id="path3834"
           inkscape:connector-curvature="0" />
        <g
           id="g3836"
           transform="matrix(0.77327091,0,0,0.77327091,-975.82012,-269.61373)"
           style="fill:#000000;fill-opacity:1;stroke:#000000;stroke-opacity:1">
          <path
             d="m 642.0625,465.25 c 0,0 -88.32274,1.40626 -318.5625,1.40625 l 0,3 c 230.25217,10e-6 318.59375,-1.40625 318.59375,-1.40625 l -0.0312,-3 z"
             style="fill:#000000;fill-opacity:1;fill-rule:evenodd;stroke:#000000;stroke-opacity:1"
             id="path3838"
             inkscape:connector-curvature="0" />
          <path
             d="m 612.07665,467.22142 -11.80437,12.1925 41.80045,-12.67765 -42.18857,-11.31921 12.19249,11.80436 z"
             style="fill:#000000;fill-opacity:1;fill-rule:evenodd;stroke:#000000;stroke-width:2.4pt;stroke-opacity:1;marker-start:none"
             id="path3840"
             inkscape:connector-curvature="0" />
        </g>
        <g
           id="g3852"
           transform="matrix(0.77327091,0,0,0.77327091,-975.82012,-269.61373)"
           style="fill:#000000;fill-opacity:1;stroke:#000000;stroke-opacity:1">
          <path
             d="m 324.59375,465.625 c -60.10408,87.88328 -90.16148,131.81043 -105.1875,153.78125 -7.51301,10.98541 -11.278,16.4724 -13.15625,19.21875 -0.93913,1.37318 -1.39022,2.06296 -1.625,2.40625 -0.11739,0.17165 -0.1894,0.26959 -0.21875,0.3125 -0.0147,0.0215 -0.0276,0.0259 -0.0312,0.0312 l 2.46875,1.6875 c 0,0 0.0106,0.0166 120.21875,-175.75 l -2.46875,-1.6875 z"
             style="fill:#000000;fill-opacity:1;fill-rule:evenodd;stroke:#000000;stroke-opacity:1"
             id="path3854"
             inkscape:connector-curvature="0" />
          <path
             d="m 222.55123,617.46705 -3.13092,-16.67925 -13.8045,41.44196 33.61466,-27.89362 -16.67924,3.13091 z"
             style="fill:#000000;fill-opacity:1;fill-rule:evenodd;stroke:#000000;stroke-width:2.4pt;stroke-opacity:1;marker-start:none"
             id="path3856"
             inkscape:connector-curvature="0" />
        </g>
        <g
           id="g3868"
           transform="matrix(0.77327091,0,0,0.77327091,-975.82012,-269.61373)"
           style="fill:#000000;fill-opacity:1;stroke:#000000;stroke-opacity:1">
          <path
             d="m 325.625,42.03125 -3.4375,0.03125 c 0,0 1.40625,117.87192 1.40625,425.1875 l 3.4375,0 c 0,-307.32603 -1.40625,-425.21875 -1.40625,-425.21875 z"
             style="fill:#000000;fill-opacity:1;fill-rule:evenodd;stroke:#000000;stroke-opacity:1"
             id="path3870"
             inkscape:connector-curvature="0" />
          <path
             d="m 324.31355,76.387334 13.90017,13.573287 -14.30877,-47.91511 -13.16468,48.241993 13.57328,-13.90017 z"
             style="fill:#000000;fill-opacity:1;fill-rule:evenodd;stroke:#000000;stroke-width:2.74754028pt;stroke-opacity:1;marker-start:none"
             id="path3872"
             inkscape:connector-curvature="0" />
        </g>
        <g
           style="fill:none;stroke:#323232;stroke-opacity:1"
           id="g3878"
           transform="matrix(0.77327091,0,0,0.77327091,-975.82012,-267.61373)">
          <path
             d="m 324.4375,463.21875 -0.53125,2.96875 c 96.97465,17.17258 145.47509,25.7381 169.71875,30.03125 12.12183,2.14657 18.18829,3.21336 21.21875,3.75 1.51523,0.26832 2.27744,0.40167 2.65625,0.46875 0.1894,0.0335 0.26515,0.0541 0.3125,0.0625 0.0237,0.004 0.0566,0.0302 0.0625,0.0312 l 0.53125,-2.96875 c 0,0 -0.0195,10e-4 -193.96875,-34.34375 z"
             style="fill:none;stroke:#323232;stroke-opacity:1"
             id="path3880"
             inkscape:connector-curvature="0" />
          <path
             d="m 488.59136,493.80952 -13.90861,9.72371 43.44901,-4.4926 -39.26412,-19.13972 9.72372,13.90861 z"
             style="fill:none;stroke:#323232;stroke-width:2.4pt;stroke-opacity:1;marker-start:none"
             id="path3882"
             inkscape:connector-curvature="0" />
        </g>
        <g
           style="fill:none;stroke:#323232;stroke-opacity:1"
           id="g3886"
           transform="matrix(0.77327091,0,0,0.77327091,-1008.6326,-207.11373)">
          <path
             d="m 467.03125,178.28125 c 0,0 -1.42481,2.13521 -101.28771,206.14744 l 2.6875,1.34375 c 71.72082,-143.44166 65.42,-134.44327 83.35021,-170.30369 8.9651,-17.93021 13.44622,-26.89245 15.6875,-31.375 1.12064,-2.24128 1.68859,-3.34593 1.96875,-3.90625 0.14008,-0.28016 0.21498,-0.42996 0.25,-0.5 0.0175,-0.035 0.0269,-0.0538 0.0312,-0.0625 l -2.6875,-1.34375 z"
             style="fill:none;stroke:#323232;stroke-opacity:1"
             id="path3888"
             inkscape:connector-curvature="0"
             sodipodi:nodetypes="cccssssccc" />
          <path
             d="m 454.96533,205.78137 5.36657,16.09969 8.04984,-42.93251 -29.5161,32.19938 16.09969,-5.36656 z"
             style="fill:none;stroke:#323232;stroke-width:2.4pt;stroke-opacity:1;marker-start:none"
             id="path3890"
             inkscape:connector-curvature="0" />
        </g>
        <g
           style="fill:none;stroke:#323232;stroke-opacity:1"
           id="g3892"
           transform="matrix(0.73114199,0.25175238,-0.25175238,0.73114199,-812.29203,-281.35956)">
          <path
             d="M 49.03125,261.59375 47.28125,264 c 0,0 -58.73807,-45.50869 218.04374,156.52182 l 1.75,-2.40625 C 128.68408,317.10032 118.22273,312.09756 83.625,286.84375 66.326137,274.21684 57.699716,267.90673 53.375,264.75 c -2.162358,-1.57836 -3.240661,-2.38666 -3.78125,-2.78125 -0.270295,-0.1973 -0.401176,-0.29443 -0.46875,-0.34375 -0.03379,-0.0247 -0.05405,-0.0251 -0.0625,-0.0312 -0.0042,-0.003 -0.03019,7.7e-4 -0.03125,0 z"
             style="fill:none;stroke:#323232;stroke-opacity:1"
             id="path3894"
             inkscape:connector-curvature="0"
             sodipodi:nodetypes="ccccssscccc" />
          <path
             d="M 72.389732,280.4784 89.157189,277.8607 48.15828,262.79121 75.007436,297.24586 72.389732,280.4784 z"
             style="fill:none;stroke:#323232;stroke-width:2.4pt;stroke-opacity:1;marker-start:none"
             id="path3896"
             inkscape:connector-curvature="0" />
        </g>
        <g
           id="g8130">
          <path
             d="m -741.62616,123.0312 -1.53571,2.65674 c 17.96392,6.67427 42.06072,12.21355 63.59433,-4.1904 l -0.88166,-2.50197 c -20.72283,15.7863 -43.51883,10.18965 -61.17696,4.03563 z"
             style="fill:#000000;fill-opacity:1;stroke:none"
             id="path20590"
             inkscape:connector-curvature="0"
             sodipodi:nodetypes="ccccc" />
          <path
             d="m -689.35912,120.21533 13.4219,-2.44162 -8.43679,11.33295 c 0.27445,-3.72502 -1.74902,-7.30975 -4.98511,-8.89133 z"
             style="font-size:12px;fill-rule:evenodd;stroke-width:0.625;stroke-linejoin:round"
             id="path3536"
             inkscape:connector-curvature="0" />
        </g>
        <path
           inkscape:connector-curvature="0"
           id="path2446"
           style="font-size:12px;fill-rule:evenodd;stroke-width:0.625;stroke-linejoin:round"
           d="m -631.7741,119.3992 2.46197,-12.83811 6.75588,13.16508 c -3.06416,-2.17361 -6.78509,-2.29376 -9.21785,-0.32697 z" />
        <g
           id="equation_00"
           style="fill:#000000"
           title="$x$"
           transform="matrix(3.0427402,0,0,3.0427402,-795.91981,-75.194121)">
          <defs
             id="defs3929">
            <path
               d="M 3.34,-3.02 C 3.4,-3.28 3.63,-4.2 4.33,-4.2 c 0.05,0 0.29,0 0.5,0.13 -0.28,0.05 -0.48,0.3 -0.48,0.54 0,0.16 0.11,0.35 0.38,0.35 0.22,0 0.54,-0.18 0.54,-0.58 0,-0.52 -0.59,-0.66 -0.93,-0.66 -0.58,0 -0.93,0.53 -1.05,0.76 -0.25,-0.66 -0.79,-0.76 -1.08,-0.76 -1.04,0 -1.61,1.29 -1.61,1.54 0,0.1 0.1,0.1 0.12,0.1 0.08,0 0.11,-0.02 0.13,-0.11 0.34,-1.06 1,-1.31 1.34,-1.31 0.19,0 0.54,0.09 0.54,0.67 0,0.31 -0.17,0.98 -0.54,2.38 -0.16,0.62 -0.51,1.04 -0.95,1.04 -0.06,0 -0.29,0 -0.5,-0.13 0.25,-0.05 0.47,-0.26 0.47,-0.54 0,-0.27 -0.22,-0.35 -0.37,-0.35 -0.3,0 -0.55,0.26 -0.55,0.58 0,0.46 0.5,0.66 0.94,0.66 0.66,0 1.02,-0.7 1.05,-0.76 0.12,0.37 0.48,0.76 1.08,0.76 1.03,0 1.6,-1.29 1.6,-1.54 0,-0.1 -0.09,-0.1 -0.12,-0.1 -0.09,0 -0.11,0.04 -0.13,0.11 -0.33,1.07 -1.01,1.31 -1.33,1.31 -0.39,0 -0.55,-0.32 -0.55,-0.66 0,-0.22 0.06,-0.44 0.17,-0.88 l 0.34,-1.37 z"
               id="equation_00_00"
               inkscape:connector-curvature="0" />
          </defs>
          <g
             id="equation_00_g">
            <use
               x="77"
               xlink:href="#equation_00_00"
               y="63"
               id="use3933"
               width="687.33484"
               height="665.49506" />
          </g>
        </g>
        <g
           title="$y$"
           style="fill:#000000"
           id="equation_01"
           transform="matrix(3.0427402,0,0,3.0427402,-918.89654,-259.46097)">
          <defs
             id="defs4070">
            <path
               id="equation_01_00"
               d="M 4.86,-3.81 C 4.9,-3.95 4.9,-3.97 4.9,-4.04 c 0,-0.18 -0.14,-0.27 -0.29,-0.27 -0.1,0 -0.26,0.06 -0.35,0.21 -0.02,0.05 -0.1,0.36 -0.14,0.54 -0.07,0.26 -0.14,0.53 -0.2,0.8 l -0.45,1.8 C 3.43,-0.81 3,-0.11 2.34,-0.11 c -0.51,0 -0.62,-0.44 -0.62,-0.81 0,-0.46 0.17,-1.08 0.51,-1.96 0.16,-0.41 0.2,-0.52 0.2,-0.72 0,-0.45 -0.32,-0.82 -0.82,-0.82 -0.95,0 -1.32,1.45 -1.32,1.54 0,0.1 0.1,0.1 0.12,0.1 0.1,0 0.11,-0.02 0.16,-0.18 0.27,-0.94 0.67,-1.24 1.01,-1.24 0.08,0 0.25,0 0.25,0.32 0,0.25 -0.1,0.51 -0.17,0.7 -0.4,1.06 -0.58,1.63 -0.58,2.1 0,0.89 0.63,1.19 1.22,1.19 0.39,0 0.73,-0.17 1.01,-0.45 C 3.18,0.18 3.06,0.67 2.66,1.2 2.4,1.54 2.02,1.83 1.56,1.83 1.42,1.83 0.97,1.8 0.8,1.41 c 0.16,0 0.29,0 0.43,-0.12 C 1.33,1.2 1.43,1.07 1.43,0.88 1.43,0.57 1.16,0.53 1.06,0.53 0.83,0.53 0.5,0.69 0.5,1.18 c 0,0.5 0.44,0.87 1.06,0.87 1.03,0 2.06,-0.91 2.34,-2.04 l 0.96,-3.82 z"
               inkscape:connector-curvature="0" />
          </defs>
          <g
             id="equation_01_g">
            <use
               id="use4074"
               y="63"
               xlink:href="#equation_01_00"
               x="77"
               width="687.33484"
               height="665.49506" />
          </g>
        </g>
        <g
           id="equation_02"
           style="fill:#000000"
           title="$z$"
           transform="matrix(3.0427402,0,0,2.9792763,-1091.9395,-237.36004)">
          <defs
             id="defs4221">
            <path
               d="m 1.33,-0.83 c 0.54,-0.58 0.83,-0.83 1.19,-1.14 0,-0.01 0.62,-0.54 0.98,-0.9 0.95,-0.93 1.17,-1.41 1.17,-1.45 0,-0.1 -0.09,-0.1 -0.11,-0.1 -0.07,0 -0.1,0.02 -0.15,0.11 -0.3,0.48 -0.51,0.64 -0.75,0.64 -0.24,0 -0.36,-0.15 -0.51,-0.32 -0.19,-0.23 -0.36,-0.43 -0.69,-0.43 -0.75,0 -1.21,0.93 -1.21,1.14 0,0.05 0.03,0.11 0.12,0.11 0.09,0 0.11,-0.05 0.13,-0.11 0.19,-0.46 0.77,-0.47 0.85,-0.47 0.21,0 0.4,0.07 0.63,0.15 0.4,0.15 0.51,0.15 0.77,0.15 -0.36,0.43 -1.2,1.15 -1.39,1.31 l -0.9,0.84 c -0.68,0.67 -1.03,1.24 -1.03,1.31 0,0.1 0.1,0.1 0.12,0.1 0.08,0 0.1,-0.02 0.16,-0.13 0.23,-0.35 0.53,-0.62 0.85,-0.62 0.23,0 0.33,0.09 0.58,0.38 0.17,0.21 0.35,0.37 0.64,0.37 0.99,0 1.57,-1.27 1.57,-1.54 0,-0.05 -0.04,-0.1 -0.12,-0.1 -0.09,0 -0.11,0.06 -0.14,0.13 -0.23,0.65 -0.87,0.84 -1.2,0.84 -0.2,0 -0.38,-0.06 -0.59,-0.13 -0.34,-0.13 -0.49,-0.17 -0.7,-0.17 -0.02,0 -0.18,0 -0.27,0.03 z"
               id="equation_02_00"
               inkscape:connector-curvature="0" />
          </defs>
          <g
             id="equation_02_g">
            <use
               x="77"
               xlink:href="#equation_02_00"
               y="63"
               id="use4225"
               width="687.33484"
               height="665.49506" />
          </g>
        </g>
        <g
           title="$z_0$"
           style="fill:#000000"
           id="equation_03"
           transform="matrix(3.0427402,0,0,3.0427402,-998.78621,-434.38367)">
          <defs
             id="defs4382">
            <path
               id="equation_03_00"
               d="m 1.33,-0.83 c 0.54,-0.58 0.83,-0.83 1.19,-1.14 0,-0.01 0.62,-0.54 0.98,-0.9 0.95,-0.93 1.17,-1.41 1.17,-1.45 0,-0.1 -0.09,-0.1 -0.11,-0.1 -0.07,0 -0.1,0.02 -0.15,0.11 -0.3,0.48 -0.51,0.64 -0.75,0.64 -0.24,0 -0.36,-0.15 -0.51,-0.32 -0.19,-0.23 -0.36,-0.43 -0.69,-0.43 -0.75,0 -1.21,0.93 -1.21,1.14 0,0.05 0.03,0.11 0.12,0.11 0.09,0 0.11,-0.05 0.13,-0.11 0.19,-0.46 0.77,-0.47 0.85,-0.47 0.21,0 0.4,0.07 0.63,0.15 0.4,0.15 0.51,0.15 0.77,0.15 -0.36,0.43 -1.2,1.15 -1.39,1.31 l -0.9,0.84 c -0.68,0.67 -1.03,1.24 -1.03,1.31 0,0.1 0.1,0.1 0.12,0.1 0.08,0 0.1,-0.02 0.16,-0.13 0.23,-0.35 0.53,-0.62 0.85,-0.62 0.23,0 0.33,0.09 0.58,0.38 0.17,0.21 0.35,0.37 0.64,0.37 0.99,0 1.57,-1.27 1.57,-1.54 0,-0.05 -0.04,-0.1 -0.12,-0.1 -0.09,0 -0.11,0.06 -0.14,0.13 -0.23,0.65 -0.87,0.84 -1.2,0.84 -0.2,0 -0.38,-0.06 -0.59,-0.13 -0.34,-0.13 -0.49,-0.17 -0.7,-0.17 -0.02,0 -0.18,0 -0.27,0.03 z"
               inkscape:connector-curvature="0" />
            <path
               id="equation_03_01"
               d="m 3.612,-2.233 c 0,-0.77 -0.091,-1.323 -0.413,-1.813 -0.217,-0.322 -0.651,-0.602 -1.211,-0.602 -1.624,0 -1.624,1.911 -1.624,2.415 0,0.504 0,2.373 1.624,2.373 1.624,0 1.624,-1.869 1.624,-2.373 z m -1.624,2.177 c -0.322,0 -0.749,-0.189 -0.889,-0.763 -0.098,-0.413 -0.098,-0.987 -0.098,-1.505 0,-0.511 0,-1.043 0.105,-1.428 0.147,-0.553 0.595,-0.7 0.882,-0.7 0.378,0 0.742,0.231 0.868,0.637 0.112,0.378 0.119,0.882 0.119,1.491 0,0.518 0,1.036 -0.091,1.477 -0.14,0.637 -0.616,0.791 -0.896,0.791 z"
               inkscape:connector-curvature="0" />
          </defs>
          <g
             id="equation_03_g">
            <use
               id="use4387"
               y="63"
               xlink:href="#equation_03_00"
               x="77"
               width="687.33484"
               height="665.49506" />
            <use
               id="use4389"
               y="64.5"
               xlink:href="#equation_03_01"
               x="81.650497"
               width="687.33484"
               height="665.49506" />
          </g>
        </g>
        <g
           id="equation_04"
           style="fill:#000000"
           title="$y_0$"
           transform="matrix(3.0427402,0,0,3.0427402,-702.03404,-98.136793)">
          <defs
             id="defs4560">
            <path
               d="M 4.86,-3.81 C 4.9,-3.95 4.9,-3.97 4.9,-4.04 c 0,-0.18 -0.14,-0.27 -0.29,-0.27 -0.1,0 -0.26,0.06 -0.35,0.21 -0.02,0.05 -0.1,0.36 -0.14,0.54 -0.07,0.26 -0.14,0.53 -0.2,0.8 l -0.45,1.8 C 3.43,-0.81 3,-0.11 2.34,-0.11 c -0.51,0 -0.62,-0.44 -0.62,-0.81 0,-0.46 0.17,-1.08 0.51,-1.96 0.16,-0.41 0.2,-0.52 0.2,-0.72 0,-0.45 -0.32,-0.82 -0.82,-0.82 -0.95,0 -1.32,1.45 -1.32,1.54 0,0.1 0.1,0.1 0.12,0.1 0.1,0 0.11,-0.02 0.16,-0.18 0.27,-0.94 0.67,-1.24 1.01,-1.24 0.08,0 0.25,0 0.25,0.32 0,0.25 -0.1,0.51 -0.17,0.7 -0.4,1.06 -0.58,1.63 -0.58,2.1 0,0.89 0.63,1.19 1.22,1.19 0.39,0 0.73,-0.17 1.01,-0.45 C 3.18,0.18 3.06,0.67 2.66,1.2 2.4,1.54 2.02,1.83 1.56,1.83 1.42,1.83 0.97,1.8 0.8,1.41 c 0.16,0 0.29,0 0.43,-0.12 C 1.33,1.2 1.43,1.07 1.43,0.88 1.43,0.57 1.16,0.53 1.06,0.53 0.83,0.53 0.5,0.69 0.5,1.18 c 0,0.5 0.44,0.87 1.06,0.87 1.03,0 2.06,-0.91 2.34,-2.04 l 0.96,-3.82 z"
               id="equation_04_00"
               inkscape:connector-curvature="0" />
            <path
               d="m 3.612,-2.233 c 0,-0.77 -0.091,-1.323 -0.413,-1.813 -0.217,-0.322 -0.651,-0.602 -1.211,-0.602 -1.624,0 -1.624,1.911 -1.624,2.415 0,0.504 0,2.373 1.624,2.373 1.624,0 1.624,-1.869 1.624,-2.373 z m -1.624,2.177 c -0.322,0 -0.749,-0.189 -0.889,-0.763 -0.098,-0.413 -0.098,-0.987 -0.098,-1.505 0,-0.511 0,-1.043 0.105,-1.428 0.147,-0.553 0.595,-0.7 0.882,-0.7 0.378,0 0.742,0.231 0.868,0.637 0.112,0.378 0.119,0.882 0.119,1.491 0,0.518 0,1.036 -0.091,1.477 -0.14,0.637 -0.616,0.791 -0.896,0.791 z"
               id="equation_04_01"
               inkscape:connector-curvature="0" />
          </defs>
          <g
             id="equation_04_g">
            <use
               x="77"
               xlink:href="#equation_04_00"
               y="63"
               id="use4565"
               width="687.33484"
               height="665.49506" />
            <use
               x="81.902802"
               xlink:href="#equation_04_01"
               y="64.5"
               id="use4567"
               width="687.33484"
               height="665.49506" />
          </g>
        </g>
        <g
           title="$x_0$"
           style="fill:#000000"
           id="equation_05"
           transform="matrix(3.0427402,0,0,3.0427402,-1080.6604,62.710244)">
          <defs
             id="defs4752">
            <path
               id="equation_05_00"
               d="M 3.34,-3.02 C 3.4,-3.28 3.63,-4.2 4.33,-4.2 c 0.05,0 0.29,0 0.5,0.13 -0.28,0.05 -0.48,0.3 -0.48,0.54 0,0.16 0.11,0.35 0.38,0.35 0.22,0 0.54,-0.18 0.54,-0.58 0,-0.52 -0.59,-0.66 -0.93,-0.66 -0.58,0 -0.93,0.53 -1.05,0.76 -0.25,-0.66 -0.79,-0.76 -1.08,-0.76 -1.04,0 -1.61,1.29 -1.61,1.54 0,0.1 0.1,0.1 0.12,0.1 0.08,0 0.11,-0.02 0.13,-0.11 0.34,-1.06 1,-1.31 1.34,-1.31 0.19,0 0.54,0.09 0.54,0.67 0,0.31 -0.17,0.98 -0.54,2.38 -0.16,0.62 -0.51,1.04 -0.95,1.04 -0.06,0 -0.29,0 -0.5,-0.13 0.25,-0.05 0.47,-0.26 0.47,-0.54 0,-0.27 -0.22,-0.35 -0.37,-0.35 -0.3,0 -0.55,0.26 -0.55,0.58 0,0.46 0.5,0.66 0.94,0.66 0.66,0 1.02,-0.7 1.05,-0.76 0.12,0.37 0.48,0.76 1.08,0.76 1.03,0 1.6,-1.29 1.6,-1.54 0,-0.1 -0.09,-0.1 -0.12,-0.1 -0.09,0 -0.11,0.04 -0.13,0.11 -0.33,1.07 -1.01,1.31 -1.33,1.31 -0.39,0 -0.55,-0.32 -0.55,-0.66 0,-0.22 0.06,-0.44 0.17,-0.88 l 0.34,-1.37 z"
               inkscape:connector-curvature="0" />
            <path
               id="equation_05_01"
               d="m 3.612,-2.233 c 0,-0.77 -0.091,-1.323 -0.413,-1.813 -0.217,-0.322 -0.651,-0.602 -1.211,-0.602 -1.624,0 -1.624,1.911 -1.624,2.415 0,0.504 0,2.373 1.624,2.373 1.624,0 1.624,-1.869 1.624,-2.373 z m -1.624,2.177 c -0.322,0 -0.749,-0.189 -0.889,-0.763 -0.098,-0.413 -0.098,-0.987 -0.098,-1.505 0,-0.511 0,-1.043 0.105,-1.428 0.147,-0.553 0.595,-0.7 0.882,-0.7 0.378,0 0.742,0.231 0.868,0.637 0.112,0.378 0.119,0.882 0.119,1.491 0,0.518 0,1.036 -0.091,1.477 -0.14,0.637 -0.616,0.791 -0.896,0.791 z"
               inkscape:connector-curvature="0" />
          </defs>
          <g
             id="equation_05_g">
            <use
               id="use4757"
               y="63"
               xlink:href="#equation_05_00"
               x="77"
               width="687.33484"
               height="665.49506" />
            <use
               id="use4759"
               y="64.5"
               xlink:href="#equation_05_01"
               x="82.715302"
               width="687.33484"
               height="665.49506" />
          </g>
        </g>
        <use
           transform="matrix(4.2205834,0,0,4.2205834,-972.24218,-108.48945)"
           height="665.49506"
           width="687.33484"
           x="82.958298"
           xlink:href="#equation_06_00"
           y="63"
           id="use5076"
           style="fill:#000000" />
        <use
           transform="matrix(4.2205834,0,0,4.2205834,-1099.7198,-97.194803)"
           height="665.49506"
           width="687.33484"
           x="87.930603"
           xlink:href="#equation_06_02"
           y="63"
           id="use5078"
           style="fill:#000000" />
        <path
           inkscape:connector-curvature="0"
           id="path5201"
           d="m -722.96211,92.435224 262.4369,134.268236"
           style="fill:none;stroke:#000000;stroke-width:0.99212599;stroke-linecap:butt;stroke-linejoin:miter;stroke-miterlimit:4;stroke-opacity:1;stroke-dasharray:0.99212598, 5.95275591;stroke-dashoffset:0;marker-end:url(#Arrow1Lend)"
           sodipodi:nodetypes="cc" />
        <path
           sodipodi:nodetypes="cc"
           style="fill:none;stroke:#000000;stroke-width:0.99212599;stroke-linecap:butt;stroke-linejoin:miter;stroke-miterlimit:4;stroke-opacity:1;stroke-dasharray:0.99212598, 5.95275591;stroke-dashoffset:0;marker-end:url(#Arrow1Lend)"
           d="M -721.64142,89.838463 -589.83544,-53.60562"
           id="path5651"
           inkscape:connector-curvature="0" />
        <path
           sodipodi:open="true"
           sodipodi:end="8.1109977"
           sodipodi:start="1.833452"
           transform="translate(-1053.7395,-328.07731)"
           d="m 370.57505,498.86571 c -27.54402,-5.08801 -43.86937,-24.5535 -36.46369,-43.47739 7.40569,-18.92388 35.73802,-30.14008 63.28204,-25.05206 27.54402,5.08801 43.86936,24.5535 36.46368,43.47738 -7.37617,18.84847 -35.52515,30.06484 -63.00056,25.10348"
           sodipodi:ry="35.481609"
           sodipodi:rx="51.644051"
           sodipodi:cy="464.60098"
           sodipodi:cx="383.98422"
           id="path5653"
           style="fill:none;stroke:#000000;stroke-width:0;stroke-miterlimit:4;stroke-opacity:1;stroke-dasharray:none;stroke-dashoffset:0"
           sodipodi:type="arc" />
        <path
           sodipodi:nodetypes="ccccc"
           d="m -629.96054,110.08693 c 3.46454,11.59799 3.88922,16.03258 -0.39155,29.55941 l 1.8377,0.24984 c 4.38798,-13.86547 3.62165,-17.1367 0.12693,-30.53402 z"
           style="fill:#000000;fill-opacity:1;stroke:none"
           id="path5657"
           inkscape:connector-curvature="0" />
        <g
           title="$\phi&gt;0$"
           style="fill:#000000"
           id="equation_07"
           transform="matrix(4,0,0,4,-1049.1998,61.08475)">
          <defs
             id="defs6789">
            <path
               id="equation_07_00"
               d="m 4.37,-6.7 c 0,-0.02 0.03,-0.13 0.03,-0.14 0,-0.01 0,-0.1 -0.12,-0.1 -0.1,0 -0.11,0.03 -0.15,0.2 l -0.58,2.31 c -1.59,0.05 -3.06,1.38 -3.06,2.74 0,0.95 0.7,1.74 1.92,1.81 C 2.33,0.43 2.26,0.75 2.18,1.06 2.06,1.53 1.96,1.91 1.96,1.94 c 0,0.1 0.07,0.11 0.12,0.11 0.05,0 0.07,-0.01 0.1,-0.04 C 2.2,1.99 2.26,1.75 2.29,1.61 L 2.67,0.12 C 4.28,0.07 5.73,-1.28 5.73,-2.62 5.73,-3.41 5.2,-4.33 3.81,-4.43 L 4.37,-6.7 z M 2.46,-0.1 C 1.86,-0.13 1.14,-0.48 1.14,-1.48 1.14,-2.68 2,-4.08 3.49,-4.21 L 2.46,-0.1 z m 1.29,-4.11 c 0.76,0.04 1.33,0.5 1.33,1.38 0,1.18 -0.86,2.61 -2.36,2.73 l 1.03,-4.11 z"
               inkscape:connector-curvature="0" />
            <path
               id="equation_07_01"
               d="m 6.75,-2.28 c 0.11,-0.05 0.19,-0.1 0.19,-0.22 0,-0.12 -0.08,-0.17 -0.19,-0.22 L 1.21,-5.33 C 1.08,-5.4 1.06,-5.4 1.03,-5.4 c -0.11,0 -0.2,0.09 -0.2,0.2 0,0.09 0.05,0.15 0.19,0.22 L 6.27,-2.5 1.02,-0.02 C 0.88,0.05 0.83,0.11 0.83,0.2 c 0,0.11 0.09,0.2 0.2,0.2 0.03,0 0.05,0 0.18,-0.07 l 5.54,-2.61 z"
               inkscape:connector-curvature="0" />
            <path
               id="equation_07_02"
               d="M 4.6,-3.2 C 4.6,-4 4.55,-4.8 4.2,-5.54 3.74,-6.5 2.92,-6.66 2.5,-6.66 1.9,-6.66 1.17,-6.4 0.76,-5.47 0.44,-4.78 0.39,-4 0.39,-3.2 c 0,0.75 0.04,1.65 0.45,2.41 C 1.27,0.02 2,0.22 2.49,0.22 3.03,0.22 3.79,0.01 4.23,-0.94 4.55,-1.63 4.6,-2.41 4.6,-3.2 z M 2.49,0 C 2.1,0 1.51,-0.25 1.33,-1.21 1.22,-1.81 1.22,-2.73 1.22,-3.32 c 0,-0.64 0,-1.3 0.08,-1.84 0.19,-1.19 0.94,-1.28 1.19,-1.28 0.33,0 0.99,0.18 1.18,1.17 0.1,0.56 0.1,1.32 0.1,1.95 0,0.75 0,1.43 -0.11,2.07 C 3.51,-0.3 2.94,0 2.49,0 z"
               inkscape:connector-curvature="0" />
          </defs>
          <g
             id="equation_07_g">
            <use
               id="use6795"
               y="63"
               xlink:href="#equation_07_00"
               x="77"
               width="533.98541"
               height="515.5329" />
            <use
               id="use6797"
               y="63"
               xlink:href="#equation_07_01"
               x="85.736099"
               width="533.98541"
               height="515.5329" />
            <use
               id="use6799"
               y="63"
               xlink:href="#equation_07_02"
               x="96.291603"
               width="533.98541"
               height="515.5329" />
          </g>
        </g>
        <path
           d="m -610.46553,-34.64248 c -163.17634,-194.2045 -409.97357,19.49471 -234.38395,258.929"
           style="fill:none;stroke:#000000;stroke-width:1.77165353;stroke-miterlimit:4;stroke-opacity:1;stroke-dasharray:none;stroke-dashoffset:0"
           id="path8087"
           sodipodi:nodetypes="cc"
           inkscape:connector-curvature="0" />
        <path
           inkscape:connector-curvature="0"
           id="path8095"
           d="m -780.99141,-108.27398 53.67449,202.240455"
           style="fill:none;stroke:#000000;stroke-width:0.99212599;stroke-linecap:butt;stroke-linejoin:miter;stroke-miterlimit:4;stroke-opacity:1;stroke-dasharray:0.99212598, 5.95275591;stroke-dashoffset:0;marker-end:none"
           sodipodi:nodetypes="cc" />
        <use
           style="fill:#000000"
           height="515.5329"
           width="533.98541"
           x="77"
           xlink:href="#equation_07_00"
           y="63"
           id="use8111"
           transform="matrix(4,0,0,4,-966.61184,-235.54826)" />
        <path
           inkscape:connector-curvature="0"
           sodipodi:nodetypes="cc"
           id="path8140"
           style="fill:none;stroke:#000000;stroke-width:1.77165353;stroke-miterlimit:4;stroke-opacity:1;stroke-dasharray:none;stroke-dashoffset:0;marker-end:url(#Arrow1Mend)"
           d="m -665.43203,29.991495 c -2.38408,-12.325977 -4.35556,-16.075985 -14.0545,-22.7270546" />
        <path
           d="m -751.57119,-2.073764 c -12.32598,2.38408002 -16.07599,4.35556 -22.72706,14.0545"
           style="fill:none;stroke:#000000;stroke-width:1.77165353;stroke-miterlimit:4;stroke-opacity:1;stroke-dasharray:none;stroke-dashoffset:0;marker-end:url(#Arrow1Mend)"
           id="path9142"
           sodipodi:nodetypes="cc"
           inkscape:connector-curvature="0" />
      </g>
    </g>
  </g>
</svg>
