<?xml version="1.0" encoding="UTF-8" standalone="no"?>
<!-- Created with Inkscape (http://www.inkscape.org/) -->

<svg
   xmlns:dc="http://purl.org/dc/elements/1.1/"
   xmlns:cc="http://creativecommons.org/ns#"
   xmlns:rdf="http://www.w3.org/1999/02/22-rdf-syntax-ns#"
   xmlns:svg="http://www.w3.org/2000/svg"
   xmlns="http://www.w3.org/2000/svg"
   xmlns:sodipodi="http://sodipodi.sourceforge.net/DTD/sodipodi-0.dtd"
   xmlns:inkscape="http://www.inkscape.org/namespaces/inkscape"
   width="185.39676"
   height="168.92346"
   id="svg3176"
   version="1.1"
   inkscape:version="0.48.3.1 r9886"
   sodipodi:docname="buoyancy.svg">
  <defs
     id="defs3178">
    <inkscape:perspective
       sodipodi:type="inkscape:persp3d"
       inkscape:vp_x="37.142857 : 211.73791 : 1"
       inkscape:vp_y="0 : 1000 : 0"
       inkscape:vp_z="187.98085 : -328.26209 : 1"
       inkscape:persp3d-origin="262.20471 : 124.01575 : 1"
       id="perspective3607" />
  </defs>
  <sodipodi:namedview
     id="base"
     pagecolor="#ffffff"
     bordercolor="#666666"
     borderopacity="1.0"
     inkscape:pageopacity="0.0"
     inkscape:pageshadow="2"
     inkscape:zoom="1.979899"
     inkscape:cx="32.069115"
     inkscape:cy="108.24208"
     inkscape:document-units="px"
     inkscape:current-layer="layer1"
     showgrid="false"
     inkscape:window-width="1375"
     inkscape:window-height="876"
     inkscape:window-x="65"
     inkscape:window-y="24"
     inkscape:window-maximized="1"
     fit-margin-top="0"
     fit-margin-left="0"
     fit-margin-right="0"
     fit-margin-bottom="0" />
  <metadata
     id="metadata3181">
    <rdf:RDF>
      <cc:Work
         rdf:about="">
        <dc:format>image/svg+xml</dc:format>
        <dc:type
           rdf:resource="http://purl.org/dc/dcmitype/StillImage" />
        <dc:title></dc:title>
      </cc:Work>
    </rdf:RDF>
  </metadata>
  <g
     inkscape:label="Layer 1"
     inkscape:groupmode="layer"
     id="layer1"
     transform="translate(-131.53181,-736.1478)">
    <path
       style="fill:#d2ff00;fill-opacity:1;stroke:#0000f5;stroke-width:1px;stroke-linecap:butt;stroke-linejoin:miter;stroke-opacity:1"
       d="m 235,753.07637 5.71428,84.28572 56.42857,-57.85714 z"
       id="path3603"
       inkscape:connector-curvature="0" />
    <path
       style="fill:#55b2a1;fill-opacity:1;stroke:#000000;stroke-width:1;stroke-linecap:butt;stroke-linejoin:miter;stroke-miterlimit:4;stroke-opacity:1;stroke-dasharray:1, 1;stroke-dashoffset:0"
       d="M 144.28571,214.1901 295.71429,99.190098"
       id="path3625"
       inkscape:connector-curvature="0"
       transform="translate(0,680.31485)" />
    <path
       style="fill:#d2ff00;fill-opacity:1;stroke:#0000f9;stroke-width:1px;stroke-linecap:butt;stroke-linejoin:miter;stroke-opacity:1"
       d="m 241.42857,157.76153 75,-4.28572 -20,-54.999998"
       id="path4395"
       inkscape:connector-curvature="0"
       transform="translate(0,680.31485)" />
    <path
       style="fill:#ffff00;fill-opacity:1;stroke:#0000fe;stroke-width:1px;stroke-linecap:butt;stroke-linejoin:miter;stroke-opacity:1"
       d="M 240.71429,157.04724 221.42857,56.332955 234.28571,72.761527"
       id="path4397"
       inkscape:connector-curvature="0"
       transform="translate(0,680.31485)" />
    <path
       style="fill:#55b2a1;fill-opacity:1;stroke:#000000;stroke-width:1px;stroke-linecap:butt;stroke-linejoin:miter;stroke-opacity:1"
       d="M 220.71429,57.047241 143.57143,214.90438"
       id="path4401"
       inkscape:connector-curvature="0"
       transform="translate(0,680.31485)" />
    <path
       style="fill:none;stroke:#000000;stroke-width:1px;stroke-linecap:butt;stroke-linejoin:miter;stroke-opacity:1"
       d="M 316.42857,154.1901 143.57143,213.47581"
       id="path4403"
       inkscape:connector-curvature="0"
       transform="translate(0,680.31485)" />
    <path
       style="fill:#55b2a1;fill-opacity:1;stroke:#000000;stroke-width:1px;stroke-linecap:butt;stroke-linejoin:miter;stroke-opacity:1"
       d="m 240.71429,157.04724 -96.42858,56.42857"
       id="path4407"
       inkscape:connector-curvature="0"
       transform="translate(0,680.31485)" />
    <path
       style="fill:#55b2a1;fill-opacity:1;stroke:#000000;stroke-width:1;stroke-linecap:butt;stroke-linejoin:miter;stroke-miterlimit:4;stroke-opacity:1;stroke-dasharray:1, 1;stroke-dashoffset:0"
       d="M 235,72.761527 145,213.47581"
       id="path4409"
       inkscape:connector-curvature="0"
       transform="translate(0,680.31485)" />
    <text
       xml:space="preserve"
       style="font-size:16.01808739px;font-style:normal;font-weight:normal;line-height:125%;letter-spacing:0px;word-spacing:0px;fill:#000000;fill-opacity:1;stroke:none;font-family:Sans"
       x="133.68874"
       y="884.29108"
       id="text4411"
       sodipodi:linespacing="125%"
       transform="scale(0.97729087,1.0232368)"><tspan
         sodipodi:role="line"
         id="tspan4413"
         x="133.68874"
         y="884.29108">O</tspan></text>
    <path
       style="fill:#55b2a1;fill-opacity:1;stroke:none"
       d="m 153.78061,196.64613 c 0,-1.23438 66.82252,-138.977378 67.2084,-138.5281 0.23247,0.270673 1.47307,7.825126 2.75688,14.605136 2.19602,11.597536 2.26516,12.432653 1.16799,14.107143 -0.64141,0.978919 -0.98507,1.779853 -0.76368,1.779853 0.22138,0 -0.41407,0.880644 -1.41211,1.956987 -0.99804,1.076343 -1.81462,2.168916 -1.81462,2.42794 0,0.259025 -1.26207,2.348452 -2.8046,4.643172 -1.54254,2.29472 -2.68656,4.290269 -2.54228,4.434549 0.14428,0.14427 -0.52222,1.10842 -1.48111,2.14254 -0.95889,1.03412 -1.74344,2.28529 -1.74344,2.78037 0,0.49509 -0.26983,0.90016 -0.59963,0.90016 -0.53022,0 -1.62647,1.8745 -2.29751,3.92857 -0.12834,0.39286 -0.97542,1.51457 -1.88239,2.4927 -0.90697,0.97813 -1.64904,2.03634 -1.64904,2.35158 0,0.31523 -0.33657,0.96138 -0.74793,1.43587 -1.42504,1.64372 -5.68064,8.49037 -5.68064,9.13934 0,0.35856 -0.29977,0.65194 -0.66615,0.65194 -0.36639,0 -0.88786,0.69852 -1.15883,1.55227 -0.27097,0.85376 -0.78991,1.8984 -1.15321,2.32143 -1.30946,1.52479 -5.59324,8.40723 -5.59324,8.98626 0,0.32583 -0.25375,0.69956 -0.56388,0.83052 -0.7061,0.29815 -5.27712,7.73809 -4.75419,7.73809 0.21065,0 -0.43518,0.81818 -1.43518,1.81818 -1,1 -1.81818,2.25893 -1.81818,2.79762 0,0.53869 -0.24107,1.08658 -0.53571,1.21753 -0.82071,0.36476 -5.89286,8.09483 -5.89286,8.98085 0,0.42958 -0.25421,0.8882 -0.56491,1.01915 -0.60301,0.25416 -5.14938,6.84446 -5.14938,7.46442 0,0.20295 -0.84172,1.47255 -1.87049,2.82133 -1.02877,1.34879 -1.64867,2.45235 -1.37755,2.45235 0.27112,0 0.0682,0.42703 -0.45094,0.94896 -1.23308,1.23973 -8.0992,11.92634 -8.04483,12.5212 0.023,0.25212 -0.70018,1.25869 -1.60715,2.23682 -0.90697,0.97813 -1.64904,2.18349 -1.64904,2.67857 0,0.49509 -0.32143,0.90016 -0.71428,0.90016 -0.39286,0 -0.71429,-0.24096 -0.71429,-0.53546 z"
       id="path4415"
       inkscape:connector-curvature="0"
       transform="translate(0,680.31485)"
       sodipodi:nodetypes="scsssssscsssssssssscscssssscsssscssss" />
    <path
       style="fill:#55b2a1;fill-opacity:1;stroke:none"
       d="m 148.45097,208.7778 c 0.99873,-0.70655 6.87928,-9.45335 6.35556,-9.45335 -0.22752,0 0.0111,-0.42704 0.5302,-0.94897 1.38759,-1.39505 7.78988,-11.48769 7.56489,-11.92534 -0.10584,-0.20587 0.69149,-1.32758 1.77185,-2.4927 1.08036,-1.16512 1.96428,-2.52346 1.96428,-3.01855 0,-0.49508 0.24108,-0.90048 0.53572,-0.90088 0.29464,-4e-4 1.5,-1.64671 2.67857,-3.65848 1.17857,-2.01175 2.625,-4.39121 3.21429,-5.28767 3.61031,-5.49223 5.65173,-8.91027 5.32163,-8.91027 -0.2087,0 0.43713,-0.88064 1.43517,-1.95698 0.99805,-1.07635 1.81462,-2.21491 1.81462,-2.53015 0,-0.31524 0.33657,-0.96138 0.74794,-1.43587 1.3576,-1.56594 5.68064,-8.4758 5.68064,-9.07982 0,-0.32583 0.25802,-0.69956 0.57338,-0.83051 0.31536,-0.13095 1.82791,-2.32738 3.36121,-4.88095 1.53331,-2.55358 3.20386,-5.06761 3.71234,-5.58674 0.50847,-0.51913 0.92449,-1.25591 0.92449,-1.63729 0,-0.38138 0.33657,-1.08163 0.74794,-1.55612 1.42504,-1.64373 5.68064,-8.49038 5.68064,-9.13934 0,-0.35857 0.29976,-0.65194 0.66615,-0.65194 0.36638,0 0.89185,-0.72322 1.1677,-1.60715 0.27585,-0.88392 0.6993,-1.76785 0.94099,-1.96428 0.7833,-0.63661 5.72426,-8.197 5.73507,-8.77551 0.006,-0.30868 0.42376,-0.97678 0.92886,-1.48468 1.21262,-1.21934 7.69719,-11.324211 7.85462,-12.239812 0.0676,-0.392857 0.86488,-1.514573 1.77185,-2.492702 0.90697,-0.978128 1.64904,-2.052429 1.64904,-2.387336 0,-0.334906 0.62453,-1.402883 1.38785,-2.373281 l 1.38784,-1.764361 0.45695,2.365983 c 0.25131,1.30129 2.61429,13.615979 5.25106,27.365979 l 4.79412,25 -1.81748,1.40307 c -0.99962,0.77169 -2.33732,1.97705 -2.9727,2.67857 -0.63536,0.70153 -1.45232,1.27551 -1.81547,1.27551 -0.36314,0 -1.77187,1.0485 -3.1305,2.33 -1.35863,1.2815 -2.63095,2.34478 -2.82738,2.36283 -0.65465,0.0602 -11.768,8.41408 -12.94093,9.72769 -0.63536,0.71157 -1.45233,1.29376 -1.81547,1.29376 -0.36314,0 -1.77187,1.0485 -3.1305,2.33 -1.35864,1.28151 -2.63096,2.34478 -2.82739,2.36284 -0.65464,0.0602 -11.768,8.41408 -12.94092,9.72768 -0.63537,0.71158 -1.45233,1.29377 -1.81548,1.29377 -0.36314,0 -1.85222,1.1243 -3.30907,2.49843 -1.45685,1.37415 -2.64881,2.33095 -2.64881,2.12625 0,-0.2047 -1.54681,0.84065 -3.43735,2.323 -1.89054,1.48235 -4.34172,3.33803 -5.44707,4.12375 -1.10535,0.78571 -2.75822,2.15178 -3.67304,3.03571 -0.91483,0.88393 -1.9324,1.60714 -2.26126,1.60714 -0.32887,0 -1.78991,1.1243 -3.24676,2.49844 -1.45684,1.37414 -2.64881,2.33095 -2.64881,2.12625 0,-0.20471 -1.54681,0.84064 -3.43735,2.32299 -1.89054,1.48235 -4.33687,3.33804 -5.43629,4.12375 -1.09942,0.78572 -2.42251,1.83036 -2.9402,2.32143 -0.5177,0.49107 -1.36601,0.88794 -1.88514,0.88192 -0.5998,-0.007 -0.67347,-0.20223 -0.20209,-0.53571 l 0,0 z"
       id="path4417"
       inkscape:connector-curvature="0"
       transform="translate(0,680.31485)" />
    <path
       style="stroke:#0000f9;stroke-width:0.71428573;stroke-miterlimit:4;stroke-opacity:1;stroke-dasharray:0.71428572, 0.71428572;stroke-dashoffset:0"
       d=""
       id="path4419"
       inkscape:connector-curvature="0"
       transform="translate(0,680.31485)" />
    <path
       style="fill:#d2ff00;fill-opacity:1;stroke:#0000f9;stroke-width:0.71428573;stroke-miterlimit:4;stroke-opacity:1;stroke-dasharray:0.71428572, 0.71428572;stroke-dashoffset:0"
       d="m 241.35703,153.1946 c -0.8613,-2.24453 -0.48524,-12.44092 0.4593,-12.45299 0.49107,-0.006 1.91421,-0.8902 3.16253,-1.96429 1.24833,-1.07408 4.92216,-3.88144 8.16408,-6.23859 3.24192,-2.35714 6.6256,-5.00892 7.51928,-5.89285 0.89369,-0.88393 1.88057,-1.61228 2.19307,-1.61856 0.3125,-0.006 1.58954,-0.8902 2.83786,-1.96428 1.24832,-1.07408 4.92216,-3.88145 8.16408,-6.23859 3.24191,-2.35714 6.62559,-5.00893 7.51928,-5.89286 0.89368,-0.88393 1.88385,-1.60714 2.20036,-1.60714 0.31652,0 1.47717,-0.8361 2.57924,-1.85799 1.10207,-1.0219 2.17844,-1.68331 2.39195,-1.46981 0.30137,0.30138 -46.02307,48.3278 -46.61514,48.3278 -0.0783,0 -0.33743,-0.50843 -0.57589,-1.12985 z"
       id="path4421"
       inkscape:connector-curvature="0"
       transform="translate(0,680.31485)" />
    <path
       style="fill:#55b2a1;fill-opacity:1;stroke:none"
       d="m 167.70918,197.5519 c 2.56209,-2.11726 2.7775,-2.28399 6.42922,-4.97643 1.57107,-1.15837 3.44604,-2.76551 4.16658,-3.57143 0.72055,-0.80592 1.52412,-1.40342 1.78572,-1.32777 0.26159,0.0756 1.3208,-0.61553 2.3538,-1.53593 1.03299,-0.9204 2.53471,-2.02483 3.33716,-2.45428 0.80244,-0.42946 1.88583,-1.20085 2.40754,-1.71421 0.52171,-0.51336 2.87713,-2.34244 5.23427,-4.06463 2.35714,-1.72218 4.87525,-3.79533 5.5958,-4.607 0.72055,-0.81168 1.52412,-1.41388 1.78571,-1.33824 0.2616,0.0756 1.32081,-0.61552 2.3538,-1.53592 1.033,-0.9204 2.53472,-2.02483 3.33716,-2.45429 0.80245,-0.42945 1.88584,-1.20085 2.40755,-1.71421 0.5217,-0.51336 2.87712,-2.34244 5.23426,-4.06462 2.35715,-1.72218 4.87526,-3.79534 5.5958,-4.60701 0.72055,-0.81167 1.52412,-1.41388 1.78572,-1.33823 0.26159,0.0756 1.3208,-0.61553 2.3538,-1.53593 1.03299,-0.9204 2.53471,-2.02483 3.33716,-2.45428 0.80244,-0.42946 1.88584,-1.20608 2.40754,-1.72582 1.95892,-1.95155 7.5756,-6.70458 8.07935,-6.39325 0.54305,0.33563 2.10435,12.30122 1.68045,12.63114 -1.21012,0.94183 -72.85642,42.55467 -73.26674,42.55402 -0.29948,-4.8e-4 0.41978,-0.79774 1.59835,-1.77168 z"
       id="path4423"
       inkscape:connector-curvature="0"
       transform="translate(0,680.31485)"
       sodipodi:nodetypes="ssscscssscscssscscscscs" />
    <path
       style="fill:#55b2a1;fill-opacity:1;stroke:none"
       d="m 193.89558,185.50783 c 21.03659,-12.31342 39.51861,-23.85749 41.65598,-25.03808 l 5.28262,-2.91788 31.96381,-1.43897 c 17.93565,-0.80743 42.50067,-2.31894 43.92071,-2.19406 1.99199,0.17516 -24.02642,7.47632 -83.12452,27.73474 -42.12961,14.44174 -76.90251,26.25424 -77.27312,26.25 -0.37061,-0.004 16.53792,-10.08232 37.57452,-22.39575 z"
       id="path4425"
       inkscape:connector-curvature="0"
       transform="translate(0,680.31485)"
       sodipodi:nodetypes="sscssscs" />
  </g>
</svg>
