<?xml version="1.0" encoding="UTF-8" standalone="no"?>
<!-- Created with Inkscape (http://www.inkscape.org/) -->

<svg
   xmlns:osb="http://www.openswatchbook.org/uri/2009/osb"
   xmlns:dc="http://purl.org/dc/elements/1.1/"
   xmlns:cc="http://creativecommons.org/ns#"
   xmlns:rdf="http://www.w3.org/1999/02/22-rdf-syntax-ns#"
   xmlns:svg="http://www.w3.org/2000/svg"
   xmlns="http://www.w3.org/2000/svg"
   xmlns:xlink="http://www.w3.org/1999/xlink"
   xmlns:sodipodi="http://sodipodi.sourceforge.net/DTD/sodipodi-0.dtd"
   xmlns:inkscape="http://www.inkscape.org/namespaces/inkscape"
   sodipodi:docname="convention_houle.svg"
   inkscape:version="0.48.4 r9939"
   version="1.1"
   id="svg2"
   height="225.45158"
   width="532.79016">
  <sodipodi:namedview
     id="base"
     pagecolor="#ffffff"
     bordercolor="#666666"
     borderopacity="1.0"
     inkscape:pageopacity="0.0"
     inkscape:pageshadow="2"
     inkscape:zoom="0.98994949"
     inkscape:cx="173.41358"
     inkscape:cy="-24.831245"
     inkscape:document-units="px"
     inkscape:current-layer="layer1"
     showgrid="false"
     fit-margin-top="0"
     fit-margin-left="0"
     fit-margin-right="0"
     fit-margin-bottom="0"
     inkscape:window-width="1615"
     inkscape:window-height="1026"
     inkscape:window-x="65"
     inkscape:window-y="24"
     inkscape:window-maximized="1" />
  <defs
     id="defs4">
    <linearGradient
       id="linearGradient6261"
       osb:paint="solid">
      <stop
         style="stop-color:#000000;stop-opacity:1;"
         offset="0"
         id="stop6263" />
    </linearGradient>
    <pattern
       patternTransform="translate(323.76387,-249.38712)"
       id="pattern3434"
       xlink:href="#EMFimage0_ref"
       inkscape:collect="always" />
    <pattern
       patternUnits="userSpaceOnUse"
       height="8"
       width="8"
       y="0"
       x="0"
       id="EMFimage0_ref">
      <use
         xlink:href="#EMFimage0"
         id="EMFimage0_ign" />
    </pattern>
    <pattern
       patternUnits="userSpaceOnUse"
       width="8.7779017"
       height="65.407379"
       patternTransform="translate(705.78429,132.22311)"
       id="pattern8414">
      <rect
         y="1.6601564e-07"
         x="0"
         height="65.407379"
         width="3.0304577"
         id="rect8410"
         style="fill:#4f81bd;fill-opacity:1;stroke:none" />
      <rect
         style="fill:#4f81bd;fill-opacity:1;stroke:none"
         id="rect8412"
         width="3.0304577"
         height="65.407379"
         x="5.7474442"
         y="0" />
    </pattern>
  </defs>
  <metadata
     id="metadata7">
    <rdf:RDF>
      <cc:Work
         rdf:about="">
        <dc:format>image/svg+xml</dc:format>
        <dc:type
           rdf:resource="http://purl.org/dc/dcmitype/StillImage" />
        <dc:title />
      </cc:Work>
    </rdf:RDF>
  </metadata>
  <g
     transform="translate(-510.16403,85.236027)"
     id="layer1"
     inkscape:groupmode="layer"
     inkscape:label="Layer 1">
    <path
       inkscape:connector-curvature="0"
       id="path3368"
       d="m 596.72386,108.90286 218.519,0 0,1.256 -218.519,0 z m 211.31698,-4.295 8.44002,4.91402 -8.44002,4.932 c -0.30011,0.16901 -0.675,0.056 -0.84398,-0.225 -0.18708,-0.30012 -0.0751,-0.69403 0.22607,-0.86301 l 7.501,-4.369 0,1.06898 -7.501,-4.37 c -0.30119,-0.16901 -0.41301,-0.563 -0.22607,-0.86299 0.16902,-0.30001 0.54397,-0.393 0.84398,-0.225 z"
       style="fill:#000000;fill-opacity:1;fill-rule:nonzero;stroke:#000000;stroke-width:0.01875373px;stroke-linecap:butt;stroke-linejoin:round;stroke-miterlimit:4;stroke-opacity:1;stroke-dasharray:none" />
    <path
       inkscape:connector-curvature="0"
       id="path3370"
       d="m 597.34285,109.52188 0,-161.789016 -1.256,0 0,161.789016 z m 4.29501,-154.606016 -4.914,-8.439 -4.932,8.439 c -0.16902,0.30001 -0.056,0.675 0.225,0.844 0.30001,0.18801 0.694,0.075 0.863,-0.225 l 4.37,-7.502 -1.069,0 4.369,7.502 c 0.16901,0.30001 0.563,0.413 0.863,0.225 0.30001,-0.16898 0.39399,-0.544 0.225,-0.844 z"
       style="fill:#000000;fill-opacity:1;fill-rule:nonzero;stroke:#000000;stroke-width:0.01875373px;stroke-linecap:butt;stroke-linejoin:round;stroke-miterlimit:4;stroke-opacity:1;stroke-dasharray:none" />
    <path
       inkscape:connector-curvature="0"
       id="path3372"
       d="m 655.46085,35.875861 c 19.241,-11.570997 45.43999,-6.788997 58.53,10.707993 13.072,17.49701 8.10202,41.071 -11.13899,52.661003 -4.014,2.419003 -8.47701,4.182003 -13.16501,5.213003 z"
       style="fill:url(#pattern3434);fill-opacity:1;fill-rule:evenodd;stroke:none" />
    <path
       inkscape:connector-curvature="0"
       id="path3376"
       d="m 596.98685,108.60285 75.015,-35.144996 -0.52499,-1.125 -75.03401,35.126006 z m 70.326,-28.205996 5.552,-8.02599 -9.715,-0.882 c -0.356,-0.037 -0.656,0.225 -0.675,0.56299 -0.038,0.356 0.20601,0.65601 0.563,0.694 l 8.645,0.769 -0.45,-0.976 -4.951,7.146 c -0.188,0.28102 -0.11299,0.675 0.16902,0.86201 0.28098,0.207 0.675,0.13198 0.862,-0.14999 z"
       style="fill:#4a7ebb;fill-opacity:1;fill-rule:nonzero;stroke:#4a7ebb;stroke-width:0.01875373px;stroke-linecap:butt;stroke-linejoin:round;stroke-miterlimit:4;stroke-opacity:1;stroke-dasharray:none" />
    <path
       inkscape:connector-curvature="0"
       id="path3378"
       d="m 710.14686,29.367864 43.97701,-22.0729999 29.08697,9.6579999 -9.658,29.086994 -43.977,22.055006 9.63899,-29.068004 z"
       style="fill:#4f81bd;fill-opacity:1;fill-rule:evenodd;stroke:none" />
    <path
       inkscape:connector-curvature="0"
       id="path3380"
       d="m 706.88386,29.592864 47.14699,-23.6479999 30.77501,10.2209999 -10.22103,30.75599 -47.14699,23.64801 10.59601,-31.937005 0.787,1.575 -31.93699,-10.614995 z m 33.925,8.626998 -10.052,30.268992 -1.74402,-1.50099 43.996,-22.073006 -0.63698,0.732002 9.65799,-29.086996 0.788,1.575 -29.08701,-9.6579999 0.95602,-0.057 -43.996,22.0549999 -0.14988,-2.307 30.26802,10.051999 z"
       style="fill:#385d8a;fill-opacity:1;fill-rule:nonzero;stroke:#385d8a;stroke-width:0.01875373px;stroke-linecap:butt;stroke-linejoin:round;stroke-miterlimit:4;stroke-opacity:1;stroke-dasharray:none" />
    <path
       inkscape:connector-curvature="0"
       id="path3382"
       d="m 596.23686,79.252854 c 12.39599,-0.14998 23.89199,5.53301 29.912,14.797003 l -29.425,13.989993 z"
       style="fill:#f79646;fill-opacity:1;fill-rule:evenodd;stroke:none" />
    <path
       inkscape:connector-curvature="0"
       id="path3384"
       d="m 594.99885,79.271854 c 0,-0.33799 0.131,-0.65599 0.35601,-0.9 0.24399,-0.24399 0.563,-0.375 0.919,-0.375 l 2.30699,0.037 2.36301,0.188 2.30699,0.30002 2.28801,0.45 2.23099,0.563 2.176,0.693 2.11901,0.82599 2.04399,0.93701 1.96901,1.05099 1.876,1.143 1.8,1.27601 1.70699,1.36899 1.612,1.481 1.482,1.576 1.36901,1.669 1.25599,1.781003 c 0.207,0.30002 0.26299,0.675 0.16902,1.032 -0.093,0.356 -0.337,0.656 -0.656,0.806 l -29.425,13.989983 c -0.394,0.18815 -0.844,0.16902 -1.2,-0.056 -0.356,-0.225 -0.581,-0.61902 -0.6,-1.05002 z m 2.98201,28.749006 -1.8,-1.10601 29.42399,-13.989993 -0.48699,1.838 -1.12601,-1.613 -1.256,-1.537993 -1.369,-1.46301 -1.463,-1.369 -1.59399,-1.275 -1.65001,-1.182 -1.763,-1.08699 -1.83799,-0.97601 -1.894,-0.881 -1.96901,-0.769 -2.044,-0.63699 -2.082,-0.544 -2.138,-0.41301 -2.19399,-0.30001 -2.19401,-0.16901 -2.326,-0.037 1.27501,-1.27599 z"
       style="fill:#b66d31;fill-opacity:1;fill-rule:nonzero;stroke:#b66d31;stroke-width:0.01875373px;stroke-linecap:butt;stroke-linejoin:round;stroke-miterlimit:4;stroke-opacity:1;stroke-dasharray:none" />
    <path
       inkscape:connector-curvature="0"
       id="path3416"
       d="m 563.04286,97.668857 c 0,-4.219 3.169,-7.670003 7.089,-7.670003 3.919,0 7.089,3.451003 7.089,7.670003 0,4.239003 -3.17,7.670993 -7.089,7.670993 -3.92,0 -7.089,-3.43199 -7.089,-7.670993 z"
       style="fill:#ffffff;fill-opacity:1;fill-rule:evenodd;stroke:none" />
    <path
       inkscape:connector-curvature="0"
       id="path3418"
       d="m 561.80486,97.743857 0.038,-0.919 0.112,-0.862 0.20601,-0.863 0.26298,-0.806 0.33701,-0.788 0.413,-0.731 0.956,-1.276003 c 0.038,-0.037 0.075,-0.093 0.113,-0.13099 l 0.50599,-0.506 0.63801,-0.507 0.675,-0.468 0.75,-0.394 0.769,-0.30001 0.788,-0.225 0.84399,-0.14999 0.86201,-0.057 0.84399,0.038 0.863,0.131 0.806,0.225 0.769,0.28201 0.75001,0.393 0.676,0.45 0.656,0.507 0.59999,0.581 0.97501,1.257003 0.45,0.787 0.35699,0.769 0.28102,0.825 0.20601,0.826 0.13199,0.881 0.037,0.9 -0.037,0.919 -0.113,0.863 -0.206,0.862003 -0.26299,0.807 -0.337,0.787 -0.413,0.732 -0.975,1.275 c -0.0191,0.056 -0.075,0.094 -0.113,0.14999 l -0.487,0.488 -0.657,0.52498 -0.675,0.45 -0.712,0.37502 -0.788,0.3189 -0.806,0.225 -0.826,0.14988 -0.862,0.056 -0.84399,-0.0368 -0.86301,-0.13216 -0.80599,-0.225 -0.76901,-0.28099 -0.75,-0.39398 -0.694,-0.45 -0.638,-0.506 -0.581,-0.563 c -0.057,-0.037 -0.094,-0.094 -0.13198,-0.14998 l -0.86201,-1.144 -0.45,-0.769 -0.35699,-0.769 -0.28102,-0.825 -0.20601,-0.825003 -0.131,-0.9 z m 2.532,0.544 0.075,0.638 0.14999,0.638 0.18701,0.600003 0.24399,0.562 0.26299,0.488 0.862,1.144 -0.131,-0.14998 0.431,0.412 0.451,0.375 0.468,0.319 0.507,0.26298 0.525,0.225 0.562,0.14999 0.544,0.11201 0.6,0.038 0.582,-0.0191 0.581,-0.094 0.563,-0.14998 0.506,-0.18702 0.525,-0.28098 0.488,-0.31901 0.45,-0.357 0.506,-0.487 -0.131,0.14999 0.788,-1.01301 0.30002,-0.52499 0.26199,-0.544 0.207,-0.619003 0.14999,-0.6 0.093,-0.656 0.038,-0.657 -0.038,-0.693 -0.075,-0.619 -0.14999,-0.638 -0.18698,-0.581 -0.24399,-0.582 -0.26299,-0.469 -0.769,-1.012 -0.393,-0.413 -0.45,-0.375 -0.488,-0.319013 -0.488,-0.26199 -0.525,-0.225 -0.562,-0.14999 -0.544,-0.11299 -0.6,-0.037 -0.582,0.0181 -0.581,0.094 -0.563,0.14999 -0.525,0.206 -0.506,0.26299 -0.488,0.300013 -0.45,0.375 -0.506,0.488 0.11201,-0.13199 -0.769,0.994 -0.30001,0.526 -0.26199,0.562 -0.20601,0.6 -0.14999,0.6 -0.094,0.657 -0.038,0.656 z"
       style="fill:#000000;fill-opacity:1;fill-rule:nonzero;stroke:#000000;stroke-width:0.01875373px;stroke-linecap:butt;stroke-linejoin:round;stroke-miterlimit:4;stroke-opacity:1;stroke-dasharray:none" />
    <path
       inkscape:connector-curvature="0"
       id="path3420"
       d="m 566.04286,91.405854 10.015,10.839006 -1.838,1.707 -10.015,-10.858003 z"
       style="fill:#000000;fill-opacity:1;fill-rule:nonzero;stroke:#000000;stroke-width:0.01875373px;stroke-linecap:butt;stroke-linejoin:round;stroke-miterlimit:4;stroke-opacity:1;stroke-dasharray:none" />
    <path
       inkscape:connector-curvature="0"
       id="path3422"
       d="m 574.21986,91.405854 -10.015,10.839006 1.838,1.707 10.015,-10.858003 z"
       style="fill:#000000;fill-opacity:1;fill-rule:nonzero;stroke:#000000;stroke-width:0.01875373px;stroke-linecap:butt;stroke-linejoin:round;stroke-miterlimit:4;stroke-opacity:1;stroke-dasharray:none" />
    <text
       sodipodi:linespacing="125%"
       id="text3872"
       y="-60.923527"
       x="553.42859"
       style="font-size:40px;font-style:italic;font-weight:normal;line-height:125%;letter-spacing:0px;word-spacing:0px;fill:#000000;fill-opacity:1;stroke:none;font-family:Sans;-inkscape-font-specification:Sans Italic"
       xml:space="preserve"><tspan
         style="font-size:32px;font-style:normal;font-variant:normal;font-weight:normal;font-stretch:normal;text-align:start;line-height:125%;writing-mode:lr-tb;text-anchor:start;font-family:Sans;-inkscape-font-specification:Sans"
         y="-60.923527"
         x="553.42859"
         id="tspan3874"
         sodipodi:role="line">North</tspan></text>
    <text
       sodipodi:linespacing="125%"
       id="text3876"
       y="139.79076"
       x="779.85712"
       style="font-size:40px;font-style:italic;font-weight:normal;line-height:125%;letter-spacing:0px;word-spacing:0px;fill:#000000;fill-opacity:1;stroke:none;font-family:Sans;-inkscape-font-specification:Sans Italic"
       xml:space="preserve"><tspan
         style="font-size:30px;font-style:normal;font-variant:normal;font-weight:normal;font-stretch:normal;text-align:start;line-height:125%;writing-mode:lr-tb;text-anchor:start;font-family:Sans;-inkscape-font-specification:Sans"
         y="139.79076"
         x="779.85712"
         id="tspan3878"
         sodipodi:role="line">East</tspan></text>
    <text
       sodipodi:linespacing="125%"
       id="text3872-3"
       y="136.72044"
       x="507.02341"
       style="font-size:40px;font-style:italic;font-weight:normal;line-height:125%;letter-spacing:0px;word-spacing:0px;fill:#000000;fill-opacity:1;stroke:none;font-family:Sans;-inkscape-font-specification:Sans Italic"
       xml:space="preserve"><tspan
         style="font-size:32px;font-style:normal;font-variant:normal;font-weight:normal;font-stretch:normal;text-align:start;line-height:125%;writing-mode:lr-tb;text-anchor:start;font-family:Sans;-inkscape-font-specification:Sans"
         y="136.72044"
         x="507.02341"
         id="tspan3874-1"
         sodipodi:role="line">Down</tspan></text>
    <path
       inkscape:connector-curvature="0"
       id="path6103"
       d="m 679.00547,66.586157 -16.48202,-32.95794 3.09811,-1.37045 c 8.14626,-3.60347 24.02372,-5.910091 32.53957,-3.745401 14.70962,3.73912 24.01046,14.663878 27.56699,28.536728 3.80142,14.82808 -7.19396,32.844833 -22.48263,39.783653 -2.14552,0.97375 -4.76878,1.98215 -5.82947,2.2409 -1.91594,0.46738 -2.03617,0.25521 -18.41055,-32.48749 z"
       style="fill:url(#pattern8414);fill-opacity:1;stroke:#4f81bd;stroke-opacity:1"
       sodipodi:nodetypes="ccsssssc" />
    <text
       transform="translate(-72.285713,-185.78067)"
       sodipodi:linespacing="125%"
       id="text6129"
       y="184.85715"
       x="867.85712"
       style="font-size:40px;font-style:italic;font-weight:normal;line-height:125%;letter-spacing:0px;word-spacing:0px;fill:#000000;fill-opacity:1;stroke:none;font-family:Sans;-inkscape-font-specification:Sans Italic"
       xml:space="preserve"><tspan
         style="font-size:20px;font-style:normal;font-variant:normal;font-weight:normal;font-stretch:normal;text-align:start;line-height:125%;writing-mode:lr-tb;text-anchor:start;font-family:Sans;-inkscape-font-specification:Sans"
         y="184.85715"
         x="867.85712"
         id="tspan6131"
         sodipodi:role="line">Direction de propagation</tspan></text>
    <text
       sodipodi:linespacing="125%"
       id="text6129-2"
       y="101.02262"
       x="720.89856"
       style="font-size:40px;font-style:italic;font-weight:normal;line-height:125%;letter-spacing:0px;word-spacing:0px;fill:#000000;fill-opacity:1;stroke:none;font-family:Sans;-inkscape-font-specification:Sans Italic"
       xml:space="preserve"><tspan
         style="font-size:20px;font-style:normal;font-variant:normal;font-weight:normal;font-stretch:normal;text-align:start;line-height:125%;writing-mode:lr-tb;text-anchor:start;font-family:Sans;-inkscape-font-specification:Sans"
         y="101.02262"
         x="720.89856"
         id="tspan6131-2"
         sodipodi:role="line">Champs de vagues</tspan></text>
    <g
       id="g6195">
      <g
         word-spacing="normal"
         letter-spacing="normal"
         font-size-adjust="none"
         font-stretch="normal"
         font-weight="normal"
         font-variant="normal"
         font-style="normal"
         stroke-miterlimit="10.433"
         xml:space="preserve"
         transform="matrix(0.63142857,0,0,-0.63142857,-110.5,417)"
         id="content"
         style="font-style:normal;font-variant:normal;font-weight:normal;font-stretch:normal;letter-spacing:normal;word-spacing:normal;text-anchor:start;fill:none;stroke:#000000;stroke-linecap:butt;stroke-linejoin:miter;stroke-miterlimit:10.43299961;stroke-opacity:1;stroke-dasharray:none;stroke-dashoffset:0"><path
           id="path6198"
           d="m 479.54,439.48 0,0.02 0,0.02 0.01,0.04 0.02,0.04 0.01,0.05 0.01,0.04 0.01,0.05 0.01,0.05 0.01,0.05 0.01,0.05 0.01,0.05 0.01,0.05 0.01,0.05 0.01,0.05 0,0.04 0,0.05 0.01,0.03 0,0.02 c 0,0.5 -0.35,0.55 -0.6,0.55 -0.5,0 -0.54,-0.11 -0.75,-1 l -8.26,-32.94 c -3.78,0.45 -5.68,2.3 -5.68,5.59 0,0.99 0,2.28 2.69,9.27 0.21,0.59 0.55,1.44 0.55,2.44 0,2.23 -1.59,4.07 -4.09,4.07 -4.74,0 -6.58,-7.21 -6.58,-7.67 0,-0.5 0.5,-0.5 0.61,-0.5 0.5,0 0.54,0.11 0.79,0.91 1.35,4.73 3.33,6.17 5.03,6.17 0.4,0 1.25,0 1.25,-1.59 0,-1.3 -0.5,-2.53 -1.15,-4.28 -2.39,-6.29 -2.39,-7.58 -2.39,-8.43 0,-4.73 3.89,-6.78 8.67,-7.07 -0.41,-1.79 -0.41,-1.89 -1.09,-4.54 -0.16,-0.54 -1.16,-4.57 -1.16,-4.73 0,-0.05 0,-0.5 0.61,-0.5 0.09,0 0.34,0 0.44,0.2 0.15,0.1 0.45,1.35 0.61,2.05 l 1.89,7.42 c 1.84,0 6.22,0 10.9,5.33 2.05,2.3 3.1,4.48 3.64,5.98 0.46,1.24 1.55,5.58 1.55,7.77 0,2.8 -1.34,3.48 -2.2,3.48 -1.24,0 -2.49,-1.29 -2.49,-2.39 0,-0.64 0.3,-0.93 0.75,-1.34 0.55,-0.55 1.8,-1.84 1.8,-4.23 0,-3.19 -2.59,-7.27 -4.34,-9.07 -4.38,-4.43 -7.57,-4.43 -9.36,-4.43 z"
           inkscape:connector-curvature="0"
           style="fill:#000000;stroke-width:0" /></g>    </g>
    <path
       style="fill:#000000;fill-opacity:1;fill-rule:evenodd;stroke:none"
       id="path1873"
       d="m 627.04581,71.221242 0,-0.53748 c 0,0 -2.04735,0.0336 -2.62061,-0.33592 -0.57326,-0.36952 -0.94179,-1.00777 -0.94179,-1.98195 0,-0.97417 0,-3.0569 0,-3.0569 0,0 5.44598,-0.47029 7.16576,-1.88117 1.71978,-1.41087 2.21114,-3.69515 2.21114,-5.10602 0,-0.70544 0.009,-2.60151 0.009,-3.5927 0,-0.60541 0.1304,-1.68333 1.13194,-1.68333 0.498,0 1.27493,0.002 1.27493,0.002 l 0,-0.70544 c 0,0 -1.06463,-0.0336 -1.71978,-0.0336 -0.65515,0 -2.23162,0.084 -3.03009,0.73903 -0.79847,0.65505 -1.31031,2.45223 -1.31031,5.54273 0,3.09049 -0.32758,3.93029 -1.26936,4.70292 -1.41282,1.15905 -4.46324,1.24291 -4.46324,1.24291 0,0 0,-7.79341 0,-8.86836 0,-1.07496 -0.0409,-1.64603 0.57326,-2.14991 0.61421,-0.50389 2.66157,-0.4367 2.66157,-0.4367 l 0,-0.77262 -10.05837,0 0,0.77262 c 0,0 2.04736,-0.0672 2.66156,0.4367 0.61421,0.50388 0.57326,1.07495 0.57326,2.14991 0,1.07495 0,8.86836 0,8.86836 0,0 -3.05041,-0.0839 -4.46324,-1.24291 -0.94178,-0.77262 -1.26936,-1.61243 -1.26936,-4.70292 0,-3.09049 -0.51184,-4.88768 -1.31031,-5.54273 -0.79847,-0.65505 -2.37493,-0.73903 -3.03009,-0.73903 -0.65515,0 -1.71978,0.0336 -1.71978,0.0336 l 0,0.70543 c 0,0 0.77694,-0.002 1.27493,-0.002 1.00154,0 1.13194,1.07793 1.13194,1.68334 0,0.99119 0.009,2.88725 0.009,3.59269 0,1.41088 0.49137,3.69516 2.21115,5.10603 1.71978,1.41088 7.16575,1.88117 7.16575,1.88117 0,0 0,2.08272 0,3.0569 0,0.97417 -0.36853,1.61242 -0.94179,1.98194 -0.57326,0.36952 -2.62061,0.33593 -2.62061,0.33593 l 0,0.53747"
       inkscape:connector-curvature="0" />
  </g>
</svg>
