<?xml version="1.0" encoding="UTF-8" standalone="no"?>
<!-- Created with Inkscape (http://www.inkscape.org/) -->
<svg
   xmlns:dc="http://purl.org/dc/elements/1.1/"
   xmlns:cc="http://creativecommons.org/ns#"
   xmlns:rdf="http://www.w3.org/1999/02/22-rdf-syntax-ns#"
   xmlns:svg="http://www.w3.org/2000/svg"
   xmlns="http://www.w3.org/2000/svg"
   xmlns:sodipodi="http://sodipodi.sourceforge.net/DTD/sodipodi-0.dtd"
   xmlns:inkscape="http://www.inkscape.org/namespaces/inkscape"
   width="680.51007"
   height="539.41119"
   id="svg2"
   sodipodi:version="0.32"
   inkscape:version="0.46"
   sodipodi:docname="Simpson.svg"
   inkscape:output_extension="org.inkscape.output.svg.inkscape"
   version="1.0">
  <defs
     id="defs4">
    <marker
       inkscape:stockid="Arrow1Lstart"
       orient="auto"
       refY="0"
       refX="0"
       id="Arrow1Lstart"
       style="overflow:visible">
      <path
         id="path3160"
         d="M 0,0 L 5,-5 L -12.5,0 L 5,5 L 0,0 z"
         style="fill-rule:evenodd;stroke:#000000;stroke-width:1pt;marker-start:none"
         transform="matrix(0.8,0,0,0.8,10,0)" />
    </marker>
    <inkscape:perspective
       sodipodi:type="inkscape:persp3d"
       inkscape:vp_x="0 : 526.18109 : 1"
       inkscape:vp_y="0 : 1000 : 0"
       inkscape:vp_z="744.09448 : 526.18109 : 1"
       inkscape:persp3d-origin="372.04724 : 350.78739 : 1"
       id="perspective10" />
  </defs>
  <sodipodi:namedview
     id="base"
     pagecolor="#ffffff"
     bordercolor="#666666"
     borderopacity="1.0"
     inkscape:pageopacity="0.0"
     inkscape:pageshadow="2"
     inkscape:zoom="0.99552995"
     inkscape:cx="340.31982"
     inkscape:cy="269.72298"
     inkscape:document-units="px"
     inkscape:current-layer="layer1"
     showgrid="true"
     inkscape:snap-global="false"
     inkscape:window-width="1280"
     inkscape:window-height="729"
     inkscape:window-x="0"
     inkscape:window-y="24">
    <inkscape:grid
       type="xygrid"
       id="grid3963"
       visible="true"
       enabled="true" />
  </sodipodi:namedview>
  <metadata
     id="metadata7">
    <rdf:RDF>
      <cc:Work
         rdf:about="">
        <dc:format>image/svg+xml</dc:format>
        <dc:type
           rdf:resource="http://purl.org/dc/dcmitype/StillImage" />
      </cc:Work>
    </rdf:RDF>
  </metadata>
  <g
     inkscape:label="Calque 1"
     inkscape:groupmode="layer"
     id="layer1"
     transform="translate(-38.06981,-314.03283)">
    <g
       id="g3945"
       transform="translate(-158.7362,262.60062)">
      <path
         style="fill:#323232;fill-opacity:1;fill-rule:evenodd;stroke:none;stroke-width:2;stroke-linecap:butt;stroke-linejoin:miter;stroke-miterlimit:4;stroke-dasharray:none;stroke-opacity:1"
         d="M 224.375,65.101854 L 224.375,590.84342 L 226.375,590.84342 L 226.375,65.101854 L 224.375,65.101854 z"
         id="path3155" />
      <path
         style="fill:#323232;fill-opacity:1;fill-rule:evenodd;stroke:#323232;stroke-width:0.8pt;marker-start:none;stroke-opacity:1"
         d="M 225.36621,71.932207 L 233.36621,79.932207 L 225.36621,51.932207 L 217.36621,79.932207 L 225.36621,71.932207 z"
         id="path3941" />
    </g>
    <g
       id="g3949"
       transform="matrix(0,1,-1,0,770.01207,590.99531)">
      <path
         style="fill:#323232;fill-opacity:1;fill-rule:evenodd;stroke:none;stroke-width:2;stroke-linecap:butt;stroke-linejoin:miter;stroke-miterlimit:4;stroke-dasharray:none;stroke-opacity:1"
         d="M 224.375,65.101854 L 224.375,731.94226 L 226.375,731.94226 L 226.375,65.101854 L 224.375,65.101854 z"
         id="path3951" />
      <path
         style="fill:#323232;fill-opacity:1;fill-rule:evenodd;stroke:#323232;stroke-width:0.8pt;marker-start:none;stroke-opacity:1"
         d="M 225.36621,71.932207 L 233.36621,79.932207 L 225.36621,51.932207 L 217.36621,79.932207 L 225.36621,71.932207 z"
         id="path3953" />
    </g>
    <path
       style="fill:none;fill-rule:evenodd;stroke:#000000;stroke-width:4;stroke-linecap:butt;stroke-linejoin:miter;stroke-miterlimit:4;stroke-dasharray:none;stroke-opacity:1"
       d="M 82.307657,848.55275 C 113.66295,752.52715 268.46368,388.02181 388.02181,388.02181 C 448.79917,388.02181 513.443,433.09506 562.43565,515.40271"
       id="path3955"
       sodipodi:nodetypes="csc" />
    <path
       style="opacity:1;fill:#ffa06d;fill-opacity:0.49019608;stroke:#ff3d3c;stroke-width:2;stroke-linecap:square;stroke-linejoin:miter;stroke-miterlimit:4;stroke-dasharray:none;stroke-dashoffset:0;stroke-opacity:1"
       d="M 178.69714,625.59814 L 178.63055,816.37617 L 296.25672,816.37062 L 296.21412,443.92442 C 296.21412,443.92442 255.00141,496.25277 237.20451,523.46077 C 219.4076,550.66877 178.69714,625.59814 178.69714,625.59814 z"
       id="rect3957"
       sodipodi:nodetypes="cccczc" />
    <path
       style="fill:#ffa06d;fill-opacity:0.48902821;stroke:#ff3d3c;stroke-width:2;stroke-linecap:square;stroke-linejoin:miter;stroke-miterlimit:4;stroke-dashoffset:0;stroke-opacity:1"
       d="M 296.18921,444.92308 C 296.18921,444.92308 336.45243,403.85337 355.24673,396.07456 C 374.04102,388.29575 413.9491,390.55323 413.9491,390.55323 L 413.9491,816.47698 L 296.89949,816.47698 L 296.18921,444.92308 z"
       id="rect3959"
       sodipodi:nodetypes="czcccc" />
    <path
       style="fill:#ffa06d;fill-opacity:0.48902821;stroke:#ff3d3c;stroke-width:2;stroke-linecap:square;stroke-linejoin:miter;stroke-miterlimit:4;stroke-dashoffset:0;stroke-opacity:1"
       d="M 413.83203,390.67216 C 413.83203,390.67216 454.86488,404.47413 472.97836,416.33109 C 491.09183,428.18805 531.4144,470.75643 531.4144,470.75643 L 531.4144,816.36667 L 413.83203,816.36667 L 413.83203,390.67216 z"
       id="rect3961"
       sodipodi:nodetypes="czcccc" />
    <path
       sodipodi:type="arc"
       style="opacity:1;fill:#000000;fill-opacity:1;stroke:none;stroke-width:2;stroke-linecap:square;stroke-linejoin:miter;stroke-miterlimit:4;stroke-dasharray:none;stroke-dashoffset:0;stroke-opacity:1"
       id="path3965"
       sodipodi:cx="237.28125"
       sodipodi:cy="523.23718"
       sodipodi:rx="5.4241071"
       sodipodi:ry="5.4241071"
       d="M 242.70536,523.23718 A 5.4241071,5.4241071 0 1 1 231.85714,523.23718 A 5.4241071,5.4241071 0 1 1 242.70536,523.23718 z"
       transform="matrix(0.8814815,0,0,0.8814815,87.325762,-16.149433)" />
    <path
       sodipodi:type="arc"
       style="opacity:1;fill:#000000;fill-opacity:1;stroke:none;stroke-width:2;stroke-linecap:square;stroke-linejoin:miter;stroke-miterlimit:4;stroke-dasharray:none;stroke-dashoffset:0;stroke-opacity:1"
       id="path3973"
       sodipodi:cx="237.28125"
       sodipodi:cy="523.23718"
       sodipodi:rx="5.4241071"
       sodipodi:ry="5.4241071"
       d="M 242.70536,523.23718 A 5.4241071,5.4241071 0 1 1 231.85714,523.23718 A 5.4241071,5.4241071 0 1 1 242.70536,523.23718 z"
       transform="matrix(0.8814815,0,0,0.8814815,205.19627,-70.543781)" />
    <path
       sodipodi:type="arc"
       style="opacity:1;fill:#000000;fill-opacity:1;stroke:none;stroke-width:2;stroke-linecap:square;stroke-linejoin:miter;stroke-miterlimit:4;stroke-dasharray:none;stroke-dashoffset:0;stroke-opacity:1"
       id="path3975"
       sodipodi:cx="237.28125"
       sodipodi:cy="523.23718"
       sodipodi:rx="5.4241071"
       sodipodi:ry="5.4241071"
       d="M 242.70536,523.23718 A 5.4241071,5.4241071 0 1 1 231.85714,523.23718 A 5.4241071,5.4241071 0 1 1 242.70536,523.23718 z"
       transform="matrix(0.8814815,0,0,0.8814815,322.2889,9.1296309)" />
    <text
       xml:space="preserve"
       style="font-size:40px;font-style:italic;font-variant:normal;font-weight:bold;font-stretch:normal;fill:#000000;fill-opacity:1;stroke:none;stroke-width:1px;stroke-linecap:butt;stroke-linejoin:miter;stroke-opacity:1;font-family:LMMathItalic10;-inkscape-font-specification:LMMathItalic10 Bold Italic"
       x="97"
       y="740.36218"
       id="text3977"><tspan
         sodipodi:role="line"
         id="tspan3979"
         x="97"
         y="740.36218">f</tspan></text>
    <path
       sodipodi:type="arc"
       style="opacity:1;fill:#000000;fill-opacity:1;stroke:none;stroke-width:2;stroke-linecap:square;stroke-linejoin:miter;stroke-miterlimit:4;stroke-dasharray:none;stroke-dashoffset:0;stroke-opacity:1"
       id="path4001"
       sodipodi:cx="237.28125"
       sodipodi:cy="523.23718"
       sodipodi:rx="5.4241071"
       sodipodi:ry="5.4241071"
       d="M 242.70536,523.23718 A 5.4241071,5.4241071 0 1 1 231.85714,523.23718 A 5.4241071,5.4241071 0 1 1 242.70536,523.23718 z"
       transform="matrix(0.8814815,0,0,0.8814815,-30.460606,164.20087)" />
    <path
       sodipodi:type="arc"
       style="opacity:1;fill:#000000;fill-opacity:1;stroke:none;stroke-width:2;stroke-linecap:square;stroke-linejoin:miter;stroke-miterlimit:4;stroke-dasharray:none;stroke-dashoffset:0;stroke-opacity:1"
       id="path4033"
       sodipodi:cx="237.28125"
       sodipodi:cy="523.23718"
       sodipodi:rx="5.4241071"
       sodipodi:ry="5.4241071"
       d="M 242.70536,523.23718 A 5.4241071,5.4241071 0 1 1 231.85714,523.23718 A 5.4241071,5.4241071 0 1 1 242.70536,523.23718 z"
       transform="matrix(0.8814815,0,0,0.8814815,27.548699,61.993999)" />
    <path
       sodipodi:type="arc"
       style="opacity:1;fill:#000000;fill-opacity:1;stroke:none;stroke-width:2;stroke-linecap:square;stroke-linejoin:miter;stroke-miterlimit:4;stroke-dasharray:none;stroke-dashoffset:0;stroke-opacity:1"
       id="path4035"
       sodipodi:cx="237.28125"
       sodipodi:cy="523.23718"
       sodipodi:rx="5.4241071"
       sodipodi:ry="5.4241071"
       d="M 242.70536,523.23718 A 5.4241071,5.4241071 0 1 1 231.85714,523.23718 A 5.4241071,5.4241071 0 1 1 242.70536,523.23718 z"
       transform="matrix(0.8814815,0,0,0.8814815,145.85788,-65.857833)" />
    <path
       sodipodi:type="arc"
       style="opacity:1;fill:#000000;fill-opacity:1;stroke:none;stroke-width:2;stroke-linecap:square;stroke-linejoin:miter;stroke-miterlimit:4;stroke-dasharray:none;stroke-dashoffset:0;stroke-opacity:1"
       id="path4037"
       sodipodi:cx="237.28125"
       sodipodi:cy="523.23718"
       sodipodi:rx="5.4241071"
       sodipodi:ry="5.4241071"
       d="M 242.70536,523.23718 A 5.4241071,5.4241071 0 1 1 231.85714,523.23718 A 5.4241071,5.4241071 0 1 1 242.70536,523.23718 z"
       transform="matrix(0.8814815,0,0,0.8814815,263.95836,-44.958305)" />
  </g>
</svg>
