<?xml version="1.0" encoding="UTF-8" standalone="no"?>
<!-- Created with Inkscape (http://www.inkscape.org/) -->

<svg
   xmlns:dc="http://purl.org/dc/elements/1.1/"
   xmlns:cc="http://creativecommons.org/ns#"
   xmlns:rdf="http://www.w3.org/1999/02/22-rdf-syntax-ns#"
   xmlns:svg="http://www.w3.org/2000/svg"
   xmlns="http://www.w3.org/2000/svg"
   xmlns:sodipodi="http://sodipodi.sourceforge.net/DTD/sodipodi-0.dtd"
   xmlns:inkscape="http://www.inkscape.org/namespaces/inkscape"
   width="500.63223"
   height="182.24089"
   id="svg2"
   version="1.1"
   inkscape:version="0.48.4 r9939"
   sodipodi:docname="New document 1">
  <defs
     id="defs4" />
  <sodipodi:namedview
     id="base"
     pagecolor="#ffffff"
     bordercolor="#666666"
     borderopacity="1.0"
     inkscape:pageopacity="0.0"
     inkscape:pageshadow="2"
     inkscape:zoom="0.98994949"
     inkscape:cx="315.48398"
     inkscape:cy="177.59188"
     inkscape:document-units="px"
     inkscape:current-layer="layer1"
     showgrid="false"
     fit-margin-top="0"
     fit-margin-left="0"
     fit-margin-right="0"
     fit-margin-bottom="0"
     inkscape:window-width="1680"
     inkscape:window-height="1003"
     inkscape:window-x="-4"
     inkscape:window-y="-4"
     inkscape:window-maximized="1" />
  <metadata
     id="metadata7">
    <rdf:RDF>
      <cc:Work
         rdf:about="">
        <dc:format>image/svg+xml</dc:format>
        <dc:type
           rdf:resource="http://purl.org/dc/dcmitype/StillImage" />
        <dc:title></dc:title>
      </cc:Work>
    </rdf:RDF>
  </metadata>
  <g
     inkscape:label="Layer 1"
     inkscape:groupmode="layer"
     id="layer1"
     transform="translate(-12.529122,-708.75373)">
    <path
       inkscape:connector-curvature="0"
       style="fill:#c0504d;fill-opacity:1;fill-rule:evenodd;stroke:none"
       d="m 13.597062,709.33873 0,51.38169 109.968798,0 0,-51.38169 -109.968798,0 z"
       id="path2991" />
    <path
       inkscape:connector-curvature="0"
       style="fill:#8c3836;fill-opacity:1;fill-rule:evenodd;stroke:none"
       d="m 12.529122,709.33873 c 0,-0.11376 0.0577,-0.195 0.14431,-0.2925 0.11545,-0.0975 0.23091,-0.1625 0.40409,-0.2275 0.17318,-0.0487 0.31749,-0.065 0.51954,-0.065 l 0,0.58499 -1.06794,0 z"
       id="path2993" />
    <path
       inkscape:connector-curvature="0"
       style="fill:#8c3836;fill-opacity:1;fill-rule:evenodd;stroke:none"
       d="m 13.597062,709.93996 0,-0.60123 0,-0.58499 109.968798,0 0,0.58499 0,0.60123 -109.968798,0 z"
       id="path2995" />
    <path
       inkscape:connector-curvature="0"
       style="fill:#8c3836;fill-opacity:1;fill-rule:evenodd;stroke:none"
       d="m 123.56586,708.75374 c 0.20204,0 0.34636,0.0162 0.51954,0.065 0.17318,0.065 0.28862,0.13 0.40408,0.2275 0.0866,0.0975 0.14432,0.17874 0.14432,0.2925 l 0,0 -1.06794,0 0,-0.58499 z"
       id="path2997" />
    <path
       inkscape:connector-curvature="0"
       style="fill:#8c3836;fill-opacity:1;fill-rule:evenodd;stroke:none"
       d="m 122.52678,709.33873 1.03908,0 1.06794,0 0,51.38169 -1.06794,0 -1.03908,0 0,-51.38169 z"
       id="path2999" />
    <path
       inkscape:connector-curvature="0"
       style="fill:#8c3836;fill-opacity:1;fill-rule:evenodd;stroke:none"
       d="m 124.6338,760.72042 c 0,0.11375 -0.0577,0.195 -0.14432,0.2925 -0.11546,0.0975 -0.2309,0.1625 -0.40408,0.22749 -0.17318,0.0487 -0.3175,0.0812 -0.51954,0.0812 l 0,-0.60124 1.06794,0 z"
       id="path3001" />
    <path
       inkscape:connector-curvature="0"
       style="fill:#8c3836;fill-opacity:1;fill-rule:evenodd;stroke:none"
       d="m 123.56586,760.13544 0,0.58498 0,0.60124 -109.968798,0 0,-0.60124 0,-0.58498 109.968798,0 z"
       id="path3003" />
    <path
       inkscape:connector-curvature="0"
       style="fill:#8c3836;fill-opacity:1;fill-rule:evenodd;stroke:none"
       d="m 13.597062,761.32166 c -0.20205,0 -0.34636,-0.0325 -0.51954,-0.0812 -0.17318,-0.065 -0.28864,-0.12999 -0.40409,-0.22749 -0.0866,-0.0975 -0.14431,-0.17875 -0.14431,-0.2925 l 1.06794,0 0,0.60124 z"
       id="path3005" />
    <path
       inkscape:connector-curvature="0"
       style="fill:#8c3836;fill-opacity:1;fill-rule:evenodd;stroke:none"
       d="m 14.664992,760.72042 -1.06793,0 -1.06794,0 0,-51.38169 1.06794,0 1.06793,0 0,51.38169 z"
       id="path3007" />
    <text
       xml:space="preserve"
       x="23.128588"
       y="795.85376"
       style="font-size:17.01644516px;font-style:normal;font-weight:normal;text-align:start;text-anchor:start;fill:#ffffff;font-family:Arial"
       id="text3009"
       transform="scale(1.0770835,0.92843311)">Simulator</text>
    <path
       inkscape:connector-curvature="0"
       style="fill:#000000;fill-opacity:1;fill-rule:evenodd;stroke:none"
       d="m 135.34204,715.49738 0,0 14.54706,0 0,0.40624 -14.54706,0 0,-0.40624 z m 8.6301,-1.98247 0,0 6.63853,2.19372 -6.63853,2.17746 0,0 c -0.17318,0.065 -0.40409,0.0325 -0.49067,-0.065 -0.11545,-0.0975 -0.0577,-0.22749 0.11545,-0.29249 l 0,0 6.119,-1.99872 0,0.35749 -6.119,-2.01496 0,0 c -0.17318,-0.0487 -0.2309,-0.17875 -0.11545,-0.27625 0.0866,-0.0975 0.31749,-0.13 0.49067,-0.0812 z"
       id="path3011" />
    <path
       inkscape:connector-curvature="0"
       style="fill:#000000;fill-opacity:1;fill-rule:evenodd;stroke:none"
       d="m 135.34204,724.79224 0,0 14.54706,0 0,0.40624 -14.54706,0 0,-0.40624 z m 8.6301,-1.98248 0,0 6.63853,2.17747 -6.63853,2.19372 0,0 c -0.17318,0.0487 -0.40409,0.0162 -0.49067,-0.0812 -0.11545,-0.0975 -0.0577,-0.2275 0.11545,-0.27625 l 0,0 6.119,-2.01496 0,0.35749 -6.119,-1.99872 0,0 c -0.17318,-0.065 -0.2309,-0.17874 -0.11545,-0.27624 0.0866,-0.11376 0.31749,-0.14625 0.49067,-0.0813 z"
       id="path3013" />
    <text
       xml:space="preserve"
       x="132.08743"
       y="792.21332"
       style="font-size:7.61050558px;font-style:normal;font-weight:normal;text-align:start;text-anchor:start;fill:#000000;font-family:Arial"
       id="text3015"
       transform="scale(1.0770835,0.92843311)">.</text>
    <text
       xml:space="preserve"
       x="132.08743"
       y="798.14661"
       style="font-size:7.61050558px;font-style:normal;font-weight:normal;text-align:start;text-anchor:start;fill:#000000;font-family:Arial"
       id="text3017"
       transform="scale(1.0770835,0.92843311)">.</text>
    <text
       xml:space="preserve"
       x="132.08743"
       y="804.07983"
       style="font-size:7.61050558px;font-style:normal;font-weight:normal;text-align:start;text-anchor:start;fill:#000000;font-family:Arial"
       id="text3019"
       transform="scale(1.0770835,0.92843311)">.</text>
    <path
       inkscape:connector-curvature="0"
       style="fill:#000000;fill-opacity:1;fill-rule:evenodd;stroke:none"
       d="m 134.62047,756.08924 0,0 14.54705,0 0,0.40625 -14.54705,0 0,-0.40625 z m 8.63009,-1.98246 0,0 6.63854,2.17747 -6.63854,2.19371 0,0 c -0.17318,0.0487 -0.40408,0.0162 -0.51953,-0.0812 -0.0866,-0.0975 -0.0289,-0.2275 0.14431,-0.27625 l 0,0 0,0 6.09014,-2.01497 0,0.3575 -6.09014,-1.99872 0,0 c -0.17318,-0.065 -0.2309,-0.17875 -0.14431,-0.27625 0.11545,-0.0975 0.34635,-0.14624 0.51953,-0.0812 z"
       id="path3021" />
    <text
       xml:space="preserve"
       x="131.81946"
       y="768.4801"
       style="font-size:7.61050558px;font-style:normal;font-weight:normal;text-align:start;text-anchor:start;fill:#000000;font-family:Arial"
       id="text3023"
       transform="scale(1.0770835,0.92843311)">x</text>
    <text
       xml:space="preserve"
       x="132.51617"
       y="777.94885"
       style="font-size:7.61050558px;font-style:normal;font-weight:normal;text-align:start;text-anchor:start;fill:#000000;font-family:Arial"
       id="text3025"
       transform="scale(1.0770835,0.92843311)">y</text>
    <text
       xml:space="preserve"
       x="131.81946"
       y="811.20331"
       style="font-size:7.61050558px;font-style:normal;font-weight:normal;text-align:start;text-anchor:start;fill:#000000;font-family:Arial"
       id="text3027"
       transform="scale(1.0770835,0.92843311)">F</text>
    <path
       inkscape:connector-curvature="0"
       style="fill:#4f81bd;fill-opacity:1;fill-rule:evenodd;stroke:none"
       d="m 178.17503,709.33873 0,39.27563 150.89684,0 0,-39.27563 -150.89684,0 z"
       id="path3029" />
    <path
       inkscape:connector-curvature="0"
       style="fill:#385d8a;fill-opacity:1;fill-rule:evenodd;stroke:none"
       d="m 177.13596,709.33873 c 0,-0.11376 0.0289,-0.195 0.11545,-0.2925 0.11546,-0.0975 0.23092,-0.1625 0.40409,-0.2275 0.17318,-0.0487 0.3175,-0.065 0.51953,-0.065 l 0,0.58499 -1.03907,0 z"
       id="path3031" />
    <path
       inkscape:connector-curvature="0"
       style="fill:#385d8a;fill-opacity:1;fill-rule:evenodd;stroke:none"
       d="m 178.17503,709.93996 0,-0.60123 0,-0.58499 150.89684,0 0,0.58499 0,0.60123 -150.89684,0 z"
       id="path3033" />
    <path
       inkscape:connector-curvature="0"
       style="fill:#385d8a;fill-opacity:1;fill-rule:evenodd;stroke:none"
       d="m 329.07187,708.75374 c 0.20203,0 0.34636,0.0162 0.51954,0.065 0.17317,0.065 0.28862,0.13 0.40408,0.2275 0.0866,0.0975 0.14431,0.17874 0.14431,0.2925 l 0,0 -1.06793,0 0,-0.58499 z"
       id="path3035" />
    <path
       inkscape:connector-curvature="0"
       style="fill:#385d8a;fill-opacity:1;fill-rule:evenodd;stroke:none"
       d="m 328.03279,709.33873 1.03908,0 1.06793,0 0,39.27563 -1.06793,0 -1.03908,0 0,-39.27563 z"
       id="path3037" />
    <path
       inkscape:connector-curvature="0"
       style="fill:#385d8a;fill-opacity:1;fill-rule:evenodd;stroke:none"
       d="m 330.1398,748.61436 c 0,0.11375 -0.0577,0.195 -0.14431,0.29249 -0.11546,0.0975 -0.23091,0.1625 -0.40408,0.22751 -0.17318,0.0487 -0.31751,0.0812 -0.51954,0.0812 l 0,-0.60124 1.06793,0 z"
       id="path3039" />
    <path
       inkscape:connector-curvature="0"
       style="fill:#385d8a;fill-opacity:1;fill-rule:evenodd;stroke:none"
       d="m 329.07187,748.02937 0,0.58499 0,0.60124 -150.89684,0 0,-0.60124 0,-0.58499 150.89684,0 z"
       id="path3041" />
    <path
       inkscape:connector-curvature="0"
       style="fill:#385d8a;fill-opacity:1;fill-rule:evenodd;stroke:none"
       d="m 178.17503,749.2156 c -0.20203,0 -0.34635,-0.0325 -0.51953,-0.0812 -0.17317,-0.065 -0.28863,-0.13 -0.40409,-0.22751 -0.0866,-0.0975 -0.11545,-0.17874 -0.11545,-0.29249 l 1.03907,0 0,0.60124 z"
       id="path3043" />
    <path
       inkscape:connector-curvature="0"
       style="fill:#385d8a;fill-opacity:1;fill-rule:evenodd;stroke:none"
       d="m 179.24298,748.61436 -1.06795,0 -1.03907,0 0,-39.27563 1.03907,0 1.06795,0 0,39.27563 z"
       id="path3045" />
    <text
       xml:space="preserve"
       x="183.02957"
       y="789.32538"
       style="font-size:17.01644516px;font-style:normal;font-weight:normal;text-align:start;text-anchor:start;fill:#ffffff;font-family:Arial"
       id="text3047"
       transform="scale(1.0770835,0.92843311)">CSVObserver</text>
    <path
       inkscape:connector-curvature="0"
       style="fill:#9bbb59;fill-opacity:1;fill-rule:evenodd;stroke:none"
       d="m 391.73387,709.33873 0,0 75.39068,0 0,32.77573 0,0 c -37.69533,0 -37.69533,12.47981 -75.39068,5.39491 l 0,-38.17064 z"
       id="path3049" />
    <path
       inkscape:connector-curvature="0"
       style="fill:#71893f;fill-opacity:1;fill-rule:evenodd;stroke:none"
       d="m 390.6948,709.33873 c 0,-0.11376 0.0289,-0.195 0.11545,-0.2925 0.11545,-0.0975 0.23091,-0.1625 0.4041,-0.2275 0.17316,-0.0487 0.31749,-0.065 0.51952,-0.065 l 0,0.58499 -1.03907,0 z"
       id="path3051" />
    <path
       inkscape:connector-curvature="0"
       style="fill:#71893f;fill-opacity:1;fill-rule:evenodd;stroke:none"
       d="m 391.73387,709.93996 0,-0.60123 0,-0.58499 75.39068,0 0,0.58499 0,0.60123 -75.39068,0 z"
       id="path3053" />
    <path
       inkscape:connector-curvature="0"
       style="fill:#71893f;fill-opacity:1;fill-rule:evenodd;stroke:none"
       d="m 467.12455,708.75374 c 0.20204,0 0.34636,0.0162 0.51954,0.065 0.17319,0.065 0.28865,0.13 0.40408,0.2275 0.0866,0.0975 0.14432,0.17874 0.14432,0.2925 l 0,0 -1.06794,0 0,-0.58499 z"
       id="path3055" />
    <path
       inkscape:connector-curvature="0"
       style="fill:#71893f;fill-opacity:1;fill-rule:evenodd;stroke:none"
       d="m 466.08547,709.33873 1.03908,0 1.06794,0 0,32.77573 -1.06794,0 -1.03908,0 0,-32.77573 z"
       id="path3057" />
    <path
       inkscape:connector-curvature="0"
       style="fill:#71893f;fill-opacity:1;fill-rule:evenodd;stroke:none"
       d="m 468.19249,742.11446 c 0,0.11375 -0.0577,0.195 -0.14432,0.2925 -0.11543,0.0975 -0.23089,0.1625 -0.40408,0.22749 -0.17318,0.0487 -0.3175,0.0813 -0.51954,0.0813 l 0,-0.60125 1.06794,0 z"
       id="path3059" />
    <path
       inkscape:connector-curvature="0"
       style="fill:#71893f;fill-opacity:1;fill-rule:evenodd;stroke:none"
       d="m 467.12455,742.11446 0,0.60125 c -7.24465,0 -13.07503,0.45498 -18.03949,1.15373 l -0.25977,-0.56875 -0.25976,-0.58498 c 5.10878,-0.71499 11.11232,-1.18624 18.55902,-1.18624 l 0,0.58499 z"
       id="path3061" />
    <path
       inkscape:connector-curvature="0"
       style="fill:#71893f;fill-opacity:1;fill-rule:evenodd;stroke:none"
       d="m 448.82529,743.30069 0.25977,0.56875 c -4.96446,0.69873 -9.0919,1.64122 -12.87299,2.56746 l -0.43295,-0.53624 -0.43295,-0.53625 c 3.9254,-0.95873 8.13942,-1.91747 13.21936,-2.6487 l 0.25976,0.58498 z"
       id="path3063" />
    <path
       inkscape:connector-curvature="0"
       style="fill:#71893f;fill-opacity:1;fill-rule:evenodd;stroke:none"
       d="m 435.77912,745.90066 0.43295,0.53624 c -3.89654,0.95873 -7.4467,1.91747 -11.25665,2.63245 l -0.31749,-0.56874 -0.34636,-0.55249 c 3.75221,-0.71499 7.24467,-1.65747 11.0546,-2.58371 l 0.43295,0.53625 z"
       id="path3065" />
    <path
       inkscape:connector-curvature="0"
       style="fill:#71893f;fill-opacity:1;fill-rule:evenodd;stroke:none"
       d="m 424.63793,748.50061 0.31749,0.56874 c -3.86767,0.73124 -7.99511,1.20249 -12.93072,1.20249 l 0,-0.58499 0,-0.60125 c 4.67585,0 8.60124,-0.45499 12.26687,-1.13748 l 0.34636,0.55249 z"
       id="path3067" />
    <path
       inkscape:connector-curvature="0"
       style="fill:#71893f;fill-opacity:1;fill-rule:evenodd;stroke:none"
       d="m 412.0247,749.68685 0,0.58499 c -2.79972,0 -5.83036,-0.14625 -9.26508,-0.50375 l 0.20203,-0.58499 0.17318,-0.58498 c 3.29041,0.34123 6.2056,0.48748 8.88987,0.48748 l 0,0.60125 z"
       id="path3069" />
    <path
       inkscape:connector-curvature="0"
       style="fill:#71893f;fill-opacity:1;fill-rule:evenodd;stroke:none"
       d="m 402.96165,749.1831 -0.20203,0.58499 c -3.377,-0.35749 -7.12921,-0.90998 -11.37211,-1.68997 l 0.34636,-0.56875 0.34636,-0.56873 c 4.09858,0.77999 7.76421,1.31623 11.0546,1.65748 l -0.17318,0.58498 z"
       id="path3071" />
    <path
       inkscape:connector-curvature="0"
       style="fill:#71893f;fill-opacity:1;fill-rule:evenodd;stroke:none"
       d="m 391.38751,748.07812 c -0.0577,-0.0162 -0.11544,-0.0325 -0.17316,-0.0487 -0.17319,-0.065 -0.28865,-0.13 -0.4041,-0.2275 -0.0866,-0.0975 -0.11545,-0.17874 -0.11545,-0.2925 l 1.03907,0 -0.34636,0.56874 z"
       id="path3073" />
    <path
       inkscape:connector-curvature="0"
       style="fill:#71893f;fill-opacity:1;fill-rule:evenodd;stroke:none"
       d="m 392.80181,747.50937 -1.06794,0 -1.03907,0 0,-38.17064 1.03907,0 1.06794,0 0,38.17064 z"
       id="path3075" />
    <text
       xml:space="preserve"
       x="376.58829"
       y="771.08795"
       style="font-size:11.3353653px;font-style:normal;font-weight:normal;text-align:start;text-anchor:start;fill:#ffffff;font-family:Arial"
       id="text3077"
       transform="scale(1.0770835,0.92843311)">__ __ __</text>
    <text
       xml:space="preserve"
       x="376.58829"
       y="779.97919"
       style="font-size:11.3353653px;font-style:normal;font-weight:normal;text-align:start;text-anchor:start;fill:#ffffff;font-family:Arial"
       id="text3079"
       transform="scale(1.0770835,0.92843311)">__ __ __</text>
    <text
       xml:space="preserve"
       x="376.58829"
       y="788.87036"
       style="font-size:11.3353653px;font-style:normal;font-weight:normal;text-align:start;text-anchor:start;fill:#ffffff;font-family:Arial"
       id="text3081"
       transform="scale(1.0770835,0.92843311)">__ __ __</text>
    <path
       inkscape:connector-curvature="0"
       style="fill:#4f81bd;fill-opacity:1;fill-rule:evenodd;stroke:none"
       d="m 178.17503,757.42173 0,38.46315 150.89684,0 0,-38.46315 -150.89684,0 z"
       id="path3083" />
    <path
       inkscape:connector-curvature="0"
       style="fill:#385d8a;fill-opacity:1;fill-rule:evenodd;stroke:none"
       d="m 177.13596,757.42173 c 0,-0.11375 0.0289,-0.195 0.11545,-0.2925 0.11546,-0.0975 0.23092,-0.1625 0.40409,-0.2275 0.17318,-0.0487 0.3175,-0.065 0.51953,-0.065 l 0,0.58499 -1.03907,0 z"
       id="path3085" />
    <path
       inkscape:connector-curvature="0"
       style="fill:#385d8a;fill-opacity:1;fill-rule:evenodd;stroke:none"
       d="m 178.17503,758.02296 0,-0.60123 0,-0.58499 150.89684,0 0,0.58499 0,0.60123 -150.89684,0 z"
       id="path3087" />
    <path
       inkscape:connector-curvature="0"
       style="fill:#385d8a;fill-opacity:1;fill-rule:evenodd;stroke:none"
       d="m 329.07187,756.83674 c 0.20203,0 0.34636,0.0162 0.51954,0.065 0.17317,0.065 0.28862,0.13 0.40408,0.2275 0.0866,0.0975 0.14431,0.17875 0.14431,0.2925 l 0,0 -1.06793,0 0,-0.58499 z"
       id="path3089" />
    <path
       inkscape:connector-curvature="0"
       style="fill:#385d8a;fill-opacity:1;fill-rule:evenodd;stroke:none"
       d="m 328.03279,757.42173 1.03908,0 1.06793,0 0,38.46315 -1.06793,0 -1.03908,0 0,-38.46315 z"
       id="path3091" />
    <path
       inkscape:connector-curvature="0"
       style="fill:#385d8a;fill-opacity:1;fill-rule:evenodd;stroke:none"
       d="m 330.1398,795.88488 c 0,0.11374 -0.0577,0.19499 -0.14431,0.29249 -0.11546,0.0975 -0.23091,0.1625 -0.40408,0.2275 -0.17318,0.0487 -0.31751,0.0813 -0.51954,0.0813 l 0,-0.60124 1.06793,0 z"
       id="path3093" />
    <path
       inkscape:connector-curvature="0"
       style="fill:#385d8a;fill-opacity:1;fill-rule:evenodd;stroke:none"
       d="m 329.07187,795.29988 0,0.585 0,0.60124 -150.89684,0 0,-0.60124 0,-0.585 150.89684,0 z"
       id="path3095" />
    <path
       inkscape:connector-curvature="0"
       style="fill:#385d8a;fill-opacity:1;fill-rule:evenodd;stroke:none"
       d="m 178.17503,796.48612 c -0.20203,0 -0.34635,-0.0325 -0.51953,-0.0813 -0.17317,-0.065 -0.28863,-0.13 -0.40409,-0.2275 -0.0866,-0.0975 -0.11545,-0.17875 -0.11545,-0.29249 l 1.03907,0 0,0.60124 z"
       id="path3097" />
    <path
       inkscape:connector-curvature="0"
       style="fill:#385d8a;fill-opacity:1;fill-rule:evenodd;stroke:none"
       d="m 179.24298,795.88488 -1.06795,0 -1.03907,0 0,-38.46315 1.03907,0 1.06795,0 0,38.46315 z"
       id="path3099" />
    <text
       xml:space="preserve"
       x="178.36679"
       y="840.64221"
       style="font-size:17.01644516px;font-style:normal;font-weight:normal;text-align:start;text-anchor:start;fill:#ffffff;font-family:Arial"
       id="text3101"
       transform="scale(1.0770835,0.92843311)">HDF5Observer</text>
    <path
       inkscape:connector-curvature="0"
       style="fill:#4f81bd;fill-opacity:1;fill-rule:evenodd;stroke:none"
       d="m 178.17503,805.43972 0,39.21064 150.89684,0 0,-39.21064 -150.89684,0 z"
       id="path3103" />
    <path
       inkscape:connector-curvature="0"
       style="fill:#385d8a;fill-opacity:1;fill-rule:evenodd;stroke:none"
       d="m 177.13596,805.43972 c 0,-0.11374 0.0289,-0.19499 0.11545,-0.29249 0.11546,-0.0975 0.23092,-0.1625 0.40409,-0.2275 0.17318,-0.0487 0.3175,-0.065 0.51953,-0.065 l 0,0.58498 -1.03907,0 z"
       id="path3105" />
    <path
       inkscape:connector-curvature="0"
       style="fill:#385d8a;fill-opacity:1;fill-rule:evenodd;stroke:none"
       d="m 178.17503,806.04096 0,-0.60124 0,-0.58498 150.89684,0 0,0.58498 0,0.60124 -150.89684,0 z"
       id="path3107" />
    <path
       inkscape:connector-curvature="0"
       style="fill:#385d8a;fill-opacity:1;fill-rule:evenodd;stroke:none"
       d="m 329.07187,804.85474 c 0.20203,0 0.34636,0.0162 0.51954,0.065 0.17317,0.065 0.28862,0.13 0.40408,0.2275 0.0866,0.0975 0.14431,0.17875 0.14431,0.29249 l 0,0 -1.06793,0 0,-0.58498 z"
       id="path3109" />
    <path
       inkscape:connector-curvature="0"
       style="fill:#385d8a;fill-opacity:1;fill-rule:evenodd;stroke:none"
       d="m 328.03279,805.43972 1.03908,0 1.06793,0 0,39.21064 -1.06793,0 -1.03908,0 0,-39.21064 z"
       id="path3111" />
    <path
       inkscape:connector-curvature="0"
       style="fill:#385d8a;fill-opacity:1;fill-rule:evenodd;stroke:none"
       d="m 330.1398,844.65036 c 0,0.11375 -0.0577,0.195 -0.14431,0.29249 -0.11546,0.0975 -0.23091,0.1625 -0.40408,0.2275 -0.17318,0.0487 -0.31751,0.0812 -0.51954,0.0812 l 0,-0.60124 1.06793,0 z"
       id="path3113" />
    <path
       inkscape:connector-curvature="0"
       style="fill:#385d8a;fill-opacity:1;fill-rule:evenodd;stroke:none"
       d="m 329.07187,844.06538 0,0.58498 0,0.60124 -150.89684,0 0,-0.60124 0,-0.58498 150.89684,0 z"
       id="path3115" />
    <path
       inkscape:connector-curvature="0"
       style="fill:#385d8a;fill-opacity:1;fill-rule:evenodd;stroke:none"
       d="m 178.17503,845.2516 c -0.20203,0 -0.34635,-0.0325 -0.51953,-0.0812 -0.17317,-0.065 -0.28863,-0.12999 -0.40409,-0.2275 -0.0866,-0.0975 -0.11545,-0.17874 -0.11545,-0.29249 l 1.03907,0 0,0.60124 z"
       id="path3117" />
    <path
       inkscape:connector-curvature="0"
       style="fill:#385d8a;fill-opacity:1;fill-rule:evenodd;stroke:none"
       d="m 179.24298,844.65036 -1.06795,0 -1.03907,0 0,-39.21064 1.03907,0 1.06795,0 0,39.21064 z"
       id="path3119" />
    <text
       xml:space="preserve"
       x="174.50797"
       y="892.79919"
       style="font-size:17.01644516px;font-style:normal;font-weight:normal;text-align:start;text-anchor:start;fill:#ffffff;font-family:Arial"
       id="text3121"
       transform="scale(1.0770835,0.92843311)">SocketObserver</text>
    <path
       inkscape:connector-curvature="0"
       style="fill:#9bbb59;fill-opacity:1;fill-rule:evenodd;stroke:none"
       d="m 391.73387,757.42173 0,0 75.39068,0 0,32.72698 0,0 c -37.69533,0 -37.69533,12.44731 -75.39068,5.37867 l 0,-38.10565 z"
       id="path3123" />
    <path
       inkscape:connector-curvature="0"
       style="fill:#71893f;fill-opacity:1;fill-rule:evenodd;stroke:none"
       d="m 390.6948,757.42173 c 0,-0.11375 0.0289,-0.195 0.11545,-0.2925 0.11545,-0.0975 0.23091,-0.1625 0.4041,-0.2275 0.17316,-0.0487 0.31749,-0.065 0.51952,-0.065 l 0,0.58499 -1.03907,0 z"
       id="path3125" />
    <path
       inkscape:connector-curvature="0"
       style="fill:#71893f;fill-opacity:1;fill-rule:evenodd;stroke:none"
       d="m 391.73387,758.02296 0,-0.60123 0,-0.58499 75.39068,0 0,0.58499 0,0.60123 -75.39068,0 z"
       id="path3127" />
    <path
       inkscape:connector-curvature="0"
       style="fill:#71893f;fill-opacity:1;fill-rule:evenodd;stroke:none"
       d="m 467.12455,756.83674 c 0.20204,0 0.34636,0.0162 0.51954,0.065 0.17319,0.065 0.28865,0.13 0.40408,0.2275 0.0866,0.0975 0.14432,0.17875 0.14432,0.2925 l 0,0 -1.06794,0 0,-0.58499 z"
       id="path3129" />
    <path
       inkscape:connector-curvature="0"
       style="fill:#71893f;fill-opacity:1;fill-rule:evenodd;stroke:none"
       d="m 466.08547,757.42173 1.03908,0 1.06794,0 0,32.72698 -1.06794,0 -1.03908,0 0,-32.72698 z"
       id="path3131" />
    <path
       inkscape:connector-curvature="0"
       style="fill:#71893f;fill-opacity:1;fill-rule:evenodd;stroke:none"
       d="m 468.19249,790.14871 c 0,0.11375 -0.0577,0.195 -0.14432,0.2925 -0.11543,0.0975 -0.23089,0.1625 -0.40408,0.22749 -0.17318,0.0487 -0.3175,0.0813 -0.51954,0.0813 l 0,-0.60125 1.06794,0 z"
       id="path3133" />
    <path
       inkscape:connector-curvature="0"
       style="fill:#71893f;fill-opacity:1;fill-rule:evenodd;stroke:none"
       d="m 467.12455,790.14871 0,0.60125 c -7.24465,0 -13.07503,0.45498 -18.03949,1.15373 l -0.25977,-0.56875 -0.23091,-0.58498 c 5.10879,-0.715 11.08347,-1.18624 18.53017,-1.18624 l 0,0.58499 z"
       id="path3135" />
    <path
       inkscape:connector-curvature="0"
       style="fill:#71893f;fill-opacity:1;fill-rule:evenodd;stroke:none"
       d="m 448.82529,791.33494 0.25977,0.56875 c -4.96446,0.69873 -9.0919,1.62497 -12.87299,2.56746 l -0.43295,-0.55249 -0.40408,-0.53625 c 3.89653,-0.95873 8.11055,-1.91747 13.21934,-2.63245 l 0.23091,0.58498 z"
       id="path3137" />
    <path
       inkscape:connector-curvature="0"
       style="fill:#71893f;fill-opacity:1;fill-rule:evenodd;stroke:none"
       d="m 435.77912,793.91866 0.43295,0.55249 c -3.89654,0.94248 -7.4467,1.90122 -11.25665,2.6162 l -0.31749,-0.56874 -0.34636,-0.56874 c 3.75221,-0.69873 7.24467,-1.64122 11.08347,-2.56746 l 0.40408,0.53625 z"
       id="path3139" />
    <path
       inkscape:connector-curvature="0"
       style="fill:#71893f;fill-opacity:1;fill-rule:evenodd;stroke:none"
       d="m 424.63793,796.51861 0.31749,0.56874 c -3.86767,0.715 -7.99511,1.20249 -12.93072,1.20249 l 0,-0.58499 0,-0.60125 c 4.67585,0 8.60124,-0.45499 12.26687,-1.15373 l 0.34636,0.56874 z"
       id="path3141" />
    <path
       inkscape:connector-curvature="0"
       style="fill:#71893f;fill-opacity:1;fill-rule:evenodd;stroke:none"
       d="m 412.0247,797.70485 0,0.58499 c -2.79972,0 -5.83036,-0.14625 -9.26508,-0.50374 l 0.20203,-0.585 0.17318,-0.58499 c 3.29041,0.34124 6.2056,0.48749 8.88987,0.48749 l 0,0.60125 z"
       id="path3143" />
    <path
       inkscape:connector-curvature="0"
       style="fill:#71893f;fill-opacity:1;fill-rule:evenodd;stroke:none"
       d="m 402.96165,797.2011 -0.20203,0.585 c -3.377,-0.3575 -7.12921,-0.90999 -11.37211,-1.68998 l 0.34636,-0.56874 0.34636,-0.56874 c 4.09858,0.77999 7.76421,1.31623 11.0546,1.65747 l -0.17318,0.58499 z"
       id="path3145" />
    <path
       inkscape:connector-curvature="0"
       style="fill:#71893f;fill-opacity:1;fill-rule:evenodd;stroke:none"
       d="m 391.38751,796.09612 c -0.0577,-0.0162 -0.11544,-0.0325 -0.17316,-0.0487 -0.17319,-0.065 -0.28865,-0.13 -0.4041,-0.2275 -0.0866,-0.0975 -0.11545,-0.17874 -0.11545,-0.29249 l 1.03907,0 -0.34636,0.56873 z"
       id="path3147" />
    <path
       inkscape:connector-curvature="0"
       style="fill:#71893f;fill-opacity:1;fill-rule:evenodd;stroke:none"
       d="m 392.80181,795.52738 -1.06794,0 -1.03907,0 0,-38.10565 1.03907,0 1.06794,0 0,38.10565 z"
       id="path3149" />
    <text
       xml:space="preserve"
       x="370.45163"
       y="827.27045"
       style="font-size:11.3353653px;font-style:normal;font-weight:normal;text-align:start;text-anchor:start;fill:#ffffff;font-family:Arial"
       id="text3151"
       transform="scale(1.0770835,0.92843311)">0100…</text>
    <path
       inkscape:connector-curvature="0"
       style="fill:#9bbb59;fill-opacity:1;fill-rule:evenodd;stroke:none"
       d="m 391.73387,811.92338 0,0 c 0,-3.57495 5.16652,-6.48366 11.51642,-6.48366 l 97.32674,0 0,0 c 6.34988,0 11.51639,2.90871 11.51639,6.48366 l 0,25.90209 0,0 c 0,3.57495 -5.16651,6.48364 -11.51639,6.48364 l -97.32674,0 0,0 c -6.3499,0 -11.51642,-2.90869 -11.51642,-6.48364 l 0,-25.90209 z"
       id="path3153" />
    <path
       inkscape:connector-curvature="0"
       style="fill:#71893f;fill-opacity:1;fill-rule:evenodd;stroke:none"
       d="m 391.73387,811.92338 -1.03907,0 c 0,-0.97499 0.34636,-1.90122 0.98135,-2.74621 l 0.95248,0.22749 0.98136,0.2275 c -0.51955,0.69874 -0.80818,1.47873 -0.80818,2.29122 l -1.06794,0 z"
       id="path3155" />
    <path
       inkscape:connector-curvature="0"
       style="fill:#71893f;fill-opacity:1;fill-rule:evenodd;stroke:none"
       d="m 392.62863,809.40466 -0.95248,-0.22749 c 0.63498,-0.84499 1.5586,-1.60873 2.68427,-2.25872 l 0.75044,0.42249 0.75045,0.4225 c -0.95249,0.53624 -1.73179,1.16998 -2.25132,1.86872 l -0.98136,-0.2275 z"
       id="path3157" />
    <path
       inkscape:connector-curvature="0"
       style="fill:#71893f;fill-opacity:1;fill-rule:evenodd;stroke:none"
       d="m 395.11086,807.34094 -0.75044,-0.42249 c 1.15453,-0.63374 2.5111,-1.15373 4.01199,-1.51122 l 0.40408,0.53624 0.40409,0.55249 c -1.24112,0.2925 -2.36678,0.73124 -3.31927,1.26748 l -0.75045,-0.4225 z"
       id="path3159" />
    <path
       inkscape:connector-curvature="0"
       style="fill:#71893f;fill-opacity:1;fill-rule:evenodd;stroke:none"
       d="m 398.77649,805.94347 -0.40408,-0.53624 c 1.50088,-0.3575 3.14609,-0.55249 4.87788,-0.55249 l 0,0.58498 0,0.60124 c -1.44316,0 -2.82859,0.1625 -4.06971,0.455 l -0.40409,-0.55249 z"
       id="path3161" />
    <path
       inkscape:connector-curvature="0"
       style="fill:#71893f;fill-opacity:1;fill-rule:evenodd;stroke:none"
       d="m 403.25029,806.04096 0,-0.60124 0,-0.58498 97.35559,0 0,0.58498 0,0.60124 -97.35559,0 z"
       id="path3163" />
    <path
       inkscape:connector-curvature="0"
       style="fill:#71893f;fill-opacity:1;fill-rule:evenodd;stroke:none"
       d="m 500.60588,805.43972 0,-0.58498 c 1.73176,0 3.377,0.19499 4.87787,0.55249 l -0.40408,0.53624 -0.40407,0.55249 c -1.27002,-0.2925 -2.62656,-0.455 -4.06972,-0.455 l 0,-0.60124 z"
       id="path3165" />
    <path
       inkscape:connector-curvature="0"
       style="fill:#71893f;fill-opacity:1;fill-rule:evenodd;stroke:none"
       d="m 505.07967,805.94347 0.40408,-0.53624 c 1.50091,0.35749 2.85746,0.87748 3.98311,1.51122 l -0.72158,0.42249 -0.75044,0.4225 c -0.95246,-0.53624 -2.07812,-0.97498 -3.31924,-1.26748 l 0.40407,-0.55249 z"
       id="path3167" />
    <path
       inkscape:connector-curvature="0"
       style="fill:#71893f;fill-opacity:1;fill-rule:evenodd;stroke:none"
       d="m 508.74528,807.34094 0.72158,-0.42249 c 1.15455,0.64999 2.04931,1.41373 2.68428,2.25872 l -0.95248,0.22749 -0.98133,0.2275 c -0.51954,-0.69874 -1.29887,-1.33248 -2.22249,-1.86872 l 0.75044,-0.4225 z"
       id="path3169" />
    <path
       inkscape:connector-curvature="0"
       style="fill:#71893f;fill-opacity:1;fill-rule:evenodd;stroke:none"
       d="m 511.19866,809.40466 0.95248,-0.22749 c 0.635,0.84499 1.01022,1.77122 1.01022,2.74621 l -1.06794,0 -1.03908,0 c 0,-0.81249 -0.31746,-1.59248 -0.83701,-2.29122 l 0.98133,-0.2275 z"
       id="path3171" />
    <path
       inkscape:connector-curvature="0"
       style="fill:#71893f;fill-opacity:1;fill-rule:evenodd;stroke:none"
       d="m 511.05434,811.92338 1.03908,0 1.06794,0 0,25.91834 -1.06794,0 -1.03908,0 0,-25.91834 z"
       id="path3173" />
    <path
       inkscape:connector-curvature="0"
       style="fill:#71893f;fill-opacity:1;fill-rule:evenodd;stroke:none"
       d="m 512.09342,837.84172 1.06794,0 c 0,0.97498 -0.37522,1.90122 -1.01022,2.74621 l -0.95248,-0.2275 -0.98133,-0.2275 c 0.51955,-0.69873 0.83701,-1.47872 0.83701,-2.29121 l 1.03908,0 z"
       id="path3175" />
    <path
       inkscape:connector-curvature="0"
       style="fill:#71893f;fill-opacity:1;fill-rule:evenodd;stroke:none"
       d="m 511.19866,840.36043 0.95248,0.2275 c -0.63497,0.84498 -1.52973,1.60872 -2.68428,2.24246 l -0.72158,-0.40624 -0.75044,-0.42249 c 0.92362,-0.53625 1.70295,-1.16999 2.22249,-1.86873 l 0.98133,0.2275 z"
       id="path3177" />
    <path
       inkscape:connector-curvature="0"
       style="fill:#71893f;fill-opacity:1;fill-rule:evenodd;stroke:none"
       d="m 508.74528,842.42415 0.72158,0.40624 c -1.12565,0.64999 -2.4822,1.15373 -3.98311,1.51124 l -0.40408,-0.53626 -0.40407,-0.55248 c 1.24112,-0.2925 2.36678,-0.73124 3.31924,-1.25123 l 0.75044,0.42249 z"
       id="path3179" />
    <path
       inkscape:connector-curvature="0"
       style="fill:#71893f;fill-opacity:1;fill-rule:evenodd;stroke:none"
       d="m 505.07967,843.80537 0.40408,0.53626 c -1.50087,0.35748 -3.14611,0.56873 -4.87787,0.56873 l 0,-0.60125 0,-0.58498 c 1.44316,0 2.8286,-0.17875 4.06972,-0.47124 l 0.40407,0.55248 z"
       id="path3181" />
    <path
       inkscape:connector-curvature="0"
       style="fill:#71893f;fill-opacity:1;fill-rule:evenodd;stroke:none"
       d="m 500.60588,843.72413 0,0.58498 0,0.60125 -97.35559,0 0,-0.60125 0,-0.58498 97.35559,0 z"
       id="path3183" />
    <path
       inkscape:connector-curvature="0"
       style="fill:#71893f;fill-opacity:1;fill-rule:evenodd;stroke:none"
       d="m 403.25029,844.30911 0,0.60125 c -1.73179,0 -3.377,-0.21125 -4.87788,-0.56873 l 0.40408,-0.53626 0.40409,-0.55248 c 1.24112,0.29249 2.62655,0.47124 4.06971,0.47124 l 0,0.58498 z"
       id="path3185" />
    <path
       inkscape:connector-curvature="0"
       style="fill:#71893f;fill-opacity:1;fill-rule:evenodd;stroke:none"
       d="m 398.77649,843.80537 -0.40408,0.53626 c -1.50089,-0.35751 -2.85746,-0.86125 -4.01199,-1.51124 l 0.75044,-0.40624 0.75045,-0.42249 c 0.95249,0.51999 2.07815,0.95873 3.31927,1.25123 l -0.40409,0.55248 z"
       id="path3187" />
    <path
       inkscape:connector-curvature="0"
       style="fill:#71893f;fill-opacity:1;fill-rule:evenodd;stroke:none"
       d="m 395.11086,842.42415 -0.75044,0.40624 c -1.12567,-0.63374 -2.04929,-1.39748 -2.68427,-2.24246 l 0.95248,-0.2275 0.98136,-0.2275 c 0.51953,0.69874 1.29883,1.33248 2.25132,1.86873 l -0.75045,0.42249 z"
       id="path3189" />
    <path
       inkscape:connector-curvature="0"
       style="fill:#71893f;fill-opacity:1;fill-rule:evenodd;stroke:none"
       d="m 392.62863,840.36043 -0.95248,0.2275 c -0.63499,-0.84499 -0.98135,-1.77123 -0.98135,-2.74621 l 1.03907,0 1.06794,0 c 0,0.81249 0.28863,1.57622 0.80818,2.29121 l -0.98136,0.2275 z"
       id="path3191" />
    <path
       inkscape:connector-curvature="0"
       style="fill:#71893f;fill-opacity:1;fill-rule:evenodd;stroke:none"
       d="m 392.80181,837.84172 -1.06794,0 -1.03907,0 0,-25.91834 1.03907,0 1.06794,0 0,25.91834 z"
       id="path3193" />
    <text
       xml:space="preserve"
       x="374.14969"
       y="892.60669"
       style="font-size:17.01644516px;font-style:normal;font-weight:normal;text-align:start;text-anchor:start;fill:#ffffff;font-family:Arial"
       id="text3195"
       transform="scale(1.0770835,0.92843311)">HTML5 GUI</text>
    <path
       inkscape:connector-curvature="0"
       style="fill:#9bbb59;fill-opacity:1;fill-rule:evenodd;stroke:none"
       d="m 391.73387,858.00765 0,0 c 0,-3.57493 5.16652,-6.48365 11.51642,-6.48365 l 97.32674,0 0,0 c 6.34988,0 11.51639,2.90872 11.51639,6.48365 l 0,25.9021 0,0 c 0,3.5912 -5.16651,6.48365 -11.51639,6.48365 l -97.32674,0 0,0 c -6.3499,0 -11.51642,-2.89245 -11.51642,-6.48365 l 0,-25.9021 z"
       id="path3197" />
    <path
       inkscape:connector-curvature="0"
       style="fill:#71893f;fill-opacity:1;fill-rule:evenodd;stroke:none"
       d="m 391.73387,858.00765 -1.03907,0 c 0,-0.97498 0.34636,-1.90122 0.98135,-2.7462 l 0.95248,0.22749 0.98136,0.2275 c -0.51955,0.69874 -0.80818,1.47873 -0.80818,2.29121 l -1.06794,0 z"
       id="path3199" />
    <path
       inkscape:connector-curvature="0"
       style="fill:#71893f;fill-opacity:1;fill-rule:evenodd;stroke:none"
       d="m 392.62863,855.48894 -0.95248,-0.22749 c 0.63498,-0.84499 1.5586,-1.60873 2.68427,-2.25872 l 0.75044,0.42249 0.75045,0.4225 c -0.95249,0.53624 -1.73179,1.16998 -2.25132,1.86872 l -0.98136,-0.2275 z"
       id="path3201" />
    <path
       inkscape:connector-curvature="0"
       style="fill:#71893f;fill-opacity:1;fill-rule:evenodd;stroke:none"
       d="m 395.11086,853.42522 -0.75044,-0.42249 c 1.15453,-0.63374 2.5111,-1.15373 4.01199,-1.51122 l 0.40408,0.53623 0.40409,0.5525 c -1.24112,0.2925 -2.36678,0.73124 -3.31927,1.26748 l -0.75045,-0.4225 z"
       id="path3203" />
    <path
       inkscape:connector-curvature="0"
       style="fill:#71893f;fill-opacity:1;fill-rule:evenodd;stroke:none"
       d="m 398.77649,852.02774 -0.40408,-0.53623 c 1.50088,-0.35749 3.14609,-0.55249 4.87788,-0.55249 l 0,0.58498 0,0.60124 c -1.44316,0 -2.82859,0.1625 -4.06971,0.455 l -0.40409,-0.5525 z"
       id="path3205" />
    <path
       inkscape:connector-curvature="0"
       style="fill:#71893f;fill-opacity:1;fill-rule:evenodd;stroke:none"
       d="m 403.25029,852.12524 0,-0.60124 0,-0.58498 97.35559,0 0,0.58498 0,0.60124 -97.35559,0 z"
       id="path3207" />
    <path
       inkscape:connector-curvature="0"
       style="fill:#71893f;fill-opacity:1;fill-rule:evenodd;stroke:none"
       d="m 500.60588,851.524 0,-0.58498 c 1.73176,0 3.377,0.195 4.87787,0.55249 l -0.40408,0.53623 -0.40407,0.5525 c -1.27002,-0.2925 -2.62656,-0.455 -4.06972,-0.455 l 0,-0.60124 z"
       id="path3209" />
    <path
       inkscape:connector-curvature="0"
       style="fill:#71893f;fill-opacity:1;fill-rule:evenodd;stroke:none"
       d="m 505.07967,852.02774 0.40408,-0.53623 c 1.50091,0.35749 2.85746,0.87748 3.98311,1.51122 l -0.72158,0.42249 -0.75044,0.4225 c -0.95246,-0.53624 -2.07812,-0.97498 -3.31924,-1.26748 l 0.40407,-0.5525 z"
       id="path3211" />
    <path
       inkscape:connector-curvature="0"
       style="fill:#71893f;fill-opacity:1;fill-rule:evenodd;stroke:none"
       d="m 508.74528,853.42522 0.72158,-0.42249 c 1.15455,0.64999 2.04931,1.41373 2.68428,2.25872 l -0.95248,0.22749 -0.98133,0.2275 c -0.51954,-0.69874 -1.29887,-1.33248 -2.22249,-1.86872 l 0.75044,-0.4225 z"
       id="path3213" />
    <path
       inkscape:connector-curvature="0"
       style="fill:#71893f;fill-opacity:1;fill-rule:evenodd;stroke:none"
       d="m 511.19866,855.48894 0.95248,-0.22749 c 0.635,0.84498 1.01022,1.77122 1.01022,2.7462 l -1.06794,0 -1.03908,0 c 0,-0.81248 -0.31746,-1.59247 -0.83701,-2.29121 l 0.98133,-0.2275 z"
       id="path3215" />
    <path
       inkscape:connector-curvature="0"
       style="fill:#71893f;fill-opacity:1;fill-rule:evenodd;stroke:none"
       d="m 511.05434,858.00765 1.03908,0 1.06794,0 0,25.91835 -1.06794,0 -1.03908,0 0,-25.91835 z"
       id="path3217" />
    <path
       inkscape:connector-curvature="0"
       style="fill:#71893f;fill-opacity:1;fill-rule:evenodd;stroke:none"
       d="m 512.09342,883.926 1.06794,0 c 0,0.97498 -0.37522,1.90121 -1.01022,2.74621 l -0.95248,-0.2275 -0.98133,-0.2275 c 0.51955,-0.69873 0.83701,-1.47873 0.83701,-2.29121 l 1.03908,0 z"
       id="path3219" />
    <path
       inkscape:connector-curvature="0"
       style="fill:#71893f;fill-opacity:1;fill-rule:evenodd;stroke:none"
       d="m 511.19866,886.44471 0.95248,0.2275 c -0.63497,0.84498 -1.52973,1.60872 -2.68428,2.24247 l -0.72158,-0.40625 -0.75044,-0.42249 c 0.92362,-0.53625 1.70295,-1.16999 2.22249,-1.86873 l 0.98133,0.2275 z"
       id="path3221" />
    <path
       inkscape:connector-curvature="0"
       style="fill:#71893f;fill-opacity:1;fill-rule:evenodd;stroke:none"
       d="m 508.74528,888.50843 0.72158,0.40625 c -1.12565,0.64999 -2.4822,1.15371 -3.98311,1.51123 l -0.40408,-0.53626 -0.40407,-0.55248 c 1.24112,-0.2925 2.36678,-0.73125 3.31924,-1.25123 l 0.75044,0.42249 z"
       id="path3223" />
    <path
       inkscape:connector-curvature="0"
       style="fill:#71893f;fill-opacity:1;fill-rule:evenodd;stroke:none"
       d="m 505.07967,889.88965 0.40408,0.53626 c -1.50087,0.35747 -3.14611,0.56871 -4.87787,0.56871 l 0,-0.60122 0,-0.585 c 1.44316,0 2.8286,-0.17875 4.06972,-0.47123 l 0.40407,0.55248 z"
       id="path3225" />
    <path
       inkscape:connector-curvature="0"
       style="fill:#71893f;fill-opacity:1;fill-rule:evenodd;stroke:none"
       d="m 500.60588,889.8084 0,0.585 0,0.60122 -97.35559,0 0,-0.60122 0,-0.585 97.35559,0 z"
       id="path3227" />
    <path
       inkscape:connector-curvature="0"
       style="fill:#71893f;fill-opacity:1;fill-rule:evenodd;stroke:none"
       d="m 403.25029,890.3934 0,0.60122 c -1.73179,0 -3.377,-0.21124 -4.87788,-0.56871 l 0.40408,-0.53626 0.40409,-0.55248 c 1.24112,0.29248 2.62655,0.47123 4.06971,0.47123 l 0,0.585 z"
       id="path3229" />
    <path
       inkscape:connector-curvature="0"
       style="fill:#71893f;fill-opacity:1;fill-rule:evenodd;stroke:none"
       d="m 398.77649,889.88965 -0.40408,0.53626 c -1.50089,-0.35752 -2.85746,-0.86124 -4.01199,-1.51123 l 0.75044,-0.40625 0.75045,-0.42249 c 0.95249,0.51998 2.07815,0.95873 3.31927,1.25123 l -0.40409,0.55248 z"
       id="path3231" />
    <path
       inkscape:connector-curvature="0"
       style="fill:#71893f;fill-opacity:1;fill-rule:evenodd;stroke:none"
       d="m 395.11086,888.50843 -0.75044,0.40625 c -1.12567,-0.63375 -2.04929,-1.39749 -2.68427,-2.24247 l 0.95248,-0.2275 0.98136,-0.2275 c 0.51953,0.69874 1.29883,1.33248 2.25132,1.86873 l -0.75045,0.42249 z"
       id="path3233" />
    <path
       inkscape:connector-curvature="0"
       style="fill:#71893f;fill-opacity:1;fill-rule:evenodd;stroke:none"
       d="m 392.62863,886.44471 -0.95248,0.2275 c -0.63499,-0.845 -0.98135,-1.77123 -0.98135,-2.74621 l 1.03907,0 1.06794,0 c 0,0.81248 0.28863,1.57623 0.80818,2.29121 l -0.98136,0.2275 z"
       id="path3235" />
    <path
       inkscape:connector-curvature="0"
       style="fill:#71893f;fill-opacity:1;fill-rule:evenodd;stroke:none"
       d="m 392.80181,883.926 -1.06794,0 -1.03907,0 0,-25.91835 1.03907,0 1.06794,0 0,25.91835 z"
       id="path3237" />
    <text
       xml:space="preserve"
       x="391.16617"
       y="942.20831"
       style="font-size:17.01644516px;font-style:normal;font-weight:normal;text-align:start;text-anchor:start;fill:#ffffff;font-family:Arial"
       id="text3239"
       transform="scale(1.0770835,0.92843311)">HIL/SIL</text>
    <path
       inkscape:connector-curvature="0"
       style="fill:#4f81bd;fill-opacity:1;fill-rule:evenodd;stroke:none"
       d="m 350.43063,717.18735 11.80505,0 11.77619,11.82982 -11.77619,11.82981 -11.80505,0 11.80505,-11.82981 z"
       id="path3241" />
    <path
       inkscape:connector-curvature="0"
       style="fill:#385d8a;fill-opacity:1;fill-rule:evenodd;stroke:none"
       d="m 349.50701,717.47985 c -0.0866,-0.0975 -0.11546,-0.17875 -0.11546,-0.2925 0,-0.11374 0.0289,-0.19499 0.11546,-0.29249 0.11546,-0.0975 0.2309,-0.1625 0.40408,-0.2275 0.17318,-0.0487 0.31749,-0.065 0.51954,-0.065 l 0,0.58498 -0.92362,0.2925 z"
       id="path3243" />
    <path
       inkscape:connector-curvature="0"
       style="fill:#385d8a;fill-opacity:1;fill-rule:evenodd;stroke:none"
       d="m 350.43063,717.78859 0,-0.60124 0,-0.58498 11.80505,0 0,0.58498 0,0.60124 -11.80505,0 z"
       id="path3245" />
    <path
       inkscape:connector-curvature="0"
       style="fill:#385d8a;fill-opacity:1;fill-rule:evenodd;stroke:none"
       d="m 362.23568,716.60237 c 0.20205,0 0.34636,0.0162 0.51954,0.065 0.17318,0.065 0.28864,0.13 0.40408,0.2275 0,0 0,0 0,0 l -0.92362,0.29249 0,-0.58498 z"
       id="path3247" />
    <path
       inkscape:connector-curvature="0"
       style="fill:#385d8a;fill-opacity:1;fill-rule:evenodd;stroke:none"
       d="m 361.31206,717.47985 0.92362,-0.2925 0.92362,-0.29249 11.77619,11.82981 -0.92362,0.2925 -0.92362,0.2925 -11.77619,-11.82982 z"
       id="path3249" />
    <path
       inkscape:connector-curvature="0"
       style="fill:#385d8a;fill-opacity:1;fill-rule:evenodd;stroke:none"
       d="m 374.93549,728.72467 c 0.0866,0.0975 0.14432,0.17875 0.14432,0.2925 0,0.11375 -0.0578,0.19499 -0.14432,0.2925 l -0.92362,-0.2925 0.92362,-0.2925 z"
       id="path3251" />
    <path
       inkscape:connector-curvature="0"
       style="fill:#385d8a;fill-opacity:1;fill-rule:evenodd;stroke:none"
       d="m 373.08825,728.72467 0.92362,0.2925 0.92362,0.2925 -11.77619,11.82981 -0.92362,-0.2925 -0.92362,-0.29249 11.77619,-11.82982 z"
       id="path3253" />
    <path
       inkscape:connector-curvature="0"
       style="fill:#385d8a;fill-opacity:1;fill-rule:evenodd;stroke:none"
       d="m 363.1593,741.13948 c 0,0 0,0 0,0 -0.11544,0.0975 -0.2309,0.1625 -0.40408,0.22749 -0.17318,0.0487 -0.31749,0.0813 -0.51954,0.0813 l 0,-0.60125 0.92362,0.2925 z"
       id="path3255" />
    <path
       inkscape:connector-curvature="0"
       style="fill:#385d8a;fill-opacity:1;fill-rule:evenodd;stroke:none"
       d="m 362.23568,740.26199 0,0.58499 0,0.60125 -11.80505,0 0,-0.60125 0,-0.58499 11.80505,0 z"
       id="path3257" />
    <path
       inkscape:connector-curvature="0"
       style="fill:#385d8a;fill-opacity:1;fill-rule:evenodd;stroke:none"
       d="m 350.43063,741.44823 c -0.20205,0 -0.34636,-0.0325 -0.51954,-0.0813 -0.17318,-0.065 -0.28862,-0.13 -0.40408,-0.22749 -0.0866,-0.0975 -0.11546,-0.17875 -0.11546,-0.2925 0,-0.11375 0.0289,-0.19499 0.11546,-0.29249 l 0.92362,0.29249 0,0.60125 z"
       id="path3259" />
    <path
       inkscape:connector-curvature="0"
       style="fill:#385d8a;fill-opacity:1;fill-rule:evenodd;stroke:none"
       d="m 351.35426,741.13948 -0.92363,-0.2925 -0.92362,-0.29249 11.80505,-11.82982 0.92362,0.2925 0.92362,0.2925 -11.80504,11.82981 z"
       id="path3261" />
    <path
       inkscape:connector-curvature="0"
       style="fill:#385d8a;fill-opacity:1;fill-rule:evenodd;stroke:none"
       d="m 363.1593,728.72467 c 0.0866,0.0975 0.14432,0.17875 0.14432,0.2925 0,0.11375 -0.0577,0.19499 -0.14432,0.2925 l -0.92362,-0.2925 0.92362,-0.2925 z"
       id="path3263" />
    <path
       inkscape:connector-curvature="0"
       style="fill:#385d8a;fill-opacity:1;fill-rule:evenodd;stroke:none"
       d="m 363.1593,728.72467 -0.92362,0.2925 -0.92362,0.2925 -11.80505,-11.82982 0.92362,-0.2925 0.92363,-0.29249 11.80504,11.82981 z"
       id="path3265" />
    <path
       inkscape:connector-curvature="0"
       style="fill:#4f81bd;fill-opacity:1;fill-rule:evenodd;stroke:none"
       d="m 350.43063,764.78286 11.80505,0 11.77619,11.82981 -11.77619,11.82982 -11.80505,0 11.80505,-11.82982 z"
       id="path3267" />
    <path
       inkscape:connector-curvature="0"
       style="fill:#385d8a;fill-opacity:1;fill-rule:evenodd;stroke:none"
       d="m 349.50701,765.07535 c -0.0866,-0.0975 -0.11546,-0.17874 -0.11546,-0.29249 0,-0.11375 0.0289,-0.195 0.11546,-0.29249 0.11546,-0.0975 0.2309,-0.1625 0.40408,-0.2275 0.17318,-0.0487 0.31749,-0.065 0.51954,-0.065 l 0,0.58499 -0.92362,0.29249 z"
       id="path3269" />
    <path
       inkscape:connector-curvature="0"
       style="fill:#385d8a;fill-opacity:1;fill-rule:evenodd;stroke:none"
       d="m 350.43063,765.3841 0,-0.60124 0,-0.58499 11.80505,0 0,0.58499 0,0.60124 -11.80505,0 z"
       id="path3271" />
    <path
       inkscape:connector-curvature="0"
       style="fill:#385d8a;fill-opacity:1;fill-rule:evenodd;stroke:none"
       d="m 362.23568,764.19787 c 0.20205,0 0.34636,0.0162 0.51954,0.065 0.17318,0.065 0.28864,0.13 0.40408,0.2275 0,0 0,0 0,0 l -0.92362,0.29249 0,-0.58499 z"
       id="path3273" />
    <path
       inkscape:connector-curvature="0"
       style="fill:#385d8a;fill-opacity:1;fill-rule:evenodd;stroke:none"
       d="m 361.31206,765.07535 0.92362,-0.29249 0.92362,-0.29249 11.77619,11.82981 -0.92362,0.29249 -0.92362,0.2925 -11.77619,-11.82982 z"
       id="path3275" />
    <path
       inkscape:connector-curvature="0"
       style="fill:#385d8a;fill-opacity:1;fill-rule:evenodd;stroke:none"
       d="m 374.93549,776.32018 c 0.0866,0.0975 0.14432,0.17875 0.14432,0.29249 0,0.11375 -0.0578,0.195 -0.14432,0.2925 l -0.92362,-0.2925 0.92362,-0.29249 z"
       id="path3277" />
    <path
       inkscape:connector-curvature="0"
       style="fill:#385d8a;fill-opacity:1;fill-rule:evenodd;stroke:none"
       d="m 373.08825,776.32018 0.92362,0.29249 0.92362,0.2925 -11.77619,11.82981 -0.92362,-0.29249 -0.92362,-0.2925 11.77619,-11.82981 z"
       id="path3279" />
    <path
       inkscape:connector-curvature="0"
       style="fill:#385d8a;fill-opacity:1;fill-rule:evenodd;stroke:none"
       d="m 363.1593,788.73498 c 0,0 0,0 0,0 -0.11544,0.0975 -0.2309,0.1625 -0.40408,0.2275 -0.17318,0.0487 -0.31749,0.0812 -0.51954,0.0812 l 0,-0.60124 0.92362,0.29249 z"
       id="path3281" />
    <path
       inkscape:connector-curvature="0"
       style="fill:#385d8a;fill-opacity:1;fill-rule:evenodd;stroke:none"
       d="m 362.23568,787.8575 0,0.58499 0,0.60124 -11.80505,0 0,-0.60124 0,-0.58499 11.80505,0 z"
       id="path3283" />
    <path
       inkscape:connector-curvature="0"
       style="fill:#385d8a;fill-opacity:1;fill-rule:evenodd;stroke:none"
       d="m 350.43063,789.04373 c -0.20205,0 -0.34636,-0.0325 -0.51954,-0.0812 -0.17318,-0.065 -0.28862,-0.12999 -0.40408,-0.2275 -0.0866,-0.0975 -0.11546,-0.17874 -0.11546,-0.29249 0,-0.11375 0.0289,-0.195 0.11546,-0.2925 l 0.92362,0.2925 0,0.60124 z"
       id="path3285" />
    <path
       inkscape:connector-curvature="0"
       style="fill:#385d8a;fill-opacity:1;fill-rule:evenodd;stroke:none"
       d="m 351.35426,788.73498 -0.92363,-0.29249 -0.92362,-0.2925 11.80505,-11.82981 0.92362,0.29249 0.92362,0.2925 -11.80504,11.82981 z"
       id="path3287" />
    <path
       inkscape:connector-curvature="0"
       style="fill:#385d8a;fill-opacity:1;fill-rule:evenodd;stroke:none"
       d="m 363.1593,776.32018 c 0.0866,0.0975 0.14432,0.17875 0.14432,0.29249 0,0.11375 -0.0577,0.195 -0.14432,0.2925 l -0.92362,-0.2925 0.92362,-0.29249 z"
       id="path3289" />
    <path
       inkscape:connector-curvature="0"
       style="fill:#385d8a;fill-opacity:1;fill-rule:evenodd;stroke:none"
       d="m 363.1593,776.32018 -0.92362,0.29249 -0.92362,0.2925 -11.80505,-11.82982 0.92362,-0.29249 0.92363,-0.29249 11.80504,11.82981 z"
       id="path3291" />
    <path
       inkscape:connector-curvature="0"
       style="fill:#4f81bd;fill-opacity:1;fill-rule:evenodd;stroke:none"
       d="m 350.43063,813.01211 11.80505,0 11.77619,11.82981 -11.77619,11.82982 -11.80505,0 11.80505,-11.82982 z"
       id="path3293" />
    <path
       inkscape:connector-curvature="0"
       style="fill:#385d8a;fill-opacity:1;fill-rule:evenodd;stroke:none"
       d="m 349.50701,813.3046 c -0.0866,-0.0975 -0.11546,-0.17874 -0.11546,-0.29249 0,-0.11375 0.0289,-0.19501 0.11546,-0.2925 0.11546,-0.0975 0.2309,-0.1625 0.40408,-0.2275 0.17318,-0.0487 0.31749,-0.065 0.51954,-0.065 l 0,0.58499 -0.92362,0.29249 z"
       id="path3295" />
    <path
       inkscape:connector-curvature="0"
       style="fill:#385d8a;fill-opacity:1;fill-rule:evenodd;stroke:none"
       d="m 350.43063,813.61335 0,-0.60124 0,-0.58499 11.80505,0 0,0.58499 0,0.60124 -11.80505,0 z"
       id="path3297" />
    <path
       inkscape:connector-curvature="0"
       style="fill:#385d8a;fill-opacity:1;fill-rule:evenodd;stroke:none"
       d="m 362.23568,812.42712 c 0.20205,0 0.34636,0.0163 0.51954,0.065 0.17318,0.065 0.28864,0.13 0.40408,0.2275 0,0 0,0 0,0 l -0.92362,0.2925 0,-0.58499 z"
       id="path3299" />
    <path
       inkscape:connector-curvature="0"
       style="fill:#385d8a;fill-opacity:1;fill-rule:evenodd;stroke:none"
       d="m 361.31206,813.3046 0.92362,-0.29249 0.92362,-0.2925 11.77619,11.82982 -0.92362,0.29249 -0.92362,0.2925 -11.77619,-11.82982 z"
       id="path3301" />
    <path
       inkscape:connector-curvature="0"
       style="fill:#385d8a;fill-opacity:1;fill-rule:evenodd;stroke:none"
       d="m 374.93549,824.54943 c 0.0866,0.0975 0.14432,0.17874 0.14432,0.29249 0,0.11375 -0.0578,0.195 -0.14432,0.2925 l -0.92362,-0.2925 0.92362,-0.29249 z"
       id="path3303" />
    <path
       inkscape:connector-curvature="0"
       style="fill:#385d8a;fill-opacity:1;fill-rule:evenodd;stroke:none"
       d="m 373.08825,824.54943 0.92362,0.29249 0.92362,0.2925 -11.77619,11.82981 -0.92362,-0.29249 -0.92362,-0.2925 11.77619,-11.82981 z"
       id="path3305" />
    <path
       inkscape:connector-curvature="0"
       style="fill:#385d8a;fill-opacity:1;fill-rule:evenodd;stroke:none"
       d="m 363.1593,836.96423 c 0,0 0,0 0,0 -0.11544,0.0975 -0.2309,0.1625 -0.40408,0.2275 -0.17318,0.0487 -0.31749,0.0813 -0.51954,0.0813 l 0,-0.60125 0.92362,0.29249 z"
       id="path3307" />
    <path
       inkscape:connector-curvature="0"
       style="fill:#385d8a;fill-opacity:1;fill-rule:evenodd;stroke:none"
       d="m 362.23568,836.08674 0,0.585 0,0.60125 -11.80505,0 0,-0.60125 0,-0.585 11.80505,0 z"
       id="path3309" />
    <path
       inkscape:connector-curvature="0"
       style="fill:#385d8a;fill-opacity:1;fill-rule:evenodd;stroke:none"
       d="m 350.43063,837.27299 c -0.20205,0 -0.34636,-0.0325 -0.51954,-0.0813 -0.17318,-0.065 -0.28862,-0.13 -0.40408,-0.2275 -0.0866,-0.0975 -0.11546,-0.17875 -0.11546,-0.29249 0,-0.11375 0.0289,-0.195 0.11546,-0.2925 l 0.92362,0.2925 0,0.60125 z"
       id="path3311" />
    <path
       inkscape:connector-curvature="0"
       style="fill:#385d8a;fill-opacity:1;fill-rule:evenodd;stroke:none"
       d="m 351.35426,836.96423 -0.92363,-0.29249 -0.92362,-0.2925 11.80505,-11.82981 0.92362,0.29249 0.92362,0.2925 -11.80504,11.82981 z"
       id="path3313" />
    <path
       inkscape:connector-curvature="0"
       style="fill:#385d8a;fill-opacity:1;fill-rule:evenodd;stroke:none"
       d="m 363.1593,824.54943 c 0.0866,0.0975 0.14432,0.17874 0.14432,0.29249 0,0.11375 -0.0577,0.195 -0.14432,0.2925 l -0.92362,-0.2925 0.92362,-0.29249 z"
       id="path3315" />
    <path
       inkscape:connector-curvature="0"
       style="fill:#385d8a;fill-opacity:1;fill-rule:evenodd;stroke:none"
       d="m 363.1593,824.54943 -0.92362,0.29249 -0.92362,0.2925 -11.80505,-11.82982 0.92362,-0.29249 0.92363,-0.2925 11.80504,11.82982 z"
       id="path3317" />
    <path
       inkscape:connector-curvature="0"
       style="fill:#4f81bd;fill-opacity:1;fill-rule:evenodd;stroke:none"
       d="m 350.43063,859.09639 11.80505,0 11.77619,11.82982 -11.77619,11.82981 -11.80505,0 11.80505,-11.82981 z"
       id="path3319" />
    <path
       inkscape:connector-curvature="0"
       style="fill:#385d8a;fill-opacity:1;fill-rule:evenodd;stroke:none"
       d="m 349.50701,859.38889 c -0.0866,-0.0975 -0.11546,-0.17876 -0.11546,-0.2925 0,-0.11375 0.0289,-0.19499 0.11546,-0.2925 0.11546,-0.0975 0.2309,-0.1625 0.40408,-0.22749 0.17318,-0.0487 0.31749,-0.065 0.51954,-0.065 l 0,0.58499 -0.92362,0.2925 z"
       id="path3321" />
    <path
       inkscape:connector-curvature="0"
       style="fill:#385d8a;fill-opacity:1;fill-rule:evenodd;stroke:none"
       d="m 350.43063,859.69763 0,-0.60124 0,-0.58499 11.80505,0 0,0.58499 0,0.60124 -11.80505,0 z"
       id="path3323" />
    <path
       inkscape:connector-curvature="0"
       style="fill:#385d8a;fill-opacity:1;fill-rule:evenodd;stroke:none"
       d="m 362.23568,858.5114 c 0.20205,0 0.34636,0.0162 0.51954,0.065 0.17318,0.065 0.28864,0.12999 0.40408,0.22749 0,0 0,0 0,0 l -0.92362,0.2925 0,-0.58499 z"
       id="path3325" />
    <path
       inkscape:connector-curvature="0"
       style="fill:#385d8a;fill-opacity:1;fill-rule:evenodd;stroke:none"
       d="m 361.31206,859.38889 0.92362,-0.2925 0.92362,-0.2925 11.77619,11.82982 -0.92362,0.2925 -0.92362,0.29249 -11.77619,-11.82981 z"
       id="path3327" />
    <path
       inkscape:connector-curvature="0"
       style="fill:#385d8a;fill-opacity:1;fill-rule:evenodd;stroke:none"
       d="m 374.93549,870.63371 c 0.0866,0.0975 0.14432,0.17875 0.14432,0.2925 0,0.11374 -0.0578,0.19499 -0.14432,0.29249 l -0.92362,-0.29249 0.92362,-0.2925 z"
       id="path3329" />
    <path
       inkscape:connector-curvature="0"
       style="fill:#385d8a;fill-opacity:1;fill-rule:evenodd;stroke:none"
       d="m 373.08825,870.63371 0.92362,0.2925 0.92362,0.29249 -11.77619,11.82982 -0.92362,-0.2925 -0.92362,-0.2925 11.77619,-11.82981 z"
       id="path3331" />
    <path
       inkscape:connector-curvature="0"
       style="fill:#385d8a;fill-opacity:1;fill-rule:evenodd;stroke:none"
       d="m 363.1593,883.04852 c 0,0 0,0 0,0 -0.11544,0.0975 -0.2309,0.16249 -0.40408,0.22749 -0.17318,0.0487 -0.31749,0.0813 -0.51954,0.0813 l 0,-0.60124 0.92362,0.2925 z"
       id="path3333" />
    <path
       inkscape:connector-curvature="0"
       style="fill:#385d8a;fill-opacity:1;fill-rule:evenodd;stroke:none"
       d="m 362.23568,882.17103 0,0.58499 0,0.60124 -11.80505,0 0,-0.60124 0,-0.58499 11.80505,0 z"
       id="path3335" />
    <path
       inkscape:connector-curvature="0"
       style="fill:#385d8a;fill-opacity:1;fill-rule:evenodd;stroke:none"
       d="m 350.43063,883.35726 c -0.20205,0 -0.34636,-0.0325 -0.51954,-0.0813 -0.17318,-0.065 -0.28862,-0.12999 -0.40408,-0.22749 -0.0866,-0.0975 -0.11546,-0.17875 -0.11546,-0.2925 0,-0.11375 0.0289,-0.195 0.11546,-0.2925 l 0.92362,0.2925 0,0.60124 z"
       id="path3337" />
    <path
       inkscape:connector-curvature="0"
       style="fill:#385d8a;fill-opacity:1;fill-rule:evenodd;stroke:none"
       d="m 351.35426,883.04852 -0.92363,-0.2925 -0.92362,-0.2925 11.80505,-11.82981 0.92362,0.2925 0.92362,0.29249 -11.80504,11.82982 z"
       id="path3339" />
    <path
       inkscape:connector-curvature="0"
       style="fill:#385d8a;fill-opacity:1;fill-rule:evenodd;stroke:none"
       d="m 363.1593,870.63371 c 0.0866,0.0975 0.14432,0.17875 0.14432,0.2925 0,0.11374 -0.0577,0.19499 -0.14432,0.29249 l -0.92362,-0.29249 0.92362,-0.2925 z"
       id="path3341" />
    <path
       inkscape:connector-curvature="0"
       style="fill:#385d8a;fill-opacity:1;fill-rule:evenodd;stroke:none"
       d="m 363.1593,870.63371 -0.92362,0.2925 -0.92362,0.29249 -11.80505,-11.82981 0.92362,-0.2925 0.92363,-0.2925 11.80504,11.82982 z"
       id="path3343" />
  </g>
</svg>
