<?xml version="1.0" encoding="UTF-8" standalone="no"?>
<!-- Created with Inkscape (http://www.inkscape.org/) -->

<svg
   xmlns:ns0="http://www.iki.fi/pav/software/textext/"
   xmlns:dc="http://purl.org/dc/elements/1.1/"
   xmlns:cc="http://creativecommons.org/ns#"
   xmlns:rdf="http://www.w3.org/1999/02/22-rdf-syntax-ns#"
   xmlns:svg="http://www.w3.org/2000/svg"
   xmlns="http://www.w3.org/2000/svg"
   xmlns:sodipodi="http://sodipodi.sourceforge.net/DTD/sodipodi-0.dtd"
   xmlns:inkscape="http://www.inkscape.org/namespaces/inkscape"
   width="379.66159"
   height="512.5708"
   id="svg2"
   version="1.1"
   inkscape:version="0.48.4 r9939"
   sodipodi:docname="rudder_angles.svg">
  <sodipodi:namedview
     id="base"
     pagecolor="#ffffff"
     bordercolor="#666666"
     borderopacity="1.0"
     inkscape:pageopacity="0.0"
     inkscape:pageshadow="2"
     inkscape:zoom="0.98994949"
     inkscape:cx="144.35039"
     inkscape:cy="335.42852"
     inkscape:document-units="px"
     inkscape:current-layer="layer1"
     showgrid="false"
     inkscape:window-width="1615"
     inkscape:window-height="1026"
     inkscape:window-x="65"
     inkscape:window-y="24"
     inkscape:window-maximized="1"
     fit-margin-top="0"
     fit-margin-left="0"
     fit-margin-right="0"
     fit-margin-bottom="0" />
  <defs
     id="defs4">
    <marker
       inkscape:stockid="Arrow1Lend"
       orient="auto"
       refY="0"
       refX="0"
       id="Arrow1Lend"
       style="overflow:visible">
      <path
         id="path3772"
         d="M 0,0 5,-5 -12.5,0 5,5 0,0 z"
         style="fill-rule:evenodd;stroke:#000000;stroke-width:1pt"
         transform="matrix(-0.8,0,0,-0.8,-10,0)"
         inkscape:connector-curvature="0" />
    </marker>
    <marker
       inkscape:stockid="Arrow2Lend"
       orient="auto"
       refY="0"
       refX="0"
       id="Arrow2Lend"
       style="overflow:visible">
      <path
         id="path3790"
         style="fill-rule:evenodd;stroke-width:0.625;stroke-linejoin:round"
         d="M 8.7185878,4.0337352 -2.2072895,0.01601326 8.7185884,-4.0017078 c -1.7454984,2.3720609 -1.7354408,5.6174519 -6e-7,8.035443 z"
         transform="matrix(-1.1,0,0,-1.1,-1.1,0)"
         inkscape:connector-curvature="0" />
    </marker>
    <marker
       inkscape:stockid="Arrow2Lend"
       orient="auto"
       refY="0"
       refX="0"
       id="Arrow2Lend-9"
       style="overflow:visible">
      <path
         id="path3790-5"
         style="fill-rule:evenodd;stroke-width:0.625;stroke-linejoin:round"
         d="M 8.7185878,4.0337352 -2.2072895,0.01601326 8.7185884,-4.0017078 c -1.7454984,2.3720609 -1.7354408,5.6174519 -6e-7,8.035443 z"
         transform="matrix(-1.1,0,0,-1.1,-1.1,0)"
         inkscape:connector-curvature="0" />
    </marker>
  </defs>
  <metadata
     id="metadata7">
    <rdf:RDF>
      <cc:Work
         rdf:about="">
        <dc:format>image/svg+xml</dc:format>
        <dc:type
           rdf:resource="http://purl.org/dc/dcmitype/StillImage" />
        <dc:title></dc:title>
      </cc:Work>
    </rdf:RDF>
  </metadata>
  <g
     inkscape:label="Layer 1"
     inkscape:groupmode="layer"
     id="layer1"
     transform="translate(-319.50977,-539.28121)">
    <path
       style="fill:none;stroke:#000000;stroke-width:1px;stroke-linecap:butt;stroke-linejoin:miter;stroke-opacity:1"
       d="m 652.5453,622.74101 c -66.58234,2.66257 -127.16317,-58.86568 -195.26351,-58.38706 -17.95818,0.12618 -51.92626,12.82447 -53.16811,31.20277 -1.24185,18.37831 31.90132,26.07118 50.78109,25.79375 75.289,-1.10632 129.81575,-60.7211 201.00653,-59.26038 17.41918,0.35741 43.00736,12.11222 42.7684,30.04765 -0.23895,17.93543 -27.68794,29.86601 -46.1244,30.60327 z"
       id="path2985"
       inkscape:connector-curvature="0"
       sodipodi:nodetypes="sszsscs" />
    <path
       style="fill:none;stroke:#000000;stroke-width:1.2033323px;stroke-linecap:butt;stroke-linejoin:miter;stroke-opacity:1"
       d="m 395.89882,1025.6912 c 0,0 59.60969,-131.73418 105.05914,-168.66095 11.56883,-9.39944 28.99637,-17.98411 35.55133,-7.68072 6.55496,10.30339 -1.47099,34.82 -9.7166,50.39347 -31.20778,58.94202 -130.89387,125.9482 -130.89387,125.9482 z"
       id="path2987"
       inkscape:connector-curvature="0"
       sodipodi:nodetypes="cszsc" />
    <rect
       style="fill:#d62890;fill-opacity:0.27853884;stroke:#170017;stroke-width:1;stroke-miterlimit:4;stroke-opacity:0;stroke-dasharray:1, 1.99999997;stroke-dashoffset:0"
       id="rect2989"
       width="157.5838"
       height="413.1524"
       x="564.83154"
       y="448.61307"
       transform="matrix(0.98484344,0.17344564,-0.17344564,0.98484344,0,0)" />
    <path
       style="fill:none;stroke:#000000;stroke-width:1;stroke-linecap:butt;stroke-linejoin:miter;stroke-miterlimit:4;stroke-opacity:1;stroke-dasharray:1, 1;stroke-dashoffset:0"
       d="M 375.77675,1051.352 576.7971,789.72252"
       id="path2991"
       inkscape:connector-curvature="0" />
    <path
       style="fill:none;stroke:#000000;stroke-width:0.62109691px;stroke-linecap:butt;stroke-linejoin:miter;stroke-opacity:1;marker-start:none;marker-end:url(#Arrow2Lend)"
       d="m 330.65896,755.88087 0,-101.01183"
       id="path2993"
       inkscape:connector-curvature="0" />
    <path
       inkscape:connector-curvature="0"
       id="path2995"
       d="m 330.97266,755.56716 101.01183,0"
       style="fill:none;stroke:#000000;stroke-width:0.62109691px;stroke-linecap:butt;stroke-linejoin:miter;stroke-opacity:1;marker-end:url(#Arrow1Lend)" />
    <path
       style="fill:none;stroke:#000000;stroke-width:3.19194937;stroke-linecap:butt;stroke-linejoin:miter;stroke-miterlimit:4;stroke-opacity:1;stroke-dasharray:none;stroke-dashoffset:0;marker-end:url(#Arrow2Lend-9)"
       d="M 559.93235,556.96935 465.2145,1045.8108"
       id="path4759"
       inkscape:connector-curvature="0" />
    <text
       xml:space="preserve"
       style="font-size:40px;font-style:italic;font-weight:normal;line-height:125%;letter-spacing:0px;word-spacing:0px;fill:#000000;fill-opacity:1;stroke:none;font-family:Sans;-inkscape-font-specification:Sans Italic"
       x="321.22852"
       y="650.32147"
       id="text4761"
       sodipodi:linespacing="125%"><tspan
         sodipodi:role="line"
         id="tspan4763"
         x="321.22852"
         y="650.32147">X</tspan></text>
    <text
       xml:space="preserve"
       style="font-size:40px;font-style:italic;font-weight:normal;line-height:125%;letter-spacing:0px;word-spacing:0px;fill:#000000;fill-opacity:1;stroke:none;font-family:Sans;-inkscape-font-specification:Sans Italic"
       x="428.30469"
       y="768.50934"
       id="text4765"
       sodipodi:linespacing="125%"><tspan
         sodipodi:role="line"
         id="tspan4767"
         x="428.30469"
         y="768.50934">Y</tspan></text>
    <path
       style="fill:none;stroke:#000000;stroke-width:1.3363055px;stroke-linecap:butt;stroke-linejoin:miter;stroke-opacity:1"
       d="m 553.3185,591.61573 0,371.59143"
       id="path4769"
       inkscape:connector-curvature="0" />
    <path
       style="fill:none;stroke:#000000;stroke-width:1px;stroke-linecap:butt;stroke-linejoin:miter;stroke-opacity:1;marker-end:url(#Arrow2Lend)"
       d="m 552.04836,572.36855 c 0,0 -11.69054,2.91906 -18.23399,-0.552 -6.54345,-3.47106 -12.57566,-17.63075 -12.57566,-17.63075"
       id="path4771"
       inkscape:connector-curvature="0"
       transform="translate(0,308.2677)"
       sodipodi:nodetypes="czc" />
    <g
       style="font-style:normal;font-variant:normal;font-weight:normal;font-stretch:normal;letter-spacing:normal;word-spacing:normal;text-anchor:start;fill:none;stroke:#000000;stroke-linecap:butt;stroke-linejoin:miter;stroke-miterlimit:10.43299961;stroke-opacity:1;stroke-dasharray:none;stroke-dashoffset:0"
       id="content"
       transform="matrix(1.391451,0,0,-1.391451,200.43162,1878.0684)"
       xml:space="preserve"
       stroke-miterlimit="10.433"
       font-style="normal"
       font-variant="normal"
       font-weight="normal"
       font-stretch="normal"
       font-size-adjust="none"
       letter-spacing="normal"
       word-spacing="normal"
       ns0:text="$\\beta&gt;0$"
       ns0:preamble=""><path
         style="fill:#000000;stroke-width:0"
         inkscape:connector-curvature="0"
         d="m 229.15,712.78 0,0.07 0,0.07 -0.01,0.06 -0.01,0.07 -0.02,0.06 -0.01,0.07 -0.02,0.06 -0.03,0.06 -0.02,0.06 -0.03,0.06 -0.03,0.06 -0.03,0.06 -0.04,0.05 -0.04,0.05 -0.04,0.05 -0.04,0.05 -0.05,0.04 -0.04,0.05 -0.06,0.04 -0.05,0.03 -0.05,0.04 -0.06,0.03 -0.06,0.03 -0.06,0.03 -0.06,0.02 -0.07,0.03 -0.06,0.01 -0.07,0.02 -0.07,0.01 -0.07,0.01 -0.08,0.01 -0.07,0 c -0.58,0 -0.86,-0.16 -1.2,-0.42 -0.55,-0.4 -1.1,-1.36 -1.29,-2.12 l -1.58,-6.3 c -0.01,-0.04 0.04,-0.1 0.12,-0.1 0.08,0 0.11,0.02 0.12,0.05 l 0.7,2.74 c 0.18,-0.6 0.62,-0.96 1.35,-0.96 l -0.03,0.21 c -0.76,0 -1.14,0.58 -1.14,1.29 0,0.09 0,0.24 0.05,0.43 l 0.64,2.52 c 0.22,0.85 0.94,2.43 2.13,2.43 0.58,0 0.93,-0.31 0.93,-0.9 h 0 c 0,-0.7 -0.38,-1.42 -0.9,-1.72 -0.27,0.1 -0.47,0.12 -0.77,0.12 -0.2,0 -0.76,0.01 -0.76,-0.32 -0.01,-0.28 0.51,-0.25 0.68,-0.25 l 0.03,0.22 c -0.14,0 -0.33,-0.01 -0.43,0.04 0.02,0.1 0.37,0.08 0.48,0.08 0.21,0 0.3,0 0.43,-0.05 h 0 c -0.13,-0.05 -0.24,-0.07 -0.48,-0.07 l -0.03,-0.22 c 0.37,0 0.52,0.01 0.82,0.13 0.38,-0.36 0.43,-0.67 0.44,-1.12 0.02,-0.58 -0.22,-1.32 -0.5,-1.71 -0.39,-0.54 -1.05,-0.9 -1.62,-0.9 l 0.03,-0.21 c 0.72,0 1.47,0.34 1.92,0.78 0.48,0.46 0.8,1.09 0.8,1.83 0,0.71 -0.37,1.23 -0.73,1.48 0.58,0.33 1.14,0.94 1.14,1.66 z"
         id="path4980" /><path
         style="fill:#000000;stroke-width:0"
         inkscape:connector-curvature="0"
         d="m 239.08,709.39 0.02,0.01 0.01,0 0.01,0.01 0.01,0 0.01,0.01 0.01,0 0.01,0.01 0,0 0.01,0.01 0.01,0 0.01,0.01 0.01,0.01 0,0 0.01,0.01 0.01,0 0,0.01 0.01,0.01 0,0 0.01,0.01 0,0.01 0.01,0 0,0.01 0,0.01 0.01,0.01 0,0.01 0,0.01 0.01,0.01 0,0.01 0,0.01 0,0.01 0,0.01 c 0,0.12 -0.08,0.17 -0.19,0.22 l -5.51,2.59 c -0.13,0.07 -0.15,0.07 -0.18,0.07 -0.11,0 -0.2,-0.09 -0.2,-0.2 0,-0.09 0.05,-0.15 0.19,-0.22 l 5.22,-2.46 -5.22,-2.46 c -0.14,-0.07 -0.19,-0.13 -0.19,-0.22 0,-0.11 0.09,-0.2 0.2,-0.2 0.03,0 0.05,0 0.18,0.07 z"
         id="path4982" /><path
         style="fill:#000000;stroke-width:0"
         inkscape:connector-curvature="0"
         d="m 247.45,710.3 0,0.15 0,0.15 0,0.15 -0.01,0.15 -0.01,0.15 -0.01,0.14 -0.02,0.15 -0.02,0.15 -0.02,0.14 -0.03,0.15 -0.03,0.14 -0.04,0.15 -0.04,0.14 -0.05,0.14 -0.05,0.14 -0.03,0.07 -0.04,0.07 c -0.45,0.95 -1.27,1.11 -1.69,1.11 -0.59,0 -1.32,-0.26 -1.73,-1.18 -0.32,-0.69 -0.37,-1.46 -0.37,-2.26 0,-0.74 0.04,-1.64 0.45,-2.39 0.43,-0.81 1.16,-1 1.64,-1 v 0.21 c -0.39,0 -0.97,0.25 -1.15,1.21 -0.11,0.59 -0.11,1.51 -0.11,2.09 0,0.64 0,1.29 0.08,1.83 0.19,1.18 0.93,1.27 1.18,1.27 0.33,0 0.99,-0.18 1.18,-1.16 0.1,-0.56 0.1,-1.31 0.1,-1.94 0,-0.74 0,-1.42 -0.11,-2.05 -0.15,-0.95 -0.72,-1.25 -1.17,-1.25 h 0 v -0.21 c 0.54,0 1.3,0.2 1.74,1.15 0.31,0.68 0.36,1.46 0.36,2.24 z"
         id="path4984" /></g>    <path
       sodipodi:nodetypes="czc"
       transform="translate(0,308.2677)"
       inkscape:connector-curvature="0"
       id="path5010"
       d="m 551.58702,461.03068 c 0,0 -7.25638,9.6415 -15.82107,9.719 -8.56468,0.0775 -15.25471,-16.40754 -15.25471,-16.40754"
       style="fill:none;stroke:#000000;stroke-width:1px;stroke-linecap:butt;stroke-linejoin:miter;stroke-opacity:1;marker-end:url(#Arrow2Lend)" />
    <g
       id="g5314"
       transform="matrix(1.391451,0,0,-1.391451,209.51128,1776.3763)"
       xml:space="preserve"
       stroke-miterlimit="10.433"
       font-style="normal"
       font-variant="normal"
       font-weight="normal"
       font-stretch="normal"
       font-size-adjust="none"
       letter-spacing="normal"
       word-spacing="normal"
       ns0:text="$a&gt;0$"
       ns0:preamble=""
       style="font-style:normal;font-variant:normal;font-weight:normal;font-stretch:normal;letter-spacing:normal;word-spacing:normal;text-anchor:start;fill:none;stroke:#000000;stroke-linecap:butt;stroke-linejoin:miter;stroke-miterlimit:10.43299961;stroke-opacity:1;stroke-dasharray:none;stroke-dashoffset:0"><path
         style="fill:#000000;stroke-width:0"
         inkscape:connector-curvature="0"
         d="m 227.14,710.88 -0.01,0.03 -0.02,0.04 -0.02,0.03 -0.02,0.03 -0.02,0.03 -0.02,0.03 -0.02,0.03 -0.02,0.03 -0.03,0.03 -0.02,0.03 -0.02,0.03 -0.03,0.02 -0.02,0.03 -0.03,0.02 -0.03,0.02 -0.02,0.03 -0.03,0.02 -0.03,0.02 -0.03,0.01 -0.03,0.02 -0.04,0.02 -0.03,0.01 -0.03,0.02 -0.04,0.01 -0.03,0.01 -0.04,0.01 -0.03,0.01 -0.04,0 -0.04,0.01 -0.04,0 -0.04,0.01 -0.04,0 c -1.17,0 -2.4,-1.47 -2.4,-2.92 0,-0.93 0.55,-1.58 1.32,-1.58 l 0.02,0.21 c -0.49,0 -0.63,0.55 -0.63,0.94 0,0.49 0.31,1.72 0.54,2.17 0.31,0.59 0.76,0.96 1.16,0.96 0.64,0 0.78,-0.82 0.78,-0.88 0,-0.06 -0.02,-0.12 -0.03,-0.17 l -0.49,-1.94 c -0.05,-0.18 -0.05,-0.2 -0.2,-0.37 -0.44,-0.55 -0.85,-0.71 -1.13,-0.71 l -0.02,-0.21 c 0.2,0 0.7,0.03 1.3,0.74 0.08,-0.42 0.42,-0.74 0.9,-0.74 0.35,0 0.58,0.22 0.74,0.54 0.17,0.36 0.3,0.97 0.3,0.99 0,0.1 -0.09,0.1 -0.12,0.1 -0.1,0 -0.11,-0.05 -0.14,-0.18 -0.17,-0.65 -0.35,-1.24 -0.76,-1.24 -0.27,0 -0.3,0.26 -0.3,0.46 0,0.22 0.02,0.3 0.13,0.74 0.11,0.41 0.13,0.51 0.22,0.89 l 0.36,1.39 c 0.07,0.28 0.07,0.3 0.07,0.34 0,0.17 -0.12,0.27 -0.29,0.27 -0.24,0 -0.39,-0.22 -0.42,-0.44 z"
         id="path5316" /><path
         style="fill:#000000;stroke-width:0"
         inkscape:connector-curvature="0"
         d="m 238.18,709.39 0.02,0.01 0.01,0 0.01,0.01 0.01,0 0.01,0.01 0.01,0 0.01,0.01 0.01,0 0.01,0.01 0,0 0.01,0.01 0.01,0.01 0.01,0 0,0.01 0.01,0 0.01,0.01 0,0.01 0.01,0 0,0.01 0.01,0.01 0,0 0.01,0.01 0,0.01 0,0.01 0,0.01 0.01,0.01 0,0.01 0,0.01 0,0.01 0,0.01 0,0.01 c 0,0.12 -0.08,0.17 -0.19,0.22 l -5.51,2.59 c -0.13,0.07 -0.15,0.07 -0.18,0.07 -0.11,0 -0.2,-0.09 -0.2,-0.2 0,-0.09 0.05,-0.15 0.19,-0.22 l 5.23,-2.46 -5.23,-2.46 c -0.14,-0.07 -0.19,-0.13 -0.19,-0.22 0,-0.11 0.09,-0.2 0.2,-0.2 0.03,0 0.05,0 0.18,0.07 z"
         id="path5318" /><path
         style="fill:#000000;stroke-width:0"
         inkscape:connector-curvature="0"
         d="m 246.56,710.3 0,0.15 0,0.15 -0.01,0.15 0,0.15 -0.01,0.15 -0.02,0.14 -0.01,0.15 -0.02,0.15 -0.02,0.14 -0.03,0.15 -0.03,0.14 -0.04,0.15 -0.04,0.14 -0.05,0.14 -0.06,0.14 -0.03,0.07 -0.03,0.07 c -0.46,0.95 -1.27,1.11 -1.69,1.11 -0.6,0 -1.32,-0.26 -1.73,-1.18 -0.32,-0.69 -0.37,-1.46 -0.37,-2.26 0,-0.74 0.04,-1.64 0.45,-2.39 0.43,-0.81 1.15,-1 1.64,-1 v 0.21 c -0.39,0 -0.98,0.25 -1.16,1.21 -0.1,0.59 -0.1,1.51 -0.1,2.09 0,0.64 0,1.29 0.07,1.83 0.19,1.18 0.94,1.27 1.19,1.27 0.33,0 0.98,-0.18 1.17,-1.16 0.1,-0.56 0.1,-1.31 0.1,-1.94 0,-0.74 0,-1.42 -0.11,-2.05 -0.15,-0.95 -0.71,-1.25 -1.16,-1.25 h 0 v -0.21 c 0.54,0 1.29,0.2 1.73,1.15 0.32,0.68 0.37,1.46 0.37,2.24 z"
         id="path5320" /></g>    <path
       sodipodi:nodetypes="czc"
       inkscape:connector-curvature="0"
       id="path5010-4"
       d="m 481.19083,963.13157 c 0,0 -10.59323,1.32043 -13.92858,-0.71429 -3.33534,-2.03471 -9.99999,-14.10713 -9.99999,-14.10713"
       style="fill:none;stroke:#000000;stroke-width:1px;stroke-linecap:butt;stroke-linejoin:miter;stroke-opacity:1;marker-end:url(#Arrow2Lend)" />
    <g
       style="font-style:normal;font-variant:normal;font-weight:normal;font-stretch:normal;letter-spacing:normal;word-spacing:normal;text-anchor:start;fill:none;stroke:#000000;stroke-linecap:butt;stroke-linejoin:miter;stroke-miterlimit:10.43299961;stroke-opacity:1;stroke-dasharray:none;stroke-dashoffset:0"
       ns0:preamble=""
       ns0:text="$\\alpha&gt;0$"
       word-spacing="normal"
       letter-spacing="normal"
       font-size-adjust="none"
       font-stretch="normal"
       font-weight="normal"
       font-variant="normal"
       font-style="normal"
       stroke-miterlimit="10.433"
       xml:space="preserve"
       transform="matrix(1.391451,0,0,-1.391451,130.14191,1960.0572)"
       id="g5420"><path
         id="path5422"
         d="m 228.18,709.47 0,0.07 0,0.07 -0.01,0.07 0,0.07 -0.02,0.13 -0.01,0.12 -0.03,0.12 -0.02,0.12 -0.03,0.1 -0.04,0.11 -0.04,0.09 -0.04,0.1 -0.04,0.08 -0.05,0.08 -0.06,0.08 -0.05,0.07 -0.06,0.07 -0.06,0.06 -0.06,0.05 -0.06,0.06 -0.07,0.05 -0.06,0.04 -0.07,0.04 -0.07,0.04 -0.07,0.03 -0.07,0.03 -0.08,0.02 -0.07,0.02 -0.07,0.02 -0.07,0.01 -0.07,0.01 -0.07,0.01 -0.07,0 -0.07,0.01 c -1.37,0 -2.68,-1.43 -2.68,-2.83 0,-0.92 0.6,-1.67 1.61,-1.67 l 0.02,0.21 c -0.59,0 -0.89,0.45 -0.89,1.09 0,0.48 0.26,1.56 0.57,2.06 0.47,0.73 1.01,0.92 1.36,0.92 0.98,0 0.98,-1.3 0.98,-2.08 0,-0.37 0,-0.94 0.02,-1.11 h 0 c -0.87,-0.77 -1.64,-0.88 -2.04,-0.88 l -0.02,-0.21 c 0.63,0 1.34,0.22 2.1,0.83 0.13,-0.53 0.46,-0.83 0.91,-0.83 0.52,0 0.83,0.54 0.83,0.7 0,0.07 -0.06,0.1 -0.12,0.1 -0.07,0 -0.1,-0.03 -0.13,-0.1 -0.18,-0.49 -0.53,-0.49 -0.55,-0.49 -0.31,0 -0.31,0.78 -0.31,1.02 0,0.21 0,0.23 0.1,0.34 0.93,1.18 1.14,2.33 1.14,2.34 0,0.02 -0.01,0.1 -0.12,0.1 -0.1,0 -0.1,-0.03 -0.15,-0.21 -0.18,-0.62 -0.5,-1.38 -0.97,-1.97 z"
         inkscape:connector-curvature="0"
         style="fill:#000000;stroke-width:0" /><path
         id="path5424"
         d="m 239.32,709.39 0.02,0.01 0.01,0 0.01,0.01 0.01,0 0.01,0.01 0.01,0 0.01,0.01 0,0 0.01,0.01 0.01,0 0.01,0.01 0.01,0.01 0,0 0.01,0.01 0.01,0 0,0.01 0.01,0.01 0,0 0.01,0.01 0,0.01 0.01,0 0,0.01 0,0.01 0.01,0.01 0,0.01 0,0.01 0.01,0.01 0,0.01 0,0.01 0,0.01 0,0.01 c 0,0.12 -0.08,0.17 -0.19,0.22 l -5.51,2.59 c -0.13,0.07 -0.15,0.07 -0.18,0.07 -0.11,0 -0.2,-0.09 -0.2,-0.2 0,-0.09 0.05,-0.15 0.19,-0.22 l 5.22,-2.46 -5.22,-2.46 c -0.14,-0.07 -0.19,-0.13 -0.19,-0.22 0,-0.11 0.09,-0.2 0.2,-0.2 0.03,0 0.05,0 0.18,0.07 z"
         inkscape:connector-curvature="0"
         style="fill:#000000;stroke-width:0" /><path
         id="path5426"
         d="m 247.7,710.3 0,0.15 0,0.15 0,0.15 -0.01,0.15 -0.01,0.15 -0.01,0.14 -0.02,0.15 -0.02,0.15 -0.02,0.14 -0.03,0.15 -0.03,0.14 -0.04,0.15 -0.04,0.14 -0.05,0.14 -0.05,0.14 -0.03,0.07 -0.04,0.07 c -0.45,0.95 -1.27,1.11 -1.69,1.11 -0.59,0 -1.32,-0.26 -1.73,-1.18 -0.32,-0.69 -0.37,-1.46 -0.37,-2.26 0,-0.74 0.04,-1.64 0.45,-2.39 0.43,-0.81 1.16,-1 1.64,-1 v 0.21 c -0.39,0 -0.97,0.25 -1.15,1.21 -0.11,0.59 -0.11,1.51 -0.11,2.09 0,0.64 0,1.29 0.08,1.83 0.19,1.18 0.93,1.27 1.18,1.27 0.33,0 0.99,-0.18 1.18,-1.16 0.1,-0.56 0.1,-1.31 0.1,-1.94 0,-0.74 0,-1.42 -0.11,-2.05 -0.15,-0.95 -0.72,-1.25 -1.17,-1.25 h 0 v -0.21 c 0.54,0 1.3,0.2 1.74,1.15 0.31,0.68 0.36,1.46 0.36,2.24 z"
         inkscape:connector-curvature="0"
         style="fill:#000000;stroke-width:0" /></g>  </g>
</svg>
