<?xml version="1.0" encoding="utf-8" standalone="no"?>
<!DOCTYPE svg PUBLIC "-//W3C//DTD SVG 1.1//EN"
  "http://www.w3.org/Graphics/SVG/1.1/DTD/svg11.dtd">
<!-- Created with matplotlib (http://matplotlib.org/) -->
<svg height="432pt" version="1.1" viewBox="0 0 576 432" width="576pt" xmlns="http://www.w3.org/2000/svg" xmlns:xlink="http://www.w3.org/1999/xlink">
 <defs>
  <style type="text/css">
*{stroke-linecap:butt;stroke-linejoin:round;}
  </style>
 </defs>
 <g id="figure_1">
  <g id="patch_1">
   <path d="
M0 432
L576 432
L576 0
L0 0
z
" style="fill:none;"/>
  </g>
  <g id="axes_1">
   <g id="patch_2">
    <path d="
M151.2 388.8
L439.2 388.8
L439.2 43.2
L151.2 43.2
z
" style="fill:none;"/>
   </g>
   <g id="patch_3">
    <path clip-path="url(#p0a58b64fe7)" d="
M421.92 367.736
L421.075 367.2
L420.48 366.675
L419.669 365.76
L419.04 364.565
L418.918 364.32
L418.575 362.88
L418.584 361.44
L418.95 360
L419.04 359.814
L419.759 358.56
L420.48 357.771
L421.335 357.12
L421.92 356.769
L423.36 356.271
L424.8 356.141
L426.24 356.35
L427.68 356.937
L427.947 357.12
L429.12 358.044
L429.56 358.56
L430.432 360
L430.56 360.394
L430.845 361.44
L430.905 362.88
L430.62 364.32
L430.56 364.458
L429.902 365.76
L429.12 366.704
L428.54 367.2
L427.68 367.772
L426.24 368.315
L424.8 368.479
L423.36 368.294
z
" style="fill:#ff80cc;stroke:#000000;"/>
   </g>
   <g id="patch_4">
    <path clip-path="url(#p0a58b64fe7)" d="
M280.8 348.578
L280.346 348.48
L279.36 348.255
L277.92 347.856
L276.48 347.388
L275.54 347.04
L275.04 346.843
L273.6 346.209
L272.343 345.6
L272.16 345.505
L270.72 344.698
L269.822 344.16
L269.28 343.81
L267.84 342.832
L267.683 342.72
L266.4 341.739
L265.818 341.28
L264.96 340.549
L264.144 339.84
L263.52 339.254
L262.62 338.4
L262.08 337.848
L261.214 336.96
L260.64 336.329
L259.902 335.52
L259.2 334.699
L258.666 334.08
L257.76 332.967
L257.49 332.64
L256.362 331.2
L256.32 331.144
L255.273 329.76
L254.88 329.22
L254.21 328.32
L253.44 327.255
L253.162 326.88
L252.122 325.44
L252 325.266
L251.085 324
L250.56 323.268
L250.038 322.56
L249.12 321.316
L248.971 321.12
L247.883 319.68
L247.68 319.413
L246.763 318.24
L246.24 317.581
L245.603 316.8
L244.8 315.835
L244.395 315.36
L243.36 314.174
L243.133 313.92
L241.92 312.594
L241.813 312.48
L240.48 311.09
L240.431 311.04
L239.04 309.653
L238.986 309.6
L237.6 308.276
L237.477 308.16
L236.16 306.95
L235.907 306.72
L234.72 305.667
L234.28 305.28
L233.28 304.42
L232.603 303.84
L231.84 303.201
L230.885 302.4
L230.4 302.002
L229.136 300.96
L228.96 300.818
L227.52 299.637
L227.379 299.52
L226.08 298.455
L225.63 298.08
L224.64 297.267
L223.893 296.64
L223.2 296.066
L222.181 295.2
L221.76 294.846
L220.505 293.76
L220.32 293.601
L218.88 292.324
L218.876 292.32
L217.44 291.003
L217.311 290.88
L216 289.634
L215.804 289.44
L214.56 288.209
L214.358 288
L213.12 286.718
L212.974 286.56
L211.68 285.149
L211.654 285.12
L210.406 283.68
L210.24 283.485
L209.224 282.24
L208.8 281.712
L208.101 280.8
L207.36 279.813
L207.035 279.36
L206.026 277.92
L205.92 277.763
L205.088 276.48
L204.48 275.515
L204.194 275.04
L203.358 273.6
L203.04 273.03
L202.575 272.16
L201.837 270.72
L201.6 270.234
L201.153 269.28
L200.511 267.84
L200.16 267.007
L199.914 266.4
L199.364 264.96
L198.845 263.52
L198.72 263.147
L198.375 262.08
L197.942 260.64
L197.539 259.2
L197.28 258.195
L197.172 257.76
L196.845 256.32
L196.547 254.88
L196.276 253.44
L196.031 252
L195.84 250.738
L195.814 250.56
L195.63 249.12
L195.468 247.68
L195.329 246.24
L195.209 244.8
L195.109 243.36
L195.027 241.92
L194.961 240.48
L194.91 239.04
L194.872 237.6
L194.846 236.16
L194.83 234.72
L194.823 233.28
L194.823 231.84
L194.829 230.4
L194.84 228.96
L194.853 227.52
L194.868 226.08
L194.883 224.64
L194.898 223.2
L194.911 221.76
L194.923 220.32
L194.931 218.88
L194.936 217.44
L194.938 216
L194.936 214.56
L194.931 213.12
L194.923 211.68
L194.911 210.24
L194.898 208.8
L194.883 207.36
L194.868 205.92
L194.853 204.48
L194.84 203.04
L194.829 201.6
L194.823 200.16
L194.823 198.72
L194.83 197.28
L194.846 195.84
L194.872 194.4
L194.91 192.96
L194.961 191.52
L195.027 190.08
L195.109 188.64
L195.209 187.2
L195.329 185.76
L195.468 184.32
L195.63 182.88
L195.814 181.44
L195.84 181.262
L196.031 180
L196.276 178.56
L196.547 177.12
L196.845 175.68
L197.172 174.24
L197.28 173.805
L197.539 172.8
L197.942 171.36
L198.375 169.92
L198.72 168.853
L198.845 168.48
L199.364 167.04
L199.914 165.6
L200.16 164.993
L200.511 164.16
L201.153 162.72
L201.6 161.766
L201.837 161.28
L202.575 159.84
L203.04 158.97
L203.358 158.4
L204.194 156.96
L204.48 156.485
L205.088 155.52
L205.92 154.237
L206.026 154.08
L207.035 152.64
L207.36 152.187
L208.101 151.2
L208.8 150.288
L209.224 149.76
L210.24 148.515
L210.406 148.32
L211.654 146.88
L211.68 146.851
L212.974 145.44
L213.12 145.282
L214.358 144
L214.56 143.791
L215.804 142.56
L216 142.366
L217.311 141.12
L217.44 140.997
L218.876 139.68
L218.88 139.676
L220.32 138.399
L220.505 138.24
L221.76 137.154
L222.181 136.8
L223.2 135.934
L223.893 135.36
L224.64 134.733
L225.63 133.92
L226.08 133.545
L227.379 132.48
L227.52 132.363
L228.96 131.182
L229.136 131.04
L230.4 129.998
L230.885 129.6
L231.84 128.799
L232.603 128.16
L233.28 127.58
L234.28 126.72
L234.72 126.333
L235.907 125.28
L236.16 125.05
L237.477 123.84
L237.6 123.724
L238.986 122.4
L239.04 122.347
L240.431 120.96
L240.48 120.91
L241.813 119.52
L241.92 119.406
L243.133 118.08
L243.36 117.826
L244.395 116.64
L244.8 116.165
L245.603 115.2
L246.24 114.419
L246.763 113.76
L247.68 112.587
L247.883 112.32
L248.971 110.88
L249.12 110.684
L250.038 109.44
L250.56 108.732
L251.085 108
L252 106.734
L252.122 106.56
L253.162 105.12
L253.44 104.745
L254.21 103.68
L254.88 102.78
L255.273 102.24
L256.32 100.856
L256.362 100.8
L257.49 99.36
L257.76 99.0331
L258.666 97.92
L259.2 97.3013
L259.902 96.48
L260.64 95.6713
L261.214 95.04
L262.08 94.1518
L262.62 93.6
L263.52 92.7458
L264.144 92.16
L264.96 91.4507
L265.818 90.72
L266.4 90.2608
L267.683 89.28
L267.84 89.1684
L269.28 88.1897
L269.822 87.84
L270.72 87.3023
L272.16 86.4949
L272.343 86.4
L273.6 85.7913
L275.04 85.1572
L275.54 84.96
L276.48 84.6119
L277.92 84.1441
L279.36 83.745
L280.346 83.52
L280.8 83.4216
L282.24 83.1768
L283.68 83.0003
L285.12 82.8925
L286.56 82.8538
L288 82.884
L289.44 82.9832
L290.88 83.151
L292.32 83.3869
L292.957 83.52
L293.76 83.699
L295.2 84.0885
L296.64 84.5471
L297.776 84.96
L298.08 85.0792
L299.52 85.7051
L300.96 86.3968
L300.966 86.4
L302.4 87.2006
L303.468 87.84
L303.84 88.0826
L305.28 89.0706
L305.573 89.28
L306.72 90.1759
L307.394 90.72
L308.16 91.3967
L309.005 92.16
L309.6 92.75
L310.446 93.6
L311.04 94.2548
L311.748 95.04
L312.48 95.9312
L312.931 96.48
L313.92 97.7991
L314.011 97.92
L315 99.36
L315.36 99.9337
L315.909 100.8
L316.744 102.24
L316.8 102.347
L317.512 103.68
L318.219 105.12
L318.24 105.167
L318.869 106.56
L319.467 108
L319.68 108.566
L320.015 109.44
L320.518 110.88
L320.978 112.32
L321.12 112.813
L321.397 113.76
L321.779 115.2
L322.125 116.64
L322.438 118.08
L322.56 118.709
L322.719 119.52
L322.97 120.96
L323.194 122.4
L323.392 123.84
L323.567 125.28
L323.719 126.72
L323.851 128.16
L323.964 129.6
L324 130.143
L324.059 131.04
L324.137 132.48
L324.201 133.92
L324.251 135.36
L324.29 136.8
L324.319 138.24
L324.338 139.68
L324.349 141.12
L324.354 142.56
L324.352 144
L324.346 145.44
L324.336 146.88
L324.322 148.32
L324.306 149.76
L324.288 151.2
L324.269 152.64
L324.25 154.08
L324.23 155.52
L324.21 156.96
L324.19 158.4
L324.171 159.84
L324.153 161.28
L324.136 162.72
L324.12 164.16
L324.105 165.6
L324.091 167.04
L324.079 168.48
L324.067 169.92
L324.057 171.36
L324.048 172.8
L324.041 174.24
L324.034 175.68
L324.028 177.12
L324.023 178.56
L324.018 180
L324.015 181.44
L324.011 182.88
L324.009 184.32
L324.007 185.76
L324.005 187.2
L324.004 188.64
L324.003 190.08
L324.002 191.52
L324.001 192.96
L324.001 194.4
L324.001 195.84
L324 197.28
L324 198.72
L324 200.16
L324 201.6
L324 203.04
L324 204.48
L324 205.92
L324 207.36
L324 208.8
L324 210.24
L324 211.68
L324 213.12
L324 214.56
L324 216
L324 217.44
L324 218.88
L324 220.32
L324 221.76
L324 223.2
L324 224.64
L324 226.08
L324 227.52
L324 228.96
L324 230.4
L324 231.84
L324 233.28
L324 234.72
L324.001 236.16
L324.001 237.6
L324.001 239.04
L324.002 240.48
L324.003 241.92
L324.004 243.36
L324.005 244.8
L324.007 246.24
L324.009 247.68
L324.011 249.12
L324.015 250.56
L324.018 252
L324.023 253.44
L324.028 254.88
L324.034 256.32
L324.041 257.76
L324.048 259.2
L324.057 260.64
L324.067 262.08
L324.079 263.52
L324.091 264.96
L324.105 266.4
L324.12 267.84
L324.136 269.28
L324.153 270.72
L324.171 272.16
L324.19 273.6
L324.21 275.04
L324.23 276.48
L324.25 277.92
L324.269 279.36
L324.288 280.8
L324.306 282.24
L324.322 283.68
L324.336 285.12
L324.346 286.56
L324.352 288
L324.354 289.44
L324.349 290.88
L324.338 292.32
L324.319 293.76
L324.29 295.2
L324.251 296.64
L324.201 298.08
L324.137 299.52
L324.059 300.96
L324 301.857
L323.964 302.4
L323.851 303.84
L323.719 305.28
L323.567 306.72
L323.392 308.16
L323.194 309.6
L322.97 311.04
L322.719 312.48
L322.56 313.291
L322.438 313.92
L322.125 315.36
L321.779 316.8
L321.397 318.24
L321.12 319.187
L320.978 319.68
L320.518 321.12
L320.015 322.56
L319.68 323.434
L319.467 324
L318.869 325.44
L318.24 326.833
L318.219 326.88
L317.512 328.32
L316.8 329.653
L316.744 329.76
L315.909 331.2
L315.36 332.066
L315 332.64
L314.011 334.08
L313.92 334.201
L312.931 335.52
L312.48 336.069
L311.748 336.96
L311.04 337.745
L310.446 338.4
L309.6 339.25
L309.005 339.84
L308.16 340.603
L307.394 341.28
L306.72 341.824
L305.573 342.72
L305.28 342.929
L303.84 343.917
L303.468 344.16
L302.4 344.799
L300.966 345.6
L300.96 345.603
L299.52 346.295
L298.08 346.921
L297.776 347.04
L296.64 347.453
L295.2 347.911
L293.76 348.301
L292.957 348.48
L292.32 348.613
L290.88 348.849
L289.44 349.017
L288 349.116
L286.56 349.146
L285.12 349.107
L283.68 349
L282.24 348.823
z
" style="fill:#ff80cc;stroke:#000000;"/>
   </g>
   <g id="patch_5">
    <path clip-path="url(#p0a58b64fe7)" d="
M421.92 75.2315
L421.335 74.88
L420.48 74.2287
L419.759 73.44
L419.04 72.1857
L418.95 72
L418.584 70.56
L418.575 69.12
L418.918 67.68
L419.04 67.4347
L419.669 66.24
L420.48 65.3251
L421.075 64.8
L421.92 64.2637
L423.36 63.706
L424.8 63.5214
L426.24 63.685
L427.68 64.2285
L428.54 64.8
L429.12 65.2965
L429.902 66.24
L430.56 67.5417
L430.62 67.68
L430.905 69.12
L430.845 70.56
L430.56 71.6055
L430.432 72
L429.56 73.44
L429.12 73.9556
L427.947 74.88
L427.68 75.0631
L426.24 75.6495
L424.8 75.8592
L423.36 75.7295
z
" style="fill:#ff80cc;stroke:#000000;"/>
   </g>
   <g id="line2d_1">
    <path clip-path="url(#p0a58b64fe7)" d="
M151.2 216
L439.2 216" style="fill:none;stroke:#000000;stroke-dasharray:6.000000,6.000000;stroke-dashoffset:0.0;"/>
   </g>
   <g id="line2d_2">
    <path clip-path="url(#p0a58b64fe7)" d="
M324 388.8
L324 43.2" style="fill:none;stroke:#000000;stroke-dasharray:6.000000,6.000000;stroke-dashoffset:0.0;"/>
   </g>
   <g id="matplotlib.axis_1">
    <g id="xtick_1">
     <g id="line2d_3">
      <defs>
       <path d="
M0 0
L0 -4" id="m93b0483c22" style="stroke:#000000;stroke-width:0.5;"/>
      </defs>
      <g>
       <use style="stroke:#000000;stroke-width:0.5;" x="151.2" xlink:href="#m93b0483c22" y="388.8"/>
      </g>
     </g>
     <g id="line2d_4">
      <defs>
       <path d="
M0 0
L0 4" id="m741efc42ff" style="stroke:#000000;stroke-width:0.5;"/>
      </defs>
      <g>
       <use style="stroke:#000000;stroke-width:0.5;" x="151.2" xlink:href="#m741efc42ff" y="43.2"/>
      </g>
     </g>
     <g id="text_1">
      <!-- −3 -->
      <defs>
       <path d="
M40.5781 39.3125
Q47.6562 37.7969 51.625 33
Q55.6094 28.2188 55.6094 21.1875
Q55.6094 10.4062 48.1875 4.48438
Q40.7656 -1.42188 27.0938 -1.42188
Q22.5156 -1.42188 17.6562 -0.515625
Q12.7969 0.390625 7.625 2.20312
L7.625 11.7188
Q11.7188 9.32812 16.5938 8.10938
Q21.4844 6.89062 26.8125 6.89062
Q36.0781 6.89062 40.9375 10.5469
Q45.7969 14.2031 45.7969 21.1875
Q45.7969 27.6406 41.2812 31.2656
Q36.7656 34.9062 28.7188 34.9062
L20.2188 34.9062
L20.2188 43.0156
L29.1094 43.0156
Q36.375 43.0156 40.2344 45.9219
Q44.0938 48.8281 44.0938 54.2969
Q44.0938 59.9062 40.1094 62.9062
Q36.1406 65.9219 28.7188 65.9219
Q24.6562 65.9219 20.0156 65.0312
Q15.375 64.1562 9.8125 62.3125
L9.8125 71.0938
Q15.4375 72.6562 20.3438 73.4375
Q25.25 74.2188 29.5938 74.2188
Q40.8281 74.2188 47.3594 69.1094
Q53.9062 64.0156 53.9062 55.3281
Q53.9062 49.2656 50.4375 45.0938
Q46.9688 40.9219 40.5781 39.3125" id="DejaVuSans-33"/>
       <path d="
M10.5938 35.5
L73.1875 35.5
L73.1875 27.2031
L10.5938 27.2031
z
" id="DejaVuSans-2212"/>
      </defs>
      <g transform="translate(143.47125 401.918125)scale(0.12 -0.12)">
       <use xlink:href="#DejaVuSans-2212"/>
       <use x="83.7890625" xlink:href="#DejaVuSans-33"/>
      </g>
     </g>
    </g>
    <g id="xtick_2">
     <g id="line2d_5">
      <g>
       <use style="stroke:#000000;stroke-width:0.5;" x="208.8" xlink:href="#m93b0483c22" y="388.8"/>
      </g>
     </g>
     <g id="line2d_6">
      <g>
       <use style="stroke:#000000;stroke-width:0.5;" x="208.8" xlink:href="#m741efc42ff" y="43.2"/>
      </g>
     </g>
     <g id="text_2">
      <!-- −2 -->
      <defs>
       <path d="
M19.1875 8.29688
L53.6094 8.29688
L53.6094 0
L7.32812 0
L7.32812 8.29688
Q12.9375 14.1094 22.625 23.8906
Q32.3281 33.6875 34.8125 36.5312
Q39.5469 41.8438 41.4219 45.5312
Q43.3125 49.2188 43.3125 52.7812
Q43.3125 58.5938 39.2344 62.25
Q35.1562 65.9219 28.6094 65.9219
Q23.9688 65.9219 18.8125 64.3125
Q13.6719 62.7031 7.8125 59.4219
L7.8125 69.3906
Q13.7656 71.7812 18.9375 73
Q24.125 74.2188 28.4219 74.2188
Q39.75 74.2188 46.4844 68.5469
Q53.2188 62.8906 53.2188 53.4219
Q53.2188 48.9219 51.5312 44.8906
Q49.8594 40.875 45.4062 35.4062
Q44.1875 33.9844 37.6406 27.2188
Q31.1094 20.4531 19.1875 8.29688" id="DejaVuSans-32"/>
      </defs>
      <g transform="translate(201.19125 401.918125)scale(0.12 -0.12)">
       <use xlink:href="#DejaVuSans-2212"/>
       <use x="83.7890625" xlink:href="#DejaVuSans-32"/>
      </g>
     </g>
    </g>
    <g id="xtick_3">
     <g id="line2d_7">
      <g>
       <use style="stroke:#000000;stroke-width:0.5;" x="266.4" xlink:href="#m93b0483c22" y="388.8"/>
      </g>
     </g>
     <g id="line2d_8">
      <g>
       <use style="stroke:#000000;stroke-width:0.5;" x="266.4" xlink:href="#m741efc42ff" y="43.2"/>
      </g>
     </g>
     <g id="text_3">
      <!-- −1 -->
      <defs>
       <path d="
M12.4062 8.29688
L28.5156 8.29688
L28.5156 63.9219
L10.9844 60.4062
L10.9844 69.3906
L28.4219 72.9062
L38.2812 72.9062
L38.2812 8.29688
L54.3906 8.29688
L54.3906 0
L12.4062 0
z
" id="DejaVuSans-31"/>
      </defs>
      <g transform="translate(258.744375 401.918125)scale(0.12 -0.12)">
       <use xlink:href="#DejaVuSans-2212"/>
       <use x="83.7890625" xlink:href="#DejaVuSans-31"/>
      </g>
     </g>
    </g>
    <g id="xtick_4">
     <g id="line2d_9">
      <g>
       <use style="stroke:#000000;stroke-width:0.5;" x="324.0" xlink:href="#m93b0483c22" y="388.8"/>
      </g>
     </g>
     <g id="line2d_10">
      <g>
       <use style="stroke:#000000;stroke-width:0.5;" x="324.0" xlink:href="#m741efc42ff" y="43.2"/>
      </g>
     </g>
     <g id="text_4">
      <!-- 0 -->
      <defs>
       <path d="
M31.7812 66.4062
Q24.1719 66.4062 20.3281 58.9062
Q16.5 51.4219 16.5 36.375
Q16.5 21.3906 20.3281 13.8906
Q24.1719 6.39062 31.7812 6.39062
Q39.4531 6.39062 43.2812 13.8906
Q47.125 21.3906 47.125 36.375
Q47.125 51.4219 43.2812 58.9062
Q39.4531 66.4062 31.7812 66.4062
M31.7812 74.2188
Q44.0469 74.2188 50.5156 64.5156
Q56.9844 54.8281 56.9844 36.375
Q56.9844 17.9688 50.5156 8.26562
Q44.0469 -1.42188 31.7812 -1.42188
Q19.5312 -1.42188 13.0625 8.26562
Q6.59375 17.9688 6.59375 36.375
Q6.59375 54.8281 13.0625 64.5156
Q19.5312 74.2188 31.7812 74.2188" id="DejaVuSans-30"/>
      </defs>
      <g transform="translate(320.9765625 401.918125)scale(0.12 -0.12)">
       <use xlink:href="#DejaVuSans-30"/>
      </g>
     </g>
    </g>
    <g id="xtick_5">
     <g id="line2d_11">
      <g>
       <use style="stroke:#000000;stroke-width:0.5;" x="381.6" xlink:href="#m93b0483c22" y="388.8"/>
      </g>
     </g>
     <g id="line2d_12">
      <g>
       <use style="stroke:#000000;stroke-width:0.5;" x="381.6" xlink:href="#m741efc42ff" y="43.2"/>
      </g>
     </g>
     <g id="text_5">
      <!-- 1 -->
      <g transform="translate(378.995625 401.918125)scale(0.12 -0.12)">
       <use xlink:href="#DejaVuSans-31"/>
      </g>
     </g>
    </g>
    <g id="xtick_6">
     <g id="line2d_13">
      <g>
       <use style="stroke:#000000;stroke-width:0.5;" x="439.2" xlink:href="#m93b0483c22" y="388.8"/>
      </g>
     </g>
     <g id="line2d_14">
      <g>
       <use style="stroke:#000000;stroke-width:0.5;" x="439.2" xlink:href="#m741efc42ff" y="43.2"/>
      </g>
     </g>
     <g id="text_6">
      <!-- 2 -->
      <g transform="translate(436.423125 401.918125)scale(0.12 -0.12)">
       <use xlink:href="#DejaVuSans-32"/>
      </g>
     </g>
    </g>
   </g>
   <g id="matplotlib.axis_2">
    <g id="ytick_1">
     <g id="line2d_15">
      <defs>
       <path d="
M0 0
L4 0" id="m728421d6d4" style="stroke:#000000;stroke-width:0.5;"/>
      </defs>
      <g>
       <use style="stroke:#000000;stroke-width:0.5;" x="151.2" xlink:href="#m728421d6d4" y="388.8"/>
      </g>
     </g>
     <g id="line2d_16">
      <defs>
       <path d="
M0 0
L-4 0" id="mcb0005524f" style="stroke:#000000;stroke-width:0.5;"/>
      </defs>
      <g>
       <use style="stroke:#000000;stroke-width:0.5;" x="439.2" xlink:href="#mcb0005524f" y="388.8"/>
      </g>
     </g>
     <g id="text_7">
      <!-- −3 -->
      <g transform="translate(131.7425 392.11125)scale(0.12 -0.12)">
       <use xlink:href="#DejaVuSans-2212"/>
       <use x="83.7890625" xlink:href="#DejaVuSans-33"/>
      </g>
     </g>
    </g>
    <g id="ytick_2">
     <g id="line2d_17">
      <g>
       <use style="stroke:#000000;stroke-width:0.5;" x="151.2" xlink:href="#m728421d6d4" y="331.2"/>
      </g>
     </g>
     <g id="line2d_18">
      <g>
       <use style="stroke:#000000;stroke-width:0.5;" x="439.2" xlink:href="#mcb0005524f" y="331.2"/>
      </g>
     </g>
     <g id="text_8">
      <!-- −2 -->
      <g transform="translate(131.9825 334.51125)scale(0.12 -0.12)">
       <use xlink:href="#DejaVuSans-2212"/>
       <use x="83.7890625" xlink:href="#DejaVuSans-32"/>
      </g>
     </g>
    </g>
    <g id="ytick_3">
     <g id="line2d_19">
      <g>
       <use style="stroke:#000000;stroke-width:0.5;" x="151.2" xlink:href="#m728421d6d4" y="273.6"/>
      </g>
     </g>
     <g id="line2d_20">
      <g>
       <use style="stroke:#000000;stroke-width:0.5;" x="439.2" xlink:href="#mcb0005524f" y="273.6"/>
      </g>
     </g>
     <g id="text_9">
      <!-- −1 -->
      <g transform="translate(131.88875 276.91125)scale(0.12 -0.12)">
       <use xlink:href="#DejaVuSans-2212"/>
       <use x="83.7890625" xlink:href="#DejaVuSans-31"/>
      </g>
     </g>
    </g>
    <g id="ytick_4">
     <g id="line2d_21">
      <g>
       <use style="stroke:#000000;stroke-width:0.5;" x="151.2" xlink:href="#m728421d6d4" y="216.0"/>
      </g>
     </g>
     <g id="line2d_22">
      <g>
       <use style="stroke:#000000;stroke-width:0.5;" x="439.2" xlink:href="#mcb0005524f" y="216.0"/>
      </g>
     </g>
     <g id="text_10">
      <!-- 0 -->
      <g transform="translate(141.153125 219.31125)scale(0.12 -0.12)">
       <use xlink:href="#DejaVuSans-30"/>
      </g>
     </g>
    </g>
    <g id="ytick_5">
     <g id="line2d_23">
      <g>
       <use style="stroke:#000000;stroke-width:0.5;" x="151.2" xlink:href="#m728421d6d4" y="158.4"/>
      </g>
     </g>
     <g id="line2d_24">
      <g>
       <use style="stroke:#000000;stroke-width:0.5;" x="439.2" xlink:href="#mcb0005524f" y="158.4"/>
      </g>
     </g>
     <g id="text_11">
      <!-- 1 -->
      <g transform="translate(141.99125 161.71125)scale(0.12 -0.12)">
       <use xlink:href="#DejaVuSans-31"/>
      </g>
     </g>
    </g>
    <g id="ytick_6">
     <g id="line2d_25">
      <g>
       <use style="stroke:#000000;stroke-width:0.5;" x="151.2" xlink:href="#m728421d6d4" y="100.8"/>
      </g>
     </g>
     <g id="line2d_26">
      <g>
       <use style="stroke:#000000;stroke-width:0.5;" x="439.2" xlink:href="#mcb0005524f" y="100.8"/>
      </g>
     </g>
     <g id="text_12">
      <!-- 2 -->
      <g transform="translate(141.64625 104.11125)scale(0.12 -0.12)">
       <use xlink:href="#DejaVuSans-32"/>
      </g>
     </g>
    </g>
    <g id="ytick_7">
     <g id="line2d_27">
      <g>
       <use style="stroke:#000000;stroke-width:0.5;" x="151.2" xlink:href="#m728421d6d4" y="43.2"/>
      </g>
     </g>
     <g id="line2d_28">
      <g>
       <use style="stroke:#000000;stroke-width:0.5;" x="439.2" xlink:href="#mcb0005524f" y="43.2"/>
      </g>
     </g>
     <g id="text_13">
      <!-- 3 -->
      <g transform="translate(141.441875 46.51125)scale(0.12 -0.12)">
       <use xlink:href="#DejaVuSans-33"/>
      </g>
     </g>
    </g>
   </g>
   <g id="patch_6">
    <path d="
M151.2 43.2
L439.2 43.2" style="fill:none;stroke:#000000;"/>
   </g>
   <g id="patch_7">
    <path d="
M439.2 388.8
L439.2 43.2" style="fill:none;stroke:#000000;"/>
   </g>
   <g id="patch_8">
    <path d="
M151.2 388.8
L439.2 388.8" style="fill:none;stroke:#000000;"/>
   </g>
   <g id="patch_9">
    <path d="
M151.2 388.8
L151.2 43.2" style="fill:none;stroke:#000000;"/>
   </g>
  </g>
 </g>
 <defs>
  <clipPath id="p0a58b64fe7">
   <rect height="345.6" width="288.0" x="151.2" y="43.2"/>
  </clipPath>
 </defs>
</svg>
