<?xml version="1.0" encoding="utf-8" standalone="no"?>
<!DOCTYPE svg PUBLIC "-//W3C//DTD SVG 1.1//EN"
  "http://www.w3.org/Graphics/SVG/1.1/DTD/svg11.dtd">
<!-- Created with matplotlib (http://matplotlib.org/) -->
<svg height="432pt" version="1.1" viewBox="0 0 576 432" width="576pt" xmlns="http://www.w3.org/2000/svg" xmlns:xlink="http://www.w3.org/1999/xlink">
 <defs>
  <style type="text/css">
*{stroke-linecap:butt;stroke-linejoin:round;}
  </style>
 </defs>
 <g id="figure_1">
  <g id="patch_1">
   <path d="
M0 432
L576 432
L576 0
L0 0
z
" style="fill:none;"/>
  </g>
  <g id="axes_1">
   <g id="patch_2">
    <path d="
M151.2 388.8
L439.2 388.8
L439.2 43.2
L151.2 43.2
z
" style="fill:none;"/>
   </g>
   <g id="patch_3">
    <path clip-path="url(#p0a58b64fe7)" d="
M299.52 384.727
L298.144 384.48
L298.08 384.468
L296.64 384.14
L295.2 383.755
L293.76 383.314
L292.957 383.04
L292.32 382.809
L290.88 382.238
L289.44 381.618
L289.401 381.6
L288 380.917
L286.56 380.171
L286.539 380.16
L285.12 379.342
L284.082 378.72
L283.68 378.462
L282.24 377.513
L281.893 377.28
L280.8 376.494
L279.902 375.84
L279.36 375.418
L278.06 374.4
L277.92 374.283
L276.48 373.079
L276.336 372.96
L275.04 371.813
L274.705 371.52
L273.6 370.495
L273.146 370.08
L272.16 369.127
L271.646 368.64
L270.72 367.717
L270.189 367.2
L269.28 366.271
L268.766 365.76
L267.84 364.8
L267.364 364.32
L266.4 363.312
L265.973 362.88
L264.96 361.819
L264.586 361.44
L263.52 360.331
L263.191 360
L262.08 358.858
L261.78 358.56
L260.64 357.409
L260.343 357.12
L259.2 355.992
L258.871 355.68
L257.76 354.614
L257.355 354.24
L256.32 353.278
L255.784 352.8
L254.88 351.989
L254.149 351.36
L253.44 350.748
L252.441 349.92
L252 349.555
L250.649 348.48
L250.56 348.409
L249.12 347.302
L248.767 347.04
L247.68 346.236
L246.787 345.6
L246.24 345.212
L244.8 344.225
L244.703 344.16
L243.36 343.264
L242.518 342.72
L241.92 342.336
L240.48 341.435
L240.228 341.28
L239.04 340.553
L237.844 339.84
L237.6 339.695
L236.16 338.85
L235.381 338.4
L234.72 338.021
L233.28 337.204
L232.848 336.96
L231.84 336.394
L230.4 335.594
L230.268 335.52
L228.96 334.792
L227.668 334.08
L227.52 333.999
L226.08 333.199
L225.071 332.64
L224.64 332.402
L223.2 331.597
L222.494 331.2
L221.76 330.788
L220.32 329.97
L219.955 329.76
L218.88 329.141
L217.468 328.32
L217.44 328.304
L216 327.447
L215.061 326.88
L214.56 326.578
L213.12 325.69
L212.723 325.44
L211.68 324.782
L210.464 324
L210.24 323.855
L208.8 322.902
L208.295 322.56
L207.36 321.924
L206.206 321.12
L205.92 320.92
L204.48 319.885
L204.203 319.68
L203.04 318.815
L202.286 318.24
L201.6 317.713
L200.443 316.8
L200.16 316.575
L198.72 315.396
L198.678 315.36
L197.28 314.17
L196.994 313.92
L195.84 312.898
L195.38 312.48
L194.4 311.576
L193.834 311.04
L192.96 310.2
L192.353 309.6
L191.52 308.764
L190.935 308.16
L190.08 307.264
L189.576 306.72
L188.64 305.693
L188.274 305.28
L187.2 304.046
L187.025 303.84
L185.83 302.4
L185.76 302.314
L184.689 300.96
L184.32 300.483
L183.595 299.52
L182.88 298.549
L182.543 298.08
L181.535 296.64
L181.44 296.501
L180.575 295.2
L180 294.312
L179.651 293.76
L178.766 292.32
L178.56 291.974
L177.923 290.88
L177.12 289.46
L177.109 289.44
L176.339 288
L175.68 286.728
L175.595 286.56
L174.89 285.12
L174.24 283.747
L174.209 283.68
L173.567 282.24
L172.947 280.8
L172.8 280.444
L172.361 279.36
L171.8 277.92
L171.36 276.747
L171.262 276.48
L170.757 275.04
L170.271 273.6
L169.92 272.512
L169.809 272.16
L169.375 270.72
L168.96 269.28
L168.564 267.84
L168.48 267.52
L168.194 266.4
L167.844 264.96
L167.511 263.52
L167.195 262.08
L167.04 261.333
L166.899 260.64
L166.624 259.2
L166.364 257.76
L166.119 256.32
L165.888 254.88
L165.671 253.44
L165.6 252.932
L165.472 252
L165.288 250.56
L165.116 249.12
L164.955 247.68
L164.807 246.24
L164.669 244.8
L164.541 243.36
L164.424 241.92
L164.316 240.48
L164.217 239.04
L164.16 238.128
L164.128 237.6
L164.048 236.16
L163.976 234.72
L163.912 233.28
L163.853 231.84
L163.802 230.4
L163.756 228.96
L163.716 227.52
L163.681 226.08
L163.652 224.64
L163.627 223.2
L163.608 221.76
L163.592 220.32
L163.582 218.88
L163.575 217.44
L163.573 216
L163.575 214.56
L163.582 213.12
L163.592 211.68
L163.608 210.24
L163.627 208.8
L163.652 207.36
L163.681 205.92
L163.716 204.48
L163.756 203.04
L163.802 201.6
L163.853 200.16
L163.912 198.72
L163.976 197.28
L164.048 195.84
L164.128 194.4
L164.16 193.872
L164.217 192.96
L164.316 191.52
L164.424 190.08
L164.541 188.64
L164.669 187.2
L164.807 185.76
L164.955 184.32
L165.116 182.88
L165.288 181.44
L165.472 180
L165.6 179.068
L165.671 178.56
L165.888 177.12
L166.119 175.68
L166.364 174.24
L166.624 172.8
L166.899 171.36
L167.04 170.667
L167.195 169.92
L167.511 168.48
L167.844 167.04
L168.194 165.6
L168.48 164.48
L168.564 164.16
L168.96 162.72
L169.375 161.28
L169.809 159.84
L169.92 159.488
L170.271 158.4
L170.757 156.96
L171.262 155.52
L171.36 155.253
L171.8 154.08
L172.361 152.64
L172.8 151.556
L172.947 151.2
L173.567 149.76
L174.209 148.32
L174.24 148.253
L174.89 146.88
L175.595 145.44
L175.68 145.272
L176.339 144
L177.109 142.56
L177.12 142.54
L177.923 141.12
L178.56 140.026
L178.766 139.68
L179.651 138.24
L180 137.688
L180.575 136.8
L181.44 135.499
L181.535 135.36
L182.543 133.92
L182.88 133.451
L183.595 132.48
L184.32 131.517
L184.689 131.04
L185.76 129.686
L185.83 129.6
L187.025 128.16
L187.2 127.954
L188.274 126.72
L188.64 126.307
L189.576 125.28
L190.08 124.736
L190.935 123.84
L191.52 123.236
L192.353 122.4
L192.96 121.8
L193.834 120.96
L194.4 120.424
L195.38 119.52
L195.84 119.102
L196.994 118.08
L197.28 117.83
L198.678 116.64
L198.72 116.604
L200.16 115.425
L200.443 115.2
L201.6 114.287
L202.286 113.76
L203.04 113.185
L204.203 112.32
L204.48 112.115
L205.92 111.08
L206.206 110.88
L207.36 110.076
L208.295 109.44
L208.8 109.098
L210.24 108.145
L210.464 108
L211.68 107.218
L212.723 106.56
L213.12 106.31
L214.56 105.422
L215.061 105.12
L216 104.553
L217.44 103.696
L217.468 103.68
L218.88 102.859
L219.955 102.24
L220.32 102.03
L221.76 101.212
L222.494 100.8
L223.2 100.403
L224.64 99.5983
L225.071 99.36
L226.08 98.8006
L227.52 98.0013
L227.668 97.92
L228.96 97.2075
L230.268 96.48
L230.4 96.4063
L231.84 95.6065
L232.848 95.04
L233.28 94.7961
L234.72 93.979
L235.381 93.6
L236.16 93.1501
L237.6 92.3047
L237.844 92.16
L239.04 91.4472
L240.228 90.72
L240.48 90.5647
L241.92 89.6638
L242.518 89.28
L243.36 88.7361
L244.703 87.84
L244.8 87.7749
L246.24 86.7882
L246.787 86.4
L247.68 85.7642
L248.767 84.96
L249.12 84.6984
L250.56 83.5908
L250.649 83.52
L252 82.4454
L252.441 82.08
L253.44 81.2523
L254.149 80.64
L254.88 80.0109
L255.784 79.2
L256.32 78.7217
L257.355 77.76
L257.76 77.3863
L258.871 76.32
L259.2 76.0079
L260.343 74.88
L260.64 74.5912
L261.78 73.44
L262.08 73.1425
L263.191 72
L263.52 71.6694
L264.586 70.56
L264.96 70.1813
L265.973 69.12
L266.4 68.688
L267.364 67.68
L267.84 67.2003
L268.766 66.24
L269.28 65.7287
L270.189 64.8
L270.72 64.2832
L271.646 63.36
L272.16 62.873
L273.146 61.92
L273.6 61.5054
L274.705 60.48
L275.04 60.1866
L276.336 59.04
L276.48 58.9205
L277.92 57.7175
L278.06 57.6
L279.36 56.5822
L279.902 56.16
L280.8 55.5058
L281.893 54.72
L282.24 54.4868
L283.68 53.5382
L284.082 53.28
L285.12 52.6581
L286.539 51.84
L286.56 51.8289
L288 51.0829
L289.401 50.4
L289.44 50.3821
L290.88 49.7615
L292.32 49.1908
L292.957 48.96
L293.76 48.6863
L295.2 48.2452
L296.64 47.8598
L298.08 47.5321
L298.144 47.52
L299.52 47.2731
L300.96 47.0726
L302.4 46.9312
L303.84 46.8501
L305.28 46.8303
L306.72 46.8727
L308.16 46.9783
L309.6 47.1479
L311.04 47.3827
L311.696 47.52
L312.48 47.6889
L313.92 48.0693
L315.36 48.5207
L316.569 48.96
L316.8 49.0471
L318.24 49.6659
L319.68 50.3622
L319.751 50.4
L321.12 51.1677
L322.21 51.84
L322.56 52.0678
L324 53.0869
L324.254 53.28
L325.44 54.2415
L325.993 54.72
L326.88 55.5424
L327.51 56.16
L328.32 57.017
L328.846 57.6
L329.76 58.6991
L330.033 59.04
L331.09 60.48
L331.2 60.6434
L332.031 61.92
L332.64 62.9495
L332.877 63.36
L333.63 64.8
L334.08 65.7548
L334.305 66.24
L334.901 67.68
L335.432 69.12
L335.52 69.3926
L335.893 70.56
L336.295 72
L336.641 73.44
L336.935 74.88
L336.96 75.0335
L337.172 76.32
L337.361 77.76
L337.503 79.2
L337.601 80.64
L337.656 82.08
L337.67 83.52
L337.645 84.96
L337.582 86.4
L337.483 87.84
L337.35 89.28
L337.185 90.72
L336.99 92.16
L336.96 92.3572
L336.76 93.6
L336.503 95.04
L336.221 96.48
L335.918 97.92
L335.595 99.36
L335.52 99.6858
L335.246 100.8
L334.878 102.24
L334.499 103.68
L334.111 105.12
L334.08 105.235
L333.701 106.56
L333.285 108
L332.868 109.44
L332.64 110.237
L332.445 110.88
L332.014 112.32
L331.59 113.76
L331.2 115.112
L331.173 115.2
L330.749 116.64
L330.337 118.08
L329.938 119.52
L329.76 120.192
L329.546 120.96
L329.161 122.4
L328.795 123.84
L328.446 125.28
L328.32 125.827
L328.106 126.72
L327.78 128.16
L327.473 129.6
L327.185 131.04
L326.916 132.48
L326.88 132.684
L326.656 133.92
L326.412 135.36
L326.187 136.8
L325.978 138.24
L325.786 139.68
L325.608 141.12
L325.446 142.56
L325.44 142.613
L325.292 144
L325.151 145.44
L325.023 146.88
L324.906 148.32
L324.801 149.76
L324.705 151.2
L324.619 152.64
L324.542 154.08
L324.473 155.52
L324.411 156.96
L324.356 158.4
L324.307 159.84
L324.264 161.28
L324.226 162.72
L324.193 164.16
L324.163 165.6
L324.138 167.04
L324.116 168.48
L324.097 169.92
L324.08 171.36
L324.066 172.8
L324.054 174.24
L324.044 175.68
L324.035 177.12
L324.028 178.56
L324.023 180
L324.018 181.44
L324.014 182.88
L324.011 184.32
L324.008 185.76
L324.006 187.2
L324.004 188.64
L324.003 190.08
L324.002 191.52
L324.002 192.96
L324.001 194.4
L324.001 195.84
L324 197.28
L324 198.72
L324 200.16
L324 201.6
L324 203.04
L324 204.48
L324 205.92
L324 207.36
L324 208.8
L324 210.24
L324 211.68
L324 213.12
L324 214.56
L324 216
L324 217.44
L324 218.88
L324 220.32
L324 221.76
L324 223.2
L324 224.64
L324 226.08
L324 227.52
L324 228.96
L324 230.4
L324 231.84
L324 233.28
L324 234.72
L324.001 236.16
L324.001 237.6
L324.002 239.04
L324.002 240.48
L324.003 241.92
L324.004 243.36
L324.006 244.8
L324.008 246.24
L324.011 247.68
L324.014 249.12
L324.018 250.56
L324.023 252
L324.028 253.44
L324.035 254.88
L324.044 256.32
L324.054 257.76
L324.066 259.2
L324.08 260.64
L324.097 262.08
L324.116 263.52
L324.138 264.96
L324.163 266.4
L324.193 267.84
L324.226 269.28
L324.264 270.72
L324.307 272.16
L324.356 273.6
L324.411 275.04
L324.473 276.48
L324.542 277.92
L324.619 279.36
L324.705 280.8
L324.801 282.24
L324.906 283.68
L325.023 285.12
L325.151 286.56
L325.292 288
L325.44 289.387
L325.446 289.44
L325.608 290.88
L325.786 292.32
L325.978 293.76
L326.187 295.2
L326.412 296.64
L326.656 298.08
L326.88 299.316
L326.916 299.52
L327.185 300.96
L327.473 302.4
L327.78 303.84
L328.106 305.28
L328.32 306.173
L328.446 306.72
L328.795 308.16
L329.161 309.6
L329.546 311.04
L329.76 311.808
L329.938 312.48
L330.337 313.92
L330.749 315.36
L331.173 316.8
L331.2 316.888
L331.59 318.24
L332.014 319.68
L332.445 321.12
L332.64 321.763
L332.868 322.56
L333.285 324
L333.701 325.44
L334.08 326.765
L334.111 326.88
L334.499 328.32
L334.878 329.76
L335.246 331.2
L335.52 332.314
L335.595 332.64
L335.918 334.08
L336.221 335.52
L336.503 336.96
L336.76 338.4
L336.96 339.643
L336.99 339.84
L337.185 341.28
L337.35 342.72
L337.483 344.16
L337.582 345.6
L337.645 347.04
L337.67 348.48
L337.656 349.92
L337.601 351.36
L337.503 352.8
L337.361 354.24
L337.172 355.68
L336.96 356.967
L336.935 357.12
L336.641 358.56
L336.295 360
L335.893 361.44
L335.52 362.607
L335.432 362.88
L334.901 364.32
L334.305 365.76
L334.08 366.245
L333.63 367.2
L332.877 368.64
L332.64 369.051
L332.031 370.08
L331.2 371.357
L331.09 371.52
L330.033 372.96
L329.76 373.301
L328.846 374.4
L328.32 374.983
L327.51 375.84
L326.88 376.458
L325.993 377.28
L325.44 377.759
L324.254 378.72
L324 378.913
L322.56 379.932
L322.21 380.16
L321.12 380.832
L319.751 381.6
L319.68 381.638
L318.24 382.334
L316.8 382.953
L316.569 383.04
L315.36 383.479
L313.92 383.931
L312.48 384.311
L311.696 384.48
L311.04 384.617
L309.6 384.852
L308.16 385.022
L306.72 385.127
L305.28 385.17
L303.84 385.15
L302.4 385.069
L300.96 384.927
z
" style="fill:#ff80cc;stroke:#000000;"/>
   </g>
   <g id="line2d_1">
    <path clip-path="url(#p0a58b64fe7)" d="
M151.2 216
L439.2 216" style="fill:none;stroke:#000000;stroke-dasharray:6.000000,6.000000;stroke-dashoffset:0.0;"/>
   </g>
   <g id="line2d_2">
    <path clip-path="url(#p0a58b64fe7)" d="
M324 388.8
L324 43.2" style="fill:none;stroke:#000000;stroke-dasharray:6.000000,6.000000;stroke-dashoffset:0.0;"/>
   </g>
   <g id="matplotlib.axis_1">
    <g id="xtick_1">
     <g id="line2d_3">
      <defs>
       <path d="
M0 0
L0 -4" id="m93b0483c22" style="stroke:#000000;stroke-width:0.5;"/>
      </defs>
      <g>
       <use style="stroke:#000000;stroke-width:0.5;" x="151.2" xlink:href="#m93b0483c22" y="388.8"/>
      </g>
     </g>
     <g id="line2d_4">
      <defs>
       <path d="
M0 0
L0 4" id="m741efc42ff" style="stroke:#000000;stroke-width:0.5;"/>
      </defs>
      <g>
       <use style="stroke:#000000;stroke-width:0.5;" x="151.2" xlink:href="#m741efc42ff" y="43.2"/>
      </g>
     </g>
     <g id="text_1">
      <!-- −3 -->
      <defs>
       <path d="
M40.5781 39.3125
Q47.6562 37.7969 51.625 33
Q55.6094 28.2188 55.6094 21.1875
Q55.6094 10.4062 48.1875 4.48438
Q40.7656 -1.42188 27.0938 -1.42188
Q22.5156 -1.42188 17.6562 -0.515625
Q12.7969 0.390625 7.625 2.20312
L7.625 11.7188
Q11.7188 9.32812 16.5938 8.10938
Q21.4844 6.89062 26.8125 6.89062
Q36.0781 6.89062 40.9375 10.5469
Q45.7969 14.2031 45.7969 21.1875
Q45.7969 27.6406 41.2812 31.2656
Q36.7656 34.9062 28.7188 34.9062
L20.2188 34.9062
L20.2188 43.0156
L29.1094 43.0156
Q36.375 43.0156 40.2344 45.9219
Q44.0938 48.8281 44.0938 54.2969
Q44.0938 59.9062 40.1094 62.9062
Q36.1406 65.9219 28.7188 65.9219
Q24.6562 65.9219 20.0156 65.0312
Q15.375 64.1562 9.8125 62.3125
L9.8125 71.0938
Q15.4375 72.6562 20.3438 73.4375
Q25.25 74.2188 29.5938 74.2188
Q40.8281 74.2188 47.3594 69.1094
Q53.9062 64.0156 53.9062 55.3281
Q53.9062 49.2656 50.4375 45.0938
Q46.9688 40.9219 40.5781 39.3125" id="DejaVuSans-33"/>
       <path d="
M10.5938 35.5
L73.1875 35.5
L73.1875 27.2031
L10.5938 27.2031
z
" id="DejaVuSans-2212"/>
      </defs>
      <g transform="translate(143.47125 401.918125)scale(0.12 -0.12)">
       <use xlink:href="#DejaVuSans-2212"/>
       <use x="83.7890625" xlink:href="#DejaVuSans-33"/>
      </g>
     </g>
    </g>
    <g id="xtick_2">
     <g id="line2d_5">
      <g>
       <use style="stroke:#000000;stroke-width:0.5;" x="208.8" xlink:href="#m93b0483c22" y="388.8"/>
      </g>
     </g>
     <g id="line2d_6">
      <g>
       <use style="stroke:#000000;stroke-width:0.5;" x="208.8" xlink:href="#m741efc42ff" y="43.2"/>
      </g>
     </g>
     <g id="text_2">
      <!-- −2 -->
      <defs>
       <path d="
M19.1875 8.29688
L53.6094 8.29688
L53.6094 0
L7.32812 0
L7.32812 8.29688
Q12.9375 14.1094 22.625 23.8906
Q32.3281 33.6875 34.8125 36.5312
Q39.5469 41.8438 41.4219 45.5312
Q43.3125 49.2188 43.3125 52.7812
Q43.3125 58.5938 39.2344 62.25
Q35.1562 65.9219 28.6094 65.9219
Q23.9688 65.9219 18.8125 64.3125
Q13.6719 62.7031 7.8125 59.4219
L7.8125 69.3906
Q13.7656 71.7812 18.9375 73
Q24.125 74.2188 28.4219 74.2188
Q39.75 74.2188 46.4844 68.5469
Q53.2188 62.8906 53.2188 53.4219
Q53.2188 48.9219 51.5312 44.8906
Q49.8594 40.875 45.4062 35.4062
Q44.1875 33.9844 37.6406 27.2188
Q31.1094 20.4531 19.1875 8.29688" id="DejaVuSans-32"/>
      </defs>
      <g transform="translate(201.19125 401.918125)scale(0.12 -0.12)">
       <use xlink:href="#DejaVuSans-2212"/>
       <use x="83.7890625" xlink:href="#DejaVuSans-32"/>
      </g>
     </g>
    </g>
    <g id="xtick_3">
     <g id="line2d_7">
      <g>
       <use style="stroke:#000000;stroke-width:0.5;" x="266.4" xlink:href="#m93b0483c22" y="388.8"/>
      </g>
     </g>
     <g id="line2d_8">
      <g>
       <use style="stroke:#000000;stroke-width:0.5;" x="266.4" xlink:href="#m741efc42ff" y="43.2"/>
      </g>
     </g>
     <g id="text_3">
      <!-- −1 -->
      <defs>
       <path d="
M12.4062 8.29688
L28.5156 8.29688
L28.5156 63.9219
L10.9844 60.4062
L10.9844 69.3906
L28.4219 72.9062
L38.2812 72.9062
L38.2812 8.29688
L54.3906 8.29688
L54.3906 0
L12.4062 0
z
" id="DejaVuSans-31"/>
      </defs>
      <g transform="translate(258.744375 401.918125)scale(0.12 -0.12)">
       <use xlink:href="#DejaVuSans-2212"/>
       <use x="83.7890625" xlink:href="#DejaVuSans-31"/>
      </g>
     </g>
    </g>
    <g id="xtick_4">
     <g id="line2d_9">
      <g>
       <use style="stroke:#000000;stroke-width:0.5;" x="324.0" xlink:href="#m93b0483c22" y="388.8"/>
      </g>
     </g>
     <g id="line2d_10">
      <g>
       <use style="stroke:#000000;stroke-width:0.5;" x="324.0" xlink:href="#m741efc42ff" y="43.2"/>
      </g>
     </g>
     <g id="text_4">
      <!-- 0 -->
      <defs>
       <path d="
M31.7812 66.4062
Q24.1719 66.4062 20.3281 58.9062
Q16.5 51.4219 16.5 36.375
Q16.5 21.3906 20.3281 13.8906
Q24.1719 6.39062 31.7812 6.39062
Q39.4531 6.39062 43.2812 13.8906
Q47.125 21.3906 47.125 36.375
Q47.125 51.4219 43.2812 58.9062
Q39.4531 66.4062 31.7812 66.4062
M31.7812 74.2188
Q44.0469 74.2188 50.5156 64.5156
Q56.9844 54.8281 56.9844 36.375
Q56.9844 17.9688 50.5156 8.26562
Q44.0469 -1.42188 31.7812 -1.42188
Q19.5312 -1.42188 13.0625 8.26562
Q6.59375 17.9688 6.59375 36.375
Q6.59375 54.8281 13.0625 64.5156
Q19.5312 74.2188 31.7812 74.2188" id="DejaVuSans-30"/>
      </defs>
      <g transform="translate(320.9765625 401.918125)scale(0.12 -0.12)">
       <use xlink:href="#DejaVuSans-30"/>
      </g>
     </g>
    </g>
    <g id="xtick_5">
     <g id="line2d_11">
      <g>
       <use style="stroke:#000000;stroke-width:0.5;" x="381.6" xlink:href="#m93b0483c22" y="388.8"/>
      </g>
     </g>
     <g id="line2d_12">
      <g>
       <use style="stroke:#000000;stroke-width:0.5;" x="381.6" xlink:href="#m741efc42ff" y="43.2"/>
      </g>
     </g>
     <g id="text_5">
      <!-- 1 -->
      <g transform="translate(378.995625 401.918125)scale(0.12 -0.12)">
       <use xlink:href="#DejaVuSans-31"/>
      </g>
     </g>
    </g>
    <g id="xtick_6">
     <g id="line2d_13">
      <g>
       <use style="stroke:#000000;stroke-width:0.5;" x="439.2" xlink:href="#m93b0483c22" y="388.8"/>
      </g>
     </g>
     <g id="line2d_14">
      <g>
       <use style="stroke:#000000;stroke-width:0.5;" x="439.2" xlink:href="#m741efc42ff" y="43.2"/>
      </g>
     </g>
     <g id="text_6">
      <!-- 2 -->
      <g transform="translate(436.423125 401.918125)scale(0.12 -0.12)">
       <use xlink:href="#DejaVuSans-32"/>
      </g>
     </g>
    </g>
   </g>
   <g id="matplotlib.axis_2">
    <g id="ytick_1">
     <g id="line2d_15">
      <defs>
       <path d="
M0 0
L4 0" id="m728421d6d4" style="stroke:#000000;stroke-width:0.5;"/>
      </defs>
      <g>
       <use style="stroke:#000000;stroke-width:0.5;" x="151.2" xlink:href="#m728421d6d4" y="388.8"/>
      </g>
     </g>
     <g id="line2d_16">
      <defs>
       <path d="
M0 0
L-4 0" id="mcb0005524f" style="stroke:#000000;stroke-width:0.5;"/>
      </defs>
      <g>
       <use style="stroke:#000000;stroke-width:0.5;" x="439.2" xlink:href="#mcb0005524f" y="388.8"/>
      </g>
     </g>
     <g id="text_7">
      <!-- −3 -->
      <g transform="translate(131.7425 392.11125)scale(0.12 -0.12)">
       <use xlink:href="#DejaVuSans-2212"/>
       <use x="83.7890625" xlink:href="#DejaVuSans-33"/>
      </g>
     </g>
    </g>
    <g id="ytick_2">
     <g id="line2d_17">
      <g>
       <use style="stroke:#000000;stroke-width:0.5;" x="151.2" xlink:href="#m728421d6d4" y="331.2"/>
      </g>
     </g>
     <g id="line2d_18">
      <g>
       <use style="stroke:#000000;stroke-width:0.5;" x="439.2" xlink:href="#mcb0005524f" y="331.2"/>
      </g>
     </g>
     <g id="text_8">
      <!-- −2 -->
      <g transform="translate(131.9825 334.51125)scale(0.12 -0.12)">
       <use xlink:href="#DejaVuSans-2212"/>
       <use x="83.7890625" xlink:href="#DejaVuSans-32"/>
      </g>
     </g>
    </g>
    <g id="ytick_3">
     <g id="line2d_19">
      <g>
       <use style="stroke:#000000;stroke-width:0.5;" x="151.2" xlink:href="#m728421d6d4" y="273.6"/>
      </g>
     </g>
     <g id="line2d_20">
      <g>
       <use style="stroke:#000000;stroke-width:0.5;" x="439.2" xlink:href="#mcb0005524f" y="273.6"/>
      </g>
     </g>
     <g id="text_9">
      <!-- −1 -->
      <g transform="translate(131.88875 276.91125)scale(0.12 -0.12)">
       <use xlink:href="#DejaVuSans-2212"/>
       <use x="83.7890625" xlink:href="#DejaVuSans-31"/>
      </g>
     </g>
    </g>
    <g id="ytick_4">
     <g id="line2d_21">
      <g>
       <use style="stroke:#000000;stroke-width:0.5;" x="151.2" xlink:href="#m728421d6d4" y="216.0"/>
      </g>
     </g>
     <g id="line2d_22">
      <g>
       <use style="stroke:#000000;stroke-width:0.5;" x="439.2" xlink:href="#mcb0005524f" y="216.0"/>
      </g>
     </g>
     <g id="text_10">
      <!-- 0 -->
      <g transform="translate(141.153125 219.31125)scale(0.12 -0.12)">
       <use xlink:href="#DejaVuSans-30"/>
      </g>
     </g>
    </g>
    <g id="ytick_5">
     <g id="line2d_23">
      <g>
       <use style="stroke:#000000;stroke-width:0.5;" x="151.2" xlink:href="#m728421d6d4" y="158.4"/>
      </g>
     </g>
     <g id="line2d_24">
      <g>
       <use style="stroke:#000000;stroke-width:0.5;" x="439.2" xlink:href="#mcb0005524f" y="158.4"/>
      </g>
     </g>
     <g id="text_11">
      <!-- 1 -->
      <g transform="translate(141.99125 161.71125)scale(0.12 -0.12)">
       <use xlink:href="#DejaVuSans-31"/>
      </g>
     </g>
    </g>
    <g id="ytick_6">
     <g id="line2d_25">
      <g>
       <use style="stroke:#000000;stroke-width:0.5;" x="151.2" xlink:href="#m728421d6d4" y="100.8"/>
      </g>
     </g>
     <g id="line2d_26">
      <g>
       <use style="stroke:#000000;stroke-width:0.5;" x="439.2" xlink:href="#mcb0005524f" y="100.8"/>
      </g>
     </g>
     <g id="text_12">
      <!-- 2 -->
      <g transform="translate(141.64625 104.11125)scale(0.12 -0.12)">
       <use xlink:href="#DejaVuSans-32"/>
      </g>
     </g>
    </g>
    <g id="ytick_7">
     <g id="line2d_27">
      <g>
       <use style="stroke:#000000;stroke-width:0.5;" x="151.2" xlink:href="#m728421d6d4" y="43.2"/>
      </g>
     </g>
     <g id="line2d_28">
      <g>
       <use style="stroke:#000000;stroke-width:0.5;" x="439.2" xlink:href="#mcb0005524f" y="43.2"/>
      </g>
     </g>
     <g id="text_13">
      <!-- 3 -->
      <g transform="translate(141.441875 46.51125)scale(0.12 -0.12)">
       <use xlink:href="#DejaVuSans-33"/>
      </g>
     </g>
    </g>
   </g>
   <g id="patch_4">
    <path d="
M151.2 43.2
L439.2 43.2" style="fill:none;stroke:#000000;"/>
   </g>
   <g id="patch_5">
    <path d="
M439.2 388.8
L439.2 43.2" style="fill:none;stroke:#000000;"/>
   </g>
   <g id="patch_6">
    <path d="
M151.2 388.8
L439.2 388.8" style="fill:none;stroke:#000000;"/>
   </g>
   <g id="patch_7">
    <path d="
M151.2 388.8
L151.2 43.2" style="fill:none;stroke:#000000;"/>
   </g>
  </g>
 </g>
 <defs>
  <clipPath id="p0a58b64fe7">
   <rect height="345.6" width="288.0" x="151.2" y="43.2"/>
  </clipPath>
 </defs>
</svg>
