<?xml version="1.0" encoding="UTF-8" standalone="no"?>
<!-- Created with Inkscape (http://www.inkscape.org/) -->

<svg
   xmlns:dc="http://purl.org/dc/elements/1.1/"
   xmlns:cc="http://creativecommons.org/ns#"
   xmlns:rdf="http://www.w3.org/1999/02/22-rdf-syntax-ns#"
   xmlns:svg="http://www.w3.org/2000/svg"
   xmlns="http://www.w3.org/2000/svg"
   xmlns:xlink="http://www.w3.org/1999/xlink"
   xmlns:sodipodi="http://sodipodi.sourceforge.net/DTD/sodipodi-0.dtd"
   xmlns:inkscape="http://www.inkscape.org/namespaces/inkscape"
   sodipodi:docname="ShipFrame.svg"
   inkscape:version="0.48.2 r9819"
   version="1.1"
   id="svg2"
   height="267.08832"
   width="485.70502"
   inkscape:export-filename="D:\GJ\GIT\SimulateurIrtJv\md\ShipFrame.png"
   inkscape:export-xdpi="600"
   inkscape:export-ydpi="600">
  <sodipodi:namedview
     id="base"
     pagecolor="#ffffff"
     bordercolor="#666666"
     borderopacity="1.0"
     inkscape:pageopacity="0.0"
     inkscape:pageshadow="2"
     inkscape:zoom="1.4"
     inkscape:cx="180.24618"
     inkscape:cy="124.41605"
     inkscape:document-units="px"
     inkscape:current-layer="svg2"
     showgrid="false"
     inkscape:window-width="1920"
     inkscape:window-height="1018"
     inkscape:window-x="-8"
     inkscape:window-y="-8"
     inkscape:window-maximized="1"
     units="mm"
     fit-margin-top="3"
     fit-margin-left="3"
     fit-margin-right="3"
     fit-margin-bottom="3" />
  <defs
     id="defs4">
    <marker
       style="overflow:visible"
       id="Arrow1Lstart"
       refX="0"
       refY="0"
       orient="auto"
       inkscape:stockid="Arrow1Lstart">
      <path
         inkscape:connector-curvature="0"
         transform="matrix(0.8,0,0,0.8,10,0)"
         style="fill-rule:evenodd;stroke:#000000;stroke-width:1pt;marker-start:none"
         d="M 0,0 5,-5 -12.5,0 5,5 0,0 z"
         id="path3807" />
    </marker>
    <marker
       style="overflow:visible"
       id="Arrow1Lend"
       refX="0"
       refY="0"
       orient="auto"
       inkscape:stockid="Arrow1Lend">
      <path
         inkscape:connector-curvature="0"
         transform="matrix(-0.8,0,0,-0.8,-10,0)"
         style="fill-rule:evenodd;stroke:#000000;stroke-width:1pt;marker-start:none"
         d="M 0,0 5,-5 -12.5,0 5,5 0,0 z"
         id="path3810" />
    </marker>
  </defs>
  <metadata
     id="metadata7">
    <rdf:RDF>
      <cc:Work
         rdf:about="">
        <dc:format>image/svg+xml</dc:format>
        <dc:type
           rdf:resource="http://purl.org/dc/dcmitype/StillImage" />
        <dc:title></dc:title>
        <dc:creator>
          <cc:Agent>
            <dc:title>Guillaume Jacquenot</dc:title>
          </cc:Agent>
        </dc:creator>
      </cc:Work>
    </rdf:RDF>
  </metadata>
  <g
     transform="translate(1.4308858,-371.5155)"
     id="layer1"
     inkscape:groupmode="layer"
     inkscape:label="Calque 1">
    <path
       inkscape:connector-curvature="0"
       id="path3022"
       d="M 264.98475,627.47391 264.44994,382.64542"
       style="fill:none;stroke:#000000;stroke-width:1px;stroke-linecap:butt;stroke-linejoin:miter;stroke-opacity:1;marker-start:url(#Arrow1Lstart)"
       sodipodi:nodetypes="cc" />
    <path
       sodipodi:nodetypes="cc"
       inkscape:connector-curvature="0"
       id="path3024"
       d="m 89.699036,578.54534 377.142854,-150"
       style="fill:none;stroke:#000000;stroke-width:1px;stroke-linecap:butt;stroke-linejoin:miter;stroke-opacity:1;marker-end:url(#Arrow1Lend)" />
    <path
       inkscape:connector-curvature="0"
       id="path3026"
       d="m 140.41332,474.25963 308.57143,86.78571"
       style="fill:none;stroke:#000000;stroke-width:1px;stroke-linecap:butt;stroke-linejoin:miter;stroke-opacity:1;marker-end:url(#Arrow1Lend)" />
    <path
       sodipodi:nodetypes="ccsccsssscccccccssc"
       inkscape:connector-curvature="0"
       id="path3028"
       d="m 60.770456,568.90248 26.78572,-6.78571 c 0,0 254.422854,-93.56329 272.857154,-103.21429 17.92135,-9.38245 29.28571,-16.07143 29.28571,-16.07143 l 21.07143,-12.5 c 0,0 8.00155,-5.39663 10.33482,-9.33035 1.04841,-1.76754 1.29371,-3.22047 1.11607,-5.26786 -0.10492,-1.20929 -0.45626,-2.19003 -1.5312,-2.75384 -1.74206,-0.91373 -4.17649,-0.70729 -6.55747,-0.4401 -6.30878,0.70741 -18.71937,3.50644 -18.71937,3.50644 l -31.07143,7.5 -44.28571,12.85714 -49.64286,17.14286 -41.42857,15.35714 -65,25 -154.2857145,61.42857 c 0,0 10.7193105,6.00292 16.4285705,8.21429 5.30652,2.05538 10.80816,3.75134 16.42857,4.64286 6.00107,0.9519 18.21428,0.71428 18.21428,0.71428 z"
       style="fill:none;stroke:#646464;stroke-width:1px;stroke-linecap:butt;stroke-linejoin:miter;stroke-opacity:1" />
    <path
       sodipodi:nodetypes="csssssssc"
       inkscape:connector-curvature="0"
       id="path3030"
       d="m 10.227796,556.12474 c 0,0 0.13758,7.24699 1.01015,10.73287 0.81999,3.27583 1.84528,6.67513 3.91434,9.34392 3.07406,3.9651 7.31938,7.27335 11.99556,9.09137 2.95498,1.14884 6.30221,1.00928 9.47018,0.88388 2.94548,-0.11659 7.95496,-1.38896 8.71257,-1.51523 0.75761,-0.12627 5.99188,-2.79978 8.33376,-5.05076 2.36497,-2.27317 4.06899,-5.22267 5.42957,-8.20749 0.32614,-0.71547 0.63134,-2.27284 0.63134,-2.27284"
       style="fill:none;stroke:#646464;stroke-width:1px;stroke-linecap:butt;stroke-linejoin:miter;stroke-opacity:1" />
    <path
       sodipodi:nodetypes="ccsscccssssssscccccccccccccccccssccccc"
       inkscape:connector-curvature="0"
       id="path3032"
       d="m 34.850259,586.93439 2.777927,11.49049 c 0,0 1.704631,6.9448 1.704631,7.57615 0,0.63134 0.568209,3.91434 0.568209,4.54568 0,0.63135 0.88388,3.91434 0.88388,3.91434 l 4.9245,-0.88388 2.90419,-6.69226 c 0,0 0.460859,2.37773 1.415649,3.25498 1.143,1.05017 2.612402,3.08888 4.012602,3.75876 1.25353,0.59971 3.690849,-0.44203 4.925809,-1.07909 0.80922,-0.41744 1.31167,-1.38535 1.51523,-2.27285 0.13773,-0.60048 0.007,-1.27193 -0.25254,-1.8309 -0.34466,-0.74368 -1.04202,-1.2719 -1.6415,-1.8309 -0.35098,-0.32728 -4.072201,-1.81454 -4.300131,-2.57714 -0.22793,-0.76261 3.037441,-0.80056 3.037441,-0.80056 l -3.15672,0.59978 -2.77792,-2.0203 -2.68809,4.87056 1.741068,-5.43878 -0.441938,-3.34613 2.39911,-1.01015 2.660627,-0.17857 1.885053,1.82007 0.50508,2.65165 -0.12627,2.0203 c 3.110897,0.0454 8.535426,2.70929 10.628267,1.1977 0.75196,-0.6952 0.777753,-3.08129 0.862223,-4.10188 0.677073,-4.11365 -2.168647,-4.31306 -5.68211,-3.97748 -0.63135,0.12627 -5.42957,2.20971 -5.42957,2.20971 0,0 -1.334362,-1.56952 -1.6415,-2.52538 1.958889,-3.36892 2.046273,-7.39134 0.575326,-8.02892 -0.631341,-0.44194 -4.758076,-0.95234 -6.131166,-0.68365 -0.42527,0.0832 -0.85967,0.29789 -1.13642,0.63135 -0.34001,0.40969 -0.51227,0.98288 -0.50508,1.51523 0.0584,2.99279 1.305231,5.7891 1.420532,6.86588 l 1.041717,5.5874 -5.113899,-16.62016 z"
       style="fill:none;stroke:#646464;stroke-width:1px;stroke-linecap:butt;stroke-linejoin:miter;stroke-opacity:1" />
    <path
       sodipodi:nodetypes="cccccssssssssssssscc"
       inkscape:connector-curvature="0"
       id="path3034"
       d="m 58.449036,603.72391 36.78571,0.35714 15.535714,-1.07142 15,-5.17858 240.40984,-91.96139 c 0,0 18.94157,-9.5152 27.52666,-15.65737 3.20092,-2.29008 6.15781,-4.94727 8.83883,-7.82868 3.68153,-3.9567 6.69062,-8.4938 9.84899,-12.87945 1.84197,-2.55772 4.43268,-4.79935 5.3033,-7.82868 0.65146,-2.26677 1.3986,-5.38691 -0.25254,-7.07107 -1.0624,-1.08365 -3.0287,-0.21043 -4.54568,-0.25253 -0.58903,-0.0163 -1.18052,0.0486 -1.76777,0 -1.0206,-0.0845 -2.58125,0.41523 -3.03046,-0.50508 -1.18798,-2.43386 -2.01344,-5.53726 -1.76776,-7.82868 0.14189,-1.32341 0.67792,-2.59243 1.26269,-3.78808 0.80009,-1.6359 2.0095,-3.03771 3.03045,-4.54568 0.91633,-1.35345 1.85195,-2.69374 2.77792,-4.04061 0.92597,-1.34687 1.88634,-2.67073 2.77792,-4.04061 0.70092,-1.07694 2.02031,-3.283 2.02031,-3.283 l 0.25254,-2.52538"
       style="fill:none;stroke:#646464;stroke-width:1px;stroke-linecap:butt;stroke-linejoin:miter;stroke-opacity:1" />
    <g
       title="X"
       style="fill:#000000"
       id="equation_00"
       transform="translate(389.69903,382.25458)">
      <defs
         id="defs4818">
        <path
           id="equation_00_00"
           d="m 4.00498,-3.84558 1.36488,-2.00249 c 0.21918,-0.3188 0.55791,-0.63761 1.44459,-0.64757 V -6.80448 C 6.4259,-6.79452 5.95766,-6.7746 5.70859,-6.7746 c -0.3985,0 -0.87671,0 -1.27522,-0.02988 v 0.30884 c 0.39851,0.00996 0.61769,0.22914 0.61769,0.45828 0,0.09963 -0.01993,0.11955 -0.08967,0.22914 L 3.82565,-4.12453 2.54047,-6.04732 C 2.52055,-6.07721 2.47073,-6.15691 2.47073,-6.19676 c 0,-0.11955 0.21918,-0.28892 0.64758,-0.29888 v -0.30884 c -0.3487,0.02988 -1.07597,0.02988 -1.45455,0.02988 -0.30884,0 -0.926525,-0.00996 -1.295142,-0.02988 v 0.30884 h 0.18929 c 0.547942,0 0.737232,0.06974 0.926522,0.34869 l 1.83313,2.76962 -1.63387,2.410954 C 1.54421,-0.767123 1.24533,-0.308842 0.239103,-0.308842 V 0 c 0.358655,-0.00996264 0.777087,-0.0298879 1.105857,-0.0298879 0.36861,0 0.91656,0 1.27521,0.0298879 V -0.308842 C 2.16189,-0.318804 1.99253,-0.587796 1.99253,-0.767123 c 0,-0.089664 0.02989,-0.129515 0.09962,-0.239107 l 1.4147,-2.09215 1.5741,2.38107 c 0.01992,0.03985 0.04981,0.079701 0.04981,0.109589 0,0.119552 -0.21918,0.288917 -0.64757,0.298879 V 0 c 0.34869,-0.0298879 1.07596,-0.0298879 1.45454,-0.0298879 0.41843,0 0.87672,0.0099626 1.29515,0.0298879 V -0.308842 H 7.04359 c -0.51806,0 -0.72728,-0.049813 -0.93649,-0.358655 L 4.00498,-3.84558 z"
           inkscape:connector-curvature="0" />
      </defs>
      <g
         id="equation_00_g">
        <use
           id="use4822"
           y="62.764599"
           xlink:href="#equation_00_00"
           x="76.712303"
           width="744.09448"
           height="1052.3622" />
      </g>
    </g>
    <g
       id="equation_01"
       style="fill:#000000"
       title="Y"
       transform="translate(362.70231,514.57947)">
      <defs
         id="defs4867">
        <path
           d="m 6.07721,-5.84807 c 0.36862,-0.60772 0.95641,-0.64757 1.27522,-0.64757 v -0.30884 c -0.30884,0.01992 -0.70735,0.02988 -0.97634,0.02988 -0.30884,0 -0.88668,-0.01992 -1.1457,-0.02988 v 0.30884 c 0.40846,0 0.56787,0.18929 0.56787,0.38854 0,0.10959 -0.05978,0.2391 -0.09963,0.29888 L 4.05479,-3.13823 2.25156,-6.07721 C 2.18182,-6.17684 2.18182,-6.19676 2.18182,-6.24658 c 0,-0.20921 0.24906,-0.24906 0.69738,-0.24906 V -6.80448 C 2.52055,-6.7746 1.79328,-6.7746 1.40473,-6.7746 c -0.418429,0 -0.87671,-0.00996 -1.295141,-0.02988 v 0.30884 h 0.179328 c 0.677459,0 0.757163,0.10959 0.916563,0.36862 l 2.09215,3.40722 v 1.942714 c 0,0.358655 -0.01992,0.468244 -0.78704,0.468244 H 2.27148 V 0 c 0.35866,-0.0298879 1.066,-0.0298879 1.45455,-0.0298879 0.38855,0 1.09589,0 1.45454,0.0298879 V -0.308842 H 4.95143 c -0.76712,0 -0.79701,-0.099626 -0.79701,-0.488169 V -2.7198 l 1.92279,-3.12827 z"
           id="equation_01_00"
           inkscape:connector-curvature="0" />
      </defs>
      <g
         id="equation_01_g">
        <use
           x="76.712303"
           xlink:href="#equation_01_00"
           y="62.764599"
           id="use4871"
           width="744.09448"
           height="1052.3622" />
      </g>
    </g>
    <g
       title="Z"
       style="fill:#000000"
       id="equation_02"
       transform="translate(203.20739,561.62696)">
      <defs
         id="defs4926">
        <path
           id="equation_02_00"
           d="M 5.44956,-6.45579 C 5.5193,-6.56538 5.5193,-6.57534 5.5193,-6.64508 c 0,-0.1594 -0.05977,-0.1594 -0.25903,-0.1594 H 0.797011 L 0.687422,-4.56289 H 0.936488 C 1.00623,-5.68867 1.30511,-6.49564 2.93898,-6.49564 H 4.50311 L 0.627646,-0.368618 C 0.557908,-0.259029 0.557908,-0.249066 0.557908,-0.169365 0.557908,0 0.607721,0 0.816936,0 H 5.40971 L 5.57908,-2.66002 H 5.33001 c -0.0797,1.3848 -0.26899,2.32129 -2.11208,2.32129 H 1.58406 l 3.8655,-6.11706 z"
           inkscape:connector-curvature="0" />
      </defs>
      <g
         id="equation_02_g">
        <use
           id="use4930"
           y="62.764599"
           xlink:href="#equation_02_00"
           x="76.712303"
           width="744.09448"
           height="1052.3622" />
      </g>
    </g>
    <g
       id="g5890"
       transform="matrix(0.23037386,-0.68992927,0.68992927,0.23037386,209.70962,508.23458)">
      <path
         sodipodi:open="true"
         sodipodi:end="1.9186367"
         sodipodi:start="0.11485786"
         d="m 191.36484,242.02656 c -1.44659,12.71233 -12.78426,21.82882 -25.32339,20.36226 -1.76522,-0.20646 -3.50067,-0.62092 -5.17117,-1.23499"
         sodipodi:ry="23.170374"
         sodipodi:rx="22.854702"
         sodipodi:cy="239.37111"
         sodipodi:cx="168.66072"
         id="path5334"
         style="fill:none;stroke:#000000;stroke-width:1;stroke-miterlimit:4;stroke-opacity:1;stroke-dasharray:none;stroke-dashoffset:0"
         sodipodi:type="arc" />
      <path
         sodipodi:nodetypes="cc"
         inkscape:connector-curvature="0"
         id="path5520"
         d="m 163.89726,261.91781 -11.36422,-4.29314"
         style="fill:none;stroke:#000000;stroke-width:1px;stroke-linecap:butt;stroke-linejoin:miter;stroke-opacity:1;marker-end:url(#Arrow1Lend)" />
    </g>
    <g
       transform="matrix(-0.23037386,-0.68992927,-0.68992927,0.23037386,594.71628,604.72008)"
       id="g5894">
      <path
         sodipodi:type="arc"
         style="fill:none;stroke:#000000;stroke-width:1;stroke-miterlimit:4;stroke-opacity:1;stroke-dasharray:none;stroke-dashoffset:0"
         id="path5896"
         sodipodi:cx="168.66072"
         sodipodi:cy="239.37111"
         sodipodi:rx="22.854702"
         sodipodi:ry="23.170374"
         d="m 191.36484,242.02656 c -1.44659,12.71233 -12.78426,21.82882 -25.32339,20.36226 -1.76522,-0.20646 -3.50067,-0.62092 -5.17117,-1.23499"
         sodipodi:start="0.11485786"
         sodipodi:end="1.9186367"
         sodipodi:open="true" />
      <path
         style="fill:none;stroke:#000000;stroke-width:1px;stroke-linecap:butt;stroke-linejoin:miter;stroke-opacity:1;marker-end:url(#Arrow1Lend)"
         d="m 163.89726,261.91781 -11.36422,-4.29314"
         id="path5898"
         inkscape:connector-curvature="0"
         sodipodi:nodetypes="cc" />
    </g>
    <g
       title="+"
       style="fill:#000000"
       id="g5988"
       transform="matrix(1.9688705,0,0,1.9688705,281.61993,334.92837)">
      <defs
         id="defs5990">
        <path
           id="path5992"
           d="M 4.07472,-2.29141 H 6.8543 c 0.13947,0 0.32876,0 0.32876,-0.19925 0,-0.19925 -0.18929,-0.19925 -0.32876,-0.19925 H 4.07472 v -2.78954 c 0,-0.13948 0,-0.32877 -0.19925,-0.32877 -0.19925,0 -0.19926,0.18929 -0.19926,0.32877 v 2.78954 H 0.886675 c -0.139477,0 -0.328767,0 -0.328767,0.19925 0,0.19925 0.18929,0.19925 0.328767,0.19925 H 3.67621 v 2.789542 c 0,0.139477 0,0.328767 0.19926,0.328767 0.19926,0 0.19925,-0.18929 0.19925,-0.328767 V -2.29141 z"
           inkscape:connector-curvature="0" />
      </defs>
      <g
         id="g5994">
        <path
           id="use5996"
           d="m 80.787023,60.473189 h 2.77958 c 0.13947,0 0.32876,0 0.32876,-0.19925 0,-0.19925 -0.18929,-0.19925 -0.32876,-0.19925 h -2.77958 v -2.78954 c 0,-0.13948 0,-0.32877 -0.19925,-0.32877 -0.19925,0 -0.19926,0.18929 -0.19926,0.32877 v 2.78954 h -2.789535 c -0.139477,0 -0.328767,0 -0.328767,0.19925 0,0.19925 0.18929,0.19925 0.328767,0.19925 h 2.789535 v 2.789542 c 0,0.139477 0,0.328767 0.19926,0.328767 0.19926,0 0.19925,-0.18929 0.19925,-0.328767 v -2.789542 z"
           inkscape:connector-curvature="0" />
      </g>
    </g>
    <g
       id="g5998"
       transform="matrix(0.6551913,0.3159096,-0.3159096,0.6551913,232.3543,360.61428)">
      <path
         sodipodi:open="true"
         sodipodi:end="1.9186367"
         sodipodi:start="0.11485786"
         d="m 191.36484,242.02656 c -1.44659,12.71233 -12.78426,21.82882 -25.32339,20.36226 -1.76522,-0.20646 -3.50067,-0.62092 -5.17117,-1.23499"
         sodipodi:ry="23.170374"
         sodipodi:rx="22.854702"
         sodipodi:cy="239.37111"
         sodipodi:cx="168.66072"
         id="path6000"
         style="fill:none;stroke:#000000;stroke-width:1;stroke-miterlimit:4;stroke-opacity:1;stroke-dasharray:none;stroke-dashoffset:0"
         sodipodi:type="arc" />
      <path
         sodipodi:nodetypes="cc"
         inkscape:connector-curvature="0"
         id="path6002"
         d="m 163.89726,261.91781 -11.36422,-4.29314"
         style="fill:none;stroke:#000000;stroke-width:1px;stroke-linecap:butt;stroke-linejoin:miter;stroke-opacity:1;marker-end:url(#Arrow1Lend)" />
    </g>
    <g
       title="+"
       style="fill:#000000"
       id="g6004"
       transform="matrix(1.9688705,0,0,1.9688705,206.97707,436.71409)">
      <defs
         id="defs6006">
        <path
           id="path6008"
           d="M 4.07472,-2.29141 H 6.8543 c 0.13947,0 0.32876,0 0.32876,-0.19925 0,-0.19925 -0.18929,-0.19925 -0.32876,-0.19925 H 4.07472 v -2.78954 c 0,-0.13948 0,-0.32877 -0.19925,-0.32877 -0.19925,0 -0.19926,0.18929 -0.19926,0.32877 v 2.78954 H 0.886675 c -0.139477,0 -0.328767,0 -0.328767,0.19925 0,0.19925 0.18929,0.19925 0.328767,0.19925 H 3.67621 v 2.789542 c 0,0.139477 0,0.328767 0.19926,0.328767 0.19926,0 0.19925,-0.18929 0.19925,-0.328767 V -2.29141 z"
           inkscape:connector-curvature="0" />
      </defs>
      <g
         id="g6010">
        <path
           id="use6012"
           d="m 80.787023,60.473189 h 2.77958 c 0.13947,0 0.32876,0 0.32876,-0.19925 0,-0.19925 -0.18929,-0.19925 -0.32876,-0.19925 h -2.77958 v -2.78954 c 0,-0.13948 0,-0.32877 -0.19925,-0.32877 -0.19925,0 -0.19926,0.18929 -0.19926,0.32877 v 2.78954 h -2.789535 c -0.139477,0 -0.328767,0 -0.328767,0.19925 0,0.19925 0.18929,0.19925 0.328767,0.19925 h 2.789535 v 2.789542 c 0,0.139477 0,0.328767 0.19926,0.328767 0.19926,0 0.19925,-0.18929 0.19925,-0.328767 v -2.789542 z"
           inkscape:connector-curvature="0" />
      </g>
    </g>
    <g
       transform="matrix(1.9688705,0,0,1.9688705,86.619929,471.71409)"
       id="g6014"
       style="fill:#000000"
       title="+">
      <defs
         id="defs6016">
        <path
           inkscape:connector-curvature="0"
           d="M 4.07472,-2.29141 H 6.8543 c 0.13947,0 0.32876,0 0.32876,-0.19925 0,-0.19925 -0.18929,-0.19925 -0.32876,-0.19925 H 4.07472 v -2.78954 c 0,-0.13948 0,-0.32877 -0.19925,-0.32877 -0.19925,0 -0.19926,0.18929 -0.19926,0.32877 v 2.78954 H 0.886675 c -0.139477,0 -0.328767,0 -0.328767,0.19925 0,0.19925 0.18929,0.19925 0.328767,0.19925 H 3.67621 v 2.789542 c 0,0.139477 0,0.328767 0.19926,0.328767 0.19926,0 0.19925,-0.18929 0.19925,-0.328767 V -2.29141 z"
           id="path6018" />
      </defs>
      <g
         id="g6020">
        <path
           id="use6022"
           d="m 80.787023,60.473189 h 2.77958 c 0.13947,0 0.32876,0 0.32876,-0.19925 0,-0.19925 -0.18929,-0.19925 -0.32876,-0.19925 h -2.77958 v -2.78954 c 0,-0.13948 0,-0.32877 -0.19925,-0.32877 -0.19925,0 -0.19926,0.18929 -0.19926,0.32877 v 2.78954 h -2.789535 c -0.139477,0 -0.328767,0 -0.328767,0.19925 0,0.19925 0.18929,0.19925 0.328767,0.19925 h 2.789535 v 2.789542 c 0,0.139477 0,0.328767 0.19926,0.328767 0.19926,0 0.19925,-0.18929 0.19925,-0.328767 v -2.789542 z"
           inkscape:connector-curvature="0" />
      </g>
    </g>
    <g
       title="$\theta$"
       style="fill:#000000"
       id="equation_04"
       transform="matrix(1.5,0,0,1.5,252.37617,438.18161)">
      <defs
         id="defs6085">
        <path
           id="equation_04_00"
           d="m 4.533,-4.98132 c 0,-0.65753 -0.17933,-2.04234 -1.19552,-2.04234 -1.3848,0 -2.919049,2.80946 -2.919049,5.09091 0,0.936486 0.288916,2.042339 1.195519,2.042339 1.40473,0 2.91905,-2.859279 2.91905,-5.090909 z m -3.05853,1.36488 c 0.16937,-0.63761 0.36862,-1.43462 0.76712,-2.14197 0.269,-0.48817 0.63761,-1.04607 1.08593,-1.04607 0.48817,0 0.54795,0.63761 0.54795,1.20548 0,0.48817 -0.0797,0.99626 -0.31881,1.98256 H 1.47447 z M 3.467,-3.29763 c -0.10959,0.45828 -0.31881,1.3051 -0.69739,2.02241 -0.34869,0.677462 -0.72727,1.165631 -1.15566,1.165631 -0.32877,0 -0.53798,-0.288917 -0.53798,-1.215441 0,-0.41843 0.05977,-0.99627 0.3188,-1.9726 H 3.467 z"
           inkscape:connector-curvature="0" />
      </defs>
      <g
         id="equation_04_g">
        <use
           id="use6089"
           y="62.764599"
           xlink:href="#equation_04_00"
           x="76.712303"
           width="485.70502"
           height="267.08832" />
      </g>
    </g>
    <g
       id="equation_05"
       style="fill:#000000"
       title="$\phi$"
       transform="matrix(1.5,0,0,1.5,314.01823,341.29692)">
      <defs
         id="defs6220">
        <path
           d="m 4.35367,-6.67497 c 0,-0.01992 0.02989,-0.12951 0.02989,-0.13948 0,-0.00997 0,-0.09962 -0.11955,-0.09962 -0.09963,0 -0.10959,0.02989 -0.14944,0.19925 l -0.57783,2.30137 c -1.58406,0.04981 -3.048571,1.37484 -3.048571,2.72976 0,0.946455 0.697381,1.7335032 1.912831,1.803242 C 2.3213,0.428394 2.25156,0.747198 2.17186,1.05604 2.0523,1.52428 1.95268,1.90286 1.95268,1.93275 c 0,0.09963 0.06974,0.10959 0.11955,0.10959 0.04981,0 0.06974,-0.00996 0.09963,-0.03985 0.01992,-0.01992 0.0797,-0.25903 0.10958,-0.3985 L 2.66002,0.119552 C 4.26401,0.0697385 5.70859,-1.27522 5.70859,-2.61021 c 0,-0.78705 -0.52802,-1.70361 -1.91282,-1.80324 l 0.5579,-2.26152 z M 2.45081,-0.0996264 C 1.85305,-0.129514 1.13574,-0.478207 1.13574,-1.47447 c 0,-1.19552 0.85679,-2.59029 2.34122,-2.7198 L 2.45081,-0.0996264 z M 3.73599,-4.19427 c 0.75716,0.03985 1.32503,0.49813 1.32503,1.37484 0,1.17559 -0.85679,2.600252 -2.35118,2.7198036 L 3.73599,-4.19427 z"
           id="equation_05_00"
           inkscape:connector-curvature="0" />
      </defs>
      <g
         id="equation_05_g">
        <use
           x="76.712303"
           xlink:href="#equation_05_00"
           y="62.764599"
           id="use6224"
           width="485.70502"
           height="267.08832" />
      </g>
    </g>
    <g
       title="$\psi$"
       style="fill:#000000"
       id="equation_06"
       transform="matrix(1.5,0,0,1.5,158.59366,503.20583)">
      <defs
         id="defs6365">
        <path
           id="equation_06_00"
           d="m 4.80199,-6.65504 c 0.00997,-0.03985 0.02989,-0.09963 0.02989,-0.14944 0,-0.09963 -0.06974,-0.10959 -0.11955,-0.10959 -0.09963,0 -0.10959,0.01992 -0.14944,0.19925 l -1.6538,6.585306 C 2.15193,-0.219178 1.77335,-0.587796 1.77335,-1.24533 c 0,-0.19925 0,-0.45828 0.53798,-1.85305 0.03985,-0.11955 0.10959,-0.28892 0.10959,-0.48817 0,-0.44832 -0.3188,-0.81694 -0.81693,-0.81694 -0.946456,0 -1.315073,1.44459 -1.315073,1.53425 0,0.09963 0.099626,0.09963 0.119551,0.09963 0.099627,0 0.109589,-0.01993 0.159402,-0.17933 0.268992,-0.94645 0.6675,-1.23537 1.00623,-1.23537 0.0797,0 0.24906,0 0.24906,0.31881 0,0.25902 -0.09962,0.50809 -0.22914,0.85678 -0.4782,1.2553 -0.4782,1.51432 -0.4782,1.68369 0,0.94645 0.77708,1.3549179 1.7335,1.4146938 C 2.76961,0.448319 2.76961,0.468244 2.63014,0.996264 2.60025,1.10585 2.401,1.91283 2.401,1.94271 c 0,0.00997 0,0.09963 0.11955,0.09963 0.01992,0 0.06974,0 0.08966,-0.03985 C 2.6401,1.98257 2.69988,1.7335 2.72976,1.59402 L 3.10834,0.109589 c 0.36862,0 1.24533,0 2.18182,-1.066002 C 5.69863,-1.41469 5.90785,-1.85305 6.01743,-2.15193 6.1071,-2.401 6.32628,-3.26775 6.32628,-3.7061 c 0,-0.55791 -0.26899,-0.69739 -0.43836,-0.69739 -0.24907,0 -0.49813,0.25903 -0.49813,0.47821 0,0.12951 0.05977,0.18929 0.14944,0.26899 0.10959,0.10959 0.35865,0.36862 0.35865,0.84683 0,0.6376 -0.51805,1.45454 -0.86675,1.813196 -0.87671,0.886675 -1.51432,0.886675 -1.87297,0.886675 L 4.80199,-6.65504 z"
           inkscape:connector-curvature="0" />
      </defs>
      <g
         id="equation_06_g">
        <use
           id="use6369"
           y="62.764599"
           xlink:href="#equation_06_00"
           x="76.712303"
           width="485.70502"
           height="267.08832" />
      </g>
    </g>
  </g>
</svg>
